<?xml version="1.0" encoding="utf-8"?>
<!-- Generator: Adobe Illustrator 22.1.0, SVG Export Plug-In . SVG Version: 6.00 Build 0)  -->
<svg version="1.1" id="Layer_1" xmlns="http://www.w3.org/2000/svg" xmlns:xlink="http://www.w3.org/1999/xlink" x="0px" y="0px"
	 viewBox="0 0 16 16" style="enable-background:new 0 0 16 16;" xml:space="preserve">
<style type="text/css">
	.st0{fill:none;}
	.st1{opacity:0.6;fill:#1E201D;enable-background:new    ;}
</style>
<rect class="st0" width="16" height="16"/>
<g id="Arrow_Down">
	<g id="Group_3635" transform="translate(312 1424.223) rotate(180)">
		<path id="download-arrow" class="st1" d="M308.9,1418.7c0.2-0.2,0.2-0.5,0-0.7c-0.2-0.2-0.5-0.2-0.7,0l-3.6,3.6v-12
			c0-0.3-0.2-0.5-0.5-0.5c-0.3,0-0.5,0.2-0.5,0.5v12l-3.6-3.6c-0.2-0.2-0.5-0.2-0.7,0c-0.2,0.2-0.2,0.5,0,0.7l4.5,4.5
			c0.2,0.2,0.5,0.2,0.7,0L308.9,1418.7z"/>
	</g>
</g>
</svg>
