<svg xmlns="http://www.w3.org/2000/svg" viewBox="0 0 16.133 22">
  <defs>
    <style>
      .cls-1 {
        fill: #707070;
        fill-rule: evenodd;
      }
    </style>
  </defs>
  <g id="waste-bin" transform="translate(-35.797)">
    <path id="Path_1060" data-name="Path 1060" class="cls-1" d="M38.036,20.507A2,2,0,0,0,40.05,22h7.627a2,2,0,0,0,2.014-1.493L51.2,5.867H36.53ZM46.8,8.067a.733.733,0,0,1,1.467,0l-.733,11a.733.733,0,1,1-1.467,0Zm-3.667,0a.733.733,0,0,1,1.467,0v11a.733.733,0,0,1-1.467,0ZM40.2,7.333a.733.733,0,0,1,.733.733l.733,11a.733.733,0,0,1-1.467,0l-.733-11A.733.733,0,0,1,40.2,7.333Zm10.56-4.4H47.53V1.467C47.53.354,47.171,0,46.064,0h-4.4A1.283,1.283,0,0,0,40.2,1.467V2.935H36.97a1.138,1.138,0,0,0-1.173,1.1,1.138,1.138,0,0,0,1.173,1.1H50.757a1.138,1.138,0,0,0,1.173-1.1A1.138,1.138,0,0,0,50.757,2.934Zm-4.693,0h-4.4V1.467h4.4V2.934Z" transform="translate(0 0)"/>
  </g>
</svg>
