<svg xmlns="http://www.w3.org/2000/svg" viewBox="0 0 20 20.318">
  <defs>
    <style>
      .cls-1 {
        fill: #8e8e8e;
      }
    </style>
  </defs>
  <g id="Group_3680" data-name="Group 3680" transform="translate(-6263.234 -5292)">
    <path id="Path_2254" data-name="Path 2254" class="cls-1" d="M40.143,55.682l-.312,1.852a.675.675,0,0,0,.979.711l1.665-.869,1.665.869a.675.675,0,0,0,.979-.711l-.311-1.852,1.34-1.315a.675.675,0,0,0-.374-1.151l-1.857-.275L43.08,51.26a.676.676,0,0,0-1.21,0l-.836,1.681-1.857.275a.676.676,0,0,0-.374,1.151Z" transform="translate(6230.759 5249.398)"/>
    <path id="Path_2255" data-name="Path 2255" class="cls-1" d="M18.959,2.16H16.832V.98a.98.98,0,0,0-.98-.98H15.7a.98.98,0,0,0-.98.98V2.16h-7.5V.98A.98.98,0,0,0,6.232,0H6.077A.98.98,0,0,0,5.1.98V2.16h-2.1A2.02,2.02,0,0,0,.977,4.178V18.3a2.02,2.02,0,0,0,2.018,2.018H18.959A2.02,2.02,0,0,0,20.977,18.3V4.178A2.02,2.02,0,0,0,18.959,2.16ZM18.7,18.037H3.258V7.043H18.7Z" transform="translate(6262.257 5292)"/>
  </g>
</svg>
