<svg xmlns="http://www.w3.org/2000/svg" xmlns:xlink="http://www.w3.org/1999/xlink" viewBox="0 0 85 85">
  <defs>
    <style>
      .cls-1 {
        clip-path: url(#clip-Clients);
      }

      .cls-2 {
        fill: #fff;
      }
    </style>
    <clipPath id="clip-Clients">
      <rect width="85" height="85"/>
    </clipPath>
  </defs>
  <g id="Clients" class="cls-1">
    <g id="clients-2" data-name="clients" transform="translate(3 0.5)">
      <g id="Group_1" data-name="Group 1" transform="translate(0)">
        <path id="Path_1" data-name="Path 1" class="cls-2" d="M94.9,21.05H68.6V1.718A1.711,1.711,0,0,0,66.877,0H19.518A1.711,1.711,0,0,0,17.8,1.718V83.282A1.711,1.711,0,0,0,19.518,85H94.9a1.711,1.711,0,0,0,1.718-1.718V22.768A1.711,1.711,0,0,0,94.9,21.05ZM65.159,22.768V81.581H21.236V3.436H65.159V22.768Zm28.027,58.8H68.6V24.469H93.186Z" transform="translate(-17.8)"/>
        <path id="Path_2" data-name="Path 2" class="cls-2" d="M340.918,174.936h11.193a1.718,1.718,0,0,0,0-3.436H340.918a1.718,1.718,0,1,0,0,3.436Z" transform="translate(-283.424 -141.738)"/>
        <path id="Path_3" data-name="Path 3" class="cls-2" d="M340.918,224.636h11.193a1.718,1.718,0,0,0,0-3.436H340.918a1.718,1.718,0,1,0,0,3.436Z" transform="translate(-283.424 -182.813)"/>
        <path id="Path_4" data-name="Path 4" class="cls-2" d="M340.918,274.236h11.193a1.718,1.718,0,0,0,0-3.436H340.918a1.718,1.718,0,1,0,0,3.436Z" transform="translate(-283.424 -223.805)"/>
        <path id="Path_5" data-name="Path 5" class="cls-2" d="M340.918,323.936h11.193a1.718,1.718,0,0,0,0-3.436H340.918a1.718,1.718,0,1,0,0,3.436Z" transform="translate(-283.424 -264.88)"/>
        <path id="Path_6" data-name="Path 6" class="cls-2" d="M340.918,373.536h11.193a1.718,1.718,0,0,0,0-3.436H340.918a1.718,1.718,0,1,0,0,3.436Z" transform="translate(-283.424 -305.873)"/>
        <path id="Path_7" data-name="Path 7" class="cls-2" d="M340.918,423.236h11.193a1.718,1.718,0,0,0,0-3.436H340.918a1.718,1.718,0,1,0,0,3.436Z" transform="translate(-283.424 -346.948)"/>
        <path id="Path_8" data-name="Path 8" class="cls-2" d="M75.318,62.537a1.711,1.711,0,0,0,1.718-1.718v-3.8a1.718,1.718,0,1,0-3.436,0v3.8A1.711,1.711,0,0,0,75.318,62.537Z" transform="translate(-63.916 -45.703)"/>
        <path id="Path_9" data-name="Path 9" class="cls-2" d="M129.118,62.537a1.711,1.711,0,0,0,1.718-1.718v-3.8a1.718,1.718,0,1,0-3.436,0v3.8A1.711,1.711,0,0,0,129.118,62.537Z" transform="translate(-108.38 -45.703)"/>
        <path id="Path_10" data-name="Path 10" class="cls-2" d="M182.818,62.537a1.711,1.711,0,0,0,1.718-1.718v-3.8a1.718,1.718,0,0,0-3.436,0v3.8A1.722,1.722,0,0,0,182.818,62.537Z" transform="translate(-152.761 -45.703)"/>
        <path id="Path_11" data-name="Path 11" class="cls-2" d="M236.618,62.537a1.711,1.711,0,0,0,1.718-1.718v-3.8a1.718,1.718,0,1,0-3.436,0v3.8A1.711,1.711,0,0,0,236.618,62.537Z" transform="translate(-197.224 -45.703)"/>
        <path id="Path_12" data-name="Path 12" class="cls-2" d="M75.318,130.254a1.711,1.711,0,0,0,1.718-1.718v-3.818a1.718,1.718,0,0,0-3.436,0v3.818A1.722,1.722,0,0,0,75.318,130.254Z" transform="translate(-63.916 -101.655)"/>
        <path id="Path_13" data-name="Path 13" class="cls-2" d="M129.118,130.254a1.711,1.711,0,0,0,1.718-1.718v-3.818a1.718,1.718,0,0,0-3.436,0v3.818A1.722,1.722,0,0,0,129.118,130.254Z" transform="translate(-108.38 -101.655)"/>
        <path id="Path_14" data-name="Path 14" class="cls-2" d="M182.818,130.254a1.711,1.711,0,0,0,1.718-1.718v-3.818a1.718,1.718,0,0,0-3.436,0v3.818A1.733,1.733,0,0,0,182.818,130.254Z" transform="translate(-152.761 -101.655)"/>
        <path id="Path_15" data-name="Path 15" class="cls-2" d="M236.618,130.254a1.711,1.711,0,0,0,1.718-1.718v-3.818a1.718,1.718,0,1,0-3.436,0v3.818A1.722,1.722,0,0,0,236.618,130.254Z" transform="translate(-197.224 -101.655)"/>
        <path id="Path_16" data-name="Path 16" class="cls-2" d="M75.318,198.037a1.711,1.711,0,0,0,1.718-1.718v-3.8a1.718,1.718,0,0,0-3.436,0v3.8A1.711,1.711,0,0,0,75.318,198.037Z" transform="translate(-63.916 -157.689)"/>
        <path id="Path_17" data-name="Path 17" class="cls-2" d="M129.118,198.037a1.711,1.711,0,0,0,1.718-1.718v-3.8a1.718,1.718,0,0,0-3.436,0v3.8A1.711,1.711,0,0,0,129.118,198.037Z" transform="translate(-108.38 -157.689)"/>
        <path id="Path_18" data-name="Path 18" class="cls-2" d="M182.818,198.037a1.711,1.711,0,0,0,1.718-1.718v-3.8a1.718,1.718,0,0,0-3.436,0v3.8A1.722,1.722,0,0,0,182.818,198.037Z" transform="translate(-152.761 -157.689)"/>
        <path id="Path_19" data-name="Path 19" class="cls-2" d="M236.618,198.037a1.711,1.711,0,0,0,1.718-1.718v-3.8a1.718,1.718,0,1,0-3.436,0v3.8A1.711,1.711,0,0,0,236.618,198.037Z" transform="translate(-197.224 -157.689)"/>
        <path id="Path_20" data-name="Path 20" class="cls-2" d="M75.318,265.837a1.711,1.711,0,0,0,1.718-1.718v-3.8a1.718,1.718,0,0,0-3.436,0v3.8A1.722,1.722,0,0,0,75.318,265.837Z" transform="translate(-63.916 -213.723)"/>
        <path id="Path_21" data-name="Path 21" class="cls-2" d="M129.118,265.837a1.711,1.711,0,0,0,1.718-1.718v-3.8a1.718,1.718,0,0,0-3.436,0v3.8A1.722,1.722,0,0,0,129.118,265.837Z" transform="translate(-108.38 -213.723)"/>
        <path id="Path_22" data-name="Path 22" class="cls-2" d="M182.818,265.837a1.711,1.711,0,0,0,1.718-1.718v-3.8a1.718,1.718,0,0,0-3.436,0v3.8A1.733,1.733,0,0,0,182.818,265.837Z" transform="translate(-152.761 -213.723)"/>
        <path id="Path_23" data-name="Path 23" class="cls-2" d="M236.618,265.837a1.711,1.711,0,0,0,1.718-1.718v-3.8a1.718,1.718,0,0,0-3.436,0v3.8A1.722,1.722,0,0,0,236.618,265.837Z" transform="translate(-197.224 -213.723)"/>
        <path id="Path_24" data-name="Path 24" class="cls-2" d="M75.318,333.537a1.711,1.711,0,0,0,1.718-1.718v-3.8a1.718,1.718,0,1,0-3.436,0v3.8A1.711,1.711,0,0,0,75.318,333.537Z" transform="translate(-63.916 -269.674)"/>
        <path id="Path_25" data-name="Path 25" class="cls-2" d="M129.118,333.537a1.711,1.711,0,0,0,1.718-1.718v-3.8a1.718,1.718,0,1,0-3.436,0v3.8A1.711,1.711,0,0,0,129.118,333.537Z" transform="translate(-108.38 -269.674)"/>
        <path id="Path_26" data-name="Path 26" class="cls-2" d="M182.818,333.537a1.711,1.711,0,0,0,1.718-1.718v-3.8a1.718,1.718,0,1,0-3.436,0v3.8A1.722,1.722,0,0,0,182.818,333.537Z" transform="translate(-152.761 -269.674)"/>
        <path id="Path_27" data-name="Path 27" class="cls-2" d="M236.618,333.537a1.711,1.711,0,0,0,1.718-1.718v-3.8a1.718,1.718,0,1,0-3.436,0v3.8A1.711,1.711,0,0,0,236.618,333.537Z" transform="translate(-197.224 -269.674)"/>
        <path id="Path_28" data-name="Path 28" class="cls-2" d="M75.318,401.254a1.711,1.711,0,0,0,1.718-1.718v-3.818a1.718,1.718,0,1,0-3.436,0v3.818A1.722,1.722,0,0,0,75.318,401.254Z" transform="translate(-63.916 -325.625)"/>
        <path id="Path_29" data-name="Path 29" class="cls-2" d="M129.118,401.254a1.711,1.711,0,0,0,1.718-1.718v-3.818a1.718,1.718,0,1,0-3.436,0v3.818A1.722,1.722,0,0,0,129.118,401.254Z" transform="translate(-108.38 -325.625)"/>
        <path id="Path_30" data-name="Path 30" class="cls-2" d="M182.818,401.254a1.711,1.711,0,0,0,1.718-1.718v-3.818a1.718,1.718,0,1,0-3.436,0v3.818A1.733,1.733,0,0,0,182.818,401.254Z" transform="translate(-152.761 -325.625)"/>
        <path id="Path_31" data-name="Path 31" class="cls-2" d="M236.618,401.254a1.711,1.711,0,0,0,1.718-1.718v-3.818a1.718,1.718,0,1,0-3.436,0v3.818A1.722,1.722,0,0,0,236.618,401.254Z" transform="translate(-197.224 -325.625)"/>
      </g>
    </g>
  </g>
</svg>
