<svg xmlns="http://www.w3.org/2000/svg" viewBox="0 0 42.353 36">
  <defs>
    <style>
      .cls-1 {
        opacity: 0.7;
      }

      .cls-2 {
        fill: rgba(112,112,112,0.52);
      }
    </style>
  </defs>
  <g id="cloud-computing" class="cls-1" transform="translate(0 -4.5)">
    <path id="Path_610" data-name="Path 610" class="cls-2" d="M35.982,15.931A12.086,12.086,0,0,0,24.059,4.5a12.443,12.443,0,0,0-9.844,4.947c-.052-.028-.108-.046-.161-.072-.14-.068-.282-.133-.427-.19-.081-.032-.162-.061-.244-.09-.143-.05-.287-.094-.434-.134-.082-.022-.163-.044-.246-.064-.158-.036-.319-.064-.482-.088-.072-.011-.143-.025-.215-.033a6.549,6.549,0,0,0-.711-.042,6.36,6.36,0,0,0-6.353,6.353c0,.091,0,.18.011.269A9.761,9.761,0,0,0,0,23.668a9.078,9.078,0,0,0,9.067,9.068h3.639a.706.706,0,1,0,0-1.412H9.067a7.664,7.664,0,0,1-7.655-7.656,8.392,8.392,0,0,1,4.54-7.237l.4-.191v-.445c0-.087.006-.176.011-.265l.006-.124-.008-.133c0-.061-.008-.123-.008-.185a4.908,4.908,0,0,1,5.588-4.894c.055.007.109.016.164.025a4.847,4.847,0,0,1,.559.125c.024.007.049.011.072.018a4.843,4.843,0,0,1,.592.227c.049.022.1.046.145.07a4.83,4.83,0,0,1,.5.282,4.938,4.938,0,0,1,2.264,4.146.706.706,0,1,0,1.412,0,6.338,6.338,0,0,0-2.259-4.85,11.18,11.18,0,0,1,8.671-4.326,10.656,10.656,0,0,1,10.481,9.8,13.441,13.441,0,0,0-2.882.088.706.706,0,0,0,.105,1.4.694.694,0,0,0,.107-.008,13.015,13.015,0,0,1,3.306,0,7.235,7.235,0,0,1,5.764,7.048,7.087,7.087,0,0,1-7.079,7.079h-2.8a.706.706,0,1,0,0,1.412h2.8a8.5,8.5,0,0,0,8.49-8.49A8.687,8.687,0,0,0,35.982,15.931Z"/>
    <path id="Path_611" data-name="Path 611" class="cls-2" d="M28.853,30.708a.7.7,0,0,0-.23-.153.708.708,0,0,0-.769.153l-5.646,5.646a.706.706,0,1,0,1,1l4.442-4.442V47.442a.706.706,0,1,0,1.412,0V32.91L33.5,37.352a.706.706,0,0,0,1-1Z" transform="translate(-6.471 -7.647)"/>
  </g>
</svg>
