<svg xmlns="http://www.w3.org/2000/svg" viewBox="0 0 15 15.028">
  <defs>
    <style>
      .cls-1 {
        fill: #666;
      }
    </style>
  </defs>
  <g id="dropper_1_" data-name="dropper (1)" transform="translate(-0.476)">
    <g id="Group_3112" data-name="Group 3112" transform="translate(0.476)">
      <path id="Path_2307" data-name="Path 2307" class="cls-1" d="M15.476,1.808A1.8,1.8,0,0,0,12.392.532L9.533,3.414A.893.893,0,0,0,9.072,3.3a.957.957,0,0,0-.673.272l-.118.118a.948.948,0,0,0-.047,1.288L1.086,12.122a1.218,1.218,0,0,0-.2,1.465L.578,14a.57.57,0,0,0,.047.709l.165.165a.554.554,0,0,0,.39.154.5.5,0,0,0,.319-.106l.414-.319a1.256,1.256,0,0,0,.591.154,1.215,1.215,0,0,0,.862-.354L10.5,7.266a.938.938,0,0,0,.626.236.957.957,0,0,0,.673-.272l.118-.118a.933.933,0,0,0,.154-1.134l2.871-2.895A1.787,1.787,0,0,0,15.476,1.808ZM3.035,14.059a.752.752,0,0,1-.532.224.767.767,0,0,1-.366-.095.53.53,0,0,0-.224-.059.481.481,0,0,0-.284.095l-.414.319a.119.119,0,0,1-.035.012.122.122,0,0,1-.047-.012l-.177-.177a.092.092,0,0,1-.012-.095l.307-.414a.465.465,0,0,0,.035-.52.75.75,0,0,1,.118-.9L8.564,5.3l1.607,1.619Z" transform="translate(-0.476)"/>
    </g>
  </g>
</svg>
