<svg xmlns="http://www.w3.org/2000/svg" xmlns:xlink="http://www.w3.org/1999/xlink" viewBox="0 0 85 85">
  <defs>
    <style>
      .cls-1 {
        clip-path: url(#clip-Damage_Items);
      }

      .cls-2 {
        fill: #fff;
      }
    </style>
    <clipPath id="clip-Damage_Items">
      <rect width="85" height="85"/>
    </clipPath>
  </defs>
  <g id="Damage_Items" data-name="Damage Items" class="cls-1">
    <g id="tv" transform="matrix(-0.985, 0.174, -0.174, -0.985, 83.312, 65.806)">
      <g id="Group_1965" data-name="Group 1965" transform="translate(0 0)">
        <path id="Path_609" data-name="Path 609" class="cls-2" d="M66.8,0H6.073A6.08,6.08,0,0,0,0,6.073V45.546a6.08,6.08,0,0,0,6.073,6.073H34.919v3.063a74,74,0,0,0-18.684,3.084,1.518,1.518,0,0,0,.466,2.962,1.5,1.5,0,0,0,.466-.074,71.369,71.369,0,0,1,19.271-2.962,71.557,71.557,0,0,1,19.271,2.962,1.517,1.517,0,1,0,.931-2.888,74,74,0,0,0-18.684-3.084V51.619H66.8a6.08,6.08,0,0,0,6.073-6.073V6.073A6.08,6.08,0,0,0,66.8,0Zm3.036,45.546A3.039,3.039,0,0,1,66.8,48.582H6.073a3.039,3.039,0,0,1-3.036-3.036V20.83L9.86,18.556l5.483,10.968a1.516,1.516,0,0,0,1.838.761l8.22-2.738,5.409,5.409a1.518,1.518,0,1,0,2.147-2.147l-6.073-6.073a1.512,1.512,0,0,0-1.554-.366l-7.861,2.62L11.986,16.021a1.515,1.515,0,0,0-1.838-.761L3.037,17.63V6.073A3.039,3.039,0,0,1,6.073,3.036H66.8a3.039,3.039,0,0,1,3.036,3.036V45.546Z" transform="translate(0 0)"/>
      </g>
    </g>
  </g>
</svg>
