<svg xmlns="http://www.w3.org/2000/svg" xmlns:xlink="http://www.w3.org/1999/xlink" viewBox="0 0 150 150"><defs><style>.a{clip-path:url(#b);}.b{fill:#fff;}</style><clipPath id="b"><rect width="150" height="150"/></clipPath></defs><g id="a" class="a"><g transform="matrix(-0.985, 0.174, -0.174, -0.985, 157.069, 160.029)"><g transform="translate(0 42.663)"><path class="b" d="M120.646,42.663H10.968A10.981,10.981,0,0,0,0,53.631v71.291A10.981,10.981,0,0,0,10.968,135.89h52.1v5.531a133.65,133.65,0,0,0-33.744,5.571,2.741,2.741,0,0,0,.841,5.35,2.706,2.706,0,0,0,.841-.134,128.9,128.9,0,0,1,34.8-5.35,129.234,129.234,0,0,1,34.8,5.35,2.74,2.74,0,1,0,1.682-5.216,133.646,133.646,0,0,0-33.744-5.571V135.89h52.1a10.98,10.98,0,0,0,10.968-10.968V53.631A10.981,10.981,0,0,0,120.646,42.663Zm5.484,82.259a5.489,5.489,0,0,1-5.484,5.484H10.968a5.489,5.489,0,0,1-5.484-5.484V80.284l12.323-4.107,9.9,19.81a2.737,2.737,0,0,0,3.32,1.374l14.845-4.946,9.768,9.768a2.742,2.742,0,1,0,3.877-3.877L48.552,87.338a2.73,2.73,0,0,0-2.806-.661l-14.2,4.731-9.9-19.81a2.735,2.735,0,0,0-3.32-1.374L5.484,74.5V53.631a5.489,5.489,0,0,1,5.484-5.484H120.646a5.489,5.489,0,0,1,5.484,5.484v71.291Z" transform="translate(0 -42.663)"/></g></g></g></svg>