<svg xmlns="http://www.w3.org/2000/svg" xmlns:xlink="http://www.w3.org/1999/xlink" viewBox="0 0 140 140"><defs><style>.a{clip-path:url(#b);}.b{opacity:0.7;}.c{fill:#fb8c8b;opacity:0.2;}.d{fill:#d1d1d1;}.e{fill:#e5e5e5;}.f{fill:#fff;}.g{fill:#a24a3e;}.h{fill:#f7f7f7;}.i{fill:#f2f2f2;}.j{fill:#def3f9;}.k{fill:#bbdff5;}.l{fill:#f9f9f9;}.m{fill:#f9ab98;}.n{fill:#f4cac1;}.o{fill:#f9e280;}.p{fill:#fff0a9;}</style><clipPath id="b"><rect width="140" height="140"/></clipPath></defs><g id="a" class="a"><g transform="translate(-777.601 -602.648)"><g class="b" transform="translate(783 600.454)"><path class="c" d="M31.358,106.23c-2.572-.553-33.522-5.5-31.239-42.056S5.252,16.637,17.283,12.61,58.546-10.443,81.491,7.658s47.705,34.316,37.873,63.21-11.43,38.522-37.056,37.044S43.594,108.838,31.358,106.23Z" transform="translate(3.602 2.219)"/><g transform="translate(18.189 94.343)"><g transform="translate(0.041 6.752)"><path class="d" d="M307.59,656.777l-8.791-5.062c-.4-.222-1.332.311-.821.6l8.791,5.061c.377.222,1.332-.311.821-.6Z" transform="translate(-297.828 -651.662)"/></g><g transform="translate(0.068 3.345)"><path class="d" d="M307.685,641.441c-2.93-1.687-5.838-3.4-8.769-5.084-.311-.178-1.31.266-.844.533,2.93,1.687,5.838,3.4,8.769,5.084.311.2,1.287-.266.844-.533Z" transform="translate(-297.951 -636.316)"/></g><g transform="translate(0.118)"><path class="d" d="M307.858,626.388q-4.362-2.564-8.724-5.106c-.289-.155-1.265.266-.866.51q4.362,2.564,8.724,5.106c.289.156,1.288-.266.866-.511Z" transform="translate(-298.174 -621.249)"/></g><g transform="translate(0 10.065)"><g transform="translate(6.871 3.903)"><path class="d" d="M331.5,685.4c-.644-.377-1.288-.755-1.954-1.132a.706.706,0,0,0-.777.044c-.155.133-.289.444-.044.6.644.377,1.288.755,1.954,1.132a.707.707,0,0,0,.777-.044c.178-.155.289-.466.044-.6Z" transform="translate(-328.594 -684.172)"/></g><g transform="translate(3.494 2.054)"><path class="d" d="M316.293,677.01c-.644-.377-1.31-.755-1.954-1.132-.266-.155-1.265.244-.866.488.644.377,1.31.755,1.954,1.132.266.155,1.265-.244.866-.488Z" transform="translate(-313.38 -675.843)"/></g><path class="d" d="M300.585,667.79c-.666-.377-1.31-.755-1.976-1.154-.333-.2-1.31.289-.844.555.666.377,1.31.755,1.976,1.154.333.177,1.31-.289.844-.555Z" transform="translate(-297.642 -666.589)"/></g></g></g><g transform="translate(790.625 625.869)"><path class="e" d="M123.55,454.188a3.324,3.324,0,0,1,1.707,2.838c-.238,5.12-16.867,6.727-20.26,7.3-17.085,2.9-35.44,5.3-52.8,4.088-10.477-.734-20.458-5.635-28.416-12.323-2.024-1.707-8.394-6.231-8.037-9.386.4-3.552,6.211-4.127,8.91-4.683,10-2.084,20.3-2.461,30.459-2.778a227.988,227.988,0,0,1,31.015.972c12.918,1.369,26.709,5.735,37.266,13.87A.7.7,0,0,0,123.55,454.188Z" transform="translate(-12.762 -351.999)"/><g transform="translate(-0.096 24.181)"><path class="e" d="M52,194.722l64.054-9.922v50.719L52,245.441Z" transform="translate(-41.74 -172.334)"/><path class="f" d="M12.449,145.666,76.5,135.744,65.987,123.6l-62.7,9.922a.626.626,0,0,0-.476,1.032Z" transform="translate(-2.19 -123.278)"/><path class="g" d="M10.516,144.743q10.864-1.7,21.728-3.373,17.2-2.649,34.408-5.318c2.639-.417,5.3-.814,7.937-1.23.218-.04.734-.278.476-.575-2.222-2.56-4.445-5.139-6.667-7.7-1.151-1.329-2.282-2.659-3.433-3.969-.337-.4-.516-.635-1.032-.6-1.806.159-3.631.575-5.437.853L47.9,124.5q-13.573,2.143-27.165,4.306L2.341,131.726a9.1,9.1,0,0,0-1.25.2c-1.746.575-.159,2.064.456,2.758,2.639,3.036,5.278,6.092,7.9,9.128.218.258.437.516.675.774.3.337,1.21-.06.873-.437-1.687-1.945-3.373-3.909-5.06-5.854-1.111-1.29-2.222-2.56-3.334-3.85-.179-.218-1.587-1.449-1.21-1.865.1-.1.675-.1.814-.119.675-.1,1.33-.218,2-.317,2.282-.357,4.544-.714,6.826-1.072q10.3-1.637,20.617-3.254,10.567-1.667,21.113-3.334l7.5-1.191c.794-.119,1.587-.258,2.381-.377a5.3,5.3,0,0,0,1.25-.2.437.437,0,0,1,.159-.02c-.139-.06-.258-.1-.4-.159,3.512,4.048,7,8.1,10.517,12.144.159-.2.317-.4.476-.575q-10.864,1.7-21.728,3.373-17.2,2.649-34.408,5.318c-2.639.417-5.3.814-7.937,1.23C10.06,144.088,9.862,144.842,10.516,144.743Z" transform="translate(-0.296 -121.978)"/><g transform="translate(73.719 12.466)"><path class="h" d="M374.3,184.8l28.1,17.006v50.719l-28.1-16.748Z" transform="translate(-373.804 -184.8)"/><g transform="translate(0 2.104)"><path class="g" d="M372.772,244.239V195.662c0-.437-.972-.258-.972.1v48.576c.02.437.972.258.972-.1Z" transform="translate(-371.8 -195.405)"/></g></g><g transform="translate(73.878 2.572)"><path class="i" d="M374.3,146.2l28.1,17.006,8.989-8.751a1.642,1.642,0,0,0-.3-2.58l-25.2-15a1.647,1.647,0,0,0-1.964.218Z" transform="translate(-373.963 -136.307)"/><path class="f" d="M374.3,161.441l28.1,17.006,6.39-6.29a2.694,2.694,0,0,0-.516-4.246l-17.978-10.715a10.9,10.9,0,0,0-13.1,1.468Z" transform="translate(-373.963 -151.547)"/><path class="g" d="M373.1,145.17l24.586,14.882c1.171.714,2.341,1.409,3.512,2.123.02.02.139.079.179.04,2.937-2.857,5.953-5.675,8.85-8.612,1.31-1.329.3-2.838-1.032-3.631-1.389-.833-2.778-1.647-4.147-2.48-4.683-2.8-9.366-5.576-14.069-8.374-1.766-1.052-3.512-2.1-5.278-3.135-1.091-.655-2.262-1.607-3.473-.615-1.707,1.409-3.254,3.1-4.862,4.623-1.587,1.488-3.155,3-4.743,4.485-.139.139.516.873.655.734l6.945-6.588c.873-.833,1.726-1.746,2.659-2.52,1.032-.853,1.865-.238,2.758.3q9.614,5.715,19.228,11.45c1.23.734,2.48,1.468,3.711,2.2.695.417,1.667.714,1.568,1.687-.119,1.111-1.806,2.262-2.52,2.977l-4.485,4.366c-.575.575-1.171,1.131-1.746,1.707-.119.119-.873.695-.516.695-.377,0-1.151-.695-1.468-.893l-8.572-5.179q-8.84-5.358-17.7-10.715c-.119-.079-.238-.139-.357-.218C372.384,144.277,372.94,145.071,373.1,145.17Z" transform="translate(-372.603 -134.939)"/></g><g transform="translate(73.738 12.21)"><path class="g" d="M372,184l24.586,14.882c1.171.714,2.342,1.409,3.512,2.123.258.159,1.151-.218.774-.456L376.282,185.67c-1.171-.714-2.341-1.409-3.512-2.123-.278-.159-1.171.218-.774.456Z" transform="translate(-371.896 -183.509)"/></g></g><g transform="translate(1.795 -0.029)"><path class="f" d="M28.077,2.794a1.884,1.884,0,0,0-.2-.337c-1.33-1.786-5.834-.675-10.041,2.48-4.227,3.155-6.469,7.124-5.12,8.91l.06.2L46.253,96.3l10.815-3.889L28.117,2.754Z" transform="translate(-11.831 -1.28)"/><path class="g" d="M26.55,1.346c-1.25-2.441-5.2-1.052-7.025-.238a19.237,19.237,0,0,0-8.791,7.481A4.962,4.962,0,0,0,9.9,11.982a8.026,8.026,0,0,0,.4.952c.159.4.317.794.476,1.171,2.2,5.417,4.425,10.854,6.628,16.272Q22.76,43.562,28.138,56.728q5.149,12.62,10.279,25.241l3.572,8.751a34.921,34.921,0,0,0,1.707,4.187.829.829,0,0,1,.079.2c.1.238.5.139.675.079,3.611-1.29,7.223-2.6,10.815-3.889.1-.04.337-.179.3-.317-.952-2.957-1.925-5.933-2.877-8.89q-3.453-10.715-6.925-21.451Q41.591,47.69,37.4,34.762q-3.631-11.221-7.243-22.443C29.368,9.878,28.594,7.438,27.8,5c-.258-.774-.5-1.548-.754-2.322a6.643,6.643,0,0,0-.4-1.21.374.374,0,0,1-.04-.159c-.079-.278-.615-.119-.774-.02-.02,0-.02.02-.04.02-.536.357.3.5.6.278.02,0,.02-.02.04-.02-.258,0-.516-.02-.774-.02.933,3,1.885,5.973,2.838,8.929q3.453,10.715,6.925,21.451Q39.587,44.872,43.774,57.8q3.631,11.221,7.243,22.443c.794,2.441,1.568,4.881,2.361,7.322.258.774.5,1.548.754,2.322a4.132,4.132,0,0,0,.4,1.21.374.374,0,0,1,.04.159c.1-.1.2-.218.3-.317-3.611,1.29-7.223,2.6-10.815,3.889.218.02.437.04.675.079-1.369-3.334-2.719-6.687-4.088-10.021Q35.906,73.248,31.174,61.63q-5.328-13.1-10.656-26.173-3.869-9.525-7.759-19.069c-.5-1.21-.992-2.441-1.488-3.651-.1-.238-.218-.456-.317-.695-.5-1.191.2-2.619.794-3.631A17.728,17.728,0,0,1,21.708.87c1.25-.337,3.135-.635,3.869.754C25.756,1.941,26.689,1.624,26.55,1.346Z" transform="translate(-9.828 0.029)"/><path class="i" d="M31.2,48.22A12.871,12.871,0,0,0,32.687,53.4c2.9,7.58,6.191,15.061,9.247,22.582Q46.7,87.8,51.478,99.594q4.137,10.209,8.255,20.419c.913,2.262,1.826,4.5,2.738,6.767.278.695.575,1.409.853,2.1a5.452,5.452,0,0,0,.456,1.111c.02.04.04.1.06.139.2.5,1.607-.4,1.369-.992-1.091-2.719-2.2-5.437-3.294-8.156Q57.957,111.193,54,101.38q-4.762-11.817-9.545-23.614c-2.8-6.806-5.536-13.632-8.294-20.439-.913-2.242-1.826-4.5-2.738-6.747a11.893,11.893,0,0,1-.833-2.54c-.04-.238-.635-2.342-.635-2.342A4.623,4.623,0,0,0,31.2,48.22Z" transform="translate(-26.958 -36.626)"/><g transform="translate(4.911 10.582)"><path class="g" d="M34.581,53.654c1.091,2.719,2.2,5.437,3.294,8.175q3.989,9.852,7.957,19.7,4.792,11.876,9.6,23.752,4.137,10.269,8.294,20.538l2.738,6.786c.278.714.575,1.429.853,2.123a5.452,5.452,0,0,0,.456,1.111c.02.04.04.1.06.139.1.258,1.052-.04.952-.258-1.091-2.719-2.2-5.437-3.294-8.175q-3.989-9.852-7.957-19.7-4.792-11.876-9.6-23.752Q43.8,73.825,39.641,63.556L36.9,56.77c-.278-.714-.575-1.429-.853-2.123a5.452,5.452,0,0,0-.456-1.111c-.02-.04-.04-.1-.06-.139-.1-.258-1.032.04-.952.258Z" transform="translate(-34.576 -53.296)"/></g><path class="i" d="M42.867,27.758l-.952.714c-2.084,1.091-5,1.786-4.921-.615.04-1.528,1.687-3.532,2.639-4.385C39.95,23.195,41,22.5,41,22.5Z" transform="translate(-31.602 -18.029)"/><g transform="translate(0.01 0.045)"><path class="g" d="M11.174,12.522c-1.449-2.1,1.449-5.3,2.778-6.667,2.322-2.342,5.675-4.743,9.068-5.08,1.072-.1,2.342.1,2.7,1.27.357,1.151-.3,2.48-.873,3.433a15.219,15.219,0,0,1-3.492,3.909c-1.131.913-2.838,2.064-4.385,2-1.647-.04-1.449-1.707-.933-2.778a9.641,9.641,0,0,1,3.473-3.929h-.774c.536,1.568,1.091,3.135,1.627,4.7.119.317,1.072.04.952-.258-.536-1.568-1.091-3.135-1.627-4.7-.1-.258-.615-.1-.774,0a10.56,10.56,0,0,0-3.572,3.79c-.516.933-1.171,2.54-.079,3.354,1.111.814,2.917.179,4.008-.3a14,14,0,0,0,4.683-3.492c1.369-1.468,4.782-6.032,1.429-7.322a6.871,6.871,0,0,0-4.405.3,19.5,19.5,0,0,0-5.6,3.076,17.106,17.106,0,0,0-4.7,5.139c-.635,1.171-1.21,2.7-.4,3.929.179.258,1.091-.06.893-.377Z" transform="translate(-9.88 -0.199)"/></g></g><g transform="translate(29.927 16.884)"><path class="f" d="M186.509,86.5,154.7,93.564l5.338,1.766,33.773-7.4Z" transform="translate(-154.085 -86.243)"/><g transform="translate(0.06)"><path class="g" d="M184.206,85.223l-27.92,6.191c-1.329.3-2.679.6-4.008.893-.575.139-.456.6.119.476l27.92-6.191c1.329-.3,2.679-.6,4.008-.893.6-.119.456-.6-.119-.476Z" transform="translate(-151.902 -85.205)"/></g><path class="j" d="M215.373,150.809,181.6,156.7V101.1l33.773-7.4Z" transform="translate(-175.647 -92.014)"/><g transform="translate(5.502 1.35)"><path class="g" d="M179.858,100.042l11.37-2.5c6.072-1.33,12.164-2.659,18.236-4.008,1.389-.3,2.778-.615,4.167-.913-.179-.079-.377-.179-.556-.258v57.109l.536-.357c-3.81.675-7.62,1.329-11.43,2-6.032,1.052-12.085,2.1-18.117,3.175-1.409.238-2.818.5-4.227.734-.5.079-.754.754-.1.635,3.81-.675,7.62-1.33,11.43-2,6.032-1.052,12.085-2.1,18.117-3.175,1.409-.238,2.818-.5,4.227-.734.179-.04.536-.139.536-.357V92.284c0-.3-.357-.3-.556-.258l-11.37,2.5c-6.072,1.329-12.164,2.659-18.236,4.008-1.389.3-2.778.615-4.167.913-.615.139-.456.734.139.6Z" transform="translate(-179.328 -92.007)"/></g><path class="k" d="M154,177.563l5.477,1.984v-55.6L154,122.2Z" transform="translate(-153.524 -114.859)"/><g transform="translate(5.477 9.906)"><path class="g" d="M180.152,187.8V135.24c0-.238-.952-.079-.952.258v52.565c0,.238.952.079.952-.258Z" transform="translate(-179.2 -135.126)"/></g><g transform="translate(0 7.097)"><path class="g" d="M157.751,122.7c-1.766-.575-3.532-1.131-5.278-1.707-.238-.079-.873.02-.873.337v55.363c.02.04.04.079.1.079,1.806.655,3.592,1.31,5.4,1.964.258.1,1.131-.3.774-.437-.952-.357-1.925-.695-2.877-1.052-.6-.218-1.21-.437-1.806-.655-.179-.06-.357-.119-.516-.179-.179-.079-.159-.1-.1.02a6.519,6.519,0,0,1,0-1.964v-53.4c-.3.119-.575.238-.873.337,1.766.575,3.532,1.131,5.278,1.707.258.1,1.131-.3.774-.417Z" transform="translate(-151.6 -120.969)"/></g><g transform="translate(5.514 58.52)"><path class="g" d="M213.659,380.133c-3.81.675-7.62,1.329-11.43,2-6.032,1.052-12.085,2.1-18.117,3.175-1.409.238-2.818.5-4.227.734-.437.079-.794.615-.139.5,3.81-.675,7.62-1.329,11.43-2,6.032-1.052,12.085-2.1,18.117-3.175,1.409-.238,2.818-.5,4.227-.734.456-.06.814-.615.139-.5Z" transform="translate(-179.387 -380.116)"/></g><g transform="translate(14.049 17.858)"><path class="g" d="M222.9,179.467c5.04-1.111,10.1-2.222,15.14-3.314l2.143-.476c.575-.119.456-.575-.119-.456-5.04,1.111-10.1,2.222-15.14,3.314l-2.143.476c-.575.139-.456.6.119.456Z" transform="translate(-222.402 -175.201)"/><g transform="translate(0.009 2.336)"><path class="g" d="M222.916,191.126c5.04-1.111,10.1-2.222,15.14-3.314l2.143-.476c.575-.119.476-.456-.079-.337-5.04,1.111-10.1,2.222-15.14,3.314l-2.143.476c-.575.139-.476.456.079.337Z" transform="translate(-222.449 -186.974)"/></g><g transform="translate(0.275 4.629)"><path class="g" d="M224.346,203.049c5.04-1.111,10.1-2.222,15.14-3.314l2.143-.476c.6-.139.417-.833-.2-.714-5.04,1.111-10.1,2.222-15.14,3.314l-2.143.476c-.6.159-.4.853.2.714Z" transform="translate(-223.789 -198.531)"/></g></g></g><g transform="translate(51.088 16.312)"><g transform="translate(7.996 37.567)"><path class="e" d="M401.95,306.271l4.842-1.945a.943.943,0,0,1,1.29.814l.437,6.548a.94.94,0,0,1-1.548.774l-5.278-4.623A.931.931,0,0,1,401.95,306.271Z" transform="translate(-380.962 -297.786)"/><path class="l" d="M407.142,305.963l4.068-1.687a.809.809,0,0,1,1.091.714l.377,5.735a.791.791,0,0,1-1.31.675l-4.445-4.068A.834.834,0,0,1,407.142,305.963Z" transform="translate(-385.202 -297.756)"/><path class="e" d="M309.489,278.183l-3.036-4.246a.928.928,0,0,0-1.508,0l-3.889,5.3a.943.943,0,0,0,.893,1.488l6.925-1.072A.929.929,0,0,0,309.489,278.183Z" transform="translate(-300.407 -273.172)"/><path class="l" d="M310.357,277.337l-2.5-3.671a.807.807,0,0,0-1.329.04l-3.552,4.842a.788.788,0,0,0,.734,1.29l6.052-1.171A.883.883,0,0,0,310.357,277.337Z" transform="translate(-301.95 -273)"/><g transform="translate(19.949 6.107)"><path class="g" d="M400.323,305.076l3.869-1.548c.615-.238,1.29-.714,1.568.238a9.514,9.514,0,0,1,.119,1.687c.1,1.548.318,3.135.3,4.683,0,.734-.6.655-1.012.3-.575-.5-1.151-1.012-1.726-1.508-.754-.655-1.508-1.31-2.262-1.984-.357-.317-1.845-1.329-.853-1.865.575-.318.06-.833-.417-.575-2.222,1.21.556,3,1.548,3.85.853.754,1.707,1.488,2.56,2.242.5.437.972.992,1.687.952,2.2-.079,1.329-3.334,1.25-4.663-.079-1.25.337-4.723-1.746-4.445a12.459,12.459,0,0,0-2.6.972l-2.679,1.072C399.291,304.758,399.827,305.274,400.323,305.076Z" transform="translate(-399.066 -302.421)"/></g><path class="g" d="M308.07,276.437c-.992-1.389-1.9-2.917-3.016-4.207-1.468-1.687-2.857.695-3.631,1.746-.695.933-1.369,1.885-2.064,2.818-.4.536-1.012,1.151-.774,1.865.278.853,1.151.873,1.885.774l3.036-.476c1.191-.159,5.794-.2,4.564-2.52-.179-.357-1.111-.02-.873.417.556,1.052-.655,1.012-1.25,1.111-.873.139-1.766.278-2.639.4-.794.119-1.607.238-2.4.377-.575.079-1.687.278-1.369-.774a5.56,5.56,0,0,1,.873-1.27c.536-.734,1.072-1.468,1.627-2.2a12.088,12.088,0,0,1,1.27-1.726c.4-.4.794-.2,1.072.218.933,1.29,1.865,2.6,2.8,3.889C307.415,277.191,308.328,276.834,308.07,276.437Z" transform="translate(-298.532 -271.644)"/></g><circle class="e" cx="19.685" cy="19.685" r="19.685" transform="translate(0 27.838) rotate(-45)"/><path class="l" d="M343.962,149.279a19.62,19.62,0,0,0-13.434-24.209c-10.12-3.115-19.9,3.175-22.959,13.612-3.036,10.438,4.7,20.855,12.283,23.058C330.27,164.776,340.926,159.716,343.962,149.279Z" transform="translate(-297.238 -115.947)"/><g transform="translate(7.698 7.976)"><path class="g" d="M336.534,147.8A19.951,19.951,0,0,0,328.6,125.87a20.638,20.638,0,0,0-22.721.119A19.78,19.78,0,0,0,316,162.243,20.57,20.57,0,0,0,336.534,147.8c.06-.218-.873-.1-.952.159a19.259,19.259,0,0,1-17.462,13.87,19.586,19.586,0,0,1-14.128-33.714,19.056,19.056,0,0,1,22.542-2.639,19.814,19.814,0,0,1,9.049,22.463C335.522,148.174,336.454,148.055,336.534,147.8Z" transform="translate(-297.032 -122.521)"/></g><circle class="d" cx="13.116" cy="13.116" r="13.116" transform="translate(9.289 27.838) rotate(-45)"/><path class="e" d="M349.389,183.854a12.146,12.146,0,0,0,14.962-8.414,12.729,12.729,0,0,0-7.957-15.6c-7.243-2.361-13.851,2.183-15.736,8.691C338.753,175.043,343.039,182.008,349.389,183.854Z" transform="translate(-323.938 -143.954)"/><g transform="translate(9.885 10.137)"><g transform="translate(21.001 31.887)"><path class="g" d="M413.889,294.462c.258,1.032.5,2.044.754,3.076.06.238,1.012-.02.952-.258-.258-1.032-.5-2.044-.754-3.076-.06-.238-1.012,0-.952.258Z" transform="translate(-413.887 -294.105)"/></g><g transform="translate(13.185 0.003)"><path class="g" d="M374.5,133.758c.238.952.456,1.885.695,2.838.04.2,1.012-.04.952-.258-.238-.952-.456-1.885-.695-2.838-.04-.2-.992.04-.952.258Z" transform="translate(-374.494 -133.426)"/></g><g transform="translate(27.895 28.352)"><path class="g" d="M448.64,276.67c.675.714,1.349,1.429,2.044,2.123.179.179,1.052-.159.893-.337-.675-.714-1.349-1.429-2.044-2.123-.159-.159-1.032.179-.893.337Z" transform="translate(-448.625 -276.291)"/></g><g transform="translate(4.996 4.363)"><path class="g" d="M333.3,155.934c.615.635,1.23,1.29,1.845,1.925.3.318,1.21-.079.873-.417-.615-.635-1.23-1.29-1.845-1.925-.3-.317-1.21.06-.873.417Z" transform="translate(-333.228 -155.398)"/></g><g transform="translate(32.368 13.159)"><path class="g" d="M471.709,200.811c.853-.218,1.726-.417,2.58-.635.119-.04.476-.159.417-.337-.04-.179-.417-.1-.536-.079-.853.218-1.726.417-2.58.635-.119.04-.476.159-.417.337s.437.119.536.079Z" transform="translate(-471.167 -199.725)"/></g><g transform="translate(0 21.048)"><path class="g" d="M308.6,240.755c.794-.2,1.587-.4,2.381-.575.6-.139.417-.833-.179-.675-.794.2-1.587.4-2.381.575-.6.139-.417.814.179.675Z" transform="translate(-308.05 -239.482)"/></g><g transform="translate(28.479 5.052)"><path class="g" d="M452.488,160.938c.675-.635,1.329-1.27,2-1.9.159-.159-.139-.179-.238-.159a.973.973,0,0,0-.635.238c-.675.635-1.329,1.27-2,1.9-.159.159.139.179.238.159a1.246,1.246,0,0,0,.635-.238Z" transform="translate(-451.569 -158.868)"/></g><g transform="translate(4.488 27.977)"><path class="g" d="M331.568,276.523c.675-.655,1.369-1.31,2.044-1.964.159-.139-.139-.159-.218-.159a1.163,1.163,0,0,0-.635.218c-.675.655-1.369,1.31-2.044,1.965-.159.139.139.159.218.159a.988.988,0,0,0,.635-.218Z" transform="translate(-330.669 -274.4)"/></g><g transform="translate(12.458 31.642)"><path class="g" d="M371.68,293.233c-.278.952-.556,1.885-.833,2.838-.139.437.853.337.972-.079.278-.952.556-1.885.833-2.838.139-.437-.853-.337-.972.079Z" transform="translate(-370.833 -292.87)"/></g><g transform="translate(21.734)"><path class="g" d="M418.414,133.705l-.833,2.857c-.079.278.873.139.952-.139l.833-2.857c.079-.278-.873-.159-.952.139Z" transform="translate(-417.576 -133.409)"/></g><g transform="translate(0.194 12.393)"><path class="g" d="M312.257,196.584c-.794-.238-1.587-.456-2.361-.695a.9.9,0,0,0-.675.1c-.1.06-.318.278-.1.357.794.238,1.587.456,2.361.695a.9.9,0,0,0,.675-.1c.1-.06.317-.278.1-.357Z" transform="translate(-309.028 -195.862)"/></g><g transform="translate(32.178 21.766)"><path class="g" d="M473.662,243.871c-.853-.258-1.726-.5-2.58-.754a1.009,1.009,0,0,0-.675.119c-.079.04-.318.2-.119.258.853.258,1.726.5,2.58.754a1.009,1.009,0,0,0,.675-.119c.1-.04.337-.2.119-.258Z" transform="translate(-470.212 -243.097)"/></g></g><g transform="translate(12.126 3.698)"><path class="m" d="M322.2,110.962a26.369,26.369,0,0,1,5.338-3.671,33.2,33.2,0,0,1,5.913-1.845,6.265,6.265,0,0,0-11.251,5.516Z" transform="translate(-321.119 -101.747)"/><path class="n" d="M326.526,108.583a.519.519,0,0,0,.794.357,30.409,30.409,0,0,1,3.988-2.6,28.35,28.35,0,0,1,4.306-1.25.924.924,0,0,0,.4-1.568c-1.707-1.607-4.8-2.123-6.528-1.27C326.923,103.5,326.07,105.785,326.526,108.583Z" transform="translate(-325.007 -101.67)"/><path class="g" d="M320.863,110.156a21.922,21.922,0,0,1,5.278-3.631,28.562,28.562,0,0,1,5.437-1.687c.04-.02.655-.159.575-.317a6.766,6.766,0,0,0-8.771-2.976,6.511,6.511,0,0,0-3.433,8.751c.119.238,1.032-.079.952-.258a6.225,6.225,0,0,1,2.024-7.818c2.937-1.964,6.727-.377,8.255,2.56.2-.1.377-.218.575-.317a31.648,31.648,0,0,0-5.953,1.806,22.667,22.667,0,0,0-5.834,3.929C319.792,110.394,320.685,110.315,320.863,110.156Z" transform="translate(-319.344 -100.961)"/></g><g transform="translate(41.297 11.341)"><path class="m" d="M475.309,151.977a26.422,26.422,0,0,0-2.52-5.953,35.778,35.778,0,0,0-3.989-4.743,6.26,6.26,0,1,1,6.509,10.7Z" transform="translate(-468.314 -140.186)"/><path class="n" d="M481.58,149.647a.526.526,0,0,1-.873-.139,30.8,30.8,0,0,0-1.964-4.346,29,29,0,0,0-2.957-3.373.93.93,0,0,1,.5-1.548c2.3-.437,5.2.794,6.191,2.441C483.982,145.143,483.466,147.524,481.58,149.647Z" transform="translate(-473.713 -140.018)"/><path class="g" d="M473.822,151.149a21.927,21.927,0,0,0-2.6-6.072,28.565,28.565,0,0,0-3.949-4.663c-.02.06-.06.119-.079.179a5.9,5.9,0,0,1,8.156,2.937,6.219,6.219,0,0,1-2.361,7.719c-.4.258.556.159.734.04a6.463,6.463,0,0,0,1.865-9.267c-2.163-2.9-6.132-3.215-9.128-1.488-.06.04-.159.119-.079.179a27.028,27.028,0,0,1,4.048,4.842,22.851,22.851,0,0,1,2.441,5.834C472.929,151.625,473.881,151.367,473.822,151.149Z" transform="translate(-466.351 -139.477)"/></g><g transform="translate(18.209 17.307)"><path class="g" d="M350.062,170.069l9.108,10.537c.258.318,1.191-.06.873-.417l-9.108-10.537c-.258-.3-1.171.06-.873.417Z" transform="translate(-350.003 -169.541)"/><g transform="translate(9.451 5.698)"><path class="g" d="M409.232,198.3c-3.77,1.627-7.56,3.234-11.331,4.862-.615.258-.06.714.417.516,3.77-1.627,7.56-3.234,11.331-4.862.6-.258.04-.714-.417-.516Z" transform="translate(-397.63 -198.255)"/></g><path class="m" d="M393.828,216.777a1.551,1.551,0,1,0-1.925,1.052A1.571,1.571,0,0,0,393.828,216.777Z" transform="translate(-382.697 -205.812)"/><circle class="n" cx="0.893" cy="0.893" r="0.893" transform="translate(8.519 11.12) rotate(-72.879)"/></g></g><g transform="translate(29.231 33.193)"><path class="f" d="M229.415,282.4l2.262,4.584a4.308,4.308,0,0,1-2.024,5.755h0a4.747,4.747,0,0,1-6.37-2.044l-2.084-4.207Z" transform="translate(-206.693 -259.579)"/><g transform="translate(14.009 22.526)"><path class="g" d="M218.71,285.416c1.31,2.639,2.342,6.231,5.635,6.866a5.423,5.423,0,0,0,5.358-2.064,4.653,4.653,0,0,0,.2-5c-.675-1.369-1.369-2.758-2.044-4.127-.179-.377-1.131-.079-.952.258.655,1.31,1.31,2.639,1.964,3.949a6.22,6.22,0,0,1,.695,1.865,4.022,4.022,0,0,1-1.766,3.909c-2.322,1.508-5.06.238-6.211-2.044-.655-1.29-1.29-2.6-1.925-3.889-.179-.357-1.131-.06-.952.278Z" transform="translate(-218.688 -280.915)"/></g><g transform="translate(14.762 24.219)"><path class="g" d="M222.742,293.823c3.234.1,7.461-.972,8.969-4.227.119-.258-.814-.159-.952.119-1.27,2.738-4.862,3.651-7.62,3.572-.357,0-1.032.516-.4.536Z" transform="translate(-222.481 -289.446)"/></g><g transform="translate(15.649 25.732)"><path class="g" d="M227.222,301.678c3.453.02,7.243-1.131,8.83-4.485.1-.218-.814-.139-.952.139-1.369,2.9-4.465,3.869-7.481,3.85-.337.02-1.052.5-.4.5Z" transform="translate(-226.955 -297.068)"/></g><g transform="translate(16.379 27.822)"><path class="g" d="M230.826,311.688a8.675,8.675,0,0,0,5.874-.5,8.431,8.431,0,0,0,3.115-3.294c.258-.417-.714-.357-.893-.06a8.387,8.387,0,0,1-2.3,2.7,6.684,6.684,0,0,1-5.2.6c-.357-.079-1.151.437-.6.556Z" transform="translate(-230.634 -307.6)"/></g><path class="o" d="M172.99,191.167c-2.679,2.679-3.83,3.274-8.83,4.385-.159.04-.3-.575-.3-.575a7.481,7.481,0,0,0-4.8-3.909l-.377-.1a11.2,11.2,0,0,1-7.1-5.794,11.58,11.58,0,0,1,20.736-10.3,11.14,11.14,0,0,1,.317,9.148l-.159.4a7.568,7.568,0,0,0,.218,6.191C172.692,190.592,173.109,191.048,172.99,191.167Z" transform="translate(-149.97 -168.426)"/><path class="p" d="M177.876,190.228c-2.5,2.58-3.572,3.155-8.314,4.127-.159.04-.3-.575-.3-.575a7.79,7.79,0,0,0-4.663-3.988l-.377-.1a11.481,11.481,0,0,1-6.905-5.893,10.909,10.909,0,1,1,19.526-9.7,11.5,11.5,0,0,1,.516,9.049l-.159.377a7.721,7.721,0,0,0,.357,6.112C177.6,189.653,178,190.129,177.876,190.228Z" transform="translate(-154.519 -167.665)"/><path class="g" d="M170.713,190.055a12.39,12.39,0,0,1-4.881,3.294c-.575.2-1.151.337-1.746.5-.3.079-.6.139-.893.218a2.093,2.093,0,0,1-.476.119c-.357-.06.04.119-.2-.139a10.477,10.477,0,0,1-.6-1.151,7.39,7.39,0,0,0-1.349-1.488c-1.9-1.607-4.445-1.746-6.509-3.076a10.976,10.976,0,0,1-4.723-6.568,11.355,11.355,0,0,1,5.893-12.66,10.945,10.945,0,0,1,15.379,13,14.326,14.326,0,0,0-1.052,4.147,7.472,7.472,0,0,0,.3,2.2,5.169,5.169,0,0,0,.417,1.091c.079.139.377.536.357.655-.06.377.913.218.952-.119.06-.377-.357-.774-.5-1.111a7.16,7.16,0,0,1-.556-2.719,13.993,13.993,0,0,1,1.052-4.286,11.391,11.391,0,0,0-1.23-9.247,11.946,11.946,0,0,0-13.692-4.743,12.128,12.128,0,0,0-8.572,11.588,11.151,11.151,0,0,0,3.234,7.64,11.713,11.713,0,0,0,3.433,2.381,39.343,39.343,0,0,1,3.949,1.488,7.354,7.354,0,0,1,2,1.746,5.753,5.753,0,0,1,.814,1.27c.06.159.06.4.2.536.337.377.893.119,1.31.02q1.191-.268,2.381-.6a14.082,14.082,0,0,0,6.092-3.79C171.884,189.817,170.952,189.817,170.713,190.055Z" transform="translate(-148.09 -167.393)"/><g transform="translate(7.11 9.267)"><path class="g" d="M183.978,218.263c1.9.6,3.969.635,5.874,1.23.179.06.814-.04.873-.278.417-1.726,1.389-3.294,1.806-5.02.06-.2-.893-.079-.952.159-.417,1.726-1.389,3.294-1.806,5.02.3-.1.575-.179.873-.278-1.9-.6-3.969-.635-5.874-1.23-.218-.04-1.072.317-.794.4Z" transform="translate(-183.923 -214.095)"/></g><g transform="translate(12.94 14.098)"><path class="g" d="M219.552,249.306c-.794-1.746-1.746-3.393-2.6-5.1-.933-1.865-1.826-3.731-2.738-5.6-.2-.4-1.111-.04-.873.437.873,1.746,1.707,3.512,2.58,5.258.873,1.766,1.865,3.473,2.679,5.258.2.437,1.151.159.952-.258Z" transform="translate(-213.302 -238.44)"/></g><g transform="translate(5.737 7.484)"><path class="g" d="M178.313,210.425a1.237,1.237,0,0,1-.6-.635c-.278-.318-.159-.536.377-.695.417-.536.536-1.369,1.25-.357a3.391,3.391,0,0,1,.218-.278c-.873-.2-.992-.417-.337-.675.357-.4.536-.337.575.2.179-.079.337-.159.516-.238a.85.85,0,0,1-.5-.575c.754-.833,1.131-.774,1.131.119.179-.04.377-.1.556-.139-.3-.437-.179-.655.318-.635.456-.3.655-.139.6.456.179-.06.337-.119.516-.179-.675-.377-.6-.675.238-.933a.657.657,0,0,1,0,.833l.556-.06c-.317-.873,1.25-1.072.873.079a5.822,5.822,0,0,1,.575-.1c-.3-.754,1.21-1.548,1.012-.278-.04.258.536.159.575-.06.317-1.865-2.857-1.349-2.163.5.079.238.516.079.575-.1.575-1.826-2.659-1.667-2.024.139.079.218.476.079.556-.06a.93.93,0,1,0-1.23.357c.139.06.5.02.516-.179.139-1.925-2.976-1.151-2.024.476.1.159.536.04.556-.139.139-2.6-3.889-.357-1.667.814.139.079.556,0,.516-.238a1.094,1.094,0,0,0-1.984-.4c-.615.913.437,1.568,1.27,1.349.1-.02.317-.139.218-.278a1.557,1.557,0,0,0-2.262-.258c-.675.6-.278,1.845.695,1.409.734-.337.318-1.25-.417-1.171a.96.96,0,0,0-.794.536c-.337.714.258,1.31.794,1.707.139.119.675-.139.417-.318Z" transform="translate(-177.004 -205.109)"/></g></g><g transform="translate(-0.194 46.381)"><path class="i" d="M193.6,280.422l64.292-9.922v50.719L193.6,331.141Z" transform="translate(-155.145 -263.228)"/><path class="f" d="M193.52,325.8c2.381,3.552,6.211,10.576,8.017,13.553,1.131,1.865,4.366,1.766,6.945,1.25,8.89-1.746,17.7-3.155,26.59-4.584l17.026-2.738c.317-.06,5.7-.774,5.7-.913v33.178L193.5,375.468V325.8Z" transform="translate(-155.065 -307.555)"/><g transform="translate(9.92 0.148)"><path class="e" d="M78.374,302.246,49.8,285.181V234.6l28.574,17.065Z" transform="translate(-49.8 -234.6)"/><path class="i" d="M52,329.6l15.954,10.358a4.921,4.921,0,0,0,5.794-1.627L80.1,329.9v48.616L52,361.766Z" transform="translate(-51.563 -310.749)"/><g transform="translate(28.058 18.928)"><path class="g" d="M191.2,330.326v46.652c0,.4.952.2.952-.119V330.207c0-.4-.952-.2-.952.119Z" transform="translate(-191.2 -329.986)"/></g></g><g transform="translate(9.871 15.612)"><path class="g" d="M49.562,312.921v34.706c0,.278-.06.536.119.754.179.238.675.4.913.556,4.485,2.679,8.969,5.338,13.454,8.017,4.346,2.58,8.691,5.179,13.037,7.759a1.783,1.783,0,0,0,1.409.417c1.111-.179,2.222-.337,3.314-.516q16.549-2.56,33.1-5.1,13.513-2.084,27.007-4.167l.437-.06c.179-.02.536-.139.536-.377V317.843c0-.5-.972-.357-.972.079v37.067c.179-.119.357-.258.536-.377q-11.34,1.756-22.661,3.492-17.442,2.679-34.865,5.378c-1.627.258-3.274.5-4.9.754a5.82,5.82,0,0,0-1.865.278c.238-.159.437.218.159-.04a5.173,5.173,0,0,0-.556-.337c-.714-.417-1.409-.833-2.123-1.27-2.282-1.349-4.564-2.719-6.846-4.068q-7.62-4.524-15.22-9.068c-1.052-.615-2.084-1.349-3.175-1.885.337.159.02.318.1.079a1.618,1.618,0,0,0,0-.536V312.862c.02-.516-.933-.377-.933.06Z" transform="translate(-49.552 -312.531)"/></g><g transform="translate(37.98 6.955)"><path class="i" d="M193.6,280.422l64.292-9.922,9.783,11.311a.5.5,0,0,1-.377.833l-62.963,10.914a.489.489,0,0,1-.377-.179Z" transform="translate(-193.125 -270.182)"/><path class="f" d="M193.6,280.422l64.292-9.922,4.227,4.921a3.771,3.771,0,0,1-2.2,6.171l-54.311,9.426a5.393,5.393,0,0,1-5.1-1.925Z" transform="translate(-193.125 -270.182)"/><g transform="translate(0)"><path class="g" d="M191.623,279.457q10.864-1.667,21.728-3.354,17.323-2.679,34.627-5.338c2.639-.417,5.3-.814,7.937-1.23-.139-.04-.258-.079-.4-.119,2.222,2.56,4.445,5.139,6.667,7.7.972,1.131,2.123,2.242,3,3.453.377.516.2.476-.318.575-5.635.972-11.291,1.965-16.926,2.937q-13.394,2.322-26.808,4.643-8.9,1.548-17.78,3.076c-.3.06-.695.179-.873.079a3.928,3.928,0,0,1-.714-.893c-.516-.635-1.012-1.27-1.528-1.9l-7.56-9.465c-.179-.218-.357-.456-.536-.675-.238-.3-1.171.06-.873.4,1.627,2.024,3.254,4.068,4.862,6.092,1.171,1.468,2.361,2.957,3.532,4.425a27.808,27.808,0,0,0,1.9,2.381c.655.655,1.865.159,2.659.04,2.143-.377,4.286-.734,6.429-1.111q10.537-1.816,21.054-3.651,11.073-1.9,22.125-3.83c3.79-.655,7.6-1.29,11.39-1.984.774-.139,1.449-.655.913-1.449a30.958,30.958,0,0,0-2.242-2.6l-6.846-7.917c-.318-.377-.556-.814-1.072-.833a9.634,9.634,0,0,0-1.091.159c-1.885.3-3.79.575-5.675.873-6.786,1.052-13.553,2.084-20.339,3.135q-11.37,1.756-22.76,3.512c-4.564.714-9.128,1.409-13.692,2.123-.218.04-.437.06-.675.1C191.226,278.9,190.968,279.556,191.623,279.457Z" transform="translate(-191.208 -268.9)"/></g></g><g transform="translate(0)"><path class="i" d="M12.248,234.8l28.1,17.006-8.294,9.287a3.148,3.148,0,0,1-3.869.655C16.276,255.12,2.921,245.674,2.921,245.674a.8.8,0,0,1-.278-1.31Z" transform="translate(-1.891 -234.612)"/><path class="f" d="M23.218,234.8l28.1,17.006-7.084,7.54a3.587,3.587,0,0,1-4.286.695A238.554,238.554,0,0,1,17.4,245.734a3.114,3.114,0,0,1-.4-4.743Z" transform="translate(-12.861 -234.612)"/><path class="g" d="M9.707,234.2c4.088,2.48,8.175,4.941,12.283,7.421q7.65,4.614,15.279,9.247a1.932,1.932,0,0,1,.476.3c.079.079.06-.04.079-.079,0,.04-.179.2-.2.218a36.224,36.224,0,0,0-2.679,2.838L31.2,258.13c-.754.794-1.468,1.667-2.262,2.4-1.191,1.091-2.48-.02-3.631-.655-1.349-.754-2.7-1.548-4.028-2.342q-3.989-2.351-7.917-4.862C9.647,250.352,6,247.97,2.385,245.49,1.75,245.053.361,244.418,1,243.526a18.726,18.726,0,0,1,2.183-2.163L10.1,234.5l.476-.476c.179-.179-.695-.079-.873.079-2.441,2.4-4.862,4.822-7.3,7.223-.6.6-1.191,1.171-1.786,1.766a3.5,3.5,0,0,0-.734.794c-.5.992,1.508,1.925,2.163,2.361,5.06,3.433,10.2,6.767,15.418,9.941,1.667,1.012,3.334,2,5.02,2.977.814.476,1.627.933,2.441,1.389a5.824,5.824,0,0,0,2.064.913c1.647.179,2.639-.853,3.651-1.945,2.659-2.838,5.338-5.675,8-8.513.02-.04.079-.079.02-.119L14.073,236c-1.171-.714-2.342-1.409-3.512-2.123C10.382,233.743,9.608,234.14,9.707,234.2Z" transform="translate(0.194 -233.852)"/></g><g transform="translate(33.296 30.29)"><path class="g" d="M167.6,386.838v8.612c0,.179.952.02.952-.258V386.58c.02-.179-.952-.04-.952.258Z" transform="translate(-167.6 -386.5)"/><g transform="translate(0 10.314)"><path class="g" d="M167.6,438.859v1.349c0,.476.972.3.972-.079V438.78c0-.5-.972-.318-.972.079Z" transform="translate(-167.6 -438.478)"/></g><g transform="translate(0 13.262)"><path class="g" d="M167.6,453.7v3.532c0,.456.972.278.972-.1V453.6c0-.456-.972-.278-.972.1Z" transform="translate(-167.6 -453.332)"/></g></g></g><g transform="translate(16.085 84.32)"><g transform="translate(0.017 6.015)"><path class="d" d="M90.654,459.934,82.8,455.41c-.357-.2-1.191.278-.734.536l7.858,4.524c.357.218,1.191-.258.734-.536Z" transform="translate(-81.928 -455.362)"/></g><g transform="translate(0.041 2.99)"><path class="d" d="M90.752,444.7c-2.619-1.508-5.219-3.036-7.838-4.544-.278-.159-1.171.238-.754.476,2.619,1.508,5.219,3.036,7.838,4.544.3.159,1.171-.238.754-.476Z" transform="translate(-82.051 -440.116)"/></g><g transform="translate(0.105)"><path class="d" d="M91.031,429.643q-3.9-2.292-7.8-4.564c-.258-.139-1.131.238-.774.456q3.9,2.292,7.8,4.564c.258.139,1.131-.238.774-.456Z" transform="translate(-82.374 -425.049)"/></g><g transform="translate(0 8.997)"><g transform="translate(6.142 3.469)"><path class="d" d="M115.394,488.969c-.575-.337-1.151-.675-1.746-1.012a.631.631,0,0,0-.695.04c-.139.119-.258.4-.04.536.575.337,1.151.675,1.746,1.012a.631.631,0,0,0,.695-.04c.139-.119.258-.4.04-.536Z" transform="translate(-112.794 -487.872)"/></g><g transform="translate(3.103 1.836)"><path class="d" d="M100.084,480.686c-.575-.337-1.171-.675-1.746-1.012-.238-.139-1.131.218-.774.437.575.337,1.171.675,1.746,1.012.258.139,1.131-.218.774-.437Z" transform="translate(-97.48 -479.643)"/></g><path class="d" d="M84.473,471.463c-.6-.337-1.171-.675-1.766-1.032-.3-.179-1.171.258-.754.5.6.337,1.171.675,1.766,1.032.278.159,1.151-.258.754-.5Z" transform="translate(-81.842 -470.389)"/></g></g><g transform="translate(63.669 79.343)"><g transform="translate(8.06 16.468)"><path class="g" d="M362.746,486.039l13.1-2.322c.556-.1.575-.853-.06-.754l-13.1,2.322c-.556.1-.6.853.06.754Z" transform="translate(-362.262 -482.955)"/></g><g transform="translate(19.779)"><g transform="translate(0.682)"><path class="g" d="M425.638,404.7c1.072-1.528,2.143-3.056,3.215-4.6.2-.278-.714-.04-.853.179-1.072,1.528-2.143,3.056-3.215,4.6-.2.278.695.04.853-.179Z" transform="translate(-424.756 -399.966)"/></g><g transform="translate(0 0.657)"><path class="g" d="M421.334,403.778c1.528,1.072,3.056,2.143,4.6,3.215.2.139.992-.357.833-.476-1.528-1.072-3.056-2.143-4.6-3.215-.179-.139-.972.357-.833.476Z" transform="translate(-421.318 -403.277)"/></g></g><g transform="translate(0 3.206)"><g transform="translate(0.673)"><path class="g" d="M325.94,421.1c1.072-1.528,2.143-3.056,3.215-4.6.337-.5-.6-.456-.833-.119-1.072,1.528-2.143,3.056-3.215,4.6-.337.5.6.476.833.119Z" transform="translate(-325.034 -416.121)"/></g><g transform="translate(0 0.705)"><path class="g" d="M321.713,420.256c1.528,1.072,3.056,2.143,4.6,3.215.3.2,1.131-.318.814-.536-1.528-1.072-3.056-2.143-4.6-3.215-.3-.2-1.131.318-.814.536Z" transform="translate(-321.642 -419.675)"/></g></g></g></g></g></g></svg>