<svg xmlns="http://www.w3.org/2000/svg" xmlns:xlink="http://www.w3.org/1999/xlink" viewBox="0 0 465 280"><defs><style>.a{clip-path:url(#b);}.b{opacity:0.5;}.c,.e,.g{fill:#fff;}.d{fill:#e4e4e4;}.e,.g{stroke:#f3f3f3;stroke-width:2px;}.f{fill:#f2f4fa;}.g{opacity:0.422;}.h{fill:#d8d8d8;}.i{fill:#dfdfdf;}.j,.k{stroke:none;}.k{fill:#f3f3f3;}.l{fill:none;}</style><clipPath id="b"><rect width="465" height="280"/></clipPath></defs><g id="a" class="a"><g class="b" transform="translate(4 2)"><g class="c" transform="matrix(0.966, -0.259, 0.259, 0.966, 396.119, 121.185)"><path class="j" d="M 8.525204658508301 11.16724967956543 L 1.77599835395813 6.87230110168457 L 8.525204658508301 1.963779091835022 L 8.525204658508301 11.16724967956543 Z"/><path class="k" d="M 7.525204658508301 3.927543640136719 L 3.551980018615723 6.817166805267334 L 7.525204658508301 9.345582008361816 L 7.525204658508301 3.927543640136719 M 9.525204658508301 4.76837158203125e-06 L 9.525204658508301 12.98892402648926 L 4.76837158203125e-06 6.92743444442749 L 9.525204658508301 4.76837158203125e-06 Z"/></g><g transform="translate(360.877 12.254)"><rect class="d" width="16.83" height="3.96" rx="1.98" transform="translate(2.04 2.202) rotate(31)"/><rect class="d" width="16.83" height="3.96" rx="1.98" transform="translate(14.264 2.04) rotate(121)"/></g><g class="e" transform="translate(315.132 34.814)"><ellipse class="j" cx="6.53" cy="6.53" rx="6.53" ry="6.53"/><ellipse class="l" cx="6.53" cy="6.53" rx="5.53" ry="5.53"/></g><g transform="translate(444.736 113.824) rotate(21)"><rect class="f" width="14.015" height="3.298" rx="1.649" transform="translate(1.698 1.833) rotate(31)"/><rect class="f" width="14.015" height="3.298" rx="1.649" transform="translate(11.879 1.699) rotate(121)"/></g><g transform="translate(415.54 197.174) rotate(66)"><rect class="f" width="14.015" height="3.298" rx="1.649" transform="translate(1.698 1.833) rotate(31)"/><rect class="f" width="14.015" height="3.298" rx="1.649" transform="translate(11.879 1.699) rotate(121)"/></g><g class="c" transform="matrix(-0.602, 0.799, -0.799, -0.602, 115.129, 264.169)"><path class="j" d="M 14.96181869506836 19.94442939758301 L 1.775994062423706 11.55346012115479 L 14.96181869506836 1.963774919509888 L 14.96181869506836 19.94442939758301 Z"/><path class="k" d="M 13.96181869506836 3.92753791809082 L 3.55197811126709 11.49832630157471 L 13.96181869506836 18.12276268005371 L 13.96181869506836 3.92753791809082 M 15.96181869506836 1.9073486328125e-06 L 15.96181869506836 21.76610374450684 L -1.9073486328125e-06 11.60859298706055 L 15.96181869506836 1.9073486328125e-06 Z"/></g><g class="g" transform="translate(307.001 226.825)"><ellipse class="j" cx="9.432" cy="9.432" rx="9.432" ry="9.432"/><ellipse class="l" cx="9.432" cy="9.432" rx="8.432" ry="8.432"/></g><g class="e" transform="translate(141.24 38.11)"><ellipse class="j" cx="6.333" cy="6.333" rx="6.333" ry="6.333"/><ellipse class="l" cx="6.333" cy="6.333" rx="5.333" ry="5.333"/></g><g transform="translate(73.544 51.094) rotate(-17)"><rect class="d" width="8.693" height="2.045" rx="1.023" transform="translate(1.053 1.137) rotate(31)"/><rect class="d" width="8.693" height="2.045" rx="1.023" transform="translate(7.368 1.053) rotate(121)"/></g><g transform="matrix(0.719, -0.695, 0.695, 0.719, 40.783, 124.256)"><rect class="d" width="16.763" height="3.944" rx="1.972" transform="translate(2.031 2.193) rotate(31)"/><rect class="d" width="16.763" height="3.944" rx="1.972" transform="translate(14.207 2.031) rotate(121)"/></g><g transform="translate(11.291 155.5) rotate(-29)"><rect class="d" width="8.411" height="1.979" rx="0.989" transform="translate(1.019 1.1) rotate(31)"/><rect class="d" width="8.411" height="1.979" rx="0.99" transform="translate(7.128 1.019) rotate(121)"/></g><g class="e" transform="translate(21.859 200.237)"><ellipse class="j" cx="9.432" cy="9.432" rx="9.432" ry="9.432"/><ellipse class="l" cx="9.432" cy="9.432" rx="8.432" ry="8.432"/></g><g transform="translate(262.433 1.195) rotate(-5)"><rect class="f" width="14.015" height="3.298" rx="1.649" transform="translate(1.698 1.833) rotate(31)"/><rect class="f" width="14.015" height="3.298" rx="1.649" transform="translate(11.879 1.699) rotate(121)"/></g><g transform="translate(169.408 2.221) rotate(-5)"><rect class="f" width="8.02" height="1.887" rx="0.944" transform="translate(0.972 1.049) rotate(31)"/><rect class="f" width="8.02" height="1.887" rx="0.944" transform="translate(6.797 0.972) rotate(121)"/></g><g transform="matrix(0.875, -0.485, 0.485, 0.875, 58.043, 11.939)"><rect class="f" width="8.02" height="1.887" rx="0.944" transform="translate(0.972 1.049) rotate(31)"/><rect class="f" width="8.02" height="1.887" rx="0.944" transform="translate(6.797 0.972) rotate(121)"/></g><g transform="matrix(0.875, -0.485, 0.485, 0.875, 104.477, 78.688)"><rect class="f" width="8.02" height="1.887" rx="0.944" transform="translate(0.972 1.049) rotate(31)"/><rect class="f" width="8.02" height="1.887" rx="0.944" transform="translate(6.797 0.972) rotate(121)"/></g><g transform="matrix(0.875, -0.485, 0.485, 0.875, 0, 69.982)"><rect class="f" width="8.02" height="1.887" rx="0.944" transform="translate(0.972 1.049) rotate(31)"/><rect class="f" width="8.02" height="1.887" rx="0.944" transform="translate(6.797 0.972) rotate(121)"/></g><g transform="matrix(0.875, -0.485, 0.485, 0.875, 0, 69.982)"><rect class="f" width="8.02" height="1.887" rx="0.944" transform="translate(0.972 1.049) rotate(31)"/><rect class="f" width="8.02" height="1.887" rx="0.944" transform="translate(6.797 0.972) rotate(121)"/></g><g transform="matrix(0.875, -0.485, 0.485, 0.875, 96.477, 203.183)"><rect class="h" width="8.02" height="1.887" rx="0.944" transform="translate(0.972 1.049) rotate(31)"/><rect class="h" width="8.02" height="1.887" rx="0.944" transform="translate(6.797 0.972) rotate(121)"/></g><g transform="matrix(0.875, -0.485, 0.485, 0.875, 350.197, 225.612)"><rect class="i" width="8.02" height="1.887" rx="0.944" transform="translate(0.972 1.049) rotate(31)"/><rect class="i" width="8.02" height="1.887" rx="0.944" transform="translate(6.797 0.972) rotate(121)"/></g><g transform="translate(380.551 107.401) rotate(21)"><rect class="f" width="9.152" height="2.153" rx="1.077" transform="translate(1.109 1.197) rotate(31)"/><rect class="f" width="9.152" height="2.154" rx="1.077" transform="translate(7.757 1.109) rotate(121)"/></g><g transform="translate(341.372 74.026) rotate(21)"><rect class="f" width="7.35" height="1.729" rx="0.865" transform="translate(0.891 0.961) rotate(31)"/><rect class="f" width="7.35" height="1.73" rx="0.865" transform="translate(6.23 0.891) rotate(121)"/></g><g class="e" transform="translate(143.254 229.624)"><circle class="j" cx="7.722" cy="7.722" r="7.722"/><circle class="l" cx="7.722" cy="7.722" r="6.722"/></g></g></g></svg>