<svg xmlns="http://www.w3.org/2000/svg" xmlns:xlink="http://www.w3.org/1999/xlink" viewBox="0 0 50.45 50.45">
  <defs>
    <style>
      .cls-1 {
        fill: #fff;
      }

      .cls-2 {
        filter: url(#Path_2324);
      }
    </style>
    <filter id="Path_2324" x="0" y="0" width="50.45" height="50.45" filterUnits="userSpaceOnUse">
      <feOffset dy="3" input="SourceAlpha"/>
      <feGaussianBlur stdDeviation="3" result="blur"/>
      <feFlood flood-opacity="0.161"/>
      <feComposite operator="in" in2="blur"/>
      <feComposite in="SourceGraphic"/>
    </filter>
  </defs>
  <g id="Group_3688" data-name="Group 3688" transform="translate(-52 -190)">
    <g id="Group_3687" data-name="Group 3687" transform="translate(61 196)">
      <g id="calendar_2_" data-name="calendar (2)">
        <path id="Path_2323" data-name="Path 2323" class="cls-1" d="M353.423,346a3.422,3.422,0,1,0,3.422,3.422A3.426,3.426,0,0,0,353.423,346Zm0,5.577a2.155,2.155,0,1,1,2.155-2.155A2.158,2.158,0,0,1,353.423,351.577Zm0,0" transform="translate(-327.817 -324.071)"/>
        <g class="cls-2" transform="matrix(1, 0, 0, 1, -9, -6)">
          <path id="Path_2324-2" data-name="Path 2324" class="cls-1" d="M29.281,3.422h-.254V1.9a1.9,1.9,0,0,0-3.8,0V3.422h-7.1V1.9a1.9,1.9,0,0,0-3.8,0V3.422h-7.1V1.9a1.9,1.9,0,0,0-3.8,0V3.422H3.169A3.173,3.173,0,0,0,0,6.591v22.69A3.173,3.173,0,0,0,3.169,32.45H29.281a3.173,3.173,0,0,0,3.169-3.169V6.591A3.173,3.173,0,0,0,29.281,3.422ZM26.492,1.9a.634.634,0,0,1,1.268,0V5.451a.634.634,0,0,1-1.268,0Zm-10.9,0a.634.634,0,0,1,1.268,0V5.451a.634.634,0,0,1-1.268,0Zm-10.9,0a.634.634,0,0,1,1.268,0V5.451a.634.634,0,0,1-1.268,0ZM29.281,31.182H3.169a1.9,1.9,0,0,1-1.9-1.9V10.774H12.549a.634.634,0,0,0,0-1.268H1.268V6.591a1.9,1.9,0,0,1,1.9-1.9h.254v.761a1.9,1.9,0,0,0,3.8,0V4.69h7.1v.761a1.9,1.9,0,0,0,3.8,0V4.69h7.1v.761a1.9,1.9,0,0,0,3.8,0V4.69h.254a1.9,1.9,0,0,1,1.9,1.9V9.507h-11.6a.634.634,0,1,0,0,1.268h11.6V29.281A1.9,1.9,0,0,1,29.281,31.182Zm0,0" transform="translate(9 6)"/>
        </g>
        <path id="Path_2325" data-name="Path 2325" class="cls-1" d="M205.422,204a3.422,3.422,0,1,0,3.422,3.422A3.426,3.426,0,0,0,205.422,204Zm0,5.577a2.155,2.155,0,1,1,2.155-2.155A2.157,2.157,0,0,1,205.422,209.577Zm0,0" transform="translate(-189.197 -191.071)"/>
        <path id="Path_2326" data-name="Path 2326" class="cls-1" d="M353.423,204a3.422,3.422,0,1,0,3.422,3.422A3.426,3.426,0,0,0,353.423,204Zm0,5.577a2.155,2.155,0,1,1,2.155-2.155A2.157,2.157,0,0,1,353.423,209.577Zm0,0" transform="translate(-327.817 -191.071)"/>
        <path id="Path_2327" data-name="Path 2327" class="cls-1" d="M57.422,204a3.422,3.422,0,1,0,3.422,3.422A3.426,3.426,0,0,0,57.422,204Zm0,5.577a2.155,2.155,0,1,1,2.155-2.155A2.157,2.157,0,0,1,57.422,209.577Zm0,0" transform="translate(-50.578 -191.071)"/>
        <path id="Path_2328" data-name="Path 2328" class="cls-1" d="M205.422,346a3.422,3.422,0,1,0,3.422,3.422A3.426,3.426,0,0,0,205.422,346Zm0,5.577a2.155,2.155,0,1,1,2.155-2.155A2.157,2.157,0,0,1,205.422,351.577Zm0,0" transform="translate(-189.197 -324.071)"/>
        <path id="Path_2329" data-name="Path 2329" class="cls-1" d="M57.422,346a3.422,3.422,0,1,0,3.422,3.422A3.426,3.426,0,0,0,57.422,346Zm0,5.577a2.155,2.155,0,1,1,2.155-2.155A2.157,2.157,0,0,1,57.422,351.577Zm0,0" transform="translate(-50.578 -324.071)"/>
        <path id="Path_2330" data-name="Path 2330" class="cls-1" d="M246.634,150.088a.634.634,0,1,0-.448-.186A.639.639,0,0,0,246.634,150.088Zm0,0" transform="translate(-230.409 -139.388)"/>
      </g>
    </g>
  </g>
</svg>
