<svg xmlns="http://www.w3.org/2000/svg" xmlns:xlink="http://www.w3.org/1999/xlink" viewBox="0 0 50.451 63">
  <defs>
    <style>
      .cls-1 {
        fill: #fff;
      }

      .cls-2 {
        filter: url(#Path_2321);
      }

      .cls-3 {
        filter: url(#Path_2331);
      }
    </style>
    <filter id="Path_2331" x="12.155" y="36.474" width="38.296" height="26.526" filterUnits="userSpaceOnUse">
      <feOffset dy="3" input="SourceAlpha"/>
      <feGaussianBlur stdDeviation="3" result="blur"/>
      <feFlood flood-opacity="0.161"/>
      <feComposite operator="in" in2="blur"/>
      <feComposite in="SourceGraphic"/>
    </filter>
    <filter id="Path_2321" x="0" y="0" width="48.839" height="63" filterUnits="userSpaceOnUse">
      <feOffset dy="3" input="SourceAlpha"/>
      <feGaussianBlur stdDeviation="3" result="blur-2"/>
      <feFlood flood-opacity="0.161"/>
      <feComposite operator="in" in2="blur-2"/>
      <feComposite in="SourceGraphic"/>
    </filter>
  </defs>
  <g id="Group_3697" data-name="Group 3697" transform="translate(-56 -411)">
    <g class="cls-3" transform="matrix(1, 0, 0, 1, 56, 411)">
      <path id="Path_2331-2" data-name="Path 2331" class="cls-1" d="M229.928,420.4l-.972-4.882a.659.659,0,0,0-1.293.258l.968,4.862a1.606,1.606,0,0,1-.23,1.187c-.515.593-1.621.287-4.447.37v-6.214a.659.659,0,1,0-1.319,0V422.2H210.343a.659.659,0,1,0,0,1.319h16.918a2.687,2.687,0,0,0,2.136-.824A2.828,2.828,0,0,0,229.928,420.4Z" transform="translate(-188.53 -372.52)"/>
    </g>
    <g id="Group_3696" data-name="Group 3696" transform="translate(65 417)">
      <g class="cls-2" transform="matrix(1, 0, 0, 1, -9, -6)">
        <path id="Path_2321-2" data-name="Path 2321" class="cls-1" d="M102.211,33.986c-.352-1.319-.228-3.029-1.935-4.365-.975-.762-1.275-.709-6.868-2.359L91.675,26.09V25a8.731,8.731,0,0,0,4.682-7.741v-.122c2.159-.4,3.213-2.572,2.01-4.2,0-.01.035-2.444-.074-3.467a10.763,10.763,0,0,0-18.762-5.8.659.659,0,0,0,.992.869,9.463,9.463,0,0,1,16.189,3.7l.011.04a12.7,12.7,0,0,1,.328,3.65,3.542,3.542,0,0,0-1.282-.263,2.4,2.4,0,0,1-1.09-1.3,3.167,3.167,0,0,1-.186-1.037A1.8,1.8,0,0,0,93.846,8C92.47,6.85,91.291,8.61,83.83,7.736L82.836,7.6a1.812,1.812,0,0,0-2.094,1.741,3.359,3.359,0,0,1-.131.867A2.372,2.372,0,0,1,80,11.264a2.336,2.336,0,0,1-.53.4,3.54,3.54,0,0,0-1.282.263,10.788,10.788,0,0,1,.791-4.961.659.659,0,0,0-1.208-.53,10.687,10.687,0,0,0-.891,3.85c0,.009-.021,2.471-.008,2.648-1.207,1.632-.143,3.8,2.01,4.2a8.686,8.686,0,0,0,4.643,7.842l.017.009V26.1l-1.707,1.154c-5.123,1.511-5.569,1.64-5.63,1.663a4.38,4.38,0,0,0-2.851,3.321c-2.007,10.084-1.922,9.65-1.927,9.684A2.474,2.474,0,0,0,74.1,45h7.024a.659.659,0,0,0,0-1.319H78.746V37.467a.659.659,0,0,0-1.319,0v6.214H74.1c-1.067,0-1.516-.468-1.37-1.557C74.813,31.982,74.525,31.93,75.387,31a3.308,3.308,0,0,1,1.256-.835l5.039-1.486.011,0c1.271,3.534,1.185,3.384,1.31,3.6a1.324,1.324,0,0,0,1.857.462l1.962-.778v5.51a.659.659,0,1,0,1.319,0V31.927a14.317,14.317,0,0,1,2.379.888,1.327,1.327,0,0,0,1.809-.758l1.207-3.383c5.815,1.715,4.317,1.28,4.568,1.348a3.178,3.178,0,0,1,2.466,2.473l.348,1.748a.659.659,0,0,0,1.293-.257ZM96.357,13.078a1.363,1.363,0,0,1,0,2.7Zm-17.478,2.7a1.363,1.363,0,0,1,0-2.7Zm1.837,4.2c-.671-1.692-.518-2.592-.518-7.218a3.927,3.927,0,0,0,1.864-3.4.492.492,0,0,1,.571-.465l.2.031A31.761,31.761,0,0,0,92.6,8.9a.5.5,0,0,1,.575.521,4,4,0,0,0,1.336,2.967l0,0a3.64,3.64,0,0,0,.53.383c0,.022,0,4.407,0,4.489a7.423,7.423,0,0,1-10.826,6.594l-.011-.005h0A7.451,7.451,0,0,1,80.715,19.986Zm3.439,11.635c-.019,0,.045.13-1.255-3.5l1.154-.78,2.4,3.339A19.907,19.907,0,0,0,84.154,31.621ZM87.5,29.885l-2.643-3.678v-.658a8.831,8.831,0,0,0,2.7.446v-.006h.012v.006a8.461,8.461,0,0,0,2.79-.439v.658Zm3.583,1.733c-.015.013-.039-.038-.179-.089l-2.348-.853,2.6-3.344,1.173.793Z" transform="translate(-62.38 6)"/>
      </g>
      <path id="Path_2322" data-name="Path 2322" class="cls-1" d="M188.544,326.245Z" transform="translate(-178.246 -297.571)"/>
    </g>
  </g>
</svg>
