<svg xmlns="http://www.w3.org/2000/svg" xmlns:xlink="http://www.w3.org/1999/xlink" viewBox="0 0 1236.2 1106.5"><defs><clipPath id="clip-path" transform="translate(146.7 234.2)"><rect width="841.9" height="595.28" style="fill:none"/></clipPath><radialGradient id="radial-gradient" cx="396.13" cy="360.27" r="788.02" gradientUnits="userSpaceOnUse"><stop offset="0" stop-color="#fff"/><stop offset="1" stop-color="#b3b3b3"/></radialGradient></defs><title>Dashboard BG</title><g style="isolation:isolate"><g id="Layer_1" data-name="Layer 1"><g style="clip-path:url(#clip-path)"><rect x="146.7" y="234.2" width="841.9" height="595.28" style="fill:url(#radial-gradient)"/><g style="opacity:0.30000000000000004"><g style="mix-blend-mode:overlay"><polygon points="42.7 692.8 42.2 691.7 563.8 455.2 1085.4 218.7 1085.9 219.8 564.3 456.3 42.7 692.8"/><g style="opacity:0.9230769230769231"><path d="M938.9-15.3l.4,1.1c0,.1-153.1,69.9-160.3,73.5S441.8,213,432.1,217.3l-13.8,6.3c-9.8,4.4-344.4,155.8-352,158.9s-170.1,76.3-170.2,76.3l-.5-1.1c.1,0,162.3-73.1,170.2-76.3S408,227,417.8,222.5l13.9-6.2c9.6-4.4,339.6-154.4,346.8-158.1S938.8-15.2,938.9-15.3Z" transform="translate(146.7 234.2)"/></g><g style="opacity:0.8461538461538461"><path d="M939-15l.5,1.1c-.2.1-145.7,66.8-160,74.1S452.3,210.1,432.9,218.9l-13.8,6.3C399.5,234,81.9,377.2,66.7,383.4S-103.5,459-103.7,459.1l-.5-1.1c.2-.1,154.7-69.3,170.5-75.7S399,233,418.6,224.1l13.8-6.3C451.8,209.1,764.6,66.4,779,59.2S938.9-14.9,939-15Z" transform="translate(146.7 234.2)"/></g><g style="opacity:0.7692307692307693"><path d="M939.2-14.7l.5,1c-.3.2-138.2,63.9-159.7,74.9S462.7,207.3,433.7,220.5l-13.8,6.2C390.4,240,90,375.1,67.2,384.3s-170.4,74.9-170.7,75.1l-.5-1.1c.3-.1,147.1-65.5,170.7-75.1S390,238.9,419.4,225.7l13.8-6.3C462.2,206.3,758,71,779.5,60.1S938.9-14.6,939.2-14.7Z" transform="translate(146.7 234.2)"/></g><g style="opacity:0.6923076923076923"><path d="M939.4-14.4l.5,1c-.4.2-130.7,60.9-159.5,75.5S473.1,204.5,434.5,222l-13.9,6.3C381.4,246,98.1,373,67.7,385.3s-170.6,74.2-171.1,74.3l-.4-1c.4-.2,139.5-61.7,171-74.4s313.7-139.3,353-157L434,221C472.7,203.4,751.3,75.6,780,61S939-14.2,939.4-14.4Z" transform="translate(146.7 234.2)"/></g><g style="opacity:0.6153846153846154"><path d="M939.6-14.2l.5,1.1c-.5.2-123.3,57.9-159.2,76.1S483.6,201.7,435.2,223.6l-13.8,6.3C372.4,252,106.2,370.8,68.1,386.2s-170.7,73.5-171.3,73.7l-.4-1.1c.5-.2,131.9-57.8,171.3-73.7S371.9,250.9,420.9,228.8l13.9-6.3C483.1,200.6,744.6,80.1,780.5,61.9S939.1-13.9,939.6-14.2Z" transform="translate(146.7 234.2)"/></g><g style="opacity:0.5384615384615384"><path d="M939.8-13.9l.5,1.1c-.6.3-115.8,54.9-158.9,76.7S494,198.9,436,225.2l-13.8,6.2C363.3,258,114.2,368.7,68.6,387.1c-47.3,19.1-171,72.8-171.6,73.1l-.5-1.1c.7-.2,124.4-54,171.7-73.1,45.6-18.4,294.6-129.1,353.5-155.6l13.8-6.3c58-26.3,302.4-139.4,345.4-161.3S939.2-13.6,939.8-13.9Z" transform="translate(146.7 234.2)"/></g><g style="opacity:0.46153846153846156"><path d="M939.9-13.6l.5,1c-.6.4-108.3,51.9-158.5,77.4s-277.4,131.3-345.1,162L423,233C354.3,264,122.3,366.5,69.1,388c-55.2,22.3-171.2,72.2-171.9,72.5l-.5-1.1c.8-.3,116.8-50.2,171.9-72.4,53.3-21.6,285.2-124.1,353.9-155l13.8-6.3C504,195,731.2,89.3,781.4,63.8S939.3-13.3,939.9-13.6Z" transform="translate(146.7 234.2)"/></g><g style="opacity:0.38461538461538464"><path d="M940.1-13.3l.5,1c-.7.4-100.8,48.9-158.2,78.1S514.9,193.2,437.6,228.3l-13.8,6.3C345.3,270,130.4,364.4,69.5,389c-63,25.4-171.3,71.4-172.1,71.7l-.5-1.1c.9-.3,109.2-46.2,172.2-71.7,60.8-24.6,275.7-119,354.1-154.4l13.9-6.2C514.4,192.2,724.5,93.8,781.9,64.7S939.4-12.9,940.1-13.3Z" transform="translate(146.7 234.2)"/></g><g style="opacity:0.3076923076923077"><path d="M940.3-13.1l.5,1.1c-.8.4-93.3,45.9-157.9,78.7S525.4,190.4,438.3,229.9l-13.8,6.2C336.2,275.9,138.5,362.2,70,389.9-.9,418.6-101.5,460.6-102.5,461l-.4-1.1c.9-.3,101.5-42.4,172.5-71.1C138,361.2,335.7,274.9,424,235.1l13.9-6.3c87-39.4,279.9-130.4,344.5-163.2S939.4-12.6,940.3-13.1Z" transform="translate(146.7 234.2)"/></g><g style="opacity:0.23076923076923078"><path d="M940.5-12.8l.5,1c-1,.5-85.9,43-157.6,79.4s-247.6,120-344.3,163.9l-13.8,6.2C327.2,281.9,146.5,360.1,70.5,390.8c-78.8,31.9-171.7,70.1-172.8,70.5l-.4-1.1c1-.4,93.9-38.6,172.7-70.5,76.1-30.7,256.7-108.8,354.8-153l13.8-6.3C535.3,186.6,711.1,103,782.9,66.5S939.5-12.3,940.5-12.8Z" transform="translate(146.7 234.2)"/></g><g style="opacity:0.15384615384615385"><path d="M940.6-12.5l.6,1-157.3,80c-79,40.1-237.6,116.3-344,164.5l-13.8,6.3C318.1,287.9,154.6,358,71,391.8l-173.1,69.8-.4-1.1,173-69.8c83.7-33.8,247.2-103.8,355.1-152.5l13.8-6.2c106.4-48.3,265-124.5,344-164.5Z" transform="translate(146.7 234.2)"/></g><g style="opacity:0.07692307692307693"><path d="M940.8-12.3l.6,1.1c-1.2.6-70.9,36.9-157,80.6S556.7,182,440.7,234.6l-13.8,6.2c-117.8,53.1-264.2,115-355.5,151.9-94.6,38.2-172.1,68.7-173.3,69.1l-.5-1.1c1.3-.5,78.8-30.9,173.4-69.1,91.2-36.9,237.6-98.7,355.3-151.8l13.9-6.3c116-52.6,257.5-121.4,343.6-165.1S939.7-11.6,940.8-12.3Z" transform="translate(146.7 234.2)"/></g><g style="opacity:0"><path d="M-101.7,462.1l-.5-1.1c1.4-.5,71.2-27.1,173.7-68.5S309,294.9,441,235.1c125.6-57,250-118.4,343.3-165.8S939.8-11.3,941-12l.5,1c-1.2.7-63.4,34-156.7,81.4S567.1,179.2,441.4,236.2C309.5,296,174.3,352.2,71.9,393.6S-100.4,461.6-101.7,462.1Z" transform="translate(146.7 234.2)"/></g></g><g style="mix-blend-mode:overlay"><polygon points="463 974 462.2 973.3 803.8 596 1145.3 218.7 1146.1 219.4 804.5 596.7 463 974"/><g style="opacity:0.9230769230769231"><path d="M999.6-14.7c-.1.1-100.3,111.3-104.8,116.8S674.1,346.8,667.7,353.8l-8.7,9.6c-6.4,7.1-226.2,249.5-231.3,254.7S316.6,739.8,315.8,739.3l.6-.8S422.7,621.6,428,616.2,651.8,369.9,658.2,362.8l9.3-10.3c6.4-7,222.1-245.8,226.7-251.3S998.7-15.3,998.8-15.4Z" transform="translate(146.7 234.2)"/></g><g style="opacity:0.8461538461538461"><path d="M999.8-14.5c-.1.1-95.2,106.1-104.3,117.1S681.6,340.8,668.9,354.8l-8.7,9.6c-12.8,14.2-221.5,243.8-231.8,254.2S316.9,739.9,316.1,739.5l.5-.8c.1-.1,101.4-111.1,112-121.9S646.5,378,659.3,363.8l9.4-10.3c12.7-14,217.1-240.7,226.2-251.8S998.9-15.1,999-15.2Z" transform="translate(146.7 234.2)"/></g><g style="opacity:0.7692307692307693"><path d="M1000.1-14.4c-.2.3-90.2,101.1-103.9,117.6s-207.1,231.6-226,252.6l-8.8,9.6c-19.3,21.2-216.9,238.2-232.2,253.8S317.2,740,316.4,739.7l.4-.7c.2-.3,96.6-105.4,112.5-121.5S641.2,386.1,660.5,364.9l9.4-10.4c19-21,212-235.6,225.7-252.2S999.1-14.8,999.3-15.1Z" transform="translate(146.7 234.2)"/></g><g style="opacity:0.6923076923076923"><path d="M1000.3-14.2c-.2.3-85.1,95.9-103.3,118s-200.3,225-225.6,252.9l-8.7,9.7c-25.8,28.3-212.3,232.5-232.8,253.3S317.5,740.1,316.7,739.9l.2-.7c.3-.3,91.9-99.6,113.1-121.1S636,394.2,661.7,365.9c.9-1.1,8.4-9.3,9.3-10.3,25.4-28,207.1-230.6,225.3-252.7S999.3-14.6,999.5-14.9Z" transform="translate(146.7 234.2)"/></g><g style="opacity:0.6153846153846154"><path d="M1000.6-14.1c-.3.4-80.1,90.9-102.9,118.4S704.2,322.7,672.6,357.7l-8.7,9.6c-32.2,35.5-207.6,226.9-233.2,253S317.8,740.2,317,740.1v-.7c.4-.4,87.1-93.7,113.5-120.6S630.7,402.3,662.8,366.9l9.4-10.3c31.6-35,202-225.6,224.8-253.1S999.5-14.4,999.8-14.7Z" transform="translate(146.7 234.2)"/></g><g style="opacity:0.5384615384615384"><path d="M1000.8-13.9c-.3.4-75,85.8-102.4,118.8S711.8,316.7,673.8,358.7l-8.7,9.6c-38.7,42.5-202.9,221.3-233.7,252.5S318.2,740.3,317.3,740.3v-.7c.5-.4,82.2-87.9,114-120.2S625.4,410.3,664,368l9.4-10.4c37.9-41.9,197-220.5,224.4-253.5S999.7-14.1,1000-14.6Z" transform="translate(146.7 234.2)"/></g><g style="opacity:0.46153846153846156"><path d="M1001.1-13.7c-.5.5-70,80.6-101.9,119.2S719.3,310.7,675,359.7l-8.7,9.6c-45.1,49.6-198.3,215.6-234.1,252S318.5,740.4,317.6,740.6v-.8c.5-.5,77.4-82.1,114.5-119.8S620.2,418.4,665.1,369l9.4-10.4c44.3-48.9,192-215.4,224-253.9S999.8-13.9,1000.3-14.4Z" transform="translate(146.7 234.2)"/></g><g style="opacity:0.38461538461538464"><path d="M1001.3-13.6c-.5.6-64.9,75.6-101.4,119.6s-173,198.7-223.7,254.6l-8.7,9.6C616,426.9,473.9,580.3,433,621.9S318.8,740.5,317.9,740.8l-.2-.8c.6-.5,72.6-76.3,114.9-119.3C473.5,579.2,614.9,426.5,666.3,370l9.4-10.3c50.6-56,187-210.4,223.5-254.4S1000-13.7,1000.5-14.3Z" transform="translate(146.7 234.2)"/></g><g style="opacity:0.3076923076923077"><path d="M1001.6-13.4c-.6.6-59.9,70.4-101,120s-166.2,192.1-223.2,255l-8.7,9.6c-58,63.8-188.9,204.4-235,251.2C386,670.9,319.1,740.6,318.2,741l-.3-.8c.7-.6,67.7-70.5,115.4-118.9,46-46.7,176.3-186.7,234.2-250.2l9.3-10.4c57-62.9,182-205.3,223.1-254.8s100.3-119.3,100.8-120Z" transform="translate(146.7 234.2)"/></g><g style="opacity:0.23076923076923078"><path d="M1001.8-13.3c-.6.8-54.8,65.4-100.4,120.5S742,292.7,678.6,362.6l-8.7,9.6C605.5,443.1,485.7,570.9,434.5,623c-53,53.8-115.1,117.6-116,118.2l-.4-.8c.7-.7,62.9-64.6,115.9-118.5,51-51.8,170.4-179.2,234.6-249.8l9.4-10.4c63.3-69.9,177-200.2,222.6-255.2S1000.4-13.2,1001-13.9Z" transform="translate(146.7 234.2)"/></g><g style="opacity:0.15384615384615385"><path d="M1002.1-13.1l-100,120.9c-50.2,60.5-152.6,178.8-222.2,255.8l-8.7,9.6c-70.9,77.9-179.7,193.1-236,250.3-58.3,59.2-115.5,117.2-116.4,117.9l-.5-.7L434.7,622.6c56.1-57.1,164.4-171.8,235.1-249.5l9.4-10.3c69.6-77,172-195.2,222.1-255.8s99.3-120,99.9-120.8Z" transform="translate(146.7 234.2)"/></g><g style="opacity:0.07692307692307693"><path d="M1002.3-13c-.7.9-44.7,55.2-99.5,121.3S757,280.6,681.1,364.5l-8.7,9.6C595.1,459.2,497.4,561.6,436,624c-63.6,64.6-116,116.8-116.9,117.6l-.6-.7c.9-.9,53.3-53.1,116.8-117.7,61.3-62.2,158.5-164.3,235.6-249l9.4-10.4c76-83.9,167-190.1,221.7-256.2s98.8-120.3,99.5-121.2Z" transform="translate(146.7 234.2)"/></g><g style="opacity:0"><path d="M319.4,741.8l-.7-.7c.9-.9,48.4-47.3,117.3-117.2S595.1,460.3,681.5,364.8c82.3-90.9,162-185,221.2-256.6s98.2-120.7,99-121.7l.8.7c-.7,1-39.6,50.1-98.9,121.7s-139,165.7-221.3,256.6C595.9,461,505.6,554.6,436.7,624.6S320.4,740.9,319.4,741.8Z" transform="translate(146.7 234.2)"/></g></g><g style="mix-blend-mode:overlay"><polygon points="463 926.6 462.2 926.3 621.3 541.2 780.3 156.1 781.1 156.4 622.1 541.5 463 926.6"/><g style="opacity:0.9230769230769231"><path d="M634.6-77.8c0,.2-148,361-153.9,375.3l-4.2,10.2c-3,7.2-105.2,254.1-107.7,259.5s-52.2,125.1-52.3,125.2l-.8-.3c.1-.1,49.7-119.6,52.3-125.2S472.7,314.6,475.7,307.4l4.2-10.2L633.8-78.1Z" transform="translate(146.7 234.2)"/></g><g style="opacity:0.8461538461538461"><path d="M634.8-77.7c-.1.3-141.1,347.1-152.9,375.6-.2.6-4,9.7-4.2,10.3-6,14.4-103.2,248.4-108.2,259.3s-52.7,124.8-52.8,125l-.7-.3c0-.2,47.5-113.8,52.7-125.1S470.9,322.3,476.9,307.8c.2-.5,4-9.6,4.2-10.2C492.9,269.1,634-77.8,634.1-78.1Z" transform="translate(146.7 234.2)"/></g><g style="opacity:0.7692307692307693"><path d="M635.1-77.7c-.2.5-134.3,333.3-152,376.1l-4.2,10.2c-9,21.7-101.2,242.9-108.7,259.1S317.1,692.3,317,692.5l-.8-.3c.1-.2,45.4-108,53.2-124.8S469.1,330,478.1,308.3l4.2-10.2C500,255.3,634.1-77.6,634.3-78Z" transform="translate(146.7 234.2)"/></g><g style="opacity:0.6923076923076923"><path d="M635.3-77.6c-.2.6-127.4,319.3-151,376.4-.4,1.1-3.8,9.2-4.2,10.2-12,29-99.1,237.3-109.2,259s-53.5,124.3-53.7,124.6l-.8-.3c.2-.3,43.4-102.2,53.7-124.6s97.2-230.1,109.2-259c.4-1,3.8-9.1,4.2-10.2,23.6-57.1,150.8-375.8,151-376.4Z" transform="translate(146.7 234.2)"/></g><g style="opacity:0.6153846153846154"><path d="M635.5-77.6c-.2.8-120.5,305.5-150,376.9l-4.2,10.2c-15,36.1-97.1,231.7-109.7,258.8s-54,124-54.2,124.3l-.7-.3c.1-.4,41.2-96.3,54.2-124.4s94.6-222.6,109.6-258.7l4.2-10.2c29.5-71.4,149.8-376.1,150-376.9Z" transform="translate(146.7 234.2)"/></g><g style="opacity:0.5384615384615384"><path d="M635.8-77.5c-.3.9-113.7,291.6-149.1,377.2-.6,1.6-3.6,8.7-4.2,10.2-18,43.4-95.1,226.1-110.1,258.6s-54.5,123.8-54.7,124.2l-.8-.3c.2-.5,39.1-90.6,54.7-124.2S463.7,353,481.7,309.6c.6-1.5,3.6-8.6,4.2-10.2C521.3,213.8,634.7-76.9,635-77.8Z" transform="translate(146.7 234.2)"/></g><g style="opacity:0.46153846153846156"><path d="M636-77.5c-.3,1.1-106.8,277.7-148.1,377.7-.8,1.8-3.5,8.4-4.2,10.2C462.6,361,390.6,530.9,373.1,568.8s-54.9,123.4-55.2,124l-.8-.4c.3-.5,37-84.7,55.2-124s89.5-207.7,110.6-258.3c.7-1.9,3.4-8.4,4.2-10.2,41.3-100,147.8-376.6,148.1-377.7Z" transform="translate(146.7 234.2)"/></g><g style="opacity:0.38461538461538464"><path d="M636.2-77.4c-.4,1.2-100,263.8-147.1,378-.9,2.1-3.4,8.1-4.2,10.2C460.8,368.7,393.8,525.7,373.8,569c-20.8,44.9-55.4,123.2-55.7,123.8l-.7-.3c.2-.6,34.8-78.9,55.6-123.8,20-43.3,87-200.3,111.1-258.2.8-2.1,3.3-8.1,4.2-10.2C535.5,186.1,635-76.5,635.4-77.7Z" transform="translate(146.7 234.2)"/></g><g style="opacity:0.3076923076923077"><path d="M636.5-77.4c-.5,1.4-93.2,250-146.2,378.5-1,2.3-3.3,7.8-4.2,10.2-27.1,65-89.1,209.3-111.6,258-23.4,50.5-55.8,122.9-56.1,123.6l-.8-.4c.3-.7,32.7-73.1,56.1-123.6C396.3,520.2,458.2,376,485.3,311c.9-2.4,3.2-7.9,4.2-10.2C542.6,172.3,635.2-76.3,635.7-77.7Z" transform="translate(146.7 234.2)"/></g><g style="opacity:0.23076923076923078"><path d="M636.7-77.3c-.5,1.5-86.3,236-145.2,378.8l-4.3,10.2c-30,72.3-86.9,203.7-112,257.9-26,56.1-56.2,122.6-56.6,123.3l-.8-.3c.4-.8,30.6-67.3,56.6-123.4,25.1-54.1,82-185.5,112-257.8l4.3-10.2C549.6,158.4,635.4-76.1,635.9-77.6Z" transform="translate(146.7 234.2)"/></g><g style="opacity:0.15384615384615385"><path d="M636.9-77.3c-.5,1.7-79.4,222.2-144.2,379.3l-4.3,10.2c-33,79.5-84.9,198-112.5,257.6L318.8,693l-.7-.4c.3-.8,28.5-61.4,57-123.1,27.6-59.6,79.5-178.1,112.5-257.6l4.3-10.3c64.8-157,143.7-377.5,144.2-379.1Z" transform="translate(146.7 234.2)"/></g><g style="opacity:0.07692307692307693"><path d="M637.2-77.2c-.6,1.8-72.6,208.3-143.3,379.6l-4.3,10.2c-36,86.8-82.9,192.5-113,257.5-31.1,67.3-57.1,122-57.5,122.9l-.8-.3c.4-.9,26.4-55.7,57.5-123,30.1-65,77-170.6,113-257.4l4.3-10.2C563.8,130.8,635.8-75.7,636.4-77.5Z" transform="translate(146.7 234.2)"/></g><g style="opacity:0"><path d="M319.3,693.1l-.8-.4c.5-1,24.3-49.8,58.1-122.7S454,400,494.2,302.5C570.9,117,636-75.5,636.6-77.4l.8.2c-.6,2-65.7,194.4-142.4,380.1-40.2,97.4-83.9,194.5-117.7,267.4S319.8,692.1,319.3,693.1Z" transform="translate(146.7 234.2)"/></g></g><g style="mix-blend-mode:overlay"><polygon points="1181.4 766.1 1180.7 766.5 985.9 398.2 791.2 29.8 792 29.4 986.7 397.8 1181.4 766.1"/><g style="opacity:0.9230769230769231"><path d="M644.7-204.5l.7-.4c.1,0,57.5,108.1,60.5,113.2s126.4,238,130,244.9c.1.2,5,9.5,5.2,9.7,3.6,7,128.3,243.3,130.8,248.7s62.9,120.1,63,120.2l-.8.4c0-.1-60.3-114.7-62.9-120.2S843.9,170.3,840.3,163.3l-5.1-9.7c-3.7-6.8-127.1-239.9-130.1-244.9S644.7-204.5,644.7-204.5Z" transform="translate(146.7 234.2)"/></g><g style="opacity:0.8461538461538461"><path d="M644.9-204.7l.7-.4c.1.2,55,102.9,60.9,113S829.8,138.9,837,152.5l5.2,9.8c7.3,13.9,125.3,238.1,130.4,248.9s62.4,120.3,62.5,120.4l-.8.4c-.1-.1-57.2-109.3-62.5-120.4s-123.1-235-130.4-248.9c-.3-.5-4.9-9.2-5.1-9.7C829,139.3,711.7-81.6,705.7-91.7S644.9-204.5,644.9-204.7Z" transform="translate(146.7 234.2)"/></g><g style="opacity:0.7692307692307693"><path d="M645-204.8l.8-.4c.1.2,52.5,97.5,61.4,112.7S827.3,131.4,838.1,151.9l5.2,9.8c10.9,20.7,122.2,232.9,129.9,249.1s62,120.5,62.1,120.7l-.8.4c-.1-.3-54.1-104-62-120.7s-119.1-228.3-130-249.1l-5.1-9.8C826.5,131.8,715.3-77,706.4-92.1S645.2-204.6,645-204.8Z" transform="translate(146.7 234.2)"/></g><g style="opacity:0.6923076923076923"><path d="M645.2-205l.8-.4c.2.3,50,92.3,61.8,112.5S824.8,124,839.2,151.3c.6,1,4.7,8.7,5.2,9.7C859,188.7,963.6,388.9,973.9,410.4s61.4,120.6,61.6,120.9l-.8.4c-.2-.3-50.9-98.6-61.6-120.9S858.2,189.2,843.6,161.4l-5.1-9.7C824,124.4,718.9-72.3,707-92.5S645.4-204.7,645.2-205Z" transform="translate(146.7 234.2)"/></g><g style="opacity:0.6153846153846154"><path d="M645.4-205.1l.8-.4c.2.3,47.4,86.9,62.3,112.2S822.3,116.5,840.3,150.6l5.2,9.8C863.7,195,961.7,383.1,974.5,410s61,120.8,61.1,121.2l-.7.4c-.2-.4-47.8-93.3-61.1-121.2S862.9,195.5,844.7,160.8l-5.1-9.7c-18.1-34.2-117.1-218.8-131.9-244S645.6-204.8,645.4-205.1Z" transform="translate(146.7 234.2)"/></g><g style="opacity:0.5384615384615384"><path d="M645.6-205.2l.8-.5c.2.4,44.9,81.7,62.7,112S819.8,109,841.4,150l5.2,9.8c21.9,41.5,113.2,217.5,128.6,249.9s60.4,120.9,60.6,121.4l-.7.3c-.2-.4-44.7-87.9-60.7-121.4S867.7,201.7,845.8,160.2l-5.1-9.8C819,109.5,726.1-63,708.3-93.3S645.9-204.8,645.6-205.2Z" transform="translate(146.7 234.2)"/></g><g style="opacity:0.46153846153846156"><path d="M645.8-205.4l.7-.4c.3.5,42.5,76.3,63.2,111.7S817.3,101.6,842.5,149.4c1,1.7,4.3,8,5.2,9.7,25.5,48.5,110.2,212.5,128.2,250.2s59.9,121.1,60.1,121.6l-.8.4c-.2-.5-41.5-82.6-60.1-121.6S872.4,208,846.9,159.6l-5.1-9.8C816.5,102,729.7-58.3,709-93.7S646.1-204.9,645.8-205.4Z" transform="translate(146.7 234.2)"/></g><g style="opacity:0.38461538461538464"><path d="M646-205.5l.7-.5c.4.6,40,71.1,63.7,111.5S814.8,94.1,843.6,148.7l5.2,9.8C877.9,213.9,956,365.8,976.5,408.9c21.3,44.7,59.4,121.3,59.7,121.9l-.8.4c-.2-.7-38.4-77.3-59.7-121.9S877.2,214.3,848,158.9l-5.1-9.7C814,94.5,733.3-53.7,709.6-94.1S646.3-205,646-205.5Z" transform="translate(146.7 234.2)"/></g><g style="opacity:0.3076923076923077"><path d="M646.2-205.7l.7-.4c.4.6,37.5,65.8,64.1,111.2s101.3,181.6,133.7,243l5.2,9.8C882.7,220.2,954.1,360,977.2,408.5c23.9,50.3,58.9,121.5,59.2,122.1l-.8.4c-.3-.7-35.3-71.9-59.2-122.1-23.1-48.5-94.5-188.3-127.3-250.6-1.1-2.3-3.9-7.5-5.1-9.8C811.5,87.1,736.9-49,710.3-94.5S646.6-205.1,646.2-205.7Z" transform="translate(146.7 234.2)"/></g><g style="opacity:0.23076923076923078"><path d="M646.4-205.8l.7-.4c.4.6,35,60.4,64.6,110.9S809.8,79.2,845.9,147.5l5.1,9.7c36.4,69.3,101.2,197.1,126.8,250.9,26.6,55.9,58.5,121.6,58.8,122.4l-.8.4c-.3-.8-32.2-66.6-58.8-122.4-25.6-53.9-90.3-181.6-126.7-250.8-1.4-2.5-3.9-7.3-5.2-9.8C809,79.6,740.6-44.4,710.9-94.9S646.8-205.1,646.4-205.8Z" transform="translate(146.7 234.2)"/></g><g style="opacity:0.15384615384615385"><path d="M646.6-205.9l.7-.5c.5.7,32.5,55.2,65,110.7S807.2,71.7,847,146.8c1.4,2.8,3.7,7,5.1,9.8,40.1,76.2,98.1,191.9,126.4,251.2l58.3,122.6-.8.3c-.4-.8-29-61.2-58.3-122.6C949.5,348.9,891.4,233.2,851.4,157l-5.2-9.7c-39.7-75.1-102-187-134.6-242.6Z" transform="translate(146.7 234.2)"/></g><g style="opacity:0.07692307692307693"><path d="M646.8-206.1l.7-.4c.5.8,29.9,49.8,65.5,110.4S804.7,64.3,848.1,146.2c1.5,3,3.5,6.8,5.1,9.8,43.7,83.1,95.1,186.7,125.9,251.4,31.9,67,57.5,121.9,57.9,122.8l-.8.4c-.4-.9-25.9-55.9-57.8-122.9-30.8-64.6-82.2-168.2-125.9-251.3l-5.2-9.8C804,64.7,747.8-35.1,712.2-95.6S647.2-205.3,646.8-206.1Z" transform="translate(146.7 234.2)"/></g><g style="opacity:0"><path d="M1037.2,530.1l-.8.3c-.5-1-22.8-50.5-57.4-123S897.7,239.2,848.4,146c-46.9-88.8-97-176.4-135.5-242S647.5-205.4,647-206.2l.7-.5c.5.9,27.4,44.6,65.9,110.2S802.2,56.8,849.2,145.6c49.2,93.2,96,188.8,130.6,261.4S1036.7,529.1,1037.2,530.1Z" transform="translate(146.7 234.2)"/></g></g><g style="mix-blend-mode:overlay"><polygon points="998.9 917.2 998.3 918.2 521.4 614 44.6 309.7 45.2 308.8 522.1 613 998.9 917.2"/><g style="opacity:0.9230769230769231"><path d="M-101.4,74.2l465,295,12.6,8.1c9,5.7,314.6,201.1,321.2,205.7s154.8,99.6,154.9,99.7l-.6,1c-.1-.1-148-94.9-154.9-99.7S384.5,384,375.6,378.3L363,370.2l-465-295Z" transform="translate(146.7 234.2)"/></g><g style="opacity:0.8461538461538461"><path d="M-101.3,73.9c.4.2,430.4,271.3,465.7,293.8l12.7,8.1C395,387.3,684.7,572.9,697.9,582.1S852.3,682.3,852.5,682.4l-.7,1c-.2-.2-140.7-90.7-154.5-100.3S394.4,388.2,376.5,376.8l-12.7-8.1C328.5,346.2-101.5,75.1-101.9,74.9Z" transform="translate(146.7 234.2)"/></g><g style="opacity:0.7692307692307693"><path d="M-101.2,73.6c.6.3,413.5,258.8,466.5,292.6l12.7,8.1c26.8,17.2,300.5,193,320.5,207S852.3,681.9,852.6,682.1l-.6,1c-.3-.2-133.5-86.5-154.2-100.9S404.2,392.5,377.3,375.3l-12.6-8.1c-53-33.8-465.9-292.3-466.5-292.6Z" transform="translate(146.7 234.2)"/></g><g style="opacity:0.6923076923076923"><path d="M-101,73.3c.7.5,396.5,246.3,467.2,291.5l12.7,8c35.7,23,293.5,189,320.1,207.6S852.4,681.6,852.7,681.8l-.6,1c-.4-.3-126.2-82.2-153.8-101.5S414,396.8,378.2,373.8l-12.6-8.1c-70.7-45.1-466.5-291-467.3-291.4Z" transform="translate(146.7 234.2)"/></g><g style="opacity:0.6153846153846154"><path d="M-100.9,73.1c.9.5,379.6,233.8,468,290.2l12.6,8c44.8,28.7,286.6,185,319.8,208.2s152.9,101.7,153.4,102l-.7,1c-.4-.3-118.9-78-153.3-102.1S423.8,401,379.1,372.3l-12.6-8C278.1,307.9-100.6,74.6-101.5,74Z" transform="translate(146.7 234.2)"/></g><g style="opacity:0.5384615384615384"><path d="M-100.8,72.8c1.1.6,362.7,221.3,468.8,289l12.6,8.1C434.3,404.3,660.2,550.8,700,578.6c41.3,28.8,152.4,102.2,153,102.6l-.7,1c-.5-.4-111.6-73.8-152.9-102.6S433.7,405.3,380,370.8l-12.6-8C261.3,295.1-100.3,74.4-101.4,73.8Z" transform="translate(146.7 234.2)"/></g><g style="opacity:0.46153846153846156"><path d="M-100.7,72.5c1.3.7,345.8,208.8,469.6,287.8l12.6,8.1c62.6,40.1,272.5,176.8,319,209.3,48.2,33.6,152,102.8,152.6,103.2l-.6,1c-.7-.5-104.4-69.6-152.6-103.2-46.5-32.5-256.4-169.2-319-209.3l-12.7-8.1C244.5,282.3-100,74.2-101.3,73.5Z" transform="translate(146.7 234.2)"/></g><g style="opacity:0.38461538461538464"><path d="M-100.5,72.2c1.4.8,328.8,196.4,470.2,286.6l12.7,8.1C454,412.8,647.9,539.7,701.1,576.8c55,38.5,151.4,103.3,152.1,103.8l-.6,1c-.7-.5-97.2-65.4-152.2-103.8-53.1-37.1-247.1-164-318.6-209.9l-12.7-8.1C227.7,269.6-99.6,74-101.1,73.2Z" transform="translate(146.7 234.2)"/></g><g style="opacity:0.3076923076923077"><path d="M-100.4,71.9c1.6.9,311.9,183.9,471,285.4l12.6,8.1C463.8,417,641.8,534.2,701.6,575.9c61.9,43.3,151,103.9,151.8,104.4l-.7,1c-.8-.6-89.9-61.2-151.8-104.4C641.1,535.1,463.2,418,382.6,366.4L370,358.3C210.9,256.8-99.3,73.8-101,72.9Z" transform="translate(146.7 234.2)"/></g><g style="opacity:0.23076923076923078"><path d="M-100.3,71.6c1.9,1,295,171.5,471.8,284.3l12.6,8c89.5,57.4,251.6,164.7,318,211.1,68.8,48.1,150.5,104.4,151.4,105.1l-.7.9c-.9-.7-82.6-57-151.4-105C635,529.6,473,422.3,383.5,364.9l-12.6-8.1C194.1,244-99,73.6-100.9,72.6Z" transform="translate(146.7 234.2)"/></g><g style="opacity:0.15384615384615385"><path d="M-100.2,71.3c2.1,1.1,278.1,159,472.6,283.1l12.6,8c98.4,63.1,244.5,160.7,317.6,211.7l151,105.7-.7.9-151-105.6c-73-51-219.1-148.6-317.5-211.7l-12.6-8.1C177.3,231.3-98.7,73.4-100.8,72.3Z" transform="translate(146.7 234.2)"/></g><g style="opacity:0.07692307692307693"><path d="M-100,71c2.2,1.2,261.1,146.5,473.3,281.9l12.6,8.1c107.4,68.8,237.5,156.6,317.2,212.3,82.6,57.6,149.6,105.4,150.7,106.2l-.7.9c-1.1-.8-68.1-48.5-150.7-106.2-79.6-55.6-209.8-143.4-317.1-212.3l-12.7-8C160.5,218.5-98.4,73.2-100.6,72Z" transform="translate(146.7 234.2)"/></g><g style="opacity:0"><path d="M853.9,679.2l-.7.9c-1.2-.9-60.8-44.3-150.2-106.8s-208.8-144-329.5-220.9C143.7,205.7-98.1,73-100.5,71.7l.6-1c2.4,1.3,244.2,134.1,474,280.7,120.7,77,240.1,158.5,329.5,221S852.7,678.3,853.9,679.2Z" transform="translate(146.7 234.2)"/></g></g><g style="mix-blend-mode:overlay"><polygon points="1072.6 856.9 1072.1 858 536.1 656.4 0 454.8 0.4 453.7 536.5 655.3 1072.6 856.9" style="fill:#fff"/><g style="opacity:0.9230769230769231"><path d="M-146.3,219.2,376.1,414.1l14.2,5.4c10.1,3.8,353.7,133.4,361.3,136.6s174.2,66.3,174.3,66.3l-.4,1.1c-.1,0-166.5-63-174.3-66.3S400,424.4,389.9,420.6l-14.2-5.4L-146.7,220.3Z" transform="translate(146.7 234.2)" style="fill:#fff"/></g><g style="opacity:0.8461538461538461"><path d="M-146.2,218.9c.4.1,483.1,178.6,522.9,193.6l14.2,5.3c20.1,7.6,345.9,130.9,361,137.3S925.8,622,926,622.1l-.5,1.1c-.2-.1-158.4-60.4-174-67s-340.9-129.7-361-137.3l-14.2-5.3c-39.8-15-522.5-193.5-522.9-193.6Z" transform="translate(146.7 234.2)" style="fill:#fff"/></g><g style="opacity:0.7692307692307693"><path d="M-146.1,218.6c.6.1,463.7,169.8,523.3,192.2l14.2,5.4c30.2,11.4,338.2,128.3,360.8,137.9S925.7,621.6,926,621.8l-.4,1.1c-.3-.2-150.3-57.7-173.8-67.7S421.2,428.7,391,417.3l-14.2-5.4c-59.6-22.4-522.7-192-523.3-192.2Z" transform="translate(146.7 234.2)" style="fill:#fff"/></g><g style="opacity:0.6923076923076923"><path d="M-146.1,218.2c.8.3,444.4,161.1,523.9,190.9l14.2,5.4c40.3,15.2,330.4,125.8,360.6,138.6s173.1,68.2,173.5,68.4l-.4,1c-.5-.1-142.3-55-173.6-68.3S431.8,430.8,391.6,415.6l-14.2-5.3c-79.5-29.9-523-190.7-523.9-191Z" transform="translate(146.7 234.2)" style="fill:#fff"/></g><g style="opacity:0.6153846153846154"><path d="M-146,217.9c1,.3,425,152.2,524.3,189.6,1.9.7,12.4,4.7,14.3,5.3,50.3,19.1,322.5,123.3,360.3,139.3s172.7,68.8,173.3,69l-.5,1.1c-.5-.2-134.1-52.4-173.2-69S442.5,433,392.2,413.9c-1.9-.6-12.4-4.6-14.3-5.3C278.6,371.2-145.4,219.3-146.4,219Z" transform="translate(146.7 234.2)" style="fill:#fff"/></g><g style="opacity:0.5384615384615384"><path d="M-146,217.6c1.3.4,405.7,143.4,524.9,188.2l14.2,5.4c60.4,22.9,314.8,120.7,360.1,139.9,47,20,172.4,69.4,173,69.7l-.4,1.1c-.6-.3-126.1-49.7-173-69.7-45.3-19.2-299.7-117-360.1-139.9l-14.2-5.4C259.3,362.1-145.1,219.1-146.3,218.7Z" transform="translate(146.7 234.2)" style="fill:#fff"/></g><g style="opacity:0.46153846153846156"><path d="M-145.9,217.3c1.4.4,386.2,134.6,525.4,186.9l14.2,5.3c70.4,26.7,307,118.2,359.8,140.7,54.8,23.2,172.1,70,172.8,70.3l-.5,1.1c-.7-.3-117.9-47.1-172.7-70.4-52.9-22.4-289.4-113.9-359.8-140.6l-14.2-5.3C240,353-144.8,218.8-146.3,218.4Z" transform="translate(146.7 234.2)" style="fill:#fff"/></g><g style="opacity:0.38461538461538464"><path d="M-145.8,217c1.6.4,366.8,125.7,525.8,185.5l14.2,5.4c80.6,30.5,299.3,115.6,359.7,141.3,62.6,26.5,171.6,70.6,172.5,71l-.5,1.1c-.8-.4-109.9-44.5-172.5-71C693,524.6,474.3,439.5,393.8,409l-14.2-5.4c-158.9-59.8-524.1-185-525.8-185.5Z" transform="translate(146.7 234.2)" style="fill:#fff"/></g><g style="opacity:0.3076923076923077"><path d="M-145.8,216.6c1.9.6,347.5,117,526.4,184.3l14.2,5.3c90.6,34.3,291.4,113.1,359.4,142,70.4,29.9,171.3,71.2,172.2,71.7l-.4,1c-1-.4-101.8-41.7-172.3-71.6-67.9-28.9-268.7-107.7-359.3-142L380.2,402C201.3,334.7-144.3,218.3-146.1,217.8Z" transform="translate(146.7 234.2)" style="fill:#fff"/></g><g style="opacity:0.23076923076923078"><path d="M-145.7,216.3c2,.6,328.1,108.2,526.9,182.9l14.2,5.4C496,442.7,679,515.1,754.5,547.2c78.3,33.2,171,71.9,172,72.3l-.5,1.1c-1-.4-93.7-39.1-171.9-72.3C678.6,516.2,495.6,443.8,395,405.7l-14.3-5.4C182,325.6-144,218.1-146.1,217.4Z" transform="translate(146.7 234.2)" style="fill:#fff"/></g><g style="opacity:0.15384615384615385"><path d="M-145.6,216c2.2.7,308.7,99.3,527.3,181.6l14.2,5.3c110.7,41.9,275.9,108,358.9,143.3l171.8,73-.5,1.1-171.7-73C671.3,512,506.2,445.9,395.5,404l-14.2-5.3C162.7,316.5-143.7,217.8-146,217.1Z" transform="translate(146.7 234.2)" style="fill:#fff"/></g><g style="opacity:0.07692307692307693"><path d="M-145.6,215.7c2.5.7,289.4,90.5,527.9,180.2l14.2,5.4C517.3,447,664.6,506.7,755.2,545.2c93.9,39.9,170.2,73.1,171.4,73.7l-.4,1.1c-1.3-.6-77.6-33.9-171.5-73.7-90.6-38.5-237.9-98.2-358.6-143.9L381.9,397C143.4,307.3-143.5,217.5-145.9,216.8Z" transform="translate(146.7 234.2)" style="fill:#fff"/></g><g style="opacity:0"><path d="M926.7,618.6l-.5,1.1c-1.3-.6-69.5-31.2-171.2-74.4s-236.9-98.9-372.6-150c-258.3-97.1-525.6-178-528.3-178.8l.4-1.2c2.6.9,270,81.8,528.3,178.9,135.7,51.1,271,106.8,372.7,150S925.4,618,926.7,618.6Z" transform="translate(146.7 234.2)" style="fill:#fff"/></g></g><g style="mix-blend-mode:overlay"><polygon points="1156.7 294.1 1157.2 295.3 582.5 534.1 7.7 772.8 7.3 771.6 582 532.9 1156.7 294.1" style="fill:#fff"/><g style="opacity:0.9230769230769231"><path d="M1009.8,59.6l.5,1.2c-.2,0-178.8,73.8-187.5,77s-377,155.8-387.9,160.3l-15.2,6.3C409.1,308.8,45.5,460.3,37.5,464s-176.6,74.2-176.7,74.3l-.5-1.2c.1,0,168.8-70.6,176.8-74.3S408.6,307.7,419.2,303.2l15.3-6.3c10.8-4.4,379.5-157.2,387.9-160.3S1009.7,59.6,1009.8,59.6Z" transform="translate(146.7 234.2)" style="fill:#fff"/></g><g style="opacity:0.8461538461538461"><path d="M1009.6,59.3l.5,1.2c-.3.1-170.4,69.9-187.8,76.3S455.8,287.5,434.2,296.4L419,302.7C397.6,311.5,52.9,455.6,37,463s-176.2,74.9-176.4,75l-.5-1.2c.3-.1,160.6-67.6,176.5-75S397.1,310.4,418.5,301.5l15.2-6.3c21.6-8.9,371.4-153.5,388.2-159.6S1009.4,59.4,1009.6,59.3Z" transform="translate(146.7 234.2)" style="fill:#fff"/></g><g style="opacity:0.7692307692307693"><path d="M1009.4,59l.5,1.2c-.4.1-162,66-188,75.6S465.8,281.3,433.4,294.7L418.2,301c-32,13.2-357.9,149.9-381.7,161s-175.7,75.5-176,75.7l-.5-1.2c.3-.2,152.3-64.6,176.1-75.7s349.6-147.7,381.6-161l15.2-6.3c32.4-13.4,363.4-149.7,388.5-158.9S1009.1,59.1,1009.4,59Z" transform="translate(146.7 234.2)" style="fill:#fff"/></g><g style="opacity:0.6923076923076923"><path d="M1009.2,58.7l.5,1.2c-.5.1-153.7,62.1-188.3,74.8S475.8,275.1,432.6,292.9l-15.2,6.3C374.8,316.9,67.7,446.1,36,461s-175.3,76.2-175.7,76.4l-.5-1.2c.4-.2,144.1-61.6,175.8-76.4s338.7-144,381.3-161.7l15.2-6.4c43.2-17.8,355.3-145.9,388.8-158.2S1008.8,58.8,1009.2,58.7Z" transform="translate(146.7 234.2)" style="fill:#fff"/></g><g style="opacity:0.6153846153846154"><path d="M1009,58.4l.5,1.2c-.6.2-145.3,58.2-188.6,74.1-41.8,15.4-335.1,135.2-389.1,157.5l-15.2,6.3C363.3,319.6,75.2,441.4,35.6,460s-175,76.8-175.5,77.1l-.5-1.2c.5-.3,135.9-58.6,175.5-77.1s327.7-140.3,381-162.5l15.2-6.3c54.1-22.3,347.3-142.1,389.1-157.5C863.8,116.6,1008.5,58.6,1009,58.4Z" transform="translate(146.7 234.2)" style="fill:#fff"/></g><g style="opacity:0.5384615384615384"><path d="M1008.9,58.1l.4,1.2c-.7.2-136.9,54.3-188.9,73.4-50.2,18.4-324.5,130-389.4,156.8l-15.2,6.3C351.9,322.3,82.6,436.7,35.1,458.9s-174.6,77.6-175.2,77.9l-.5-1.2c.6-.3,127.6-55.6,175.2-77.8S351.4,321.2,415.3,294.6l15.2-6.3C495.4,261.5,769.8,149.9,820,131.5,872,112.4,1008.2,58.3,1008.9,58.1Z" transform="translate(146.7 234.2)" style="fill:#fff"/></g><g style="opacity:0.46153846153846156"><path d="M1008.7,57.8l.4,1.2c-.8.3-128.5,50.4-189.2,72.7-58.5,21.5-314,124.8-389.7,156L415,294C340.4,325,90,432,34.6,457.9s-174.2,78.2-174.9,78.6l-.5-1.2c.7-.4,119.4-52.6,174.9-78.6S339.9,323.8,414.5,292.9l15.2-6.3C505.4,255.3,760.9,152,819.5,130.5,880.2,108.2,1007.9,58.1,1008.7,57.8Z" transform="translate(146.7 234.2)" style="fill:#fff"/></g><g style="opacity:0.38461538461538464"><path d="M1008.5,57.5l.4,1.2c-.9.3-120.1,46.5-189.5,71.9-66.9,24.6-303.5,119.7-390,155.4l-15.2,6.3C329,327.7,97.4,427.2,34.1,456.9s-173.7,78.9-174.6,79.3l-.5-1.2c.8-.4,111.2-49.6,174.6-79.3S328.5,326.5,413.7,291.1l15.2-6.3C515.4,249.1,752.1,154,819,129.4,888.4,104,1007.6,57.8,1008.5,57.5Z" transform="translate(146.7 234.2)" style="fill:#fff"/></g><g style="opacity:0.3076923076923077"><path d="M1008.3,57.2l.4,1.2c-1,.3-111.7,42.6-189.7,71.2-75.3,27.7-293.1,114.5-390.3,154.7l-15.3,6.3C317.6,330.4,104.9,422.5,33.6,455.9s-173.3,79.5-174.3,80l-.5-1.2c.9-.5,103-46.6,174.3-80S317,329.2,412.9,289.4l15.2-6.3c97.3-40.2,315.1-127,390.4-154.7C896.6,99.8,1007.3,57.5,1008.3,57.2Z" transform="translate(146.7 234.2)" style="fill:#fff"/></g><g style="opacity:0.23076923076923078"><path d="M1008.1,56.9l.4,1.2c-1.1.4-103.3,38.6-190,70.5C734.8,159.3,536,237.9,427.9,282.5l-15.3,6.4c-106.5,44.2-300.3,128.9-379.5,166S-139.8,535-140.8,535.6l-.6-1.2c1.1-.5,94.7-43.6,174-80.7s273-121.8,379.5-166l15.3-6.3c108.1-44.7,307-123.3,390.6-154C904.7,95.5,1006.9,57.3,1008.1,56.9Z" transform="translate(146.7 234.2)" style="fill:#fff"/></g><g style="opacity:0.15384615384615385"><path d="M1007.9,56.6l.4,1.2c-1.2.4-94.9,34.7-190.3,69.8-92,33.8-272,104.1-390.9,153.2l-15.2,6.3c-117.2,48.7-292.2,126-379.3,166.7L-141,535.3l-.6-1.2L32.1,452.7c87.1-40.8,262.1-118.1,379.3-166.8l15.2-6.3c118.9-49.1,298.9-119.4,391-153.2C912.9,91.3,1006.6,57,1007.9,56.6Z" transform="translate(146.7 234.2)" style="fill:#fff"/></g><g style="opacity:0.07692307692307693"><path d="M1007.7,56.3l.5,1.2c-1.4.5-86.7,30.8-190.7,69-100.4,36.9-261.5,99-391.2,152.6l-15.2,6.3c-127.9,53.1-284,122.9-379,167.4S-140,534.3-141.2,535l-.6-1.2c1.3-.6,78.3-37.6,173.4-82.1s251.1-114.4,379-167.5l15.2-6.3c129.7-53.5,290.9-115.7,391.3-152.6C921.1,87.1,1006.3,56.8,1007.7,56.3Z" transform="translate(146.7 234.2)" style="fill:#fff"/></g><g style="opacity:0"><path d="M1007.6,56l.4,1.2c-1.5.5-78.3,26.9-191,68.3S555.7,223.3,410.3,283.7C271.8,341.2,134.6,403.6,31.6,451.8S-140,534-141.4,534.7l-.6-1.2c1.4-.7,70.1-34.6,173.1-82.8S271.3,340,409.8,282.5c145.4-60.4,294.1-116.8,406.8-158.2S1006,56.5,1007.6,56Z" transform="translate(146.7 234.2)" style="fill:#fff"/></g></g><g style="mix-blend-mode:overlay"><polygon points="290.8 98.5 291.6 98.8 168.8 496.9 46.1 895.1 45.2 894.8 168 496.7 290.8 98.5" style="fill:#fff"/><g style="opacity:0.9230769230769231"><path d="M144.6-135.5c0,.1-38.4,123.7-40.5,129.5S23.2,254.9,20.9,262.4c-.1.2-3.2,10.2-3.3,10.5L-100.9,660.8l-.8-.2c0-.2,113.9-373.1,118.5-387.9l3.3-10.6C22.4,254.7,101.3-.6,103.3-6.2s40.5-129.4,40.5-129.5Z" transform="translate(146.7 234.2)" style="fill:#fff"/></g><g style="opacity:0.8461538461538461"><path d="M144.4-135.5c-.1.2-36.9,117.7-41,129.3S24.3,247.1,19.6,262c-.1.6-3,10-3.2,10.6C7.3,302.1-101.1,660.5-101.1,660.8l-.9-.2c.1-.3,108.5-358.7,117.6-388.2.1-.6,3.1-10.1,3.2-10.6,4.7-15,79.8-257,83.8-268.2s40.9-129.2,41-129.4Z" transform="translate(146.7 234.2)" style="fill:#fff"/></g><g style="opacity:0.7692307692307693"><path d="M144.2-135.5c-.1.2-35.3,111.7-41.5,129.2s-77.3,245.6-84.3,268c-.2.8-3,9.7-3.2,10.5C1.5,316.5-101.3,660.3-101.4,660.8l-.8-.3C-102.1,660.1.7,316.3,14.3,272c.3-.8,3-9.7,3.3-10.5C24.6,239,95.9,10.3,101.9-6.6s41.4-129,41.4-129.2Z" transform="translate(146.7 234.2)" style="fill:#fff"/></g><g style="opacity:0.6923076923076923"><path d="M143.9-135.6c-.1.4-33.7,105.8-42,129.1s-75.4,238-84.7,267.9c-.3,1.1-2.9,9.4-3.3,10.5-18.2,59-115.4,388.2-115.5,388.8l-.8-.2c.1-.6,97.3-329.8,115.5-388.8.3-1.1,2.9-9.5,3.3-10.6C25.7,231.2,93.2,15.7,101.1-6.8s41.9-128.7,42-129Z" transform="translate(146.7 234.2)" style="fill:#fff"/></g><g style="opacity:0.6153846153846154"><path d="M143.7-135.6c-.2.4-32.2,99.7-42.5,128.9S27.6,223.7,16,261c-.5,1.4-2.9,9.2-3.3,10.6C-10,345.4-101.7,659.9-101.8,660.7l-.9-.2c.2-.8,91.8-315.3,114.6-389.1l3.2-10.6C26.8,223.4,90.4,21.1,100.4-7s42.3-128.5,42.5-128.9Z" transform="translate(146.7 234.2)" style="fill:#fff"/></g><g style="opacity:0.5384615384615384"><path d="M143.4-135.6c-.1.4-30.5,93.7-42.9,128.7S28.7,215.9,14.7,260.7l-3.2,10.5c-27.3,88.6-113.4,388.5-113.6,389.5l-.8-.3c.2-.9,86.3-300.8,113.6-389.4l3.2-10.5C27.9,215.6,87.7,26.6,99.7-7.2s42.8-128.2,42.9-128.7Z" transform="translate(146.7 234.2)" style="fill:#fff"/></g><g style="opacity:0.46153846153846156"><path d="M143.2-135.6c-.2.5-29,87.7-43.5,128.5S29.8,208,13.5,260.4c-.6,1.9-2.7,8.6-3.2,10.5C-21.6,374.2-102.1,659.6-102.3,660.6l-.8-.2c.2-1.1,80.7-286.4,112.5-389.7l3.3-10.6C29,207.8,85,32,98.9-7.4s43.3-128,43.5-128.5Z" transform="translate(146.7 234.2)" style="fill:#fff"/></g><g style="opacity:0.38461538461538464"><path d="M143-135.7c-.3.6-27.5,81.8-44,128.4C83.1,37.7,30.9,200.2,12.3,260L9,270.6c-36.4,118-111.3,388.8-111.5,390l-.9-.2c.3-1.2,75.2-272,111.6-390.1.7-2.1,2.6-8.3,3.3-10.5C30,200,82.2,37.4,98.2-7.6c16.5-46.6,43.7-127.7,44-128.4Z" transform="translate(146.7 234.2)" style="fill:#fff"/></g><g style="opacity:0.3076923076923077"><path d="M142.7-135.7c-.2.7-25.8,75.8-44.4,128.2C80.3,43.1,32,192.4,11.1,259.7c-.8,2.4-2.6,8.1-3.3,10.5-41,132.9-110.3,389-110.6,390.4l-.8-.3C-103.3,659-34,402.9,7,270c.7-2.4,2.5-8.1,3.2-10.5C31.1,192.2,79.5,42.9,97.5-7.8c18.6-52.4,44.2-127.5,44.4-128.2Z" transform="translate(146.7 234.2)" style="fill:#fff"/></g><g style="opacity:0.23076923076923078"><path d="M142.5-135.7c-.3.7-24.3,69.7-45,128C77.6,48.6,33.1,184.6,9.8,259.4L6.6,269.9C-38.9,417.5-102.7,659-103,660.5l-.8-.2c.3-1.5,64-243,109.5-390.6.9-2.7,2.5-7.9,3.3-10.6C32.2,184.4,76.8,48.3,96.7-8c20.7-58.2,44.7-127.3,45-128Z" transform="translate(146.7 234.2)" style="fill:#fff"/></g><g style="opacity:0.15384615384615385"><path d="M142.3-135.8c-.4.9-22.7,63.8-45.5,127.9C74.9,54,34.2,176.8,8.6,259c-.9,3-2.3,7.6-3.3,10.6-50,162.3-108.2,389.2-108.5,390.9l-.9-.2c.4-1.7,58.6-228.6,108.6-391,.9-2.9,2.4-7.5,3.3-10.5C33.3,176.5,74.1,53.7,96-8.2c22.8-64.1,45.1-127,45.5-127.9Z" transform="translate(146.7 234.2)" style="fill:#fff"/></g><g style="opacity:0.07692307692307693"><path d="M142-135.8c-.3.9-21.1,57.8-45.9,127.7C72.1,59.4,35.3,169,7.4,258.7L4.1,269.2C-50.5,446.4-103.1,658.6-103.5,660.4l-.8-.2c.4-1.8,53-214.1,107.6-391.2,1-3.2,2.2-7.3,3.3-10.5C34.4,168.7,71.3,59.1,95.3-8.3c24.8-70,45.6-126.9,45.9-127.8Z" transform="translate(146.7 234.2)" style="fill:#fff"/></g><g style="opacity:0"><path d="M141-136.1l.8.3c-.4,1-19.6,51.8-46.5,127.5S33.9,168.2,2.9,268.9C-56.3,460.8-103.3,658.4-103.7,660.4l-.9-.2c.5-1.9,47.5-199.6,106.7-391.5C33.1,167.9,67.7,67.2,94.5-8.5S140.6-135.1,141-136.1Z" transform="translate(146.7 234.2)" style="fill:#fff"/></g></g><g style="mix-blend-mode:overlay"><polygon points="580.8 0.2 582 0 704.1 552.3 826.1 1104.6 825 1104.9 702.9 552.6 580.8 0.2" style="fill:#fff"/><g style="opacity:0.9230769230769231"><path d="M433.8-233.9l1.1-.2c.1.1,37.6,171.8,39.1,180s79.4,362.2,81.6,372.6c.1.4,3.2,14.3,3.3,14.6,2.2,10.3,79.9,359.8,81.9,367.5s38.3,169.8,38.3,169.9l-1.1.3c-.1-.1-36.3-162.3-38.3-170S560,343.6,557.8,333.4l-3.3-14.6c-2.2-10.4-80.2-364.7-81.6-372.7S433.8-233.7,433.8-233.9Z" transform="translate(146.7 234.2)" style="fill:#fff"/></g><g style="opacity:0.8461538461538461"><path d="M433.5-233.7l1.1-.3c.1.2,35.5,163.7,38.4,180.2s76.4,352,81,372.8c.1.7,3,13.8,3.2,14.6,4.5,20.4,78.5,351.9,82.6,367.3s38.9,169.6,39,169.8l-1.1.2c-.1-.2-34.9-154.4-39-169.8s-78.1-346.8-82.6-367.3c-.2-.7-3.1-13.8-3.2-14.6-4.6-20.8-78.2-356.8-81-372.8S433.5-233.5,433.5-233.7Z" transform="translate(146.7 234.2)" style="fill:#fff"/></g><g style="opacity:0.7692307692307693"><path d="M433.2-233.6l1.1-.3c.1.4,33.3,155.6,37.7,180.4s73.5,341.7,80.3,372.9c.3,1.1,3,13.5,3.2,14.6,6.8,30.7,77.2,344.1,83.3,367.1s39.6,169.4,39.7,169.7l-1.1.2c-.1-.3-33.5-146.6-39.7-169.6S561.2,365,554.4,334.3c-.2-1.2-3-13.5-3.2-14.7-6.8-31.1-76.1-349-80.3-372.9S433.3-233.3,433.2-233.6Z" transform="translate(146.7 234.2)" style="fill:#fff"/></g><g style="opacity:0.6923076923076923"><path d="M432.9-233.5l1.1-.2c.1.4,31.2,147.4,37,180.4s70.5,331.6,79.6,373.1c.4,1.5,2.9,13.1,3.3,14.6,9,41,75.7,336.3,83.9,367s40.3,169.1,40.4,169.5l-1.1.3c-.1-.4-32.2-138.8-40.4-169.5s-74.9-326-84-367c-.3-1.5-2.9-13.1-3.2-14.6-9.1-41.6-73.9-341.2-79.6-373.2S433-233.1,432.9-233.5Z" transform="translate(146.7 234.2)" style="fill:#fff"/></g><g style="opacity:0.6153846153846154"><path d="M432.6-233.4l1.1-.2c.1.5,29,139.3,36.3,180.6s67.6,321.3,79,373.2l3.2,14.7c11.3,51.2,74.4,328.4,84.6,366.8s41,168.8,41.1,169.3l-1.1.3c-.2-.5-30.8-130.9-41.1-169.3s-73.3-315.7-84.6-366.9c-.5-1.9-2.9-12.7-3.3-14.6C536.5,268.6,476-12.9,468.9-52.8S432.7-232.8,432.6-233.4Z" transform="translate(146.7 234.2)" style="fill:#fff"/></g><g style="opacity:0.5384615384615384"><path d="M432.3-233.3l1.1-.2c.2.7,26.8,131.2,35.6,180.8,8.5,47.8,64.7,311.1,78.3,373.4l3.2,14.6c13.6,61.4,73,320.6,85.4,366.7s41.5,168.5,41.7,169.1l-1.1.3c-.2-.6-29.4-123.1-41.8-169.1S563,397,549.4,335.6l-3.2-14.7C532.5,258.6,476.4-4.7,467.9-52.5,459.1-102.1,432.4-232.6,432.3-233.3Z" transform="translate(146.7 234.2)" style="fill:#fff"/></g><g style="opacity:0.46153846153846156"><path d="M432-233.2l1.2-.2c.1.8,24.6,123.1,34.8,180.9,10,55.9,61.7,300.9,77.6,373.6.6,2.6,2.7,12,3.2,14.6,15.9,71.7,71.7,312.8,86.1,366.6s42.2,168.2,42.4,168.9l-1.1.3c-.2-.7-28.1-115.2-42.5-169s-70.2-294.8-86-366.5c-.6-2.6-2.6-12-3.2-14.6C528.6,248.7,476.8,3.6,466.9-52.3,456.6-110.1,432.1-232.4,432-233.2Z" transform="translate(146.7 234.2)" style="fill:#fff"/></g><g style="opacity:0.38461538461538464"><path d="M431.7-233l1.2-.2c.1.8,22.4,114.9,34.1,181,11.4,63.8,58.8,290.7,76.9,373.7l3.3,14.6c18.1,82,70.2,305,86.7,366.4s42.9,168,43.1,168.9l-1.1.3c-.3-.9-26.7-107.4-43.1-168.9S564.1,418.3,546,336.4c-.6-3-2.5-11.6-3.2-14.6-18.2-83.1-65.6-310-76.9-373.8C454.2-118.1,431.8-232.1,431.7-233Z" transform="translate(146.7 234.2)" style="fill:#fff"/></g><g style="opacity:0.3076923076923077"><path d="M431.4-232.9l1.2-.2c.1,1,20.2,106.8,33.5,181.2,12.7,71.7,55.7,280.4,76.2,373.8.7,3.4,2.4,11.3,3.2,14.7,20.4,92.1,68.9,297.1,87.4,366.2s43.5,167.8,43.8,168.7l-1.1.3c-.3-.9-25.3-99.6-43.8-168.7S564.7,429,544.4,336.8c-.8-3.3-2.5-11.2-3.3-14.6-20.4-93.4-63.4-302.1-76.2-373.9C451.7-126.1,431.6-231.9,431.4-232.9Z" transform="translate(146.7 234.2)" style="fill:#fff"/></g><g style="opacity:0.23076923076923078"><path d="M431.1-232.8l1.2-.2c.1,1.1,18.1,98.7,32.8,181.3,14.1,79.8,52.8,270.3,75.5,374.1l3.2,14.6c22.6,102.4,67.5,289.3,88.1,366.1s44.2,167.5,44.5,168.5l-1.1.3c-.3-1-24-91.7-44.5-168.5s-65.5-263.7-88.1-366.1c-.8-3.8-2.4-10.9-3.2-14.6C516.8,218.8,478.1,28.3,463.9-51.5,449.2-134.1,431.3-231.7,431.1-232.8Z" transform="translate(146.7 234.2)" style="fill:#fff"/></g><g style="opacity:0.15384615384615385"><path d="M430.8-232.7l1.2-.2c.1,1.2,15.9,90.6,32.1,181.5,15.5,87.7,49.8,260,74.8,374.2l3.2,14.6c24.9,112.7,66.2,281.5,88.8,366s44.9,167.2,45.2,168.3l-1.1.3c-.3-1.1-22.6-83.9-45.2-168.3s-63.9-253.4-88.8-366l-3.2-14.6c-25-114.2-59.3-286.6-74.9-374.3C446.8-142.1,431-231.5,430.8-232.7Z" transform="translate(146.7 234.2)" style="fill:#fff"/></g><g style="opacity:0.07692307692307693"><path d="M430.5-232.6l1.2-.2c.2,1.4,13.8,82.5,31.4,181.7,17,95.7,46.9,249.7,74.1,374.3l3.3,14.7c27.1,122.8,64.7,273.6,89.4,365.8s45.6,166.9,45.9,168.1l-1.1.3c-.4-1.2-21.2-76-45.9-168.1s-62.3-243-89.5-365.9l-3.2-14.6C508.9,198.9,478.9,44.8,461.9-50.9,444.3-150.1,430.7-231.2,430.5-232.6Z" transform="translate(146.7 234.2)" style="fill:#fff"/></g><g style="opacity:0"><path d="M430.2-232.5h1.2c.2,1.4,11.6,74.3,30.7,181.7s45.8,249.5,76.7,389.2c29.4,133.1,63.4,265.8,90.1,365.6s46.2,166.7,46.6,168l-1.1.4c-.4-1.4-19.9-68.2-46.6-168.1s-60.7-232.5-90.1-365.6C506.8,198.8,480,56.8,460.9-50.7S430.4-231,430.2-232.5Z" transform="translate(146.7 234.2)" style="fill:#fff"/></g></g><g style="mix-blend-mode:overlay"><polygon points="44.8 130.7 45.6 130.5 133.7 528.9 221.7 927.2 220.9 927.4 132.9 529.1 44.8 130.7" style="fill:#fff"/><g style="opacity:0.9230769230769231"><path d="M-102.1-103.4l.8-.2c0,.1,27.1,123.9,28.2,129.8S-15.9,287.5-14.3,295c.1.2,2.3,10.2,2.4,10.5,1.6,7.4,57.6,259.5,59.1,265S74.7,693,74.8,693l-.9.3c0-.1-26.1-117.1-27.6-122.6s-57.4-257.6-59.1-265c0-.3-2.2-10.3-2.3-10.6C-16.7,287.7-72.9,32.2-74,26.4S-102.1-103.3-102.1-103.4Z" transform="translate(146.7 234.2)" style="fill:#fff"/></g><g style="opacity:0.8461538461538461"><path d="M-102.4-103.3l.9-.2c0,.2,25.5,118,27.6,129.9s55.2,253.9,58.4,268.9c.1.5,2.2,10,2.4,10.5,3.2,14.8,56.6,253.8,59.5,264.9S74.5,693,74.6,693.1l-.9.2c0-.1-25.1-111.3-28.1-122.4S-10.7,320.8-14,306l-2.3-10.5c-3.3-15-56.3-257.4-58.4-268.9S-102.3-103.2-102.4-103.3Z" transform="translate(146.7 234.2)" style="fill:#fff"/></g><g style="opacity:0.7692307692307693"><path d="M-102.6-103.2l.9-.2c0,.2,23.9,112.1,27.1,130s53,246.5,57.9,269c.2.8,2.2,9.7,2.3,10.5,4.9,22.2,55.7,248.2,60.1,264.8S74.3,693,74.3,693.2l-.8.2c0-.2-24.1-105.7-28.6-122.3S-10.3,328.5-15.2,306.3c-.1-.8-2.1-9.7-2.3-10.5C-22.4,273.3-72.3,44-75.4,26.8S-102.5-103-102.6-103.2Z" transform="translate(146.7 234.2)" style="fill:#fff"/></g><g style="opacity:0.6923076923076923"><path d="M-102.8-103.2h.8c.1.3,22.5,106.3,26.7,130.1s50.9,239.1,57.4,269.1c.3,1.1,2.1,9.4,2.3,10.5C-9,336,39.1,548.9,45,571.1S74,693,74.1,693.3l-.8.2c-.1-.3-23.2-100.1-29.1-122.2s-54-235.1-60.6-264.7c-.2-1.1-2.1-9.4-2.3-10.5C-25.3,266.1-72,50-76.1,27S-102.7-102.8-102.8-103.2Z" transform="translate(146.7 234.2)" style="fill:#fff"/></g><g style="opacity:0.6153846153846154"><path d="M-103-103.1h.8c.1.4,20.9,100.4,26.2,130.2s48.7,231.7,56.9,269.2l2.3,10.5c8.2,36.9,53.7,236.9,61.1,264.6S73.8,693,73.9,693.4l-.8.2c-.1-.4-22.2-94.4-29.6-122.1S-9.4,343.9-17.6,306.9l-2.3-10.5C-28.1,258.9-71.7,55.9-76.8,27.2S-102.9-102.7-103-103.1Z" transform="translate(146.7 234.2)" style="fill:#fff"/></g><g style="opacity:0.5384615384615384"><path d="M-103.2-103h.8c.1.4,19.3,94.5,25.7,130.3s46.6,224.4,56.4,269.3c.4,1.6,2,8.9,2.3,10.5,9.8,44.3,52.7,231.3,61.6,264.5s30,121.5,30.1,122l-.8.2c-.2-.5-21.2-88.8-30.1-122S-9,351.5-18.8,307.2c-.3-1.6-2-8.9-2.3-10.5C-30.9,251.8-71.4,61.9-77.6,27.4S-103.1-102.5-103.2-103Z" transform="translate(146.7 234.2)" style="fill:#fff"/></g><g style="opacity:0.46153846153846156"><path d="M-103.4-102.9l.8-.2c.1.6,17.7,88.8,25.2,130.5s44.4,217,55.9,269.4l2.3,10.6C-7.8,359,32.5,532.9,42.9,571.7S73.3,693,73.5,693.6l-.8.2c-.2-.5-20.3-83.1-30.6-121.9S-8.6,359.2-20,307.5L-22.3,297c-11.5-52.4-48.8-229.2-56-269.5S-103.3-102.3-103.4-102.9Z" transform="translate(146.7 234.2)" style="fill:#fff"/></g><g style="opacity:0.38461538461538464"><path d="M-103.7-102.8l.9-.2c.1.7,16.2,82.9,24.6,130.6,8.2,46,42.4,209.6,55.5,269.5.5,2.2,1.8,8.4,2.3,10.6,13.1,59,50.7,219.9,62.6,264.2S73.1,693.1,73.3,693.6l-.9.3c-.1-.6-19.2-77.5-31.1-121.8S-8.1,366.9-21.2,307.9c-.5-2.2-1.9-8.4-2.3-10.6C-36.6,237.4-70.8,73.8-79,27.7-87.5-20-103.6-102.2-103.7-102.8Z" transform="translate(146.7 234.2)" style="fill:#fff"/></g><g style="opacity:0.3076923076923077"><path d="M-103.9-102.7l.9-.2c.1.7,14.6,77,24.1,130.7,9.2,51.7,40.2,202.2,55,269.6.5,2.5,1.8,8.1,2.3,10.6,14.7,66.4,49.7,214.3,63,264.1S72.8,693.1,73,693.7l-.8.3c-.2-.7-18.2-71.8-31.6-121.7s-48.3-197.7-63-264.1c-.5-2.5-1.8-8.1-2.3-10.6-14.8-67.4-45.8-217.9-55-269.7C-89.2-25.7-103.8-102-103.9-102.7Z" transform="translate(146.7 234.2)" style="fill:#fff"/></g><g style="opacity:0.23076923076923078"><path d="M-104.1-102.6l.8-.2c.2.8,13.1,71.2,23.7,130.8,10.2,57.5,38.1,194.9,54.5,269.7l2.3,10.6c16.3,73.8,48.7,208.6,63.5,264S72.6,693.1,72.8,693.8l-.8.2c-.2-.7-17.3-66.1-32.1-121.5s-47.2-190.2-63.5-264l-2.3-10.6C-42.3,223-70.2,85.7-80.4,28.1-91-31.5-104-101.9-104.1-102.6Z" transform="translate(146.7 234.2)" style="fill:#fff"/></g><g style="opacity:0.15384615384615385"><path d="M-104.3-102.6h.8c.2.9,11.5,65.3,23.2,130.9,11.2,63.2,36,187.5,54,269.8.6,3,1.6,7.6,2.3,10.6,17.9,81.2,47.7,203,64,263.9S72.4,693.1,72.6,693.9l-.8.2c-.2-.8-16.3-60.5-32.6-121.4S-6.9,390-24.8,308.8c-.7-3-1.7-7.6-2.3-10.6-18.1-82.3-42.8-206.6-54-269.9C-92.8-37.3-104.2-101.7-104.3-102.6Z" transform="translate(146.7 234.2)" style="fill:#fff"/></g><g style="opacity:0.07692307692307693"><path d="M-104.5-102.5h.8c.2.9,10,59.4,22.7,131,12.2,69,33.8,180.1,53.5,269.9l2.3,10.6c19.6,88.6,46.7,197.4,64.5,263.8S72.1,693.1,72.4,694l-.8.2c-.3-.9-15.3-54.8-33.1-121.3S-6.4,397.7-26,309.1l-2.3-10.5C-48,208.7-69.6,97.5-81.9,28.5-94.6-43-104.4-101.5-104.5-102.5Z" transform="translate(146.7 234.2)" style="fill:#fff"/></g><g style="opacity:0"><path d="M-104.7-102.4h.8c.2,1,8.4,53.6,22.2,131s33,179.9,55.3,280.7c21.2,96,45.7,191.7,65,263.7S71.9,693.1,72.2,694.1l-.8.2c-.3-1-14.4-49.2-33.6-121.2S-6,405.4-27.2,309.4C-49.5,208.6-68.8,106.2-82.6,28.7S-104.6-101.4-104.7-102.4Z" transform="translate(146.7 234.2)" style="fill:#fff"/></g></g></g><path d="M697.5,564.3a167.8,167.8,0,0,1-18.6,3.1,174.5,174.5,0,0,1-51-2L602.2,696.7a305,305,0,0,0,90.9,3.6c11-1.2,21.9-3,32.8-5.3Z" transform="translate(146.7 234.2)" style="fill:#666;mix-blend-mode:overlay"/><path d="M810.7,312.9l117.1-64.8a309,309,0,0,0-80-93.9L765.9,260A170.6,170.6,0,0,1,810.7,312.9Z" transform="translate(146.7 234.2)" style="fill:#3f3f3f;mix-blend-mode:overlay"/><path d="M909.7,386.5a256.8,256.8,0,0,0-5.5-44.2l-57.5,12.6a189.3,189.3,0,0,1,4.2,33.8Z" transform="translate(146.7 234.2)" style="fill:#666;mix-blend-mode:overlay"/><path d="M420.6,320.5l56.1,17.7a193.2,193.2,0,0,1,13.2-31.7l-52-27.5A256.6,256.6,0,0,0,420.6,320.5Z" transform="translate(146.7 234.2)" style="fill:#3f3f3f;mix-blend-mode:overlay"/><path d="M397.1,493.8l139.1-52.5a131.8,131.8,0,0,1-4.2-78.5L387.7,327.1A278.7,278.7,0,0,0,397.1,493.8Z" transform="translate(146.7 234.2)" style="fill:#666;mix-blend-mode:overlay"/><path d="M517.9,153l75.8,127.9a131.1,131.1,0,0,1,76.7-17.8l10.1-148.3A278.6,278.6,0,0,0,517.9,153Z" transform="translate(146.7 234.2)" style="fill:#b2b2b2;mix-blend-mode:overlay"/><path d="M689.7,144.8l-2.3,19.1A233.4,233.4,0,0,1,889,360.3l19.1-3C891.2,246.1,801.8,158.7,689.7,144.8Z" transform="translate(146.7 234.2)" style="fill:#666;mix-blend-mode:overlay"/><path d="M688.9,178.2,721.2,12.1a388.4,388.4,0,0,0-156,1.2l36,165.3A219.5,219.5,0,0,1,688.9,178.2Z" transform="translate(146.7 234.2)" style="fill:#3f3f3f;mix-blend-mode:overlay"/><path d="M840.8,142.1a318.3,318.3,0,0,0-47.4-30.6l-34.4,66a241.7,241.7,0,0,1,36.1,23.4Z" transform="translate(146.7 234.2)" style="fill:#b2b2b2;mix-blend-mode:overlay"/><path d="M379.3,562.7l62.8-40A247.2,247.2,0,0,1,422,484.1l-68.9,28.1A313.1,313.1,0,0,0,379.3,562.7Z" transform="translate(146.7 234.2)" style="fill:#3f3f3f;mix-blend-mode:overlay"/><path d="M528.2,726.4l62.3-177.6a165.7,165.7,0,0,1-79.6-59.7L358.9,600A354.1,354.1,0,0,0,528.2,726.4Z" transform="translate(146.7 234.2)" style="fill:#b2b2b2;mix-blend-mode:overlay"/><path d="M295.9,332.2l185.7,30.5a165.5,165.5,0,0,1,45-88.8L391,143.5A353,353,0,0,0,295.9,332.2Z" transform="translate(146.7 234.2)" style="fill:#8c8c8c;mix-blend-mode:overlay"/><path d="M427.6,159.1l16.7,17.7c96.6-90,242-104.5,354.2-36l12.6-20.9C689.6,45.9,532.2,61.5,427.6,159.1Z" transform="translate(146.7 234.2)" style="fill:#8c8c8c;mix-blend-mode:overlay"/><path d="M745.6,494.9a130.9,130.9,0,0,1-71.1,31.2L690.3,674a279.1,279.1,0,0,0,152.1-66.2Z" transform="translate(146.7 234.2)" style="fill:#8c8c8c;mix-blend-mode:overlay"/><path d="M465.2,526.2l-16,10.8c62.8,93.5,181.4,134.4,289.1,98.4l-6-18.3C632.8,650.4,523.3,612.6,465.2,526.2Z" transform="translate(146.7 234.2)" style="fill:#8c8c8c;mix-blend-mode:overlay"/><path d="M840.8,492.3a235.5,235.5,0,0,1-12.2,20.5,219.6,219.6,0,0,1-43.3,48L891.8,692.3a393.6,393.6,0,0,0,77.3-85.2A384.9,384.9,0,0,0,990.5,571Z" transform="translate(146.7 234.2)" style="fill:#b2b2b2;mix-blend-mode:overlay"/><path d="M812.5,389.3A165,165,0,0,1,785,483.6L941.3,588.4a353.1,353.1,0,0,0,59.3-201.3Z" transform="translate(146.7 234.2)" style="fill:#8c8c8c;mix-blend-mode:overlay"/><path d="M615.1,686.7l-2.6,24.2c141.7,15,277.7-66.7,330.3-200.4l-22.6-9C871.7,625,746,700.5,615.1,686.7Z" transform="translate(146.7 234.2)" style="fill:#3f3f3f;mix-blend-mode:overlay"/><g style="mix-blend-mode:overlay"><path d="M697.5,564q-9.2,1.9-18.6,3a170.9,170.9,0,0,1-51-1.9h-.3v.3L601.9,696.7v.3h.4a304.4,304.4,0,0,0,90.9,3.6,315.9,315.9,0,0,0,32.8-5.3h.3v-.3L697.8,564.2v-.3Zm28.3,130.7a322.8,322.8,0,0,1-32.7,5.3,307,307,0,0,1-90.8-3.6l.2.4,25.7-131.3-.4.3a175,175,0,0,0,51.1,1.9,187,187,0,0,0,18.7-3.1l-.4-.3L725.5,695Z" transform="translate(146.7 234.2)" style="fill:#fff"/><path d="M810.9,313.1l117-64.7.3-.2-.2-.2a298.8,298.8,0,0,0-35.3-51.2A306.7,306.7,0,0,0,848,154l-.2-.2-.2.2L765.7,259.7l-.2.3.2.2A170.6,170.6,0,0,1,810.4,313l.2.3Zm-44.7-53,81.9-105.7h-.5a305.6,305.6,0,0,1,79.9,93.8v-.5l-117,64.8h.4a172.2,172.2,0,0,0-44.9-53Z" transform="translate(146.7 234.2)" style="fill:#fff"/><path d="M910,386.5a254.3,254.3,0,0,0-5.5-44.3v-.3h-.3l-57.5,12.6h-.3v.3a191.6,191.6,0,0,1,4.2,33.8v.3h.3l58.8-2.3h.3Zm-58.8,2.2a192.8,192.8,0,0,0-4.2-33.8l-.2.4,57.4-12.7-.3-.2a251.9,251.9,0,0,1,5.4,44.1l.4-.3-58.8,2.2Z" transform="translate(146.7 234.2)" style="fill:#fff"/><path d="M420.5,320.8l56.1,17.8h.3v-.3a200,200,0,0,1,13.2-31.7l.2-.3h-.3l-52-27.5-.3-.2-.2.3a251.8,251.8,0,0,0-17.3,41.6v.3Zm17.2-41.5,52.1,27.4-.2-.4a202.1,202.1,0,0,0-13.2,31.9l.4-.3-56.1-17.7.2.4a250.8,250.8,0,0,1,17.3-41.5Z" transform="translate(146.7 234.2)" style="fill:#fff"/><path d="M745.4,494.7a130.4,130.4,0,0,1-70.9,31.1h-.4v.4L690,674v.3h.3A279.2,279.2,0,0,0,842.6,608l.3-.2-.2-.3L745.8,494.7l-.2-.2Zm96.8,112.8a278.8,278.8,0,0,1-151.9,66.2l.3.3L674.8,526.1l-.3.3a131.4,131.4,0,0,0,71.3-31.2h-.5L842.2,608Z" transform="translate(146.7 234.2)" style="fill:#fff"/><path d="M397.2,494.1l139.1-52.5h.3v-.3a130.9,130.9,0,0,1-4.2-78.3v-.3h-.3L387.7,326.7h-.3v.3a279.7,279.7,0,0,0,9.4,166.9v.3Zm-9.6-166.7,144.3,35.7-.2-.4a131,131,0,0,0,4.2,78.8l.2-.5L397,493.5l.4.2A278.7,278.7,0,0,1,388,327.1Z" transform="translate(146.7 234.2)" style="fill:#fff"/><path d="M517.7,153.1,593.5,281v.3h.3a130.4,130.4,0,0,1,76.4-17.8h.4v-.4l10.1-148.3v-.3h-.3a280.6,280.6,0,0,0-162.7,38.3h-.3Zm162.5-38.4L670,263.1l.4-.3a130.9,130.9,0,0,0-76.8,17.8h.4L518.2,152.8v.4A281.2,281.2,0,0,1,595.3,122a276.7,276.7,0,0,1,85.1-6.9Z" transform="translate(146.7 234.2)" style="fill:#fff"/><path d="M465,526l-16,10.7-.3.2.2.2a250.3,250.3,0,0,0,56.6,60,254.9,254.9,0,0,0,151,51.6,250.7,250.7,0,0,0,81.9-13h.3v-.3l-6-18.3v-.3h-.3a233,233,0,0,1-266.8-90.7v-.3Zm267,91.2,6,18.3.2-.4a251.7,251.7,0,0,1-161.2-.7,251.5,251.5,0,0,1-127.6-97.6v.4l15.9-10.7h-.4a231.4,231.4,0,0,0,52.3,55.4,234.5,234.5,0,0,0,65.9,35,232.6,232.6,0,0,0,149.3.6Z" transform="translate(146.7 234.2)" style="fill:#fff"/><path d="M689.3,144.8,687,163.9v.3h.3a230.3,230.3,0,0,1,73,21.6A232.4,232.4,0,0,1,888.7,360.3v.4h.3l19-3h.3v-.3a252.9,252.9,0,0,0-73.5-143,257.2,257.2,0,0,0-66-46.4,252.1,252.1,0,0,0-79.2-23.4h-.3ZM908,357l-19,3,.3.2a230.6,230.6,0,0,0-23.5-72.3,235.2,235.2,0,0,0-44.3-59.7,233.5,233.5,0,0,0-134.1-64.6l.3.4,2.3-19.1-.4.2A252.6,252.6,0,0,1,882.3,279.3a247.7,247.7,0,0,1,25.4,78.1Z" transform="translate(146.7 234.2)" style="fill:#fff"/><path d="M840.5,492.1a206.2,206.2,0,0,1-12.2,20.6,218.4,218.4,0,0,1-43.2,47.8l-.3.2.2.3L891.5,692.5l.2.3.3-.2a393,393,0,0,0,77.4-85.3,404.1,404.1,0,0,0,21.4-36.2l.2-.3h-.3L840.9,492l-.3-.2Zm149.7,78.7a349.3,349.3,0,0,1-21.4,36.1,389.1,389.1,0,0,1-77.2,85.2h.4L785.5,560.6v.4a220.6,220.6,0,0,0,43.4-48A226.2,226.2,0,0,0,841,492.4h-.4l149.8,78.8Z" transform="translate(146.7 234.2)" style="fill:#fff"/><path d="M689.2,178.3,721.5,12.1v-.3h-.3A389.4,389.4,0,0,0,565.2,13h-.4v.3l36,165.3v.3h.3a218.5,218.5,0,0,1,87.5-.4h.3Zm-87.7.3-36-165.4-.2.4a388,388,0,0,1,155.8-1.2l-.2-.4L688.6,178.1l.4-.2a218.7,218.7,0,0,0-87.9.4Z" transform="translate(146.7 234.2)" style="fill:#fff"/><path d="M841,141.8a328.6,328.6,0,0,0-47.5-30.6l-.3-.2v.3l-34.4,66-.2.3.3.2a237.1,237.1,0,0,1,36.1,23.4l.3.2.2-.3L841,142.3l.2-.3Zm-45.7,58.9a238.6,238.6,0,0,0-36.2-23.5v.4l34.5-66-.5.2a312.8,312.8,0,0,1,47.3,30.5v-.4l-45.6,58.8Z" transform="translate(146.7 234.2)" style="fill:#fff"/><path d="M379.5,563l62.8-40,.3-.2-.2-.2A243.8,243.8,0,0,1,422.3,484v-.3h-.3L353,511.9l-.3.2v.3A322.3,322.3,0,0,0,379,562.9l.2.2Zm-26.3-50.5,69-28.1-.5-.2a233.3,233.3,0,0,0,20.2,38.7v-.4l-62.9,39.9h.5a317,317,0,0,1-26.2-50.4Z" transform="translate(146.7 234.2)" style="fill:#fff"/><path d="M812.2,389.3a165.1,165.1,0,0,1-27.4,94.1l-.2.3.3.2L941.1,588.7l.3.2v-.3A352.3,352.3,0,0,0,1001,387.1v-.4h-.4L812.5,389h-.3Zm188.1-2.2A352.8,352.8,0,0,1,941,588.2h.4L785.2,483.3v.5a165.8,165.8,0,0,0,27.6-94.5l-.4.3,188.1-2.2Z" transform="translate(146.7 234.2)" style="fill:#fff"/><path d="M528.5,726.5l62.3-177.6v-.3h-.3a165.6,165.6,0,0,1-79.5-59.6l-.2-.3-.2.2-152,110.9-.2.2.2.3A353.7,353.7,0,0,0,528.1,726.7h.3ZM359.1,600.3l152-111h-.5a165.5,165.5,0,0,0,79.7,59.9v-.4L527.9,726.2h.4a355.6,355.6,0,0,1-93.1-49.4,350.9,350.9,0,0,1-76-76.9Z" transform="translate(146.7 234.2)" style="fill:#fff"/><path d="M295.9,332.5,481.5,363h.3v-.3a165.4,165.4,0,0,1,44.9-88.6l.3-.2-.3-.2L391.2,143.3l-.3-.2-.2.2a354.1,354.1,0,0,0-95.1,188.8v.4Zm94.8-188.7L526.4,274.1v-.4a164.9,164.9,0,0,0-45.1,88.9l.3-.3L296,331.9l.2.4a353.6,353.6,0,0,1,95-188.5Z" transform="translate(146.7 234.2)" style="fill:#fff"/><path d="M614.7,686.7l-2.6,24.2v.3h.3a320.3,320.3,0,0,0,104.2-6.2A321.6,321.6,0,0,0,889.2,600.5a314.9,314.9,0,0,0,53.9-89.9l.2-.3H943l-22.7-9H920v.3a295,295,0,0,1-304.8,185h-.3ZM920.1,501.8l22.6,9-.2-.4a319.1,319.1,0,0,1-330,200.2l.3.4,2.6-24.3-.4.3a294.2,294.2,0,0,0,96.3-5.7,296.6,296.6,0,0,0,159.4-96.6,293.9,293.9,0,0,0,49.8-83.1Z" transform="translate(146.7 234.2)" style="fill:#fff"/><path d="M427.3,159.3,444,177.1l.2.2.3-.2a294.6,294.6,0,0,1,353.9-36h.2l.2-.2,12.6-20.9.2-.3h-.3a315.6,315.6,0,0,0-96.6-38.9,320.2,320.2,0,0,0-200.3,20.3,318.5,318.5,0,0,0-87,57.7l-.3.3Zm383.5-39.5-12.6,20.8h.5A295.5,295.5,0,0,0,444,176.6h.5l-16.7-17.8v.5A319.2,319.2,0,0,1,811,120.2Z" transform="translate(146.7 234.2)" style="fill:#fff"/></g><g style="opacity:0.30000000000000004"><path d="M860.9,430.7a189.7,189.7,0,0,1-6,20.8,198.6,198.6,0,0,1-27.1,51.8L951,594.5a352,352,0,0,0,48.4-92.2,332.7,332.7,0,0,0,10.6-36.6Z" transform="translate(146.7 234.2)" style="fill:#666;mix-blend-mode:overlay"/><path d="M656.6,189.8,647.2,36.9A351.1,351.1,0,0,0,510.8,73.3l69,136.8A198.6,198.6,0,0,1,656.6,189.8Z" transform="translate(146.7 234.2)" style="fill:#3f3f3f;mix-blend-mode:overlay"/><path d="M781.5,123.7A290.3,290.3,0,0,0,733,107.6l-15.2,65.7a219.9,219.9,0,0,1,37,12.3Z" transform="translate(146.7 234.2)" style="fill:#666;mix-blend-mode:overlay"/><path d="M472.4,597l46-49.2A217.7,217.7,0,0,1,492,518.5l-54,40.2A280.3,280.3,0,0,0,472.4,597Z" transform="translate(146.7 234.2)" style="mix-blend-mode:overlay"/><path d="M640,706.7,654.3,537A150.7,150.7,0,0,1,571,502.7L463,634.4A319.3,319.3,0,0,0,640,706.7Z" transform="translate(146.7 234.2)" style="fill:#666;mix-blend-mode:overlay"/><path d="M347,413.9l169.7-15.4a150.5,150.5,0,0,1,19.3-88L387.5,227A320,320,0,0,0,347,413.9Z" transform="translate(146.7 234.2)" style="fill:#b2b2b2;mix-blend-mode:overlay"/><path d="M423.2,232.3l18.6,11.8C506.1,143.2,630.3,97.6,744.2,132.2l6.3-21.2C627.2,73.6,492.7,123.1,423.2,232.3Z" transform="translate(146.7 234.2)" style="fill:#666;mix-blend-mode:overlay"/><path d="M457.3,249.5,301.4,134.3a443.9,443.9,0,0,0-75.5,161.9l188.7,44.2A250.4,250.4,0,0,1,457.3,249.5Z" transform="translate(146.7 234.2)" style="fill:#3f3f3f;mix-blend-mode:overlay"/><path d="M494.7,74.7a368.7,368.7,0,0,0-55,33.9l51.4,68.1a278.3,278.3,0,0,1,42-25.9Z" transform="translate(146.7 234.2)" style="fill:#b2b2b2;mix-blend-mode:overlay"/><path d="M702.6,759.1l-10.4-84.7a275.8,275.8,0,0,1-49.9,1.8l-4.8,85.1A370.5,370.5,0,0,0,702.6,759.1Z" transform="translate(146.7 234.2)" style="fill:#3f3f3f;mix-blend-mode:overlay"/><path d="M945.2,685.6l-153-151.8a189.6,189.6,0,0,1-101,52.9l39.9,211.8A403.6,403.6,0,0,0,945.2,685.6Z" transform="translate(146.7 234.2)" style="fill:#b2b2b2;mix-blend-mode:overlay"/><path d="M423.1,731.8,546,554.8a190.1,190.1,0,0,1-69.6-90.3L274.8,540.6A404.1,404.1,0,0,0,423.1,731.8Z" transform="translate(146.7 234.2)" style="fill:#8c8c8c;mix-blend-mode:overlay"/><path d="M308.9,510.4l26.5-8.5c-45.6-144.3,11.1-301.8,137.2-384.2L457.2,94.4C320.8,183.6,259.4,354.2,308.9,510.4Z" transform="translate(146.7 234.2)" style="fill:#8c8c8c;mix-blend-mode:overlay"/><path d="M812.8,346.8a150.1,150.1,0,0,1-2.7,88.9l160.7,56.5a319.2,319.2,0,0,0,6.4-190Z" transform="translate(146.7 234.2)" style="fill:#8c8c8c;mix-blend-mode:overlay"/><path d="M707.2,652.3l3.2,21.8c127.6-19,228.3-121.5,244.1-250.5l-21.9-2.9C918.1,540,825.1,634.7,707.2,652.3Z" transform="translate(146.7 234.2)" style="fill:#8c8c8c;mix-blend-mode:overlay"/><path d="M856.9,247.1a214.7,214.7,0,0,1,15.3,22.7,250.3,250.3,0,0,1,28.3,68.4L1089,292.8a448.4,448.4,0,0,0-50.1-121.9,442.6,442.6,0,0,0-26.8-40Z" transform="translate(146.7 234.2)" style="fill:#b2b2b2;mix-blend-mode:overlay"/><path d="M736.6,225.6a189.7,189.7,0,0,1,83.9,74.8l185.4-109.9a404.6,404.6,0,0,0-179-160.6Z" transform="translate(146.7 234.2)" style="fill:#8c8c8c;mix-blend-mode:overlay"/><path d="M946.9,576.3l23.8,14.6c85.3-139.3,67.7-320.2-44.6-440.4l-20.5,18.9C1009.4,280.4,1025.7,447.6,946.9,576.3Z" transform="translate(146.7 234.2)" style="fill:#3f3f3f;mix-blend-mode:overlay"/><g style="mix-blend-mode:overlay"><path d="M860.5,430.6a180.1,180.1,0,0,1-5.9,20.8,201,201,0,0,1-27.1,51.7l-.2.3.3.2,123.2,91.2.3.2.2-.3a353.6,353.6,0,0,0,59.1-128.9v-.3h-.4L861,430.3h-.4Zm149.2,35.1a356,356,0,0,1-59,128.6h.5L828,503v.5a197.8,197.8,0,0,0,27.2-51.9,203.4,203.4,0,0,0,6-20.8l-.5.2,149.1,35.1Z" transform="translate(146.7 234.2)" style="fill:#fff"/><path d="M656.9,189.8l-9.3-153v-.3h-.4A350.4,350.4,0,0,0,510.6,73h-.3l.2.4,69,136.7v.4l.4-.2a196.2,196.2,0,0,1,76.6-20.2h.4Zm-76.8,20.1-69-136.8v.5a354.8,354.8,0,0,1,66.2-25,347.6,347.6,0,0,1,70.1-11.4l-.4-.3,9.3,152.9.4-.4a200.5,200.5,0,0,0-77,20.3Z" transform="translate(146.7 234.2)" style="fill:#fff"/><path d="M781.7,123.4a288.4,288.4,0,0,0-48.6-16.1h-.3v.3l-15.2,65.7v.4h.3a217,217,0,0,1,37,12.3h.3l.2-.3,26.6-61.9.2-.4ZM755,185.3a221.4,221.4,0,0,0-37.1-12.4l.3.5,15.2-65.7-.4.3a286.2,286.2,0,0,1,48.4,16.1l-.2-.5-26.7,61.9Z" transform="translate(146.7 234.2)" style="fill:#fff"/><path d="M472.6,597.3,518.7,548l.2-.2-.3-.3a227.5,227.5,0,0,1-26.3-29.2l-.2-.3-.3.2-54.1,40.3-.2.2.2.3a290.4,290.4,0,0,0,34.4,38.3l.3.3ZM438.2,559l54-40.2h-.5a230,230,0,0,0,26.4,29.4v-.6l-46,49.3h.5a289.7,289.7,0,0,1-34.3-38.3Z" transform="translate(146.7 234.2)" style="fill:#fff"/><path d="M812.5,346.9a149.1,149.1,0,0,1-2.8,88.7v.4h.4l160.7,56.4.3.2.2-.4a320.1,320.1,0,0,0,6.4-190.2v-.3h-.4L812.7,346.5h-.3Zm164.4-44.6a320.9,320.9,0,0,1-6.4,189.8l.4-.2L810.2,435.4l.2.4a149.6,149.6,0,0,0,2.8-89.1l-.3.5,164.4-44.6Z" transform="translate(146.7 234.2)" style="fill:#fff"/><path d="M640.4,706.8,654.7,537v-.3h-.4a149.1,149.1,0,0,1-83.1-34.2l-.2-.3-.3.3-108,131.7-.3.3.3.3A321.1,321.1,0,0,0,640,707.1h.4ZM463.2,634.6,571.3,502.9h-.5a149.4,149.4,0,0,0,83.5,34.5l-.4-.4L639.6,706.7l.5-.3a320.8,320.8,0,0,1-176.9-72.3Z" transform="translate(146.7 234.2)" style="fill:#fff"/><path d="M347.1,414.3l169.6-15.4h.4v-.3a149.4,149.4,0,0,1,19.3-87.8l.2-.3-.3-.2L387.7,226.7l-.3-.2-.2.3a321.9,321.9,0,0,0-40.6,187.1v.4Zm40.3-187,148.4,83.5v-.5a150,150,0,0,0-19.4,88.2l.3-.4L347,413.5l.4.4a319.6,319.6,0,0,1,40.5-186.8Z" transform="translate(146.7 234.2)" style="fill:#fff"/><path d="M706.8,652.3l3.2,21.9v.3h.3a287.2,287.2,0,0,0,89.9-29.1A289,289,0,0,0,954.9,423.6v-.4h-.3l-21.9-2.8h-.4v.4a266.6,266.6,0,0,1-73.9,153.7,268.7,268.7,0,0,1-68.5,50.8,265.1,265.1,0,0,1-82.8,26.7h-.4ZM932.6,421.1l21.9,2.8-.3-.4a289,289,0,0,1-80.1,166.4,288.2,288.2,0,0,1-163.8,83.9l.4.3-3.2-21.9-.3.5A267.4,267.4,0,0,0,933,420.8Z" transform="translate(146.7 234.2)" style="fill:#fff"/><path d="M423,232.6l18.6,11.8.3.2.2-.3a267,267,0,0,1,302-111.8h.3v-.3l6.4-21.2v-.3h-.4a287.1,287.1,0,0,0-93.5-12.2,289.7,289.7,0,0,0-171,63.2,286.6,286.6,0,0,0-63.2,70.4l-.2.3ZM750.2,110.9l-6.4,21.2.5-.3a265.8,265.8,0,0,0-86.4-11.3A268.8,268.8,0,0,0,574.3,137,266.2,266.2,0,0,0,441.5,243.9h.5L423.4,232v.5a285.3,285.3,0,0,1,63.1-70.2,288.4,288.4,0,0,1,263.8-50.9Z" transform="translate(146.7 234.2)" style="fill:#fff"/><path d="M856.7,247.3A242.5,242.5,0,0,1,871.9,270a247.1,247.1,0,0,1,28.2,68.3v.3h.4l188.5-45.4h.3v-.4a442.9,442.9,0,0,0-50.1-122,428.8,428.8,0,0,0-26.8-40l-.2-.3-.3.2L856.7,246.8l-.3.2Zm155.1-116.1a447.8,447.8,0,0,1,26.8,39.9,443.3,443.3,0,0,1,50,121.8l.3-.4L900.4,337.9l.5.2a251.7,251.7,0,0,0-28.3-68.5,265.4,265.4,0,0,0-15.4-22.7v.5l155.1-116.2Z" transform="translate(146.7 234.2)" style="fill:#fff"/><path d="M457.5,249.2,301.6,134l-.3-.2-.2.3A443.4,443.4,0,0,0,255,211.4a452.1,452.1,0,0,0-29.5,84.7v.4h.4l188.7,44.2h.4v-.4a250.1,250.1,0,0,1,42.7-90.8l.2-.3Zm-42.8,90.9L225.9,295.9l.3.4a453.6,453.6,0,0,1,29.5-84.6,442.1,442.1,0,0,1,46-77.2h-.5L457.1,249.8v-.5a248.8,248.8,0,0,0-42.8,91Z" transform="translate(146.7 234.2)" style="fill:#fff"/><path d="M494.6,74.3a371,371,0,0,0-55.1,34l-.3.2.2.3,51.4,68.1.2.3.3-.2a287.3,287.3,0,0,1,42-25.9h.3l-.2-.4L495.1,74.5l-.2-.3Zm38.3,76.2a278.9,278.9,0,0,0-42,25.9h.5L440,108.4v.5A360.4,360.4,0,0,1,494.9,75l-.5-.2L532.8,151Z" transform="translate(146.7 234.2)" style="fill:#fff"/><path d="M702.9,759l-10.4-84.6V674h-.4a276,276,0,0,1-49.8,1.8H642v.3l-4.9,85.2v.4h.4a363.3,363.3,0,0,0,65.1-2.3h.4Zm-65,2.3,4.8-85.1-.4.3a277.4,277.4,0,0,0,49.9-1.7l-.4-.4,10.4,84.7.3-.4a362.1,362.1,0,0,1-65,2.2Z" transform="translate(146.7 234.2)" style="fill:#fff"/><path d="M736.4,225.9a189.7,189.7,0,0,1,83.8,74.7l.2.4.3-.2,185.4-110,.3-.2-.2-.3a401,401,0,0,0-78.5-95A407.6,407.6,0,0,0,827,29.5h-.3l-.2.3L736.2,225.4v.4ZM826.7,30.2a404,404,0,0,1,178.9,160.5v-.6l-185.3,110,.5.2a189.8,189.8,0,0,0-84.2-75.1l.2.5L827.2,30Z" transform="translate(146.7 234.2)" style="fill:#fff"/><path d="M945.4,685.3l-153-151.7-.2-.3-.3.3a189.2,189.2,0,0,1-100.8,52.8h-.4v.4l40,211.8v.3h.4a405.3,405.3,0,0,0,214.2-113l.3-.3ZM731.5,798.4,691.6,586.6l-.4.5a190,190,0,0,0,101.2-53h-.5l153,151.8v-.5A404.8,404.8,0,0,1,731.1,798.2Z" transform="translate(146.7 234.2)" style="fill:#fff"/><path d="M423.4,732,546.3,555l.2-.3-.3-.2a189.9,189.9,0,0,1-69.5-90.1V464h-.3L274.6,540.3h-.3v.4A404.6,404.6,0,0,0,422.9,732.1l.3.2ZM274.9,541l201.6-76.2-.4-.2a189.6,189.6,0,0,0,69.7,90.5v-.5l-122.9,177h.5a404.7,404.7,0,0,1-148.2-191Z" transform="translate(146.7 234.2)" style="fill:#fff"/><path d="M946.7,576.6l23.8,14.6.3.2.2-.3a366.3,366.3,0,0,0-44.6-440.9l-.3-.2-.2.2-20.6,19-.2.2.2.3a333.4,333.4,0,0,1,61.3,92.2A338.3,338.3,0,0,1,987.9,474a332.2,332.2,0,0,1-41.3,102.1l-.2.3ZM905.8,169.7l20.5-18.9h-.5a361,361,0,0,1,66.3,99.9,365.4,365.4,0,0,1-21.7,340.1h.5l-23.8-14.7v.6a335.8,335.8,0,0,0,41.5-102.4,338.1,338.1,0,0,0-82.8-304.9Z" transform="translate(146.7 234.2)" style="fill:#fff"/><path d="M309,510.8l26.5-8.6h.4v-.3A337.6,337.6,0,0,1,472.8,118l.3-.2-.2-.3L457.5,94.2l-.2-.3-.3.2A366,366,0,0,0,308.5,510.5v.3ZM456.9,94.6l15.4,23.3v-.5A337.9,337.9,0,0,0,339.3,286.5a340.5,340.5,0,0,0-19.8,106.1A335.8,335.8,0,0,0,335.1,502l.2-.5L308.7,510l.5.3a364.9,364.9,0,0,1,4.5-232.9,367.1,367.1,0,0,1,56.1-102.1,361.3,361.3,0,0,1,87.6-80.6Z" transform="translate(146.7 234.2)" style="fill:#fff"/></g></g></g></g></g></svg>