<svg xmlns="http://www.w3.org/2000/svg" width="32.45" height="41.039" viewBox="0 0 32.45 41.039">
  <g id="info_2_" data-name="info (2)" transform="translate(0 0)">
    <path id="Path_2546" data-name="Path 2546" d="M43,349.828a.6.6,0,0,0,.6.6H55.782a.6.6,0,1,0,0-1.2H43.605A.6.6,0,0,0,43,349.828Zm0,0" transform="translate(-39.556 -321.234)" fill="#fff"/>
    <path id="Path_2547" data-name="Path 2547" d="M43.605,395.585H67.959a.6.6,0,1,0,0-1.2H43.605a.6.6,0,1,0,0,1.2Zm0,0" transform="translate(-39.556 -362.771)" fill="#fff"/>
    <path id="Path_2548" data-name="Path 2548" d="M306.346,439.535h-3.581a.6.6,0,1,0,0,1.2h3.581a.6.6,0,1,0,0-1.2Zm0,0" transform="translate(-277.944 -404.304)" fill="#fff"/>
    <path id="Path_2549" data-name="Path 2549" d="M43.605,440.737H61.564a.6.6,0,0,0,0-1.2H43.605a.6.6,0,0,0,0,1.2Zm0,0" transform="translate(-39.556 -404.304)" fill="#fff"/>
    <path id="Path_2550" data-name="Path 2550" d="M32.451,9.44s0-.008,0-.011v0s0-.008,0-.012h0V9.4s0,0,0,0,0-.006,0-.009a.024.024,0,0,1,0,0s0-.007,0-.01a.035.035,0,0,0,0-.006V9.35a.064.064,0,0,0,0-.008V9.336l0-.009,0-.007,0-.008V9.306l0-.007V9.294l0-.012v0l0-.01v0l0-.01v0l0-.013v0l0-.011v0l0-.011h0L32.4,9.2h0l-.006-.013h0l-.02-.039h0l-.023-.037h0L32.342,9.1h0l-.017-.023,0,0-.008-.009v0L32.3,9.049h0l-.008-.01,0,0-.007-.008,0,0-.009-.009L23.434.177l-.01-.009,0,0L23.415.158l0,0L23.391.137l0,0L23.38.128h0L23.343.1h0a.615.615,0,0,0-.158-.075h0L23.142.015h0A.605.605,0,0,0,23,0H1.806A1.808,1.808,0,0,0,0,1.806V9.185a.6.6,0,0,0,1.2,0V1.806a.6.6,0,0,1,.6-.6h20.6V8.354A1.69,1.69,0,0,0,24.1,10.043h7.152V39.234a.6.6,0,0,1-.6.6H1.806a.6.6,0,0,1-.6-.6V12A.6.6,0,1,0,0,12V39.234A1.808,1.808,0,0,0,1.806,41.04H30.645a1.808,1.808,0,0,0,1.806-1.805V9.44Zm-8.354-.6a.486.486,0,0,1-.486-.486v-6.3L30.4,8.841Zm0,0" transform="translate(0 0)" fill="#fff"/>
  </g>
</svg>
