<svg id="Capa_1_copy" xmlns="http://www.w3.org/2000/svg" width="22.082" height="23.831" viewBox="0 0 22.082 23.831">
  <g id="Group_3869" data-name="Group 3869">
    <g id="Group_3868" data-name="Group 3868">
      <path id="Path_2557" data-name="Path 2557" d="M16.962,84.4H1.884A1.885,1.885,0,0,0,0,86.284v16.9a1.885,1.885,0,0,0,1.884,1.884H16.962a1.885,1.885,0,0,0,1.884-1.884v-16.9A1.891,1.891,0,0,0,16.962,84.4Zm.561,18.774a.567.567,0,0,1-.566.566H1.879a.567.567,0,0,1-.566-.566V86.284a.567.567,0,0,1,.566-.566H16.957a.567.567,0,0,1,.566.566Z" transform="translate(0 -81.232)" fill="#434343"/>
      <path id="Path_2558" data-name="Path 2558" d="M99.762,0H88.684A1.885,1.885,0,0,0,86.8,1.884a.659.659,0,1,0,1.318,0,.567.567,0,0,1,.566-.566H99.762a.567.567,0,0,1,.566.566v15.9a.567.567,0,0,1-.566.566.659.659,0,1,0,0,1.318,1.885,1.885,0,0,0,1.884-1.884V1.884A1.885,1.885,0,0,0,99.762,0Z" transform="translate(-79.564)" fill="#434343"/>
    </g>
  </g>
  <path id="Path_2559" data-name="Path 2559" d="M65.874,218.985a1.713,1.713,0,0,0-.793-.193,1.736,1.736,0,0,0-.606.11,1.671,1.671,0,0,0-1.632-1.24,1.722,1.722,0,0,0-.634.12,1.7,1.7,0,0,0-3.208,0,1.723,1.723,0,0,0-.634-.12,1.653,1.653,0,0,0-1.679,1.621v3.9a1.745,1.745,0,0,0-1.48-.438.97.97,0,0,0-.827.511,1.586,1.586,0,0,0-.266,1.247l1,2.442c.233,1.143.514,1.175,1.369,2l.649,1.5v1.723h-.591a.549.549,0,0,0-.558.538v.276a.558.558,0,0,0,1.116,0v.263h7.282v-.263a.558.558,0,0,0,1.116,0V232.7a.549.549,0,0,0-.558-.538h-.576v-1.723l.62-.6c1.147-1.1,1.778-1.442,1.778-3.006v-6.709l-.367-.773m-.75,7.483c0,1.275-.515,1.343-1.451,2.243l-.784.754a.528.528,0,0,0-.164.381v1.946h-5v-1.946a.528.528,0,0,0-.164-.381l-.813-1.653c-.7-.671-.872-.511-1.062-1.444l-1-2.442a.548.548,0,0,1,.092-.43c.09-.127-.057-.032.1-.059a.59.59,0,0,1,.674.423l.3,1.194a.713.713,0,0,0,.789.526.7.7,0,0,0,.637-.693v-5.975a.565.565,0,0,1,1.123-.062v3.328a.455.455,0,0,0,0,.062v.323a.558.558,0,0,0,1.116,0v-3.65q0-.053,0-.1v-.917a.564.564,0,0,1,1.127,0v.916c0,.035,0,.071,0,.106v3.266a.454.454,0,0,0,0,.062v.323a.558.558,0,0,0,1.116,0v-3.713a.565.565,0,0,1,1.123.063v1.025c0,.035,0,.071,0,.106v2.135a.454.454,0,0,0,0,.062v.323a.558.558,0,0,0,1.116,0v-2.582a.565.565,0,0,1,1.123.062v6.424Z" transform="translate(-51.207 -209.869)" fill="#434343"/>
</svg>
