<svg xmlns="http://www.w3.org/2000/svg" width="30.25" height="38.191" viewBox="0 0 30.25 38.191"><g transform="translate(5447.125 -5161.875)"><path d="M43,349.783a.556.556,0,0,0,.556.556H54.817a.556.556,0,1,0,0-1.111H43.56A.556.556,0,0,0,43,349.783Zm0,0" transform="translate(-5486.817 4838.652)" fill="#fff" stroke="#fff" stroke-width="0.25"/><path d="M43.56,395.495H66.075a.556.556,0,1,0,0-1.112H43.56a.556.556,0,1,0,0,1.112Zm0,0" transform="translate(-5486.817 4796.842)" fill="#fff" stroke="#fff" stroke-width="0.25"/><path d="M306.03,439.535h-3.31a.556.556,0,1,0,0,1.112h3.31a.556.556,0,0,0,0-1.112Zm0,0" transform="translate(-5726.772 4755.036)" fill="#fff" stroke="#fff" stroke-width="0.25"/><path d="M43.56,440.647h16.6a.556.556,0,0,0,0-1.112H43.56a.556.556,0,0,0,0,1.112Zm0,0" transform="translate(-5486.817 4755.036)" fill="#fff" stroke="#fff" stroke-width="0.25"/><path d="M30,8.727s0-.007,0-.01v0s0-.008,0-.011h0V8.689s0,0,0,0,0-.005,0-.008a.022.022,0,0,1,0,0s0-.006,0-.009a.032.032,0,0,0,0-.005V8.644a.058.058,0,0,0,0-.007V8.6l0-.007v0l0-.011v0l0-.009v0l0-.009v0l0-.012h0l0-.01v0l0-.01h0L29.953,8.5h0l-.005-.012h0l-.018-.036h0l-.021-.034h0L29.9,8.41h0l-.015-.021v0l-.007-.008h0l-.008-.01h0l-.008-.009,0,0-.006-.007,0,0-.009-.009L21.665.163,21.656.155l0,0L21.647.146l0,0L21.625.127h0L21.615.118h0L21.581.094h0a.568.568,0,0,0-.146-.069h0l-.039-.01h0A.56.56,0,0,0,21.266,0H1.67A1.671,1.671,0,0,0,0,1.67V8.492a.556.556,0,0,0,1.112,0V1.67a.558.558,0,0,1,.558-.558H20.716V7.724a1.563,1.563,0,0,0,1.561,1.561h6.612V36.272a.558.558,0,0,1-.558.558H1.67a.558.558,0,0,1-.558-.558V11.094a.556.556,0,1,0-1.112,0V36.272A1.671,1.671,0,0,0,1.67,37.941H28.331A1.671,1.671,0,0,0,30,36.272V8.727Zm-7.723-.554a.45.45,0,0,1-.449-.45V1.9L28.1,8.173Zm0,0" transform="translate(-5447 5162)" fill="#fff" stroke="#fff" stroke-width="0.25"/></g></svg>