<svg xmlns="http://www.w3.org/2000/svg" width="32.45" height="32.45" viewBox="0 0 32.45 32.45"><g transform="translate(5448 -5007)"><path d="M353.423,346a3.422,3.422,0,1,0,3.422,3.422A3.426,3.426,0,0,0,353.423,346Zm0,5.577a2.155,2.155,0,1,1,2.155-2.155A2.158,2.158,0,0,1,353.423,351.577Zm0,0" transform="translate(-5775.817 4682.929)" fill="#fff"/><path d="M29.281,3.422h-.254V1.9a1.9,1.9,0,0,0-3.8,0V3.422h-7.1V1.9a1.9,1.9,0,0,0-3.8,0V3.422h-7.1V1.9a1.9,1.9,0,0,0-3.8,0V3.422H3.169A3.173,3.173,0,0,0,0,6.591v22.69A3.173,3.173,0,0,0,3.169,32.45H29.281a3.173,3.173,0,0,0,3.169-3.169V6.591A3.173,3.173,0,0,0,29.281,3.422ZM26.492,1.9a.634.634,0,0,1,1.268,0V5.451a.634.634,0,0,1-1.268,0Zm-10.9,0a.634.634,0,0,1,1.268,0V5.451a.634.634,0,0,1-1.268,0Zm-10.9,0a.634.634,0,0,1,1.268,0V5.451a.634.634,0,0,1-1.268,0ZM29.281,31.182H3.169a1.9,1.9,0,0,1-1.9-1.9V10.774H12.549a.634.634,0,0,0,0-1.268H1.268V6.591a1.9,1.9,0,0,1,1.9-1.9h.254v.761a1.9,1.9,0,0,0,3.8,0V4.69h7.1v.761a1.9,1.9,0,0,0,3.8,0V4.69h7.1v.761a1.9,1.9,0,0,0,3.8,0V4.69h.254a1.9,1.9,0,0,1,1.9,1.9V9.507h-11.6a.634.634,0,1,0,0,1.268h11.6V29.281A1.9,1.9,0,0,1,29.281,31.182Zm0,0" transform="translate(-5448 5007)" fill="#fff"/><path d="M205.422,204a3.422,3.422,0,1,0,3.422,3.422A3.426,3.426,0,0,0,205.422,204Zm0,5.577a2.155,2.155,0,1,1,2.155-2.155A2.157,2.157,0,0,1,205.422,209.577Zm0,0" transform="translate(-5637.197 4815.929)" fill="#fff"/><path d="M353.423,204a3.422,3.422,0,1,0,3.422,3.422A3.426,3.426,0,0,0,353.423,204Zm0,5.577a2.155,2.155,0,1,1,2.155-2.155A2.157,2.157,0,0,1,353.423,209.577Zm0,0" transform="translate(-5775.817 4815.929)" fill="#fff"/><path d="M57.422,204a3.422,3.422,0,1,0,3.422,3.422A3.426,3.426,0,0,0,57.422,204Zm0,5.577a2.155,2.155,0,1,1,2.155-2.155A2.157,2.157,0,0,1,57.422,209.577Zm0,0" transform="translate(-5498.578 4815.929)" fill="#fff"/><path d="M205.422,346a3.422,3.422,0,1,0,3.422,3.422A3.426,3.426,0,0,0,205.422,346Zm0,5.577a2.155,2.155,0,1,1,2.155-2.155A2.157,2.157,0,0,1,205.422,351.577Zm0,0" transform="translate(-5637.197 4682.929)" fill="#fff"/><path d="M57.422,346a3.422,3.422,0,1,0,3.422,3.422A3.426,3.426,0,0,0,57.422,346Zm0,5.577a2.155,2.155,0,1,1,2.155-2.155A2.157,2.157,0,0,1,57.422,351.577Zm0,0" transform="translate(-5498.578 4682.929)" fill="#fff"/><path d="M246.634,150.088a.634.634,0,1,0-.448-.186A.639.639,0,0,0,246.634,150.088Zm0,0" transform="translate(-5678.409 4867.611)" fill="#fff"/></g></svg>