<svg xmlns="http://www.w3.org/2000/svg" viewBox="0 0 21.993 19.999">
  <defs>
    <style>
      .cls-1 {
        opacity: 0.5;
      }

      .cls-2 {
        opacity: 0.72;
      }
    </style>
  </defs>
  <g id="filter" class="cls-1" transform="translate(0 -16.684)">
    <g id="Group_355" data-name="Group 355" class="cls-2" transform="translate(0 16.684)">
      <g id="Group_354" data-name="Group 354" transform="translate(0 0)">
        <path id="Path_435" data-name="Path 435" d="M240.562,81.64h.717a.478.478,0,0,0,0-.956h-.717a.478.478,0,0,0,0,.956Z" transform="translate(-225.742 -76.861)"/>
        <path id="Path_436" data-name="Path 436" d="M21.892,17.21a.952.952,0,0,0-.86-.526H.961a1,1,0,0,0-.86.526.952.952,0,0,0,.1,1L8.631,28.822v6.905a.938.938,0,0,0,.5.836.988.988,0,0,0,.454.119.93.93,0,0,0,.55-.167l2.652-1.84a1.46,1.46,0,0,0,.6-1.171V28.8L21.8,18.213A.952.952,0,0,0,21.892,17.21ZM12.526,28.344a.512.512,0,0,0-.1.287v4.851a.51.51,0,0,1-.191.406l-2.652,1.84v-7.1a.434.434,0,0,0-.191-.382L4,21.463h8.674a.478.478,0,0,0,0-.956H3.255L.961,17.64H21.032Z" transform="translate(0 -16.684)"/>
      </g>
    </g>
  </g>
</svg>
