<svg id="Layer_1" data-name="Layer 1" xmlns="http://www.w3.org/2000/svg" viewBox="0 0 90 71"><defs><style>.cls-1{opacity:0.05;}</style></defs><title>Artboard 1</title><g id="frame-landscape" class="cls-1"><path id="Path_821" data-name="Path 821" d="M88.7,0H1.4A1.45,1.45,0,0,0,0,1.47v68.2a1.37,1.37,0,0,0,1.4,1.4H88.6a1.37,1.37,0,0,0,1.4-1.4h0V1.47A1.32,1.32,0,0,0,88.7,0Zm-7.2,59.7L61.9,39.37a.61.61,0,0,0-.8,0l-13.6,12L30,30c-.1-.2-.2-.2-.4-.2s-.3.1-.5.2L8.6,57.57v-49h73v51.1Z"/><path id="Path_822" data-name="Path 822" d="M60,29.27a7,7,0,1,0-7-7h0A7,7,0,0,0,60,29.27Z"/></g></svg>