<svg xmlns="http://www.w3.org/2000/svg" viewBox="0 0 26.418 35"><defs><style>.a{fill:#c7c7c7;}</style></defs><g transform="translate(-740 -1398)"><path class="a" d="M211.349,81.263h-.038l-6.735-6.735H204.5a.6.6,0,0,0-.353-.069H187.411a2.365,2.365,0,0,0-1.666.668l-.038.038a2.473,2.473,0,0,0-.707,1.7v30.173a2.434,2.434,0,0,0,.707,1.7,2.5,2.5,0,0,0,1.7.707h21.6a2.434,2.434,0,0,0,1.7-.707,2.5,2.5,0,0,0,.707-1.7V81.616a1.206,1.206,0,0,0-.069-.353Zm-6.558-4.431,4.016,4.009h-2.941a.96.96,0,0,1-.768-.323,1.106,1.106,0,0,1-.315-.768V76.832Zm5.1,30.035a.883.883,0,0,1-.276.637.906.906,0,0,1-.645.284H187.411a1.037,1.037,0,0,1-.637-.246.852.852,0,0,1-.246-.637V76.655a.883.883,0,0,1,.276-.637h.038a1.029,1.029,0,0,1,.607-.246h15.882v4.009a2.573,2.573,0,0,0,.768,1.843,2.634,2.634,0,0,0,1.843.768h3.932v24.575Z" transform="translate(555 1323.545)"/><g transform="translate(745.002 1406.714)"><path class="a" d="M15.067,15.133h5.1a.567.567,0,0,0,0-1.133h-5.1a.567.567,0,1,0,0,1.133Z" transform="translate(-14.5 -14)"/><path class="a" d="M24.7,36H15.067a.567.567,0,0,0,0,1.133H24.7A.567.567,0,0,0,24.7,36Z" transform="translate(-14.5 -23.534)"/><path class="a" d="M39.033,29H35.067a.567.567,0,0,0,0,1.133h3.966a.567.567,0,0,0,0-1.133Z" transform="translate(-23.167 -20.5)"/><path class="a" d="M15.067,23.133H17.9A.567.567,0,0,0,17.9,22H15.067a.567.567,0,0,0,0,1.133Z" transform="translate(-14.5 -17.467)"/><path class="a" d="M30.067,23.133h3.966a.567.567,0,0,0,0-1.133H30.067a.567.567,0,0,0,0,1.133Z" transform="translate(-21 -17.467)"/><path class="a" d="M24.5,22.572a.567.567,0,1,0,.164-.4A.6.6,0,0,0,24.5,22.572Z" transform="translate(-18.834 -17.472)"/><path class="a" d="M20.067,29a.567.567,0,0,0,0,1.133h5.666a.567.567,0,0,0,0-1.133Z" transform="translate(-16.667 -20.5)"/><path class="a" d="M15.067,30.139a.568.568,0,1,0-.4-.969.583.583,0,0,0-.164.4.561.561,0,0,0,.567.567Z" transform="translate(-14.5 -20.506)"/><path class="a" d="M39.033,43H35.067a.567.567,0,0,0,0,1.133h3.966a.567.567,0,1,0,0-1.133Z" transform="translate(-23.167 -26.567)"/><path class="a" d="M25.733,43H20.067a.567.567,0,0,0,0,1.133h5.666a.567.567,0,0,0,0-1.133Z" transform="translate(-16.667 -26.567)"/><path class="a" d="M14.664,43.17a.574.574,0,0,0-.164.4.561.561,0,0,0,.164.4.6.6,0,0,0,.4.164.585.585,0,0,0,.4-.164.6.6,0,0,0,.164-.4.559.559,0,0,0-.164-.4A.587.587,0,0,0,14.664,43.17Z" transform="translate(-14.5 -26.573)"/><path class="a" d="M42.067,23.139a.6.6,0,0,0,.4-.164.575.575,0,0,0,0-.8.569.569,0,1,0-.4.969Z" transform="translate(-26.201 -17.472)"/><path class="a" d="M37.469,36.974a.567.567,0,1,0-.8,0,.563.563,0,0,0,.4.164A.585.585,0,0,0,37.469,36.974Z" transform="translate(-24.034 -23.539)"/><path class="a" d="M41.664,36.17a.575.575,0,0,0,0,.8.575.575,0,0,0,.8,0,.569.569,0,0,0-.8-.8Z" transform="translate(-26.201 -23.539)"/></g></g></svg>