<svg id="Group_1" data-name="Group 1" xmlns="http://www.w3.org/2000/svg" viewBox="0 0 17.587 20">
  <defs>
    <style>
      .cls-1 {
        fill: #b7b7b7;
      }
    </style>
  </defs>
  <path id="Path_477" data-name="Path 477" class="cls-1" d="M31.308,15.979a.817.817,0,0,0,.815-.815V.819a.811.811,0,0,0-1.3-.652L25.494,4.16a.815.815,0,1,0,.978,1.3l4.021-3.016V15.164A.817.817,0,0,0,31.308,15.979Z" transform="translate(-25.165 0)"/>
  <path id="Path_478" data-name="Path 478" class="cls-1" d="M247.6,86.771a.817.817,0,0,0-.815.815V101.8a.837.837,0,0,0,.448.734.9.9,0,0,0,.367.082.814.814,0,0,0,.489-.163l5.325-3.926a.816.816,0,0,0-.965-1.318l-4.035,2.975V87.586A.817.817,0,0,0,247.6,86.771Z" transform="translate(-236.163 -82.611)"/>
</svg>
