<svg xmlns="http://www.w3.org/2000/svg" xmlns:xlink="http://www.w3.org/1999/xlink" viewBox="0 0 85 85">
  <defs>
    <style>
      .cls-1 {
        clip-path: url(#clip-Inventory);
      }

      .cls-2 {
        fill: #fff;
      }
    </style>
    <clipPath id="clip-Inventory">
      <rect width="85" height="85"/>
    </clipPath>
  </defs>
  <g id="Inventory" class="cls-1">
    <g id="Group_3605" data-name="Group 3605" transform="translate(6)">
      <g id="delivery-cart" transform="matrix(0.996, -0.087, 0.087, 0.996, 24.985, 16.657)">
        <g id="Group_1942" data-name="Group 1942" transform="translate(0 0)">
          <g id="Group_1941" data-name="Group 1941" transform="translate(0 0)">
            <path id="Path_607" data-name="Path 607" class="cls-2" d="M45.622,22.777l-.006-.022-5.88-19.78A4.14,4.14,0,0,0,34.6.169l-.022.006-15.8,4.7-15.8,4.7A4.14,4.14,0,0,0,.169,14.714l.007.021,5.86,19.8a4.144,4.144,0,0,0,5.18,2.78l15.8-4.7,15.8-4.7A4.14,4.14,0,0,0,45.622,22.777ZM10.075,33.415a.16.16,0,0,1-.18,0l-5.88-19.78a.16.16,0,0,1,.06-.2v-.02l13.88-4.14,6,20Zm31.62-9.34-13.88,4.14-6-20,13.86-4.2a.16.16,0,0,1,.14.1L41.7,23.9Z"/>
          </g>
        </g>
      </g>
      <g id="Group_1939" data-name="Group 1939" transform="matrix(0.996, -0.087, 0.087, 0.996, 0, 5.842)">
        <path id="Path_606" data-name="Path 606" class="cls-2" d="M66.923,49.348a1.583,1.583,0,0,0-1.731-1L28.034,59.51,12.363,6.712A1.593,1.593,0,0,0,11.65,5.8L2.237.142a1.581,1.581,0,0,0-2.1.8A1.6,1.6,0,0,0,.653,2.885H.605L9.495,8.211,25.166,61.233a9.594,9.594,0,0,0-4.556,12.73,9.481,9.481,0,0,0,12.65,4.585,9.538,9.538,0,0,0-.092-17.3L66.015,51.41A1.6,1.6,0,0,0,66.923,49.348Zm-31.6,18.806A6.341,6.341,0,1,1,27.475,63.8a6.3,6.3,0,0,1,1.7-.25A6.423,6.423,0,0,1,35.323,68.153Z" transform="translate(0 0)"/>
      </g>
    </g>
  </g>
</svg>
