<svg xmlns="http://www.w3.org/2000/svg" width="1762" height="1762" viewBox="0 0 1762 1762"><g transform="translate(723 -10974)"><rect width="1762" height="1762" transform="translate(-723 10974)" fill="#212121"/><g transform="translate(-179.433 448.567)"><g transform="translate(-64.567 11742.796) rotate(-90)" opacity="0.4"><path d="M353.667,0H26.838A26.8,26.8,0,0,0,0,26.838V644.68a26.923,26.923,0,0,0,26.838,26.837H353.667A26.8,26.8,0,0,0,380.5,644.68V26.933A26.943,26.943,0,0,0,353.667,0Zm-6.686,548.5a13.45,13.45,0,0,1-13.465,13.467H46.993A13.452,13.452,0,0,1,33.525,548.5V40.024A13.452,13.452,0,0,1,46.993,26.556H333.517a13.449,13.449,0,0,1,13.465,13.467Z" fill="#3f3f3f"/></g><g transform="translate(358.033 11070.434)"><path d="M470.214,0H143.385a26.8,26.8,0,0,0-26.838,26.838V644.68a26.923,26.923,0,0,0,26.838,26.837H470.214a26.8,26.8,0,0,0,26.837-26.837V26.933A26.943,26.943,0,0,0,470.214,0Zm-6.686,548.5a13.45,13.45,0,0,1-13.465,13.467H163.54A13.452,13.452,0,0,1,150.072,548.5V40.024A13.452,13.452,0,0,1,163.54,26.556H450.064a13.449,13.449,0,0,1,13.465,13.467Z" transform="translate(-116.547)" fill="#fff"/></g><g transform="translate(84.842 11161.302)"><g transform="translate(0 0)"><path d="M88.918,1.786a4.549,4.549,0,0,1,4.943.979l54.261,42.627a4.531,4.531,0,0,1,0,6.412L93.86,94.226a4.5,4.5,0,0,1-3.2,1.335,4.736,4.736,0,0,1-1.743-.344,4.456,4.456,0,0,1-2.71-4.191V65.618c-58.026,0-83.4,16.368-79.54,68.5-24.58-83.4,22.6-102.25,79.54-102.25V5.971A4.451,4.451,0,0,1,88.918,1.786Z" transform="translate(0 -1.44)" fill="#fff"/></g></g></g></g></svg>