<svg height="511pt" viewBox="1 1 511.9995 511" width="511pt" xmlns="http://www.w3.org/2000/svg"><path d="m470.292969 42.203125c-55.605469-55.605469-146.082031-55.605469-201.6875 0l-75.632813 75.632813c-55.605468 55.605468-55.605468 146.085937 0 201.691406 55.605469 55.605468 146.082032 55.605468 201.6875 0l75.632813-75.632813c55.609375-55.605469 55.609375-146.085937 0-201.691406zm-126.054688 226.902344c-27.800781 27.800781-73.042969 27.800781-100.84375 0-27.804687-27.804688-27.804687-73.042969 0-100.847657l75.632813-75.632812c27.804687-27.800781 73.042968-27.800781 100.847656 0 27.800781 27.804688 27.800781 73.042969 0 100.847656zm0 0" fill="#fe9022"/><path d="m470.300781 42.199219-50.429687 50.429687c27.808594 27.800782 27.808594 73.039063 0 100.839844l-75.632813 75.640625c-27.800781 27.800781-73.039062 27.800781-100.847656 0l-50.421875 50.417969c55.609375 55.601562 146.089844 55.601562 201.691406 0l75.640625-75.636719c55.597657-55.601563 55.597657-146.082031 0-201.691406zm0 0" fill="#fd6328"/><path d="m255.066406 156.585938-11.671875 11.675781c-15.042969 15.042969-21.941406 35.203125-20.699219 54.933593 60.910157 3.796876 89.261719 78.191407 45.910157 121.542969l-75.632813 75.632813c-27.800781 27.800781-73.046875 27.800781-100.84375 0-27.800781-27.800782-27.800781-73.042969 0-100.84375l63.960938-63.960938c-8.121094-30.507812-5.976563-63.207031 6.433594-92.542968-16.4375 6.925781-31.824219 17.085937-45.183594 30.445312l-75.632813 75.632812c-55.609375 55.609376-55.609375 146.082032 0 201.691407 55.605469 55.605469 146.082031 55.605469 201.6875 0l75.632813-75.632813c77.433594-77.433594 41.863281-210.429687-63.960938-238.574218zm0 0" fill="#fed941"/><path d="m319.128906 193.371094-50.507812 50.507812c25.65625 26.050782 29.96875 70.878906-.011719 100.859375l-75.640625 75.632813c-27.800781 27.796875-73.039062 27.796875-100.839844 0l-50.417968 50.417968c55.597656 55.609376 146.078124 55.609376 201.679687 0l75.636719-75.628906c58.621094-58.621094 52.472656-149.089844.101562-201.789062zm0 0" fill="#fcbe29"/></svg>