<svg xmlns="http://www.w3.org/2000/svg" viewBox="0 0 93 19.227">
  <defs>
    <style>
      .cls-1 {
        fill: #fff;
      }
    </style>
  </defs>
  <g id="Group_217" data-name="Group 217" transform="translate(0)">
    <path id="Path_2098" data-name="Path 2098" class="cls-1" d="M2.86,15.859a1.494,1.494,0,0,0,.8,1.263A3.369,3.369,0,0,0,5.2,17.4a2.906,2.906,0,0,0,1.5-.281,1.045,1.045,0,0,0,.468-.842,1.062,1.062,0,0,0-.281-.748,1.537,1.537,0,0,0-1.076-.421l-1.544-.234A6.706,6.706,0,0,1,1.27,13.8a2.812,2.812,0,0,1-.982-2.339,3.134,3.134,0,0,1,.327-1.45A3.083,3.083,0,0,1,1.6,8.936a4.848,4.848,0,0,1,1.5-.7A7.058,7.058,0,0,1,5.059,8a8.585,8.585,0,0,1,2.2.281,4.175,4.175,0,0,1,1.45.7,2.7,2.7,0,0,1,.842,1.076,6.122,6.122,0,0,1,.421,1.31L7.3,11.7a2.116,2.116,0,0,0-.655-1.123A2.671,2.671,0,0,0,5.106,10.2a6.979,6.979,0,0,0-.982.094,2.35,2.35,0,0,0-.608.234,1.093,1.093,0,0,0-.327.327.881.881,0,0,0-.094.374.89.89,0,0,0,.327.8,4.817,4.817,0,0,0,1.263.421l1.4.234a8.84,8.84,0,0,1,1.918.468,3.3,3.3,0,0,1,1.216.748,2.973,2.973,0,0,1,.655,1.029,4.522,4.522,0,0,1,.187,1.357,2.976,2.976,0,0,1-1.17,2.526,5.977,5.977,0,0,1-3.649.936,8.2,8.2,0,0,1-1.871-.187,4.681,4.681,0,0,1-1.591-.608,3.5,3.5,0,0,1-1.17-1.17A3.75,3.75,0,0,1,.1,15.906H2.86Z" transform="translate(-0.1 -4.258)"/>
    <path id="Path_2099" data-name="Path 2099" class="cls-1" d="M26.847,13.938a7.267,7.267,0,0,0,.187,1.731A2.23,2.23,0,0,0,27.6,16.7a1.958,1.958,0,0,0,.842.515,2.734,2.734,0,0,0,.889.094,2.094,2.094,0,0,0,.936-.187,2.411,2.411,0,0,0,.8-.608,3.257,3.257,0,0,0,.515-1.076,5.928,5.928,0,0,0,.187-1.591,6.518,6.518,0,0,0-.187-1.637,3.257,3.257,0,0,0-.515-1.076,1.878,1.878,0,0,0-.748-.608,2.094,2.094,0,0,0-.936-.187,3.016,3.016,0,0,0-.936.14,2.739,2.739,0,0,0-.8.468,2.092,2.092,0,0,0-.608,1.029,4.374,4.374,0,0,0-.187,1.544ZM23.9,8.325h2.9v1.45A3.914,3.914,0,0,1,30.262,8a4.071,4.071,0,0,1,3.462,1.544,6.919,6.919,0,0,1,1.123,4.3,8.164,8.164,0,0,1-.327,2.386,5.858,5.858,0,0,1-.936,1.871,4.642,4.642,0,0,1-1.5,1.216,6.11,6.11,0,0,1-2.012.374,4.818,4.818,0,0,1-1.637-.281,3.776,3.776,0,0,1-1.544-1.17v5.239H23.947V8.325Z" transform="translate(-12.766 -4.255)"/>
    <path id="Path_2100" data-name="Path 2100" class="cls-1" d="M56.047,14.409l-1.31.047a7.707,7.707,0,0,0-1.5.187,2.129,2.129,0,0,0-.889.374,1.144,1.144,0,0,0-.421.515,1.592,1.592,0,0,0-.094.655,1.278,1.278,0,0,0,.374.889,1.726,1.726,0,0,0,1.076.327,3.275,3.275,0,0,0,1.871-.515,2,2,0,0,0,.655-.748,1.883,1.883,0,0,0,.234-1.123Zm.047,3.555a7.154,7.154,0,0,1-1.45,1.216,4.125,4.125,0,0,1-2.105.468,4.829,4.829,0,0,1-1.4-.187,2.808,2.808,0,0,1-1.17-.608,2.9,2.9,0,0,1-.8-1.029,3.287,3.287,0,0,1-.281-1.5,3.275,3.275,0,0,1,.515-1.871,3.37,3.37,0,0,1,1.31-1.123,6.639,6.639,0,0,1,1.871-.561,15.993,15.993,0,0,1,2.105-.187l1.4-.047v-.561a1.585,1.585,0,0,0-.561-1.4,2.148,2.148,0,0,0-1.31-.374c-1.17,0-1.824.421-2.012,1.31l-2.76-.234a3.4,3.4,0,0,1,1.544-2.526A6.065,6.065,0,0,1,54.269,8a6.673,6.673,0,0,1,2.152.327,3.145,3.145,0,0,1,1.4.889,3.232,3.232,0,0,1,.8,1.4,6.11,6.11,0,0,1,.234,1.824v6.97H56.047v-1.45Z" transform="translate(-26.061 -4.258)"/>
    <path id="Path_2101" data-name="Path 2101" class="cls-1" d="M72.794,8.487h2.854v1.544a3.9,3.9,0,0,1,1.31-1.31A3.413,3.413,0,0,1,78.594,8.3a3.541,3.541,0,0,1,.7.047,1.384,1.384,0,0,1,.468.094l-.374,2.666a5.807,5.807,0,0,0-1.263-.14,6.34,6.34,0,0,0-.936.094,2.6,2.6,0,0,0-.8.421,2.252,2.252,0,0,0-.561.748,1.9,1.9,0,0,0-.187.889v6.409H72.7V8.487Z" transform="translate(-38.737 -4.417)"/>
    <path id="Path_2102" data-name="Path 2102" class="cls-1" d="M90.1,0H93V7.906L97.257,4.07h3.415L96.649,7.859,101,15.11H97.772L94.544,9.543,93,10.9v4.21H90.1Z" transform="translate(-47.997)"/>
    <path id="Path_2103" data-name="Path 2103" class="cls-1" d="M115.307,15.859a1.494,1.494,0,0,0,.8,1.263,3.369,3.369,0,0,0,1.544.281,2.906,2.906,0,0,0,1.5-.281,1.045,1.045,0,0,0,.468-.842,1.062,1.062,0,0,0-.281-.748,1.538,1.538,0,0,0-1.076-.421l-1.544-.234a6.706,6.706,0,0,1-2.994-1.076,2.812,2.812,0,0,1-.982-2.339,3.134,3.134,0,0,1,.327-1.45,3.082,3.082,0,0,1,.982-1.076,4.848,4.848,0,0,1,1.5-.7A6.537,6.537,0,0,1,117.459,8a8.585,8.585,0,0,1,2.2.281,4.175,4.175,0,0,1,1.45.7,2.7,2.7,0,0,1,.842,1.076,6.122,6.122,0,0,1,.421,1.31L119.7,11.7a2.116,2.116,0,0,0-.655-1.123,2.671,2.671,0,0,0-1.544-.374,6.979,6.979,0,0,0-.982.094,2.35,2.35,0,0,0-.608.234,1.093,1.093,0,0,0-.327.327.881.881,0,0,0-.094.374.89.89,0,0,0,.327.8,4.817,4.817,0,0,0,1.263.421l1.4.234a12.758,12.758,0,0,1,1.918.468,3.3,3.3,0,0,1,1.216.748,2.973,2.973,0,0,1,.655,1.029,4.522,4.522,0,0,1,.187,1.357,3.1,3.1,0,0,1-1.17,2.526,5.977,5.977,0,0,1-3.649.936,8.2,8.2,0,0,1-1.871-.187,4.681,4.681,0,0,1-1.591-.608,3.5,3.5,0,0,1-1.17-1.17,3.75,3.75,0,0,1-.515-1.871h2.807Z" transform="translate(-59.918 -4.258)"/>
    <rect id="Rectangle_893" data-name="Rectangle 893" class="cls-1" width="1.824" height="15.11" transform="translate(64.744)"/>
    <path id="Path_2104" data-name="Path 2104" class="cls-1" d="M155.3,8.527h1.824v1.684A5.127,5.127,0,0,1,158.9,8.668,4.566,4.566,0,0,1,160.96,8.2a3.4,3.4,0,0,1,2.76,1.029,4.323,4.323,0,0,1,.889,2.994v7.3h-1.824v-6.97a3.211,3.211,0,0,0-.561-2.152,2.127,2.127,0,0,0-1.684-.608,3.514,3.514,0,0,0-1.216.234,2.4,2.4,0,0,0-1.076.7,3.2,3.2,0,0,0-.8.982,3.356,3.356,0,0,0-.281,1.357v6.456h-1.824V8.527Z" transform="translate(-82.696 -4.364)"/>
    <path id="Path_2105" data-name="Path 2105" class="cls-1" d="M178.4,0h1.824V8.795l5.1-4.631h2.245l-3.93,3.649,4.351,7.3h-2.105l-3.649-6.222-2.012,1.871V15.11H178.4Z" transform="translate(-94.99)"/>
    <path id="Path_2106" data-name="Path 2106" class="cls-1" d="M148.575,13.159h-.842V10.024a.822.822,0,1,0-1.591,0v3.134H145.3V10.024A1.765,1.765,0,0,1,146.937,8.2a1.735,1.735,0,0,1,1.637,1.824Z" transform="translate(-77.374 -4.364)"/>
    <path id="Path_2107" data-name="Path 2107" class="cls-1" d="M147.037,26.752a1.735,1.735,0,0,1-1.637-1.824V21.7h.842v3.228a.822.822,0,1,0,1.591,0V21.7h.842v3.228A1.766,1.766,0,0,1,147.037,26.752Z" transform="translate(-77.428 -11.549)"/>
    <path id="Path_2108" data-name="Path 2108" class="cls-1" d="M148.474,19.86c-.234,0-.374-.234-.374-.515V14.715c0-.281.187-.515.374-.515.234,0,.374.234.374.515v4.631C148.848,19.627,148.661,19.86,148.474,19.86Z" transform="translate(-78.865 -7.557)"/>
    <path id="Path_2109" data-name="Path 2109" class="cls-1" d="M190.694,1.65a.881.881,0,0,0,.374.094c.234,0,.327-.094.327-.281s-.094-.234-.327-.327c-.281-.094-.421-.234-.421-.468A.512.512,0,0,1,191.161.2a1.1,1.1,0,0,1,.374.094l-.047.187a.676.676,0,0,0-.327-.094c-.234,0-.327.14-.327.234,0,.14.094.234.327.327.281.094.421.234.421.468a.5.5,0,0,1-.561.468,1.366,1.366,0,0,1-.421-.094Z" transform="translate(-101.483 -0.106)"/>
    <path id="Path_2110" data-name="Path 2110" class="cls-1" d="M194.75,1.236c0-.234-.047-.515-.047-.7-.047.187-.14.421-.187.608l-.281.8h-.187l-.281-.8a4.8,4.8,0,0,1-.187-.655,4.554,4.554,0,0,1-.047.748l-.047.7H193.3L193.394.3h.281l.281.8c.047.187.14.374.187.561a3.93,3.93,0,0,1,.187-.561l.281-.8h.281l.094,1.637H194.8Z" transform="translate(-102.92 -0.16)"/>
  </g>
</svg>
