<svg id="Layer_1" data-name="Layer 1" xmlns="http://www.w3.org/2000/svg" viewBox="0 0 307 91.51"><defs><style>.cls-1{font-size:62.19px;font-family:Blacksword, Blacksword;}.cls-1,.cls-3{fill:#1755bb;}.cls-2{fill:#bf0b34;}.cls-4{fill:#fff;}</style></defs><title>logo</title><text class="cls-1" transform="translate(193.06 59.23)">link</text><path class="cls-2" d="M59.8,103.58q.45,3,2.43,3.94a11,11,0,0,0,4.73.92,9.84,9.84,0,0,0,4.69-.82A2.84,2.84,0,0,0,73.06,105a3.35,3.35,0,0,0-.88-2.3,5.82,5.82,0,0,0-3.38-1.37l-4.73-.79q-6.24-1-9.29-3.38t-3.06-7.26a9.19,9.19,0,0,1,1.09-4.47,9.89,9.89,0,0,1,3-3.34,15.29,15.29,0,0,1,4.7-2.14,22.5,22.5,0,0,1,6-.75,24.17,24.17,0,0,1,6.83.82,13.31,13.31,0,0,1,4.5,2.2,9,9,0,0,1,2.62,3.28,16.67,16.67,0,0,1,1.29,4.07l-8.21,1a6,6,0,0,0-2.07-3.48A8,8,0,0,0,66.76,86a13.74,13.74,0,0,0-3.06.29,6.09,6.09,0,0,0-1.9.76,2.7,2.7,0,0,0-1,1,2.44,2.44,0,0,0-.3,1.11,2.78,2.78,0,0,0,1,2.4,10.22,10.22,0,0,0,4,1.28l4.34.72a30.87,30.87,0,0,1,6,1.51,11.7,11.7,0,0,1,3.78,2.26,7.22,7.22,0,0,1,2,3.19,14.49,14.49,0,0,1,.56,4.27,9.43,9.43,0,0,1-3.67,7.78q-3.69,2.92-11.36,2.92a29.34,29.34,0,0,1-5.88-.56,14.71,14.71,0,0,1-5-1.93,11.05,11.05,0,0,1-3.61-3.68A12.23,12.23,0,0,1,51,103.58Z" transform="translate(-51 -56.17)"/><path class="cls-2" d="M84.36,80.21H93.1v4.53c2.62-3.72,5.48-5.58,10-5.58q7.15,0,10.7,4.85t3.55,13.33a25.82,25.82,0,0,1-1,7.43,16.87,16.87,0,0,1-3,5.74,13.22,13.22,0,0,1-4.69,3.71,14.43,14.43,0,0,1-6.24,1.31,10.62,10.62,0,0,1-4.83-1.12,11.67,11.67,0,0,1-4.29-3.47v14.78h-9Zm8.93,17.4a20.68,20.68,0,0,0,.56,5.35,7.11,7.11,0,0,0,1.81,3.25,6.51,6.51,0,0,0,2.65,1.54,10.55,10.55,0,0,0,2.73.36,7.15,7.15,0,0,0,2.89-.59,6,6,0,0,0,2.39-1.87,9.3,9.3,0,0,0,1.61-3.31,17.68,17.68,0,0,0,.6-4.93,19.46,19.46,0,0,0-.56-5A9.4,9.4,0,0,0,106.42,89a5.62,5.62,0,0,0-2.33-1.84,7.39,7.39,0,0,0-2.85-.56,8.72,8.72,0,0,0-3,.46,8.36,8.36,0,0,0-2.43,1.45,7.42,7.42,0,0,0-1.93,3.15,15.75,15.75,0,0,0-.63,4.86Z" transform="translate(-51 -56.17)"/><path class="cls-2" d="M140.74,110.15a14.47,14.47,0,0,1-4.2,3.74,13.14,13.14,0,0,1-6.54,1.45,15.94,15.94,0,0,1-4.36-.59,10.11,10.11,0,0,1-3.61-1.84,9.07,9.07,0,0,1-2.47-3.19,10.74,10.74,0,0,1-.91-4.63,9.77,9.77,0,0,1,1.57-5.77,10.66,10.66,0,0,1,4.14-3.48,20.74,20.74,0,0,1,5.74-1.78,53.1,53.1,0,0,1,6.47-.65l4-.2V91.5c0-2.1-.59-3.54-1.75-4.33a7.07,7.07,0,0,0-4.1-1.18q-5.44,0-6.24,4.13l-8.4-.78q.91-5.39,4.73-7.78c2.54-1.61,6-2.4,10.24-2.4a20.79,20.79,0,0,1,6.7,1,10.64,10.64,0,0,1,4.43,2.73,10.36,10.36,0,0,1,2.43,4.3,19.93,19.93,0,0,1,.75,5.68v21.66h-8.66Zm-.2-11-4.07.2a24.16,24.16,0,0,0-4.66.59,8.37,8.37,0,0,0-2.73,1.15,3.47,3.47,0,0,0-1.28,1.61,6,6,0,0,0-.33,2,3.3,3.3,0,0,0,1.19,2.68,5,5,0,0,0,3.28,1,9.56,9.56,0,0,0,5.78-1.64,7.15,7.15,0,0,0,2-2.33,7.06,7.06,0,0,0,.79-3.51Z" transform="translate(-51 -56.17)"/><path class="cls-2" d="M216.21,103.58q.47,3,2.43,3.94a11,11,0,0,0,4.73.92,9.89,9.89,0,0,0,4.7-.82,2.84,2.84,0,0,0,1.41-2.66,3.36,3.36,0,0,0-.89-2.3,5.78,5.78,0,0,0-3.38-1.37l-4.73-.79q-6.24-1-9.29-3.38c-2-1.6-3.05-4-3.05-7.26a9.18,9.18,0,0,1,1.08-4.47,9.82,9.82,0,0,1,3.06-3.34A15.23,15.23,0,0,1,217,79.91a22.58,22.58,0,0,1,6-.75,24.09,24.09,0,0,1,6.82.82,13.31,13.31,0,0,1,4.5,2.2,9,9,0,0,1,2.63,3.28,16.65,16.65,0,0,1,1.28,4.07l-8.21,1a6,6,0,0,0-2.07-3.48A8,8,0,0,0,223.18,86a13.68,13.68,0,0,0-3.06.29,6,6,0,0,0-1.9.76,2.73,2.73,0,0,0-1,1,2.57,2.57,0,0,0-.3,1.11,2.81,2.81,0,0,0,1,2.4,10.28,10.28,0,0,0,4,1.28l4.33.72a30.87,30.87,0,0,1,6,1.51A11.59,11.59,0,0,1,236,97.37a7.24,7.24,0,0,1,2,3.19,14.83,14.83,0,0,1,.56,4.27,9.44,9.44,0,0,1-3.68,7.78q-3.68,2.92-11.36,2.92a29.17,29.17,0,0,1-5.87-.56,14.63,14.63,0,0,1-5-1.93,11.08,11.08,0,0,1-3.62-3.68,12.34,12.34,0,0,1-1.61-5.78Z" transform="translate(-51 -56.17)"/><path class="cls-2" d="M172.82,79.72a18.49,18.49,0,0,0-2.17-.1A10.47,10.47,0,0,0,165.53,81,11.59,11.59,0,0,0,161.39,85v-4.8h-8.93v34.27h9.2V94.65A6.69,6.69,0,0,1,164,89.6a6.06,6.06,0,0,1,2.5-1.35,11.39,11.39,0,0,1,2.89-.36,16.34,16.34,0,0,1,3.86.39V79.77Z" transform="translate(-51 -56.17)"/><polygon class="cls-2" points="158.42 58.32 145.09 36.07 157.73 24.09 147.1 24.09 133.9 36.04 133.9 12.88 124.9 12.88 124.9 58.3 133.9 58.3 133.9 45.36 138.52 41.19 138.52 41.19 148.5 58.32 158.42 58.32"/><circle class="cls-3" cx="295.94" cy="13.63" r="11.06"/><path class="cls-4" d="M340.77,71.47a1.36,1.36,0,0,0,.48,1,2.07,2.07,0,0,0,1.22.31,2.1,2.1,0,0,0,.66-.09,1.34,1.34,0,0,0,.43-.23.86.86,0,0,0,.23-.34,1.42,1.42,0,0,0,.07-.42,1.19,1.19,0,0,0-.05-.32.79.79,0,0,0-.17-.29,1.28,1.28,0,0,0-.34-.24,2.07,2.07,0,0,0-.54-.15l-.87-.17a5.34,5.34,0,0,1-.92-.24,2,2,0,0,1-.68-.38,1.49,1.49,0,0,1-.41-.57,2.25,2.25,0,0,1-.14-.83,1.75,1.75,0,0,1,.2-.85,1.67,1.67,0,0,1,.54-.61,2.57,2.57,0,0,1,.82-.37,4.22,4.22,0,0,1,1-.12,3.7,3.7,0,0,1,1.19.17,2.39,2.39,0,0,1,.78.42,1.89,1.89,0,0,1,.45.61,3,3,0,0,1,.21.72l-1.09.17a1.56,1.56,0,0,0-.47-.85,1.65,1.65,0,0,0-1-.28,3.16,3.16,0,0,0-.68.07,1.13,1.13,0,0,0-.44.21.6.6,0,0,0-.24.29.89.89,0,0,0-.08.35.83.83,0,0,0,.25.67,1.79,1.79,0,0,0,.86.35l.94.18a3.09,3.09,0,0,1,1.6.69,1.85,1.85,0,0,1,.5,1.39,2.07,2.07,0,0,1-.15.8,1.69,1.69,0,0,1-.49.64,2.24,2.24,0,0,1-.81.43,3.48,3.48,0,0,1-1.12.16,3.42,3.42,0,0,1-2.07-.55,2.2,2.2,0,0,1-.82-1.71Z" transform="translate(-51 -56.17)"/><path class="cls-4" d="M346.19,66.72h1.4l2,5.44,2-5.44h1.36v6.84h-1.06v-5l-1.88,5H349l-1.81-5v5h-1Z" transform="translate(-51 -56.17)"/></svg>