<svg id="Layer_1" data-name="Layer 1" xmlns="http://www.w3.org/2000/svg" viewBox="0 0 544.47 112.39"><defs><style>.cls-1{fill:#d11e47;}.cls-2{fill:#545554;}.cls-3{fill:#58595b;}</style></defs><title>SparksLink_reBrand_final</title><path class="cls-1" d="M108.83,386.76q.87,5.7,4.58,7.43a21,21,0,0,0,8.91,1.73c4.13,0,7.08-.51,8.85-1.55a5.36,5.36,0,0,0,2.66-5,6.29,6.29,0,0,0-1.67-4.33c-1.11-1.24-3.24-2.11-6.37-2.6l-8.92-1.49q-11.76-1.85-17.51-6.37T93.6,360.89a17.13,17.13,0,0,1,2.05-8.42,18.66,18.66,0,0,1,5.75-6.31,28.82,28.82,0,0,1,8.85-4,42.29,42.29,0,0,1,11.33-1.42,45.83,45.83,0,0,1,12.87,1.54,25.24,25.24,0,0,1,8.48,4.15,16.91,16.91,0,0,1,4.95,6.19,31.33,31.33,0,0,1,2.41,7.67l-15.47,2a11.3,11.3,0,0,0-3.9-6.56c-1.85-1.4-4.85-2.1-9-2.1a25.07,25.07,0,0,0-5.76.55,11.53,11.53,0,0,0-3.59,1.43,5.31,5.31,0,0,0-1.85,2,4.72,4.72,0,0,0-.56,2.1,5.25,5.25,0,0,0,1.92,4.52c1.28.95,3.77,1.76,7.49,2.42l8.17,1.36A57.37,57.37,0,0,1,139,370.79a21.65,21.65,0,0,1,7.12,4.27,13.74,13.74,0,0,1,3.71,6,27.79,27.79,0,0,1,1,8A17.79,17.79,0,0,1,144,403.78q-6.93,5.5-21.41,5.51a56.54,56.54,0,0,1-11.08-1.05,28.08,28.08,0,0,1-9.41-3.65,21.22,21.22,0,0,1-6.81-6.94,23.06,23.06,0,0,1-3-10.89Z" transform="translate(-92.24 -318.93)"/><path class="cls-1" d="M157.84,342.7h16.84v8.54A23.52,23.52,0,0,1,195,340.72q13.49,0,20.17,9.16T221.84,375a48,48,0,0,1-1.92,14,31.72,31.72,0,0,1-5.57,10.83,25.26,25.26,0,0,1-8.85,7,27.05,27.05,0,0,1-11.76,2.48,28,28,0,0,1-9.59-1.73,21.18,21.18,0,0,1-9-6.94v30.7H157.84Zm17.21,32.8a39,39,0,0,0,1,10.09,13.72,13.72,0,0,0,3.4,6.12,12.33,12.33,0,0,0,5,2.91,19.44,19.44,0,0,0,5.13.68,13.73,13.73,0,0,0,5.45-1.11,11.66,11.66,0,0,0,4.52-3.53,18,18,0,0,0,3-6.25,33.74,33.74,0,0,0,1.11-9.28,36.65,36.65,0,0,0-1-9.53,17.93,17.93,0,0,0-2.91-6.26,10.6,10.6,0,0,0-4.39-3.46,13.94,13.94,0,0,0-5.38-1.05,16.26,16.26,0,0,0-5.57.86,15.55,15.55,0,0,0-4.58,2.73,14,14,0,0,0-3.66,5.94,30.05,30.05,0,0,0-1.17,9.16Z" transform="translate(-92.24 -318.93)"/><path class="cls-1" d="M268.38,399.14a33.83,33.83,0,0,1-8.61,7.05q-4.77,2.73-12.31,2.73a29.54,29.54,0,0,1-8.23-1.12,18.91,18.91,0,0,1-6.81-3.46,16.82,16.82,0,0,1-4.64-6,20.09,20.09,0,0,1-1.74-8.72q0-6.69,3-10.89a20.17,20.17,0,0,1,7.8-6.57,39.45,39.45,0,0,1,10.83-3.34,98.3,98.3,0,0,1,12.19-1.23l8.3-.38V364c0-4-1.1-6.69-3.28-8.17a13.42,13.42,0,0,0-7.74-2.23q-10.28,0-11.76,7.8l-15.84-1.49q1.73-10.14,8.91-14.67t19.31-4.51a38.9,38.9,0,0,1,12.63,1.79,20.41,20.41,0,0,1,8.35,5.14,19.87,19.87,0,0,1,4.58,8.1,37.38,37.38,0,0,1,1.42,10.71v40.85H268.38ZM268,378.47l-7.67.37a45.25,45.25,0,0,0-8.79,1.11,15.31,15.31,0,0,0-5.13,2.17,6.46,6.46,0,0,0-2.42,3,11.45,11.45,0,0,0-.62,3.84,6.25,6.25,0,0,0,2.23,5.07,9.39,9.39,0,0,0,6.19,1.86c4.45,0,8.09-1,10.89-3.09a13.62,13.62,0,0,0,3.84-4.4,13.42,13.42,0,0,0,1.48-6.62Z" transform="translate(-92.24 -318.93)"/><path class="cls-1" d="M292,342.7h16.83v9a21.69,21.69,0,0,1,7.8-7.61,19.64,19.64,0,0,1,9.65-2.54,35.4,35.4,0,0,1,4.09.19c1.07.12,2,.27,2.84.43l-2.1,15.72a30.91,30.91,0,0,0-7.3-.74,21.59,21.59,0,0,0-5.45.68,11.33,11.33,0,0,0-4.7,2.54,12.39,12.39,0,0,0-3.28,4.45,12.72,12.72,0,0,0-1.06,5.08v37.38H292Z" transform="translate(-92.24 -318.93)"/><path class="cls-1" d="M338.93,318.93h16.95v46.29l24.88-22.52h20.06L377.3,365l25.37,42.33H384l-19.06-32.68-9,8.17v24.51H338.93Z" transform="translate(-92.24 -318.93)"/><path class="cls-1" d="M416.66,386.76q.87,5.7,4.58,7.43a21,21,0,0,0,8.91,1.73c4.13,0,7.08-.51,8.85-1.55a5.36,5.36,0,0,0,2.66-5A6.29,6.29,0,0,0,440,385c-1.11-1.24-3.24-2.11-6.37-2.6l-8.92-1.49q-11.76-1.85-17.51-6.37t-5.76-13.68a17.13,17.13,0,0,1,2.05-8.42,18.66,18.66,0,0,1,5.75-6.31,28.82,28.82,0,0,1,8.85-4,42.29,42.29,0,0,1,11.33-1.42,45.83,45.83,0,0,1,12.87,1.54,25.24,25.24,0,0,1,8.48,4.15,16.91,16.91,0,0,1,4.95,6.19,30.91,30.91,0,0,1,2.41,7.67l-15.47,2a11.3,11.3,0,0,0-3.9-6.56c-1.85-1.4-4.85-2.1-9-2.1a25.07,25.07,0,0,0-5.76.55,11.53,11.53,0,0,0-3.59,1.43,5.31,5.31,0,0,0-1.85,2,4.72,4.72,0,0,0-.56,2.1,5.25,5.25,0,0,0,1.92,4.52c1.28.95,3.77,1.76,7.49,2.42L435.6,368a57.37,57.37,0,0,1,11.26,2.84,21.65,21.65,0,0,1,7.12,4.27,13.74,13.74,0,0,1,3.71,6,27.79,27.79,0,0,1,1.05,8,17.79,17.79,0,0,1-6.93,14.67q-6.93,5.5-21.41,5.51a56.54,56.54,0,0,1-11.08-1.05,28.08,28.08,0,0,1-9.41-3.65,21.22,21.22,0,0,1-6.81-6.94,23.06,23.06,0,0,1-3-10.89Z" transform="translate(-92.24 -318.93)"/><path class="cls-2" d="M471.49,318.93h10.77v88.38H471.49Z" transform="translate(-92.24 -318.93)"/><path class="cls-2" d="M517.41,343.31h10.65v9.78a28.51,28.51,0,0,1,10.4-9,27.38,27.38,0,0,1,12-2.73q10.89,0,16.16,5.95t5.26,17.45v42.58H561.11V366.83q0-8.91-3.22-12.56t-9.9-3.65a21.22,21.22,0,0,0-7.12,1.24,17.49,17.49,0,0,0-6.38,4,20.56,20.56,0,0,0-4.7,5.75,16.79,16.79,0,0,0-1.61,7.86v37.88H517.41Z" transform="translate(-92.24 -318.93)"/><path class="cls-2" d="M580.64,318.93h10.65v51.49l30-27.11h13l-22.9,21.42,25.37,42.58H624.46L603.29,371l-12,10.77v25.5H580.64Z" transform="translate(-92.24 -318.93)"/><path class="cls-2" d="M509.37,370.47H504.5V352c0-3.19-2.12-5.89-4.63-5.89s-4.63,2.7-4.63,5.89v18.44h-4.88V352c0-5.83,4.27-10.57,9.51-10.57s9.5,4.74,9.5,10.57Z" transform="translate(-92.24 -318.93)"/><path class="cls-2" d="M499.87,407.94c-5.24,0-9.51-4.74-9.51-10.57V378.58h4.88v18.79c0,3.19,2.12,5.89,4.63,5.89s4.63-2.7,4.63-5.89V378.58h4.87v18.79C509.37,403.2,505.11,407.94,499.87,407.94Z" transform="translate(-92.24 -318.93)"/><path class="cls-2" d="M499.85,390.93h0c-1.25,0-2.27-1.41-2.27-3.09l0-27.09c0-1.68,1-3,2.27-3h0c1.25,0,2.27,1.42,2.27,3.1l0,27.08C502.12,389.6,501.1,391,499.85,390.93Z" transform="translate(-92.24 -318.93)"/><path class="cls-3" d="M614.67,327.84a4.52,4.52,0,0,0,2.25.63c1.28,0,2-.68,2-1.66s-.52-1.42-1.83-1.93c-1.58-.56-2.56-1.38-2.56-2.75s1.25-2.63,3.14-2.63a4.45,4.45,0,0,1,2.14.47l-.34,1a3.8,3.8,0,0,0-1.85-.47c-1.32,0-1.82.8-1.82,1.46,0,.91.59,1.35,1.92,1.87,1.65.64,2.48,1.43,2.48,2.85s-1.11,2.8-3.4,2.8a5,5,0,0,1-2.47-.62Z" transform="translate(-92.24 -318.93)"/><path class="cls-3" d="M630.12,325.1c-.07-1.35-.15-3-.14-4.19h0c-.33,1.14-.74,2.35-1.23,3.69L627,329.31h-1l-1.57-4.63c-.46-1.37-.85-2.62-1.13-3.77h0c0,1.21-.1,2.84-.19,4.29l-.26,4.16h-1.2l.68-9.7H624l1.66,4.69c.4,1.2.73,2.26,1,3.27h0c.24-1,.59-2,1-3.27l1.73-4.69H631l.6,9.7h-1.22Z" transform="translate(-92.24 -318.93)"/></svg>