<svg xmlns="http://www.w3.org/2000/svg" xmlns:xlink="http://www.w3.org/1999/xlink" viewBox="0 0 140 140"><defs><style>.a{clip-path:url(#b);}.b{fill:#94d7ca;opacity:0.2;}.c{fill:#e3e3e3;}.d{fill:#fff;}.e{fill:#56a898;}.f{fill:#f9f9f9;}.g{fill:#96e296;}.h{fill:#fff8c1;}.i{fill:#f7e080;}.j{fill:#ffeea7;}.k{fill:#e5e5e5;}.l{fill:#bbdff5;}</style><clipPath id="b"><rect width="140" height="140"/></clipPath></defs><g id="a" class="a"><g transform="translate(-93 -278)"><path class="b" d="M26.75,90.616C24.555,90.145-1.847,85.92.1,54.74S4.48,14.189,14.743,10.754s35.2-19.666,54.773-4.224,40.7,29.273,32.308,53.922-9.751,32.862-31.611,31.6S37.187,92.841,26.75,90.616Z" transform="translate(110.721 298.025)"/><g transform="translate(94.167 300.074)"><path class="c" d="M136.758,682.731c-1.7-.338-2.326-.73-1.514-1.217,5.706-3.326,31.29-3.381,43.7-3.448,15.6-.081,31.858-.27,45.908.46,5.882.3,19.215.541,21.487,1.636,5.977,2.894-36.564,3.948-43.447,4.03C191.428,684.327,146.494,684.624,136.758,682.731Z" transform="translate(-116.794 -586.367)"/><g transform="translate(19.707 33.661)"><path class="c" d="M248.528,655.382H151.614a4.825,4.825,0,0,1-4.814-4.814v-.284a.277.277,0,0,1,.284-.284H253.071a.277.277,0,0,1,.284.284v.284A4.827,4.827,0,0,1,248.528,655.382Z" transform="translate(-146.8 -595.83)"/><path class="c" d="M303.47,304.638v-53.48a1.724,1.724,0,0,0-1.69-1.758H217.09a1.732,1.732,0,0,0-1.69,1.758v53.494h88.07Z" transform="translate(-206.124 -249.4)"/><g transform="translate(10.355 0.765)"><path class="d" d="M314.17,310.115V258.69a1.691,1.691,0,0,0-1.69-1.69H227.79a1.691,1.691,0,0,0-1.69,1.69v51.425Z" transform="translate(-225.732 -256.737)"/><path class="e" d="M312.141,308.393V258.185c0-.406.014-.811,0-1.231a2.012,2.012,0,0,0-2.245-1.893H227.221c-1.514,0-3.719-.216-3.813,1.947-.068,1.542,0,3.11,0,4.652v46.773c0,.162.162.2.3.2h84.46c1.149,0,2.312.068,3.462,0h.149c.365,0,.514-.446.068-.446H225.112a5.832,5.832,0,0,0-1.19,0,.546.546,0,0,1-.149,0c.095.068.2.135.3.2V258.469c0-.5-.014-.987,0-1.487a1.407,1.407,0,0,1,1.352-1.46H308.1c1.271,0,3.259-.338,3.354,1.528.081,1.677,0,3.367,0,5.044v46.354C311.492,308.785,312.141,308.677,312.141,308.393Z" transform="translate(-223.378 -255.056)"/></g><g transform="translate(1.028 53.937)"><path class="d" d="M259.528,655.382H162.614a4.825,4.825,0,0,1-4.814-4.814v-.284a.277.277,0,0,1,.284-.284H264.071a.277.277,0,0,1,.284.284v.284A4.836,4.836,0,0,1,259.528,655.382Z" transform="translate(-157.341 -649.767)"/><path class="e" d="M256.765,653.674H160.527a6.851,6.851,0,0,1-1.663-.122,4.708,4.708,0,0,1-3.475-3.746c-.041-.23.054-.838-.068-1.028-.041-.068-.257-.027-.3-.041h.095c1.258.027,2.515,0,3.773,0H259.808a3.555,3.555,0,0,1,1.136,0c.325.176.014,1.366-.081,1.677a4.47,4.47,0,0,1-4.1,3.259c-.3,0-.906.46-.338.446a5.669,5.669,0,0,0,4.205-1.893,5.01,5.01,0,0,0,1.1-2.191c.081-.379.338-1.42-.108-1.677a2.429,2.429,0,0,0-.987-.068H156.674c-.419,0-.838-.014-1.244,0-.338.013-.771.081-.933.419a3.394,3.394,0,0,0,.216,2.028,4.921,4.921,0,0,0,1.312,2.028c1.6,1.487,3.57,1.352,5.544,1.352h94.872C256.711,654.12,257.333,653.674,256.765,653.674Z" transform="translate(-154.402 -648.275)"/></g><g transform="translate(42.188 54.03)"><g transform="translate(0)"><path class="e" d="M458.789,649.2c.352,1.623,1.907,1.487,3.178,1.487h18.214c1.42,0,3.34.176,3.746-1.623.014-.068-.054-.081-.108-.081h-24.5c-.149,0-.744.271-.419.271h24.218c.027,0,.243-.027.257,0-.041-.068-.23.352-.257.406a1.384,1.384,0,0,1-1.014.744,4.627,4.627,0,0,1-.865,0h-11.48c-2.907,0-5.842.135-8.735,0a1.673,1.673,0,0,1-1.582-1.379C459.411,648.876,458.748,649.039,458.789,649.2Z" transform="translate(-458.787 -648.966)"/></g></g><g transform="translate(13.712 4.874)"><rect class="f" width="79.876" height="46.598" transform="translate(0.365 0.237)"/><path class="e" d="M328.576,285.492H258.49c-3.218,0-6.45-.108-9.655,0H248.7c-.108,0-.446.068-.446.23V330.4a9.15,9.15,0,0,0,0,1.826v.081c0,.108.095.149.2.149h70.086c3.218,0,6.45.108,9.655,0h.135c.108,0,.446-.068.446-.23V287.548a8.24,8.24,0,0,0,0-1.826v-.081c0-.27-.649-.135-.649.081V331.59a2,2,0,0,0,0,.636c.014.027,0,.054,0,.081.149-.081.3-.149.446-.23H249.9a4.7,4.7,0,0,0-1.068,0,.453.453,0,0,1-.135,0c.068.054.135.095.2.149V286.358a2,2,0,0,0,0-.636c-.014-.027,0-.054,0-.081-.149.081-.3.149-.446.23h70.086c3.218,0,6.45.108,9.655,0h.135C328.563,285.871,329.009,285.492,328.576,285.492Z" transform="translate(-248.2 -285.444)"/></g></g><g transform="translate(13.783 -0.074)"><g transform="translate(0 0)"><path class="g" d="M104.59,37.7A33.006,33.006,0,0,1,120.384,5.359C128.633.423,139.41-1.2,148.307,2.952A22.875,22.875,0,0,1,159.571,14.8c.176.392,1.447-.014,1.312-.352a23.418,23.418,0,0,0-10.02-11.318A27.344,27.344,0,0,0,136.53-.05a35.663,35.663,0,0,0-28.41,16.24,32.889,32.889,0,0,0-4.841,21.852c.054.379,1.366.095,1.312-.338Z" transform="translate(-102.994 0.074)"/></g><g transform="translate(26.563 66.095)"><path class="g" d="M308.907,490.405a48.634,48.634,0,0,1-8.451-1.65.889.889,0,0,0-.92.243.382.382,0,0,0,.176.636,50.817,50.817,0,0,0,8.749,1.717c.622.068,1.325-.852.446-.947Z" transform="translate(-299.433 -488.717)"/></g><g transform="translate(84.873 66.981)"><path class="g" d="M738.606,495.269c-2.42.2-4.854.365-7.275.5-.744.041-1.014,1-.122.947,2.434-.135,4.854-.3,7.275-.5.73-.054,1.014-1.028.122-.947Z" transform="translate(-730.648 -495.264)"/></g><g transform="translate(54.08 12.238)"><path class="g" d="M503.061,92.844c.879.379,1.771.771,2.65,1.149.3.135.974.027,1.122-.3.46-.96.933-1.92,1.393-2.894.27-.568-1.028-.419-1.217-.027-.46.96-.933,1.92-1.393,2.894.379-.095.757-.2,1.122-.3-.879-.379-1.771-.771-2.65-1.149a1.054,1.054,0,0,0-.92.122c-.149.095-.392.365-.108.5Z" transform="translate(-502.93 -90.427)"/></g><g transform="translate(26.325 64.533)"><path class="g" d="M300.423,477.355c-.825.487-1.663.974-2.488,1.46-.095.054-.325.23-.243.365.5.947,1.014,1.88,1.514,2.826.243.446,1.5.014,1.312-.352-.5-.947-1.014-1.88-1.514-2.826l-.243.365c.825-.487,1.663-.974,2.488-1.46.2-.122.352-.352.108-.514a1.135,1.135,0,0,0-.933.135Z" transform="translate(-297.674 -477.16)"/></g></g><g transform="translate(-0.167 36.647)"><g transform="translate(0)"><path class="h" d="M21.864,272.3,2.5,287.35l.027,24.5,38.755-.041-.027-24.5Z" transform="translate(-2.139 -272.19)"/><path class="e" d="M19.3,271.581c-2.2,1.7-4.395,3.421-6.6,5.125q-5.233,4.057-10.453,8.127c-.527.406-1.041.811-1.569,1.217a4.383,4.383,0,0,0-.73.568c-.122.149-.095.216-.095.433v1.487c0,4.205.014,8.411.014,12.616v8.668a6.512,6.512,0,0,0,0,1.258.764.764,0,0,1,0,.176c0,.041.095.054.122.054,4.381,0,8.749-.014,13.13-.014q10.446,0,20.878-.013h4.746c.122,0,.541-.041.541-.23,0-2.772,0-5.558-.014-8.33,0-4.395-.014-8.776-.014-13.171V287.51a3.083,3.083,0,0,0,0-.933c-.054-.122-.2-.2-.311-.284-.392-.311-.8-.609-1.19-.92q-4.99-3.854-9.979-7.721l-5.03-3.894a30.55,30.55,0,0,0-2.786-2.15,1.17,1.17,0,0,0-.135-.095c-.149-.108-.717.149-.609.23q3.266,2.535,6.545,5.057,5.213,4.036,10.439,8.073c.541.419,1.068.825,1.609,1.244.2.162.636.365.771.595a1.728,1.728,0,0,1,.014.406v1.542c0,4.205.014,8.4.014,12.6v8.573a7.643,7.643,0,0,0,0,1.244.652.652,0,0,1,0,.162c.176-.081.352-.149.541-.23-5.341,0-10.669.014-16.01.014q-10.649.02-21.284.027H.816a1.359,1.359,0,0,1-.406,0c.2.122.108-.257.108-.406V309.24c.014-3.732.014-7.424.014-11.1,0-3.462,0-6.937-.014-10.4a5.357,5.357,0,0,0,0-1.041c-.041-.189-.135-.014.041-.122a28.675,28.675,0,0,0,2.285-1.771q8.3-6.45,16.578-12.887c.135-.095.257-.2.392-.3C20.072,271.4,19.423,271.486,19.3,271.581Z" transform="translate(0.167 -271.484)"/></g><g transform="translate(0.023 14.972)"><path class="i" d="M15.522,393.7,2.5,383.6l.014,24.5,38.755-.041-.027-24.435L28.422,393.715Z" transform="translate(-2.162 -383.412)"/><path class="j" d="M24.775,393.874,13.2,384.936l.014,16.281a5.6,5.6,0,0,0,5.612,5.6l31.683-.027L50.481,383.8,37.662,393.888Z" transform="translate(-11.415 -383.585)"/><g transform="translate(0.187 10.148)"><path class="i" d="M2.441,468.392Q8,463.828,13.57,459.264c.527-.433,1.068-.865,1.6-1.312-.216.054-.446.122-.663.176h5.4c2.2,0,4.422.095,6.626,0,.041,0,.189.027.216,0s-.23-.149-.2-.054.352.284.419.352c.69.554,1.366,1.122,2.055,1.677,2.069,1.69,4.151,3.381,6.22,5.071,1.406,1.149,2.813,2.3,4.232,3.448.392.311,1.569-.257,1.028-.69l-7.221-5.882c-1.5-1.217-2.988-2.434-4.489-3.651-.554-.446-1.068-1.1-1.812-1.109-3.637-.081-7.288.014-10.912.014-.352,0-.717-.014-1.082,0a1.72,1.72,0,0,0-1.122.554l-3.8,3.11c-2.8,2.3-5.625,4.625-8.451,6.937-.676.554.392.865.838.487Z" transform="translate(-1.384 -457.257)"/></g><g transform="translate(0)"><path class="e" d="M13.671,392.362q-5.7-4.4-11.4-8.83c-.541-.419-1.082-.838-1.636-1.271-.162-.122-.636-.027-.636.216,0,2.759,0,5.5.014,8.262,0,4.395.014,8.789.014,13.184v3.056c0,.081.149.095.2.095,4.368,0,8.749-.014,13.117-.014q10.446,0,20.878-.014h4.746c.149,0,.46-.068.46-.27q0-4.118-.014-8.249c0-4.381-.014-8.776-.014-13.157v-3.043c0-.216-.514-.014-.581.041l-11.237,8.844c-.527.419-1.055.838-1.582,1.244.135-.041.257-.081.392-.135-3.759,0-7.5-.014-11.264-.014H13.509c-.23,0-.7.352-.257.352,4.165.014,8.33.014,12.508.027a1.308,1.308,0,0,0,.947-.27c.595-.46,1.19-.933,1.785-1.406,2.109-1.663,4.219-3.313,6.328-4.976,1.514-1.19,3.029-2.38,4.53-3.57l-.581.041q0,4.118.014,8.249c0,4.381.014,8.776.014,13.157v3.043c.149-.095.3-.176.46-.27-4.368,0-8.749.014-13.117.014q-10.446,0-20.878.014H.514a1.368,1.368,0,0,1,.2.095c0-2.759,0-5.5-.014-8.262,0-4.395-.014-8.789-.014-13.184V382.3c-.216.068-.419.135-.636.216q5.7,4.422,11.4,8.83c.541.419,1.082.838,1.636,1.271C13.238,392.755,13.833,392.5,13.671,392.362Z" transform="translate(0 -382.208)"/></g><g transform="translate(0.029 10.095)"><path class="e" d="M.8,467.689q5.72-4.645,11.426-9.29c.541-.433,1.068-.865,1.609-1.3-.135.041-.257.081-.392.122,4.111,0,8.222-.014,12.332-.014a1.626,1.626,0,0,0,.257,0c.162-.014-.095-.041-.095-.027.122.108.257.2.379.311.676.541,1.352,1.1,2.028,1.636,2.109,1.7,4.205,3.408,6.315,5.111,1.433,1.163,2.88,2.326,4.314,3.489.162.135.757-.122.609-.243-2.475-2-4.936-4-7.41-6l-4.5-3.651a9.079,9.079,0,0,0-1.055-.852,1,1,0,0,0-.595-.108c-3.746,0-7.5.014-11.251.014a9.867,9.867,0,0,0-1.1,0,1.9,1.9,0,0,0-.811.5c-1.285,1.041-2.569,2.082-3.854,3.137-2.84,2.312-5.706,4.611-8.546,6.95-.054.054-.122.095-.176.149-.27.216.379.189.514.068Z" transform="translate(-0.217 -456.867)"/></g></g><g transform="translate(14.694 11.955)"><path class="e" d="M109.133,362.587a.6.6,0,1,1,.608-.608A.624.624,0,0,1,109.133,362.587Z" transform="translate(-108.497 -361.194)"/><path class="e" d="M174.733,361.087a.6.6,0,1,1,.609-.609A.624.624,0,0,1,174.733,361.087Z" transform="translate(-165.226 -359.896)"/><circle class="e" cx="1.447" cy="1.447" r="1.447" transform="matrix(0.229, -0.974, 0.974, 0.229, 3.322, 6.111)"/></g></g><g transform="translate(107.533 54.485)"><rect class="i" width="18.201" height="28.775" transform="translate(0.313 18.409) rotate(-89.908)"/><path class="j" d="M806.96,420.7c-.676-.636-.541-1.812-.5-2.65.054-1.1.068-2.191.081-3.3.013-1.8.013-3.6-.014-5.382-.013-.8,0-1.6-.068-2.393-.013-.216-.46-2.461-.46-2.461.541-.352,2.136-.095,2.853-.095h3.016c2.65,0,5.314.014,7.965.014,4.449.014,8.9.014,13.333.027h.649v2.164c0,2.664-.014,5.328-.014,7.992V418.5c0,1.014-.162,2.109-.135,3.1a39.374,39.374,0,0,1-8.276-.027c-2.88-.162-5.747-.27-8.627-.3-2.8-.027-5.747.352-8.533-.068a2.7,2.7,0,0,1-1.122-.379A.718.718,0,0,1,806.96,420.7Z" transform="translate(-804.688 -404.204)"/><path class="i" d="M798.9,405l28.775.041L813.815,416.8a1.038,1.038,0,0,1-1.3.027l-12.427-9.587Z" transform="translate(-798.548 -404.784)"/><path class="h" d="M798.9,405l28.775.041-14.32,11.251Z" transform="translate(-798.548 -404.784)"/><g transform="translate(0 0.053)"><path class="e" d="M796.327,404.036c-.014,5.314-.014,10.629-.027,15.943v2.258c0,.068.149.068.189.068,3.245,0,6.491.014,9.736.014,5.152.014,10.3.014,15.456.027h3.57c.135,0,.46-.068.46-.243.014-5.3.014-10.6.027-15.9v-2.258c0-.149-.649-.041-.649.176-.013,5.3-.013,10.6-.027,15.9v2.258c.149-.081.311-.162.46-.243-3.245,0-6.491-.014-9.736-.014-5.152-.014-10.3-.014-15.456-.027h-3.57c.068.027.122.041.189.068.014-5.314.014-10.629.027-15.943V403.86c0-.149-.649-.041-.649.176Z" transform="translate(-796.3 -403.792)"/></g><g transform="translate(0.017)"><path class="e" d="M825.265,403.589q-6.268,4.929-12.535,9.844c-.6.46-1.19.933-1.771,1.393.189-.027.379-.041.568-.068q-6.328-4.949-12.657-9.885c-.595-.473-1.2-.933-1.8-1.406-.135.108-.284.216-.419.325,3.245,0,6.491.014,9.736.014,5.152.014,10.3.014,15.456.027h3.57c.257,0,.69-.392.243-.392-3.245,0-6.491-.014-9.736-.014-5.152-.014-10.3-.014-15.456-.027H796.9c-.095,0-.635.162-.419.325q6.328,4.949,12.657,9.885c.595.473,1.2.933,1.8,1.406a.471.471,0,0,0,.568-.068q6.268-4.929,12.535-9.844c.595-.46,1.19-.933,1.771-1.393C826.09,403.495,825.441,403.454,825.265,403.589Z" transform="translate(-796.425 -403.4)"/></g></g><g transform="translate(50.443 22.607)"><path class="k" d="M376.635,181.656l-.135,47.585a2.109,2.109,0,0,0,2.1,2.109l42.866.122a2.1,2.1,0,0,0,2.109-2.1l.014-7.41-.027-4.084.122-45.178a2.109,2.109,0,0,0-2.1-2.109l-33.738-.095-11.21,11.156Z" transform="translate(-376.175 -170.115)"/><path class="d" d="M436.137,230.695l-.027-3.989.122-44.069a2.032,2.032,0,0,0-1.988-2.055L402.2,180.5l-.46.473-.027,8.357a2.216,2.216,0,0,1-2.218,2.2l-6.694-.014a1.668,1.668,0,0,0-1.677,1.677L391,237.821a2.032,2.032,0,0,0,1.988,2.055l41.121.108a2.014,2.014,0,0,0,2-2.042Z" transform="translate(-388.715 -178.763)"/><path class="e" d="M374.235,179.088c0,1.812-.014,3.61-.014,5.422-.014,4.219-.027,8.451-.041,12.67q-.02,7.343-.041,14.685c-.014,3.827-.027,7.667-.027,11.494,0,.947,0,1.907-.014,2.853v.446a2.355,2.355,0,0,0,2.393,2.312c1.988.054,3.976.014,5.95.014l13.319.041,14.307.041c2.907.014,5.8.014,8.708.027,1.339,0,2.745-.46,3.015-1.988a12.673,12.673,0,0,0,.041-2.028c0-1.176,0-2.353.014-3.543,0-2.312-.027-4.611-.014-6.923.014-2.853.014-5.706.027-8.56.014-4.719.027-9.425.041-14.144.014-4.6.027-9.209.041-13.806.014-2.583.014-5.165.027-7.748a2.416,2.416,0,0,0-2.421-2.61c-.8-.014-1.6,0-2.393,0-4.124-.014-8.235-.027-12.359-.027l-13.86-.041c-1.393,0-2.8-.014-4.192-.014-.595,0-.974-.081-1.42.352q-4.381,4.361-8.776,8.722c-.554.554-1.122,1.109-1.677,1.663-.149.135-.636.46-.636.69-.014.338.649.23.663-.054,0,.054-.095.149-.014.068a1.548,1.548,0,0,1,.149-.149c.176-.162.352-.352.527-.514.622-.608,1.231-1.231,1.853-1.839,1.663-1.65,3.313-3.3,4.976-4.949,1.163-1.149,2.434-2.258,3.516-3.489.325-.365-.054.095-.122-.027a.649.649,0,0,0,.162,0,6.348,6.348,0,0,0,1.014,0c3.61.014,7.221.014,10.831.027l14.1.041c2.515.014,5.084-.122,7.6.027,1.447.081,1.839,1.3,1.826,2.488,0,1.041,0,2.082-.013,3.124-.014,3.894-.027,7.8-.027,11.7-.014,4.8-.027,9.614-.041,14.415-.014,3.894-.027,7.775-.027,11.67,0,1.8-.014,3.6,0,5.4.014,1.487.014,2.975.014,4.462,0,1.8.108,3.624-.014,5.422a1.81,1.81,0,0,1-1.866,1.744h-.8c-1.2,0-2.407,0-3.61-.014l-12.413-.041-14.293-.041c-3.354-.014-6.721-.014-10.074-.027-.541,0-1.109.041-1.65-.014-1.528-.149-1.7-1.514-1.7-2.7.014-2.826.014-5.639.027-8.465.014-4.571.027-9.128.041-13.7q.02-7.018.041-14.023c.014-3.083.014-6.166.027-9.249v-1.312C374.884,178.709,374.235,178.8,374.235,179.088Z" transform="translate(-374.1 -167.655)"/><path class="d" d="M388.664,169.4l-.027,9.019a2.216,2.216,0,0,1-2.218,2.2L377.4,180.6Z" transform="translate(-376.954 -169.164)"/><g transform="translate(0.128 0.031)"><path class="e" d="M386.307,168.128c-.014,2.786-.014,5.558-.027,8.343a3.927,3.927,0,0,1-.122,1.379,1.942,1.942,0,0,1-2,1.271c-1.542,0-3.083-.014-4.625-.014-1.352,0-2.691-.014-4.043-.014.054.095.095.176.149.27q4.929-4.909,9.858-9.8l1.393-1.393c.27-.27-.365-.311-.527-.135q-4.929,4.909-9.858,9.8l-1.393,1.393c-.135.135-.027.27.149.27,2.894.014,5.8.014,8.695.027,1.542,0,2.961-.838,2.988-2.529.027-1.487.014-2.988.014-4.489,0-1.474.014-2.961.014-4.435C386.97,167.75,386.307,167.885,386.307,168.128Z" transform="translate(-375.05 -167.883)"/></g><g transform="translate(8.49 23.197)"><g transform="translate(7.122)"><path class="l" d="M506.813,339.2c-4.773.014-9.56.014-14.334.027h-2.028c-.27,0-.73.081-.865.365s.108.419.365.419c4.773-.014,9.56-.014,14.334-.027h2.028c.27,0,.73-.081.865-.365s-.095-.419-.365-.419Z" transform="translate(-489.552 -339.2)"/></g><g transform="translate(0.016 5.639)"><path class="e" d="M468.729,380.9c-3.529,0-7.072.014-10.6.014q-8.418.02-16.822.027c-1.285,0-2.583,0-3.867.014-.284,0-.676.433-.23.433,3.529,0,7.072-.014,10.6-.014q8.418-.02,16.822-.027c1.285,0,2.583,0,3.867-.014.284,0,.663-.433.23-.433Z" transform="translate(-437.007 -380.9)"/></g><g transform="translate(0 3.124)"><path class="e" d="M468.517,362.3c-3.529,0-7.072.014-10.6.014q-8.418.02-16.822.027c-1.285,0-2.583,0-3.867.014-.379,0-.5.487-.054.487,3.529,0,7.072-.014,10.6-.014q8.418-.02,16.822-.027c1.285,0,2.583,0,3.867-.014.365-.014.5-.487.054-.487Z" transform="translate(-436.887 -362.3)"/></g><g transform="translate(0.013 7.829)"><path class="e" d="M454.214,397.1c-4.909.014-9.817.014-14.726.027H437.42c-.3,0-.676.446-.23.446,4.909-.014,9.817-.014,14.726-.027h2.069c.284,0,.663-.446.23-.446Z" transform="translate(-436.985 -397.1)"/></g></g><g transform="translate(8.45 33.879)"><g transform="translate(7.122)"><path class="l" d="M506.513,418.2c-4.773.014-9.56.014-14.334.027h-2.028c-.27,0-.73.081-.865.365s.108.419.365.419c4.773-.014,9.56-.014,14.334-.027h2.028c.27,0,.73-.081.865-.365s-.108-.419-.365-.419Z" transform="translate(-489.252 -418.2)"/></g><g transform="translate(0.003 5.625)"><path class="e" d="M468.329,459.8c-3.529,0-7.072.014-10.6.014q-8.418.02-16.822.027c-1.285,0-2.583,0-3.867.014-.284,0-.676.433-.23.433,3.529,0,7.072-.014,10.6-.014q8.418-.02,16.822-.027c1.285,0,2.583,0,3.867-.014.284,0,.676-.433.23-.433Z" transform="translate(-436.607 -459.8)"/></g><g transform="translate(0 3.11)"><path class="e" d="M468.217,441.2c-3.529,0-7.072.014-10.6.014q-8.418.02-16.822.027c-1.285,0-2.583,0-3.867.014-.379,0-.5.487-.054.487,3.529,0,7.072-.014,10.6-.014q8.418-.02,16.822-.027c1.285,0,2.583,0,3.867-.014.365,0,.487-.487.054-.487Z" transform="translate(-436.587 -441.2)"/></g><g transform="translate(0.013 7.829)"><path class="e" d="M453.914,476.1c-4.909.014-9.817.014-14.726.027H437.12c-.3,0-.676.446-.23.446,4.909-.014,9.817-.014,14.726-.027h2.069c.284-.014.663-.446.23-.446Z" transform="translate(-436.685 -476.1)"/></g></g><g transform="translate(17.43 11.243)"><g transform="translate(0.282 4.618)"><path class="e" d="M505.139,285.322a9.957,9.957,0,0,0,6.666,2.65,10.392,10.392,0,0,0,7.072-2.353c.325-.3-.189-.568-.446-.325a9.61,9.61,0,0,1-6.355,2.177,9.857,9.857,0,0,1-4.773-1.285,9.468,9.468,0,0,1-1.149-.771c-.108-.081-.216-.176-.325-.27-.027-.027-.2-.189-.108-.095-.216-.257-.825.027-.581.27Z" transform="translate(-505.082 -284.95)"/></g><path class="e" d="M504.609,251.611a.8.8,0,1,0-.811.8A.8.8,0,0,0,504.609,251.611Z" transform="translate(-503 -250.8)"/><path class="e" d="M598.209,252.011a.8.8,0,1,0-.811.8A.794.794,0,0,0,598.209,252.011Z" transform="translate(-583.943 -251.146)"/></g><g transform="translate(17.281 44.332)"><circle class="g" cx="6.639" cy="6.639" r="6.639"/><g transform="translate(3.271 3.979)"><path class="d" d="M526.186,528.07l2.028,2.028a.829.829,0,0,0,1.149-.095c1.312-1.487,2.61-2.975,3.921-4.462.541-.622-.7-.825-1.1-.379-1.312,1.487-2.61,2.975-3.921,4.462.379-.027.757-.068,1.149-.095l-2.028-2.028c-.419-.419-1.65.108-1.2.568Z" transform="translate(-526.09 -524.922)"/></g></g></g></g></g></g></svg>