<svg id="Layer_1" data-name="Layer 1" xmlns="http://www.w3.org/2000/svg" viewBox="0 0 36.89 43.82"><title>notification</title><path d="M40.54,33h-.12a3.33,3.33,0,0,1-3.33-3.33V16.84A11.61,11.61,0,0,0,29,5.81a3.46,3.46,0,0,0-6.8.06A12,12,0,0,0,14,17.22V29.65A3.33,3.33,0,0,1,10.69,33a3.55,3.55,0,0,0-3.57,3.14,3.47,3.47,0,0,0,3.44,3.78h8.08a6.92,6.92,0,1,0,13.83,0h8A3.56,3.56,0,0,0,44,36.75a3.48,3.48,0,0,0-.9-2.64A3.42,3.42,0,0,0,40.54,33Zm-15,11.53a4.61,4.61,0,0,1-4.61-4.61h9.23A4.61,4.61,0,0,1,25.55,44.51Zm16.14-8v0a1.25,1.25,0,0,1-1.27,1.05H10.56a1.12,1.12,0,0,1-.81-.35,1.09,1.09,0,0,1-.33-.91,1.25,1.25,0,0,1,1.27-1.05,5.65,5.65,0,0,0,5.64-5.64V17.22a9.61,9.61,0,0,1,7.21-9.35,1.17,1.17,0,0,0,.87-1.28s0-.09,0-.13a1.15,1.15,0,0,1,1.15-1.15,1.17,1.17,0,0,1,.85.37,1.21,1.21,0,0,1,.31.87,1.15,1.15,0,0,0,.89,1.29,9.25,9.25,0,0,1,7.18,9V29.65a5.66,5.66,0,0,0,5.64,5.64h.13a1.08,1.08,0,0,1,.82.35A1.06,1.06,0,0,1,41.69,36.53Z" transform="translate(-7.11 -3)"/></svg>