<svg xmlns="http://www.w3.org/2000/svg" xmlns:xlink="http://www.w3.org/1999/xlink" viewBox="0 0 32 32">
  <defs>
    <style>
      .cls-1 {
        clip-path: url(#clip-Review);
      }

      .cls-2 {
        fill: #fff;
      }
    </style>
    <clipPath id="clip-Review">
      <rect width="32" height="32"/>
    </clipPath>
  </defs>
  <g id="Review" class="cls-1">
    <g id="notepad" transform="translate(-2 1)">
      <path id="Path_2267" data-name="Path 2267" class="cls-2" d="M29.5,1.5H25V.5a.5.5,0,0,0-.5-.5H13a.5.5,0,0,0-.5.5v1h-5A.5.5,0,0,0,7,2V29.5a.5.5,0,0,0,.5.5h22a.5.5,0,0,0,.5-.5V2A.5.5,0,0,0,29.5,1.5ZM13.75,18A2.25,2.25,0,1,1,16,15.75,2.253,2.253,0,0,1,13.75,18ZM16,22.25A2.25,2.25,0,1,1,13.75,20,2.253,2.253,0,0,1,16,22.25ZM13.75,11.5A2.25,2.25,0,1,1,16,9.25,2.253,2.253,0,0,1,13.75,11.5ZM25,22H17.5a.5.5,0,0,1,0-1H25a.5.5,0,0,1,0,1Zm.5,1.5a.5.5,0,0,1-.5.5H17.5a.5.5,0,0,1,0-1H25A.5.5,0,0,1,25.5,23.5Zm-.5-6H17.5a.5.5,0,0,1,0-1H25a.5.5,0,0,1,0,1Zm0-2H17.5a.5.5,0,0,1,0-1H25a.5.5,0,0,1,0,1ZM25,11H17.5a.5.5,0,0,1,0-1H25a.5.5,0,0,1,0,1Zm0-2H17.5a.5.5,0,0,1,0-1H25a.5.5,0,0,1,0,1ZM13.5,1H24V4.5H13.5V1ZM29,29H8V2.5h4.5v1h-3A.5.5,0,0,0,9,4V27.5a.5.5,0,0,0,.5.5h18a.5.5,0,0,0,.5-.5V4a.5.5,0,0,0-.5-.5H25v-1h4Z"/>
      <path id="Path_2268" data-name="Path 2268" class="cls-2" d="M22.5,5H30a.5.5,0,0,0,0-1H22.5a.5.5,0,0,0,0,1Z" transform="translate(-7.5 -2)"/>
    </g>
  </g>
</svg>
