<svg xmlns="http://www.w3.org/2000/svg" xmlns:xlink="http://www.w3.org/1999/xlink" viewBox="0 0 140 140"><defs><style>.a{clip-path:url(#b);}.b{fill:#cfcdfd;opacity:0.5;}.c{fill:#e5e5e5;}.d{fill:#fff;}.e{fill:#7976c7;}.f{fill:#f7f7f7;}.g{fill:#f2f2f2;}.h{fill:#bbdff5;}</style><clipPath id="b"><rect width="140" height="140"/></clipPath></defs><g id="a" class="a"><g transform="translate(-751.601 -277)"><path class="b" d="M30.022,101.7c-2.463-.529-32.094-5.27-29.908-40.264S5.028,15.927,16.547,12.072,56.051-10,78.019,7.331s45.673,32.854,36.26,60.517S103.335,104.73,78.8,103.314,41.736,104.2,30.022,101.7Z" transform="translate(763.602 297.471)"/><g transform="translate(770.685 285)"><path class="c" d="M1.583,568.714a2.974,2.974,0,0,0-1.6,2.534c.131,2.515,4.636,3.116,6.457,3.36,3.266.432,6.513.357,9.8.488,11.881.432,23.8.507,35.682.244,6.1-.131,12.219-.338,18.32-.638,5.368-.263,11.337.075,16.4-1.915a70.633,70.633,0,0,0,8.822-4.261c2.365-1.314,5.425-2.572,6.832-5.03,2.459-4.317-6.157-5.162-8.522-5.65-9.329-1.858-18.939-2.2-28.418-2.478a222.094,222.094,0,0,0-28.925.863c-12.05,1.22-24.927,5.105-34.743,12.388C1.677,568.639,1.621,568.677,1.583,568.714Z" transform="translate(0.015 -451.031)"/><g transform="translate(3.008 56.823)"><rect class="c" width="66.07" height="45.292" transform="translate(24.775 11.195)"/><g transform="translate(24.312)"><path class="d" d="M214.089,315.449H148l8.747-10.117a2.139,2.139,0,0,1,1.614-.732h63.893a.554.554,0,0,1,.413.92Z" transform="translate(-147.538 -304.254)"/><path class="e" d="M212.125,313.613H147.05a2.781,2.781,0,0,0-.882,0c-.038.019-.094,0-.113,0,.113.15.225.319.338.469,2.14-2.478,4.3-4.955,6.438-7.452.77-.882,1.483-1.821,2.309-2.665a2.329,2.329,0,0,1,1.915-.544h61.115a9.433,9.433,0,0,1,1.783,0c.056.019.225-.038.263,0,.394.319-.357.957-.526,1.145-2.459,2.834-4.9,5.669-7.358,8.5-.206.244-.432.488-.638.732-.375.432.488.6.77.282,2.234-2.571,4.448-5.143,6.682-7.733l1.52-1.746c.263-.319.657-.657.6-1.107-.113-.77-.9-.732-1.483-.732H157.861c-.469,0-.938-.019-1.389,0a3.507,3.507,0,0,0-2.628,1.558q-3.773,4.364-7.564,8.728c-.225.263-.432.507-.657.77-.244.282.075.469.338.469h63.368a23.85,23.85,0,0,0,2.59,0h.113C212.557,314.289,212.745,313.613,212.125,313.613Z" transform="translate(-145.536 -302.756)"/></g><g transform="translate(8.237 11.023)"><path class="f" d="M78.336,362.4,62.1,368.725v45.292l16.236-6.081Z" transform="translate(-61.686 -362.227)"/><path class="e" d="M76.375,361.54l-14.19,5.518-2.027.788c-.6.225-.038.375.319.244l14.19-5.518,2.027-.788c.6-.244.038-.394-.319-.244Z" transform="translate(-59.893 -361.48)"/><g transform="translate(16.199 2.08)"><path class="e" d="M147.1,416.057V372.679c0-.244-.9-.094-.9.244V416.3c-.019.263.9.094.9-.244Z" transform="translate(-146.199 -372.559)"/></g></g><g transform="translate(0 2.246)"><path class="g" d="M42.748,324.811l-16.236,6.325-7.79-7.583a1.415,1.415,0,0,1,.488-2.346l13.308-4.993a1.436,1.436,0,0,1,1.483.3Z" transform="translate(-17.861 -315.862)"/><path class="d" d="M47.434,334.906l-15.8,6.157-6.607-6.551a1.415,1.415,0,0,1,.488-2.346c1.539-.563,3.06-1.145,4.6-1.708,2.252-.826,4.974-2.553,7.452-2.008C39.344,328.806,47.246,334.737,47.434,334.906Z" transform="translate(-22.978 -325.788)"/><path class="e" d="M40.689,323.445,26.5,328.964l-2.027.788c.206.019.413.038.6.038-1.971-1.933-3.96-3.848-5.931-5.781-.469-.45-.939-.92-1.408-1.37a2.363,2.363,0,0,1-.751-.92c-.45-1.37,1.333-1.689,2.234-2.046l9.46-3.548c.751-.282,2.121-1.145,2.928-.676a12.026,12.026,0,0,1,2.14,2.008c2.252,2.14,4.5,4.261,6.757,6.4.263.263,1.126-.113.826-.375l-6.4-6.063c-.77-.732-1.52-1.539-2.346-2.234-1.014-.845-2.065-.357-3.116.038q-4.955,1.858-9.929,3.716a18.307,18.307,0,0,0-2.609,1.014,1.705,1.705,0,0,0-.676,2.365,4.71,4.71,0,0,0,.788.826c2.4,2.346,4.805,4.674,7.208,7.02a.539.539,0,0,0,.6.038l14.19-5.518,2.027-.788C41.665,323.689,41.139,323.277,40.689,323.445Z" transform="translate(-16.008 -314.721)"/></g></g><g transform="translate(0.641 0)"><path class="c" d="M3.4,44.326,30.2,96.713a2.59,2.59,0,0,0,3.491,1.126L80.883,73.682a2.59,2.59,0,0,0,1.126-3.491l-4.186-8.165L75.477,57.54,50.062,7.781a2.59,2.59,0,0,0-3.491-1.126L9.425,25.669,3.4,44.326Z" transform="translate(-3.4 -5.177)"/><g transform="translate(1.405 0)"><path class="d" d="M13.4,39.326,40.2,91.713a2.59,2.59,0,0,0,3.491,1.126L90.883,68.682a2.59,2.59,0,0,0,1.126-3.491l-4.186-8.165L85.477,52.54,60.062,2.781a2.59,2.59,0,0,0-3.491-1.126L19.425,20.669,13.4,39.326Z" transform="translate(-12.928 -1.115)"/><path class="e" d="M10.906,38.348q5.124,10,10.23,19.99L35.889,87.169c.526,1.032,1.051,2.065,1.6,3.1a3.175,3.175,0,0,0,4.148,1.783c2.271-.92,4.448-2.271,6.626-3.379q15.232-7.8,30.483-15.6,4.843-2.478,9.667-4.955c1.427-.732,2.74-1.9,2.215-3.7a14.876,14.876,0,0,0-1.145-2.327c-.657-1.276-1.3-2.553-1.952-3.829-2.928-5.706-5.894-11.412-8.8-17.118Q70.866,25.772,62.992,10.4c-1.464-2.834-2.909-5.669-4.373-8.5A3.149,3.149,0,0,0,54.283.377c-.863.413-1.727.882-2.571,1.314Q37.268,9.1,22.806,16.481c-1.539.788-3.06,1.577-4.6,2.346-.582.3-1.164.45-1.389,1.107-1.577,4.805-3.116,9.648-4.674,14.472-.3.957-.619,1.915-.92,2.872-.075.188-.432.863-.319,1.07.169.338,1.051.075.9-.244.038.075.113-.319.169-.45.15-.45.282-.882.432-1.333.469-1.464.957-2.947,1.427-4.411,1.089-3.341,2.159-6.682,3.247-10.023.263-.788.507-1.577.77-2.365a3.468,3.468,0,0,1-.263.263q10.192-5.209,20.4-10.436Q44.41,6.054,50.848,2.779c1.145-.582,2.29-1.164,3.416-1.746.15-.075.3-.169.469-.244a2.223,2.223,0,0,1,2.909,1.126C58.807,4,59.82,6.158,60.909,8.279Q64.2,14.7,67.478,21.136q6.673,13.148,13.439,26.316,4.054,7.883,8.127,15.767a4.042,4.042,0,0,1,.751,2.553,2.428,2.428,0,0,1-1.333,1.708c-.807.432-1.614.826-2.421,1.239-3.623,1.858-7.264,3.716-10.887,5.575q-13.74,7.039-27.5,14.077C45.63,89.421,43.6,90.529,41.538,91.5c-2.515,1.183-3.735-2.647-4.58-4.3Q30.483,74.565,24.007,61.9,18.235,50.643,12.464,39.362c-.206-.413-.413-.826-.638-1.239C11.638,37.766,10.755,38.048,10.906,38.348Z" transform="translate(-10.884 -0.025)"/></g><g transform="translate(1.436 19.287)"><path class="e" d="M17.083,103.157c1.577,3.06,3.135,6.119,4.711,9.2a4.751,4.751,0,0,1,.657,1.708,2.584,2.584,0,0,1-1.539,2.553c-1.708.882-3.416,1.746-5.124,2.628-1.483.77-2.984,1.52-4.467,2.29.206.056.432.094.638.15,1.764-5.443,3.51-10.868,5.274-16.311.263-.788.507-1.577.77-2.365.113-.338-.807-.206-.9.113-1.764,5.443-3.51,10.868-5.274,16.311-.263.788-.507,1.577-.77,2.365-.094.3.526.206.638.15,3.172-1.633,6.344-3.247,9.516-4.88,1.689-.863,2.722-2.459,1.8-4.336-.807-1.652-1.671-3.285-2.515-4.918-.826-1.633-1.671-3.247-2.5-4.88C17.815,102.594,16.933,102.875,17.083,103.157Z" transform="translate(-11.049 -102.777)"/></g><g transform="translate(12.429 23.917)"><g transform="translate(5.861)"><path class="h" d="M101.418,139.693a.592.592,0,0,1-.507-.3.54.54,0,0,1,.244-.751l21.754-11.131a.558.558,0,1,1,.507.995l-21.754,11.131A.469.469,0,0,1,101.418,139.693Z" transform="translate(-100.844 -127.444)"/></g><g transform="translate(2.432 7.085)"><path class="e" d="M83.217,186.742c4.636-2.365,9.272-4.749,13.89-7.114q10.98-5.631,21.961-11.243l5.068-2.59c.544-.282.056-.77-.394-.544-4.636,2.365-9.272,4.749-13.89,7.114Q98.871,178,87.891,183.607l-5.068,2.59c-.563.3-.056.788.394.544Z" transform="translate(-82.574 -165.193)"/></g><g transform="translate(0 2.519)"><path class="e" d="M70.366,162.138c4.636-2.365,9.272-4.749,13.89-7.114q10.98-5.631,21.961-11.243l5.068-2.59c.544-.282-.263-.413-.563-.263-4.636,2.365-9.272,4.749-13.89,7.114q-10.98,5.631-21.961,11.243l-5.068,2.59c-.544.282.263.413.563.263Z" transform="translate(-69.619 -140.865)"/></g><g transform="translate(4.843 22.222)"><path class="e" d="M96.053,256.961q9.038-4.617,18.057-9.235c.863-.432,1.708-.882,2.571-1.314.544-.282.056-.751-.394-.507q-9.038,4.617-18.057,9.235c-.863.432-1.708.882-2.571,1.314-.544.263-.056.732.394.507Z" transform="translate(-95.419 -245.837)"/></g></g><g transform="translate(24.348 47.154)"><g transform="translate(5.842)"><path class="h" d="M164.818,263.493a.592.592,0,0,1-.507-.3.54.54,0,0,1,.244-.751l21.754-11.131a.558.558,0,0,1,.507.995l-21.754,11.131A.52.52,0,0,1,164.818,263.493Z" transform="translate(-164.244 -251.244)"/></g><g transform="translate(2.421 7.133)"><path class="e" d="M146.632,310.709c4.636-2.365,9.272-4.749,13.89-7.114q10.98-5.631,21.961-11.243l5.068-2.59c.563-.282.056-.676-.375-.45-4.636,2.365-9.272,4.749-13.89,7.114q-10.98,5.631-21.961,11.243l-5.068,2.59c-.544.282-.056.676.375.45Z" transform="translate(-146.015 -289.244)"/></g><g transform="translate(0 2.408)"><path class="e" d="M133.753,285.59c4.636-2.365,9.272-4.749,13.89-7.114q10.98-5.631,21.961-11.243l5.068-2.59c.544-.282.056-.732-.394-.507-4.636,2.365-9.272,4.749-13.89,7.114q-10.98,5.631-21.961,11.243l-5.068,2.59c-.544.282-.056.732.394.507Z" transform="translate(-133.119 -264.075)"/></g><g transform="translate(4.818 17.064)"><path class="e" d="M159.427,358.457c3.435-1.764,6.889-3.529,10.324-5.293l16.5-8.447c1.276-.657,2.553-1.314,3.829-1.952.544-.282.056-.788-.413-.544-3.435,1.764-6.889,3.529-10.324,5.293l-16.5,8.447c-1.276.657-2.553,1.314-3.829,1.952-.526.282-.038.788.413.544Z" transform="translate(-158.786 -342.156)"/></g></g></g><g transform="translate(24.178 3.07)"><path class="c" d="M161.3,28.94,141.024,84.161a2.6,2.6,0,0,0,1.539,3.322l49.759,18.3a2.608,2.608,0,0,0,3.341-1.539l3.153-8.615,1.708-4.768,19.258-52.443a2.6,2.6,0,0,0-1.539-3.322L179.09,20.7,161.3,28.94Z" transform="translate(-138.602 -19.89)"/><g transform="translate(0 0.071)"><path class="d" d="M151.3,25.94,131.024,81.161a2.6,2.6,0,0,0,1.539,3.322l49.759,18.3a2.608,2.608,0,0,0,3.341-1.539l3.153-8.615,1.708-4.768,19.258-52.443a2.6,2.6,0,0,0-1.539-3.322L169.09,17.7,151.3,25.94Z" transform="translate(-130.479 -17.523)"/><path class="e" d="M149.163,25.232q-3.857,10.53-7.733,21.079-5.575,15.2-11.168,30.407c-.394,1.089-.807,2.177-1.2,3.266-.582,1.6-.244,3.285,1.464,4,2.365.976,4.843,1.783,7.245,2.665Q153.875,92.56,170,98.491c3.266,1.2,6.513,2.4,9.779,3.585,1.652.6,3.641.45,4.524-1.333a19.39,19.39,0,0,0,.845-2.271c.488-1.351.995-2.684,1.483-4.036,2.215-6.025,4.392-12.069,6.588-18.094q5.941-16.217,11.9-32.416,1.661-4.477,3.3-8.972a2.861,2.861,0,0,0-1.6-3.867c-.995-.413-2.027-.751-3.041-1.126q-15.316-5.631-30.614-11.243c-1.52-.563-3.041-1.126-4.58-1.689a1.993,1.993,0,0,0-1.839-.075c-4.693,2.159-9.366,4.336-14.059,6.494-.845.394-1.708.788-2.553,1.183-.244.131-.863.282-.976.6s.788.206.9-.113V25.1a3.356,3.356,0,0,0-.263.244q7.771-3.576,15.523-7.17c.751-.357,1.5-.694,2.252-1.051-.188,0-.357.019-.544.019q10.84,3.97,21.679,7.958c4.5,1.689,9.01,3.341,13.514,4.993,1.164.432,2.346.863,3.51,1.3,1.464.544,2.44,1.746,1.9,3.4-.713,2.159-1.577,4.261-2.346,6.4-1.633,4.467-3.285,8.935-4.918,13.4l-10.3,28.042q-3.041,8.306-6.063,16.63c-.3.826-.544,1.877-1.333,2.365a2.111,2.111,0,0,1-1.952.056c-.9-.319-1.783-.657-2.684-.976-3.885-1.427-7.752-2.853-11.637-4.28q-14.528-5.321-29.037-10.661c-2.027-.751-4.111-1.427-6.119-2.252-2.891-1.2-.957-4.561-.225-6.551q4.871-13.289,9.76-26.6,4.392-11.966,8.8-23.95c.15-.432.319-.863.469-1.3C150.2,24.8,149.276,24.913,149.163,25.232Z" transform="translate(-128.797 -16.759)"/></g><g transform="translate(20.354)"><path class="e" d="M255.063,16.7c-1.182,3.191-2.346,6.4-3.529,9.591a5.12,5.12,0,0,1-.77,1.614,2.326,2.326,0,0,1-2.815.394c-1.764-.638-3.529-1.3-5.293-1.933-1.577-.582-3.135-1.145-4.711-1.727-.038.169-.056.319-.094.488q7.771-3.6,15.56-7.208c.751-.357,1.5-.694,2.271-1.051.563-.263.056-.638-.375-.432-5.162,2.384-10.361,4.786-15.542,7.189-.751.357-1.5.694-2.271,1.051-.225.113-.394.375-.094.488,3.379,1.239,6.738,2.478,10.117,3.716a3.441,3.441,0,0,0,4.617-1.9c.657-1.708,1.258-3.435,1.9-5.143l1.915-5.237C256.095,16.254,255.175,16.367,255.063,16.7Z" transform="translate(-237.238 -16.382)"/></g><g transform="translate(17.303 18.605)"><g transform="translate(16.39)"><path class="h" d="M331.8,125.073a.667.667,0,0,1-.188-.038l-22.937-8.428a.57.57,0,1,1,.394-1.07l22.937,8.428a.563.563,0,0,1,.338.732A.58.58,0,0,1,331.8,125.073Z" transform="translate(-308.301 -115.501)"/></g><g transform="translate(1.822 8.989)"><path class="e" d="M230.878,163.992c4.88,1.8,9.779,3.585,14.659,5.387q11.572,4.251,23.162,8.5l5.349,1.971c.357.131,1.07-.394.526-.582-4.88-1.8-9.779-3.585-14.659-5.387q-11.572-4.251-23.162-8.5L231.4,163.41c-.357-.131-1.051.394-.526.582Z" transform="translate(-230.688 -163.389)"/></g><g transform="translate(3.645 3.997)"><path class="e" d="M240.606,137.434c4.88,1.8,9.779,3.585,14.659,5.387q11.572,4.251,23.162,8.5l5.349,1.971c.394.15,1.07-.432.526-.619-4.88-1.8-9.779-3.585-14.659-5.387q-11.572-4.251-23.162-8.5l-5.349-1.971c-.413-.131-1.07.432-.526.619Z" transform="translate(-240.399 -136.795)"/></g><g transform="translate(0 14.026)"><path class="e" d="M221.077,190.691c4.805,1.764,9.629,3.529,14.434,5.293q11.515,4.223,23.012,8.446c1.764.638,3.529,1.3,5.293,1.933.282.113,1.107-.3.713-.45-4.805-1.764-9.629-3.529-14.434-5.293q-11.515-4.223-23.012-8.446c-1.764-.638-3.529-1.3-5.293-1.933-.282-.094-1.089.319-.713.45Z" transform="translate(-220.979 -190.227)"/></g></g><g transform="translate(8.294 43.085)"><g transform="translate(15.429)"><path class="h" d="M255.284,246.37q8.981,3.294,17.944,6.588c.845.319,1.689.619,2.534.938.263.094,1.089-.3.732-.432q-8.981-3.294-17.944-6.588c-.845-.319-1.689-.619-2.534-.939-.282-.094-1.107.3-.732.432Z" transform="translate(-255.188 -245.924)"/></g><g transform="translate(1.826 8.999)"><path class="e" d="M182.919,294.511c4.355,1.6,8.691,3.191,13.045,4.786q10.361,3.8,20.7,7.6c1.6.582,3.191,1.164,4.786,1.764.394.15,1.07-.413.526-.619-4.355-1.6-8.691-3.191-13.045-4.786q-10.361-3.8-20.7-7.6c-1.6-.582-3.191-1.164-4.786-1.764-.394-.15-1.07.413-.526.619Z" transform="translate(-182.715 -293.866)"/></g><g transform="translate(3.658 4.034)"><path class="e" d="M192.666,268.033c4.355,1.6,8.691,3.191,13.045,4.786q10.361,3.8,20.7,7.6c1.6.582,3.191,1.164,4.786,1.764.375.131,1.07-.394.526-.6-4.355-1.6-8.691-3.191-13.045-4.786q-10.361-3.8-20.7-7.6c-1.6-.582-3.191-1.164-4.786-1.764-.375-.113-1.051.413-.526.6Z" transform="translate(-192.473 -267.417)"/></g><g transform="translate(0 14.059)"><path class="e" d="M173.084,321.289l17.006,6.25c.807.3,1.6.582,2.4.882.282.094,1.089-.3.713-.45L176.2,321.72c-.807-.3-1.6-.582-2.4-.882-.263-.094-1.089.3-.713.451Z" transform="translate(-172.987 -320.824)"/></g></g></g><g transform="translate(18.641 17.443)"><path class="c" d="M99.3,110.052V168.9a2.6,2.6,0,0,0,2.609,2.59h53.007a2.6,2.6,0,0,0,2.609-2.59v-9.179l-.038-5.049V98.79a2.6,2.6,0,0,0-2.609-2.59H113.152L99.3,110.052Z" transform="translate(-99.3 -95.591)"/><g transform="translate(1.427)"><path class="d" d="M109.3,108.052V166.9a2.6,2.6,0,0,0,2.609,2.59h53.007a2.6,2.6,0,0,0,2.609-2.59v-9.179l-.038-5.049V96.79a2.6,2.6,0,0,0-2.609-2.59H123.152L109.3,108.052Z" transform="translate(-108.85 -93.966)"/><path class="e" d="M106.9,107.173v58.318a2.9,2.9,0,0,0,2.872,3.21c2.515.094,5.068,0,7.583,0H162.2c1.708,0,3.585-.657,3.792-2.628.075-.788.019-1.614.019-2.4v-4.3c0-6.419-.038-12.839-.038-19.258V105.577c0-3.191.019-6.382,0-9.554a2.888,2.888,0,0,0-2.947-3.06c-1.051-.019-2.1,0-3.153,0h-37.54c-.751,0-1.258-.056-1.821.507q-5.406,5.406-10.83,10.812l-2.083,2.083c-.15.169-.676.544-.695.807,0,.206.9.075.9-.244,0,.188.225-.15.338-.282l.995-.995,3.285-3.285q3.716-3.716,7.452-7.433l1.764-1.764c-.206.075-.394.15-.6.225h41.2a2.6,2.6,0,0,1,2.853,2.571c.075,2.309,0,4.617,0,6.926v44.016c0,5.95.038,11.881.038,17.831a4.153,4.153,0,0,1-.488,2.684,2.108,2.108,0,0,1-1.746.788c-.957.019-1.933,0-2.891,0h-43.19c-2.2,0-4.449.131-6.645,0-3-.169-2.365-4.054-2.365-6.1v-55.24C107.82,106.7,106.9,106.854,106.9,107.173Z" transform="translate(-106.9 -92.956)"/></g><g transform="translate(1.41 0.059)"><path class="e" d="M120.718,93.575v9.4c0,1.6.188,3.96-1.99,4.167-1.22.113-2.515,0-3.735,0h-5.875a9.529,9.529,0,0,0-1.464,0c-.15.019-.019.15.075.094a1.5,1.5,0,0,0,.244-.244l6.982-6.982,6.607-6.607c.169-.169-.657-.075-.826.075l-12.125,12.125-1.764,1.764c-.094.094.019.131.113.131,3.6,0,7.226.019,10.849,0,1.915-.019,3.735-.976,3.792-3.1.056-1.764,0-3.548,0-5.331V93.312C121.619,93.2,120.718,93.312,120.718,93.575Z" transform="translate(-106.812 -93.268)"/></g><g transform="translate(6.989 18.947)"><g transform="translate(10.655)"><path class="h" d="M218.283,195.026h-24.42a.563.563,0,0,1,0-1.126H218.3a.553.553,0,0,1,.563.563A.581.581,0,0,1,218.283,195.026Z" transform="translate(-193.3 -193.9)"/></g><g transform="translate(0.003 13.608)"><path class="e" d="M136.786,266.794h45.987c.263,0,.976-.394.375-.394H137.162c-.263,0-.976.394-.375.394Z" transform="translate(-136.552 -266.4)"/></g><g transform="translate(0 8.296)"><path class="e" d="M136.772,238.532h45.987c.282,0,.976-.432.375-.432H137.148c-.282,0-.976.432-.375.432Z" transform="translate(-136.535 -238.1)"/></g><g transform="translate(0.004 18.732)"><path class="e" d="M136.956,294.413h23.162c.526,0,.676-.713.075-.713H137.031c-.544.019-.694.713-.075.713Z" transform="translate(-136.553 -293.7)"/></g></g><g transform="translate(6.984 45.056)"><g transform="translate(10.659)"><path class="h" d="M218.283,334.126h-24.42a.563.563,0,0,1,0-1.126H218.3a.553.553,0,0,1,.563.563A.581.581,0,0,1,218.283,334.126Z" transform="translate(-193.3 -333)"/></g><g transform="translate(0.008 13.608)"><path class="e" d="M136.786,405.894h45.987c.263,0,.976-.394.375-.394H137.162c-.263,0-.976.394-.375.394Z" transform="translate(-136.552 -405.5)"/></g><g transform="translate(0 8.202)"><path class="e" d="M136.79,377.3h45.987c.394,0,.939-.6.338-.6H137.128c-.413,0-.957.6-.338.6Z" transform="translate(-136.51 -376.7)"/></g><g transform="translate(0.009 18.77)"><path class="e" d="M136.944,433.638h23.162c.507,0,.713-.638.094-.638H137.037c-.507,0-.713.638-.094.638Z" transform="translate(-136.561 -433)"/></g></g></g><g transform="translate(2.136 67.697)"><rect class="g" width="66.277" height="45.292" transform="translate(9.223 6.647)"/><path class="d" d="M126.777,401.1c-2.121,3.172-4.58,7.433-6.1,10.155a5.2,5.2,0,0,1-4.542,2.665l-55.634.131v31.4h66.277Z" transform="translate(-51.277 -393.515)"/><g transform="translate(75.05 0.321)"><path class="c" d="M429.836,362.4,413.6,368.725v45.292l16.236-6.081Z" transform="translate(-413.15 -362.4)"/><path class="g" d="M429.836,412.913l-5.387,2.177a4.414,4.414,0,0,1-5.181-1.445L413.6,406.1v43.415l16.236-6.081Z" transform="translate(-413.15 -397.897)"/><g transform="translate(0 8.051)"><path class="e" d="M411.2,405.631V447.3c0,.188.9.056.9-.244V405.387c0-.206-.9-.056-.9.244Z" transform="translate(-411.2 -405.292)"/></g></g><g transform="translate(8.785 0.141)"><path class="e" d="M58.418,368.172h63.1a29.455,29.455,0,0,0,3.153,0,7.7,7.7,0,0,0,1.746-.6c1.558-.6,3.116-1.22,4.674-1.821,3.191-1.239,6.4-2.5,9.591-3.735.188-.075.394-.15.582-.225.6-.225.038-.45-.338-.3-2.44.957-4.9,1.9-7.339,2.853-1.8.694-3.585,1.408-5.387,2.1-1.089.432-2.271.77-3.322,1.3-.375.188.113,0,.113,0-.056-.038-.282,0-.357,0H71.219c-4.092,0-8.2-.169-12.294,0h-.169c-.263-.019-.957.432-.338.432Z" transform="translate(-58.168 -361.441)"/></g><g transform="translate(8.735 14.067)"><path class="e" d="M140.432,436v31.458c.094-.094.169-.206.263-.3-2.44.92-4.88,1.839-7.32,2.74-1.839.694-3.66,1.37-5.5,2.065-1.07.394-2.2.732-3.228,1.2-.357.169.15.019,0,0a2.5,2.5,0,0,0-.375,0H60a7.244,7.244,0,0,0-1.427,0,.507.507,0,0,1-.169,0c.131.094.282.206.413.3v-33.11c0-.469-.92-.338-.92.075v33.11c0,.244.225.3.413.3h62.992a23.709,23.709,0,0,0,3.266,0,8.06,8.06,0,0,0,1.6-.563c1.539-.582,3.078-1.145,4.617-1.727,3.228-1.2,6.457-2.421,9.685-3.623.206-.075.394-.15.6-.225a.39.39,0,0,0,.263-.3V435.944c.019-.488-.9-.357-.9.056Z" transform="translate(-57.9 -435.631)"/></g><g transform="translate(0 6.344)"><path class="g" d="M88.467,396.1H22.19l-8.747,10.1a.457.457,0,0,0,.338.751H78.875a.44.44,0,0,0,.338-.15Z" transform="translate(-12.967 -395.798)"/><path class="d" d="M114.481,396.1H48.842c-1.014,1.952-1.971,3.923-3.041,5.856-.657,1.182-.788,3.116,1.126,3.116h56.291a4.256,4.256,0,0,0,2.891-1.145Z" transform="translate(-38.981 -395.798)"/><path class="e" d="M87.032,394.491H21.168a1.324,1.324,0,0,0-.957.206,20.575,20.575,0,0,0-2.121,2.459c-2.14,2.459-4.28,4.918-6.4,7.414-.488.563-.488,1.3.413,1.37a11.261,11.261,0,0,0,1.126,0H76.2c.3,0,.6.019.9,0,.807-.056,1.164-.657,1.652-1.22l6.814-7.883c.563-.638,1.126-1.3,1.689-1.933.357-.413-.507-.488-.751-.206-2.159,2.5-4.317,4.974-6.457,7.47a28.742,28.742,0,0,0-2.722,3.153c-.113.169.282.019,0,.038-.188.019-.375,0-.563,0H14.448a11.792,11.792,0,0,1-1.821,0c-.732-.131-.169-.638.169-1.032q3.745-4.336,7.489-8.653c.225-.263.432-.507.657-.77-.188.056-.357.131-.544.188H78.491c2.684,0,5.406.15,8.09,0h.113C87.088,395.092,87.632,394.491,87.032,394.491Z" transform="translate(-11.363 -394.489)"/></g><g transform="translate(75.063)"><path class="g" d="M429.836,362.4,413.6,368.725l9.066,8.766a.734.734,0,0,0,.751.15l14.772-5.537a.7.7,0,0,0,.244-1.164Z" transform="translate(-413.163 -362.079)"/><path class="d" d="M430.2,363.5l-15.5,6.194,8.146,8.24a.6.6,0,0,0,.676.15c2.046-.807,4.073-1.6,6.119-2.4,1.239-.488,2.459-.976,3.7-1.445,1.2-.469,2.891-1.051,2.759-2.684a3.411,3.411,0,0,0-1.07-1.858C434.465,369.093,430.467,363.782,430.2,363.5Z" transform="translate(-414.056 -362.972)"/><path class="e" d="M427.737,360.729l-14.19,5.518-2.027.788a.339.339,0,0,0-.15.563l6.738,6.513a19.051,19.051,0,0,0,2.44,2.327c.788.507,2.008-.225,2.8-.507,3.548-1.333,7.076-2.665,10.624-3.979A24.225,24.225,0,0,0,436.5,371c1.558-.788.131-1.971-.582-2.684-2.515-2.5-5.049-4.993-7.564-7.489-.3-.3-1.164.075-.826.413l6.288,6.232a19,19,0,0,1,2.309,2.29c.563.826-1.427,1.2-1.933,1.389L424,374.975c-.6.225-1.182.45-1.783.676-.188.075-.657.357-.863.319-.206-.019-.488-.394-.619-.526l-1.408-1.351c-2.421-2.327-4.843-4.674-7.245-7-.056.188-.094.375-.15.563l14.19-5.518,2.027-.788C428.713,361.067,428.207,360.541,427.737,360.729Z" transform="translate(-411.27 -360.689)"/></g><g transform="translate(70.357 18.182)"><path class="e" d="M386.2,457.94v7.7c0,.488.92.375.92-.056v-7.7c0-.507-.92-.375-.92.056Z" transform="translate(-386.2 -457.556)"/><g transform="translate(0 9.401)"><path class="e" d="M386.2,507.973v1.22c0,.375.9.188.9-.113v-1.22c0-.394-.9-.188-.9.113Z" transform="translate(-386.2 -507.643)"/></g><g transform="translate(0 11.973)"><path class="e" d="M386.2,521.713v3.153c0,.469.92.319.92-.075v-3.153c-.019-.469-.92-.319-.92.075Z" transform="translate(-386.2 -521.346)"/></g></g></g><g transform="translate(51.195 98.463)"><g transform="translate(0 5.481)"><path class="e" d="M273.007,554.382H285.47c.394,0,.939-.582.338-.582H273.345c-.394,0-.957.582-.338.582Z" transform="translate(-272.731 -553.8)"/></g><g transform="translate(0.021 2.778)"><path class="e" d="M272.966,539.794H285.43c.206,0,1.032-.394.582-.394H273.548c-.188.019-1.014.394-.582.394Z" transform="translate(-272.843 -539.4)"/></g><g transform="translate(0.016)"><path class="e" d="M273.058,525.05h12.463c.3,0,.976-.45.375-.45H273.433c-.3,0-.976.45-.375.45Z" transform="translate(-272.817 -524.6)"/></g><g transform="translate(0.01 7.546)"><path class="e" d="M273.184,565.476h2.759c.526,0,.694-.676.075-.676h-2.759c-.526,0-.695.676-.075.676Z" transform="translate(-272.787 -564.8)"/><g transform="translate(4.848 0.113)"><path class="e" d="M298.858,565.85h2.759c.3,0,.976-.451.375-.451h-2.759c-.3,0-.976.451-.375.451Z" transform="translate(-298.617 -565.4)"/></g><g transform="translate(9.699 0.019)"><path class="e" d="M324.844,565.538H327.6c.507,0,.713-.638.094-.638h-2.759c-.507.019-.713.638-.094.638Z" transform="translate(-324.461 -564.9)"/></g></g></g><g transform="translate(21.532 17.009)"><path class="e" d="M114.775,91.029q8.306,11.881,16.63,23.763,13.261,18.948,26.5,37.9c2.027,2.909,4.054,5.8,6.081,8.709.319.469,2.046.713,1.6.075q-8.306-11.881-16.63-23.763-13.261-18.948-26.5-37.9c-2.027-2.909-4.054-5.8-6.081-8.709-.338-.469-2.046-.713-1.6-.075Z" transform="translate(-114.7 -90.643)"/></g></g></g></g></svg>