<svg width="140" height="140" viewBox="0 0 140 140" fill="none" xmlns="http://www.w3.org/2000/svg">
<path opacity="0.5" d="M42.02 122.17C39.56 121.64 9.93 116.9 12.11 81.91C14.29 46.92 17.02 36.4 28.54 32.55C40.06 28.7 68.04 10.48 90.01 27.81C111.98 45.14 135.68 60.66 126.27 88.33C116.86 116 115.33 125.21 90.79 123.8C66.25 122.39 53.74 124.67 42.02 122.17Z" fill="#CFCDFD"/>
<path d="M20.68 125.68C19.73 126.17 19.12 127.14 19.08 128.21C19.21 130.73 23.72 131.33 25.54 131.57C28.81 132 32.05 131.93 35.34 132.06C47.22 132.49 59.14 132.57 71.02 132.3C77.12 132.17 83.24 131.96 89.34 131.66C94.71 131.4 100.68 131.74 105.74 129.75C108.78 128.54 111.72 127.11 114.56 125.49C116.92 124.18 119.99 122.92 121.39 120.46C123.85 116.14 115.23 115.3 112.87 114.81C103.54 112.95 93.93 112.61 84.45 112.33C74.8 111.99 65.14 112.28 55.53 113.19C43.48 114.41 30.6 118.29 20.79 125.58C20.78 125.61 20.72 125.65 20.68 125.68Z" fill="#E5E5E5"/>
<path d="M112.938 76.013H46.868V121.303H112.938V76.013Z" fill="#E5E5E5"/>
<path d="M112.95 76.023H46.87L55.62 65.903C56.03 65.433 56.62 65.173 57.23 65.173H121.12C121.43 65.173 121.67 65.423 121.67 65.733C121.67 65.863 121.62 65.993 121.53 66.093L112.95 76.023Z" fill="white"/>
<path d="M112.99 75.683H47.92C47.63 75.633 47.33 75.633 47.04 75.683C47 75.703 46.95 75.683 46.93 75.683C47.04 75.833 47.16 76.003 47.27 76.153C49.41 73.673 51.57 71.203 53.71 68.703C54.48 67.823 55.19 66.883 56.02 66.033C56.54 65.573 57.25 65.373 57.93 65.493H119.05C119.64 65.433 120.24 65.433 120.83 65.493C120.89 65.513 121.06 65.453 121.09 65.493C121.48 65.813 120.73 66.453 120.56 66.633C118.1 69.463 115.66 72.303 113.2 75.133C112.99 75.373 112.77 75.623 112.56 75.863C112.18 76.293 113.05 76.463 113.33 76.143C115.56 73.573 117.78 71.003 120.01 68.413L121.53 66.663C121.79 66.343 122.19 66.003 122.13 65.553C122.02 64.783 121.23 64.823 120.65 64.823H58.73C58.26 64.823 57.79 64.803 57.34 64.823C56.27 64.913 55.3 65.483 54.71 66.383C52.19 69.293 49.67 72.203 47.15 75.113C46.92 75.373 46.72 75.623 46.49 75.883C46.25 76.163 46.56 76.353 46.83 76.353H110.2C111.06 76.403 111.93 76.403 112.79 76.353H112.9C113.42 76.353 113.61 75.683 112.99 75.683Z" fill="#7976C7"/>
<path d="M46.975 76.016L30.745 82.346V127.636L46.985 121.556V76.016H46.975Z" fill="#F7F7F7"/>
<path d="M46.815 75.906L32.625 81.426L30.595 82.216C29.995 82.446 30.555 82.596 30.915 82.456L45.105 76.936L47.135 76.146C47.725 75.906 47.165 75.756 46.815 75.906Z" fill="#7976C7"/>
<path d="M47.424 121.426V78.046C47.424 77.806 46.524 77.956 46.524 78.286V121.666C46.514 121.926 47.424 121.756 47.424 121.426Z" fill="#7976C7"/>
<path d="M46.978 76.019L30.738 82.349L22.948 74.769C22.388 74.229 22.368 73.329 22.908 72.769C23.058 72.619 23.238 72.499 23.438 72.419L36.748 67.429C37.258 67.239 37.838 67.359 38.228 67.729L46.978 76.019Z" fill="#F2F2F2"/>
<path d="M46.548 76.189L30.748 82.349L24.138 75.799C23.578 75.259 23.558 74.359 24.098 73.799C24.248 73.649 24.428 73.529 24.628 73.449C26.168 72.889 27.688 72.309 29.228 71.739C31.478 70.909 34.198 69.189 36.678 69.729C38.458 70.089 46.358 76.019 46.548 76.189Z" fill="white"/>
<path d="M46.768 75.789L32.578 81.309L30.548 82.099C30.758 82.119 30.958 82.139 31.148 82.139C29.178 80.209 27.188 78.289 25.218 76.359C24.748 75.909 24.278 75.439 23.808 74.989C23.488 74.749 23.228 74.439 23.058 74.069C22.608 72.699 24.388 72.379 25.288 72.019L34.748 68.469C35.498 68.189 36.868 67.329 37.678 67.789C38.468 68.369 39.188 69.039 39.818 69.799C42.068 71.939 44.318 74.059 46.578 76.199C46.838 76.459 47.708 76.089 47.408 75.819L41.008 69.769C40.238 69.039 39.488 68.229 38.658 67.539C37.648 66.689 36.588 67.179 35.538 67.579C32.238 68.819 28.928 70.059 25.608 71.299C24.718 71.569 23.838 71.909 22.998 72.309C22.168 72.749 21.848 73.779 22.288 74.609C22.298 74.629 22.308 74.649 22.318 74.669C22.548 74.979 22.808 75.249 23.108 75.499C25.508 77.849 27.918 80.169 30.318 82.519C30.488 82.649 30.728 82.669 30.918 82.559L45.108 77.039L47.138 76.249C47.748 76.039 47.218 75.629 46.768 75.789Z" fill="#7976C7"/>
<path d="M19.721 47.15L46.521 99.54C47.171 100.81 48.731 101.32 50.001 100.67C50.001 100.67 50.001 100.67 50.011 100.67L97.211 76.5C98.481 75.85 98.991 74.29 98.341 73.02C98.341 73.02 98.341 73.02 98.341 73.01L94.151 64.84L91.801 60.35L66.391 10.6C65.741 9.33 64.181 8.82 62.911 9.47C62.911 9.47 62.911 9.47 62.901 9.47L25.751 28.49L19.721 47.15Z" fill="#E5E5E5"/>
<path d="M21.606 46.21L48.406 98.6C49.056 99.87 50.616 100.38 51.886 99.73C51.886 99.73 51.886 99.73 51.896 99.73L99.086 75.57C100.356 74.92 100.866 73.36 100.216 72.09C100.216 72.09 100.216 72.09 100.216 72.08L96.026 63.91L93.676 59.42L68.266 9.67C67.616 8.4 66.056 7.89 64.786 8.54C64.786 8.54 64.786 8.54 64.776 8.54L27.626 27.55L21.606 46.21Z" fill="white"/>
<path d="M21.156 46.32C24.576 52.99 27.986 59.65 31.386 66.31L46.136 95.14C46.666 96.17 47.186 97.21 47.736 98.24C48.376 99.87 50.216 100.68 51.856 100.04C51.866 100.04 51.876 100.03 51.886 100.03C54.156 99.11 56.336 97.76 58.516 96.65C68.666 91.45 78.836 86.25 88.996 81.05C92.226 79.4 95.446 77.75 98.666 76.09C100.096 75.36 101.406 74.19 100.876 72.39C100.566 71.58 100.176 70.8 99.736 70.06C99.076 68.78 98.436 67.51 97.786 66.23C94.856 60.52 91.896 54.82 88.986 49.11C83.746 38.86 78.496 28.61 73.246 18.37C71.786 15.54 70.336 12.7 68.876 9.87C68.176 8.28 66.316 7.56 64.726 8.26C64.666 8.29 64.606 8.32 64.546 8.35C63.686 8.76 62.816 9.23 61.976 9.66C52.346 14.6 42.716 19.53 33.066 24.45C31.526 25.24 30.006 26.03 28.466 26.8C27.886 27.1 27.306 27.25 27.076 27.91C25.496 32.71 23.956 37.56 22.406 42.38C22.106 43.34 21.786 44.3 21.486 45.25C21.396 45.44 21.036 46.12 21.156 46.32C21.326 46.66 22.206 46.4 22.056 46.08C22.096 46.16 22.166 45.76 22.226 45.63C22.376 45.18 22.506 44.75 22.656 44.3C23.126 42.84 23.616 41.35 24.086 39.89C25.176 36.55 26.246 33.21 27.336 29.87C27.596 29.08 27.846 28.29 28.106 27.51C28.026 27.6 27.936 27.69 27.846 27.77C34.636 24.3 41.436 20.82 48.246 17.33C52.526 15.13 56.816 12.94 61.106 10.76C62.256 10.18 63.396 9.6 64.526 9.01C64.676 8.93 64.826 8.84 64.996 8.77C66.106 8.29 67.406 8.79 67.906 9.9C69.066 11.99 70.086 14.14 71.176 16.26C73.366 20.54 75.556 24.83 77.746 29.12C82.196 37.89 86.676 46.66 91.186 55.44C93.886 60.7 96.596 65.95 99.316 71.21C99.846 71.95 100.116 72.85 100.066 73.76C99.916 74.51 99.416 75.14 98.736 75.47C97.926 75.9 97.126 76.3 96.316 76.71C92.696 78.57 89.056 80.43 85.426 82.28C76.266 86.97 67.096 91.67 57.926 96.36C55.906 97.41 53.876 98.52 51.806 99.49C49.296 100.67 48.066 96.84 47.226 95.19C42.906 86.77 38.596 78.33 34.276 69.89C30.426 62.39 26.576 54.87 22.736 47.35C22.526 46.94 22.326 46.52 22.096 46.11C21.886 45.74 20.996 46.02 21.156 46.32Z" fill="#7976C7"/>
<path d="M27.197 27.667C28.777 30.727 30.337 33.787 31.907 36.867C32.237 37.387 32.457 37.967 32.567 38.577C32.647 39.667 32.027 40.687 31.027 41.127C29.317 42.007 27.607 42.877 25.907 43.757C24.427 44.527 22.927 45.277 21.437 46.047C21.647 46.107 21.867 46.137 22.077 46.197C23.837 40.757 25.587 35.327 27.347 29.887C27.607 29.097 27.857 28.307 28.117 27.527C28.227 27.187 27.307 27.317 27.217 27.637C25.457 33.077 23.707 38.507 21.947 43.947C21.687 44.737 21.437 45.527 21.177 46.307C21.087 46.607 21.707 46.517 21.817 46.457C24.987 44.827 28.157 43.207 31.337 41.577C33.027 40.717 34.057 39.117 33.137 37.237C32.327 35.587 31.467 33.947 30.627 32.317C29.797 30.687 28.957 29.067 28.127 27.437C27.927 27.107 27.047 27.387 27.197 27.667Z" fill="#7976C7"/>
<path d="M38.591 44.167C38.381 44.167 38.191 44.047 38.081 43.867C37.941 43.607 38.031 43.277 38.291 43.137C38.301 43.127 38.311 43.127 38.321 43.117L60.081 31.987C60.351 31.847 60.691 31.957 60.831 32.227C60.971 32.497 60.861 32.837 60.591 32.977L38.831 44.107C38.761 44.147 38.671 44.167 38.591 44.167Z" fill="#BBDFF5"/>
<path d="M35.232 60.552C39.872 58.182 44.502 55.802 49.122 53.442C56.442 49.692 63.762 45.942 71.082 42.202L76.152 39.612C76.692 39.332 76.212 38.842 75.762 39.072C71.122 41.442 66.492 43.822 61.872 46.182C54.552 49.942 47.232 53.682 39.912 57.422L34.832 60.002C34.272 60.302 34.782 60.792 35.232 60.552Z" fill="#7976C7"/>
<path d="M32.9 55.706C37.54 53.336 42.17 50.956 46.79 48.596C54.11 44.846 61.43 41.096 68.75 37.356L73.82 34.766C74.36 34.486 73.56 34.356 73.26 34.506C68.62 36.876 63.99 39.256 59.37 41.616C52.05 45.366 44.73 49.116 37.41 52.856L32.34 55.446C31.79 55.726 32.6 55.856 32.9 55.706Z" fill="#7976C7"/>
<path d="M37.633 65.259C43.663 62.179 49.673 59.099 55.693 56.019C56.553 55.589 57.403 55.139 58.263 54.709C58.803 54.429 58.323 53.959 57.873 54.199C51.843 57.279 45.833 60.359 39.813 63.439C38.953 63.869 38.103 64.319 37.243 64.749C36.693 65.019 37.183 65.489 37.633 65.259Z" fill="#7976C7"/>
<path d="M50.491 67.404C50.281 67.404 50.091 67.284 49.981 67.104C49.841 66.844 49.931 66.514 50.191 66.374C50.201 66.364 50.211 66.364 50.221 66.354L71.981 55.224C72.251 55.084 72.591 55.194 72.731 55.464C72.871 55.734 72.761 56.074 72.491 56.214L50.731 67.344C50.661 67.384 50.571 67.404 50.491 67.404Z" fill="#BBDFF5"/>
<path d="M47.11 83.757C51.75 81.397 56.38 79.007 61 76.647C68.32 72.897 75.64 69.147 82.96 65.407L88.03 62.817C88.59 62.537 88.09 62.137 87.65 62.367C83.01 64.727 78.38 67.117 73.76 69.477C66.44 73.227 59.12 76.977 51.8 80.717L46.73 83.307C46.19 83.587 46.68 83.977 47.11 83.757Z" fill="#7976C7"/>
<path d="M44.709 79.072C49.349 76.712 53.979 74.322 58.599 71.962C65.919 68.212 73.239 64.462 80.559 60.722L85.629 58.132C86.169 57.852 85.689 57.402 85.239 57.622C80.599 59.982 75.969 62.372 71.349 64.732C64.029 68.482 56.709 72.232 49.389 75.972L44.319 78.562C43.769 78.852 44.259 79.302 44.709 79.072Z" fill="#7976C7"/>
<path d="M49.527 88.518C52.957 86.758 56.417 84.988 59.847 83.228L76.347 74.778C77.627 74.118 78.897 73.468 80.177 72.828C80.717 72.548 80.237 72.038 79.767 72.288C76.337 74.048 72.877 75.818 69.447 77.578L52.947 86.028C51.667 86.688 50.397 87.338 49.117 87.978C48.597 88.258 49.077 88.758 49.527 88.518Z" fill="#7976C7"/>
<path d="M65.958 20.12L45.688 75.34C45.198 76.68 45.888 78.16 47.228 78.66L96.988 96.96C98.338 97.45 99.828 96.77 100.328 95.42L103.478 86.81L105.188 82.04L124.448 29.6C124.938 28.26 124.248 26.78 122.908 26.28L83.748 11.88L65.958 20.12Z" fill="#E5E5E5"/>
<path d="M64.078 19.561L43.808 74.781C43.318 76.121 44.008 77.601 45.348 78.101L95.108 96.401C96.458 96.891 97.948 96.211 98.448 94.861L101.598 86.251L103.308 81.481L122.568 29.041C123.058 27.701 122.368 26.221 121.028 25.721L81.868 11.321L64.078 19.561Z" fill="white"/>
<path d="M63.628 19.611C61.058 26.631 58.478 33.661 55.898 40.691C52.178 50.831 48.458 60.961 44.728 71.101C44.338 72.191 43.918 73.281 43.528 74.371C42.948 75.971 43.288 77.661 44.988 78.371C47.358 79.351 49.828 80.151 52.228 81.041C62.968 84.981 73.708 88.931 84.458 92.881C87.728 94.081 90.968 95.281 94.238 96.461C95.888 97.061 97.878 96.911 98.758 95.131C99.088 94.391 99.368 93.631 99.608 92.861C100.098 91.511 100.598 90.181 101.088 88.821C103.298 82.791 105.478 76.751 107.678 70.731C111.638 59.921 115.608 49.111 119.578 38.311C120.688 35.331 121.788 32.331 122.878 29.341C123.538 27.901 122.898 26.211 121.458 25.551C121.398 25.521 121.338 25.501 121.278 25.471C120.288 25.061 119.248 24.721 118.238 24.341C108.028 20.591 97.818 16.841 87.628 13.101C86.108 12.541 84.588 11.971 83.048 11.411C82.488 11.091 81.798 11.061 81.208 11.331C76.518 13.491 71.838 15.671 67.148 17.821C66.298 18.211 65.438 18.611 64.598 19.001C64.358 19.141 63.738 19.291 63.628 19.611C63.508 19.931 64.408 19.811 64.518 19.501V19.481C64.428 19.561 64.338 19.641 64.258 19.721C69.438 17.341 74.608 14.951 79.778 12.551C80.528 12.191 81.278 11.861 82.028 11.501C81.838 11.501 81.668 11.521 81.488 11.521C88.718 14.171 95.938 16.821 103.168 19.481C107.668 21.171 112.178 22.821 116.678 24.471C117.838 24.901 119.028 25.331 120.188 25.771C121.648 26.311 122.628 27.521 122.088 29.171C121.378 31.331 120.508 33.431 119.738 35.571C118.108 40.041 116.448 44.511 114.818 48.971L104.518 77.011C102.488 82.551 100.468 88.091 98.458 93.641C98.158 94.471 97.918 95.521 97.128 96.001C96.528 96.341 95.798 96.361 95.178 96.061C94.278 95.741 93.398 95.401 92.498 95.081C88.618 93.651 84.748 92.231 80.858 90.801C71.168 87.251 61.498 83.701 51.818 80.141C49.788 79.391 47.708 78.711 45.698 77.891C42.808 76.691 44.738 73.331 45.468 71.341C48.718 62.481 51.968 53.611 55.228 44.741C58.158 36.761 61.088 28.781 64.028 20.791C64.178 20.361 64.348 19.931 64.498 19.491C64.668 19.181 63.738 19.291 63.628 19.611Z" fill="#7976C7"/>
<path d="M81.442 11.39C80.262 14.58 79.092 17.79 77.912 20.98C77.752 21.56 77.492 22.11 77.142 22.59C76.402 23.35 75.242 23.51 74.322 22.98C72.562 22.34 70.792 21.68 69.032 21.05C67.452 20.47 65.902 19.9 64.322 19.32C64.282 19.49 64.262 19.64 64.232 19.81C69.412 17.41 74.602 15.01 79.792 12.6C80.542 12.24 81.292 11.91 82.062 11.55C82.622 11.29 82.122 10.91 81.682 11.12C76.522 13.5 71.322 15.91 66.142 18.31C65.392 18.67 64.642 19 63.872 19.36C63.642 19.47 63.482 19.74 63.782 19.85C67.162 21.09 70.522 22.33 73.902 23.57C75.632 24.35 77.672 23.57 78.452 21.84C78.472 21.78 78.502 21.73 78.522 21.67C79.182 19.96 79.782 18.24 80.422 16.53L82.332 11.29C82.472 10.94 81.552 11.06 81.442 11.39Z" fill="#7976C7"/>
<path d="M100.451 39.245C100.391 39.245 100.321 39.225 100.261 39.205L77.331 30.785C77.031 30.675 76.881 30.345 76.991 30.055C77.101 29.755 77.431 29.605 77.721 29.715L100.661 38.145C100.951 38.245 101.111 38.575 101.001 38.865V38.875C100.911 39.095 100.701 39.245 100.451 39.245Z" fill="#BBDFF5"/>
<path d="M62.573 39.264C67.453 41.064 72.353 42.854 77.233 44.654C84.943 47.484 92.673 50.324 100.393 53.154L105.743 55.124C106.103 55.254 106.813 54.734 106.273 54.544C101.393 52.744 96.493 50.954 91.613 49.154C83.903 46.324 76.173 43.484 68.453 40.654L63.103 38.684C62.743 38.554 62.043 39.074 62.573 39.264Z" fill="#7976C7"/>
<path d="M64.416 34.312C69.296 36.112 74.196 37.902 79.076 39.702C86.786 42.532 94.516 45.372 102.236 48.202L107.586 50.172C107.976 50.322 108.656 49.742 108.116 49.552C103.236 47.752 98.336 45.962 93.456 44.162C85.746 41.332 78.016 38.492 70.296 35.662L64.946 33.692C64.526 33.562 63.876 34.122 64.416 34.312Z" fill="#7976C7"/>
<path d="M60.661 44.161C65.461 45.921 70.291 47.691 75.091 49.451C82.771 52.271 90.441 55.081 98.101 57.901C99.861 58.541 101.631 59.201 103.391 59.831C103.671 59.941 104.501 59.531 104.101 59.381C99.301 57.621 94.471 55.851 89.671 54.091C81.991 51.271 74.321 48.461 66.661 45.641C64.901 45.001 63.131 44.341 61.371 43.711C61.091 43.621 60.291 44.031 60.661 44.161Z" fill="#7976C7"/>
<path d="M67.081 54.605C73.071 56.805 79.051 58.995 85.021 61.195C85.871 61.515 86.711 61.815 87.551 62.135C87.811 62.225 88.641 61.835 88.281 61.705C82.291 59.505 76.311 57.315 70.341 55.115C69.491 54.795 68.651 54.495 67.811 54.175C67.531 54.075 66.701 54.465 67.081 54.605Z" fill="#BBDFF5"/>
<path d="M53.588 63.794C57.938 65.394 62.278 66.984 66.628 68.584C73.538 71.114 80.438 73.654 87.328 76.184C88.928 76.764 90.518 77.344 92.118 77.944C92.508 78.094 93.188 77.534 92.648 77.324C88.298 75.724 83.958 74.134 79.608 72.534C72.698 70.004 65.798 67.464 58.908 64.934C57.308 64.354 55.718 63.774 54.118 63.174C53.718 63.034 53.038 63.594 53.588 63.794Z" fill="#7976C7"/>
<path d="M55.41 58.809C59.76 60.409 64.1 61.999 68.45 63.599C75.36 66.129 82.26 68.669 89.15 71.199C90.75 71.779 92.34 72.359 93.94 72.959C94.32 73.089 95.01 72.569 94.47 72.359C90.12 70.759 85.78 69.169 81.43 67.569C74.52 65.039 67.62 62.499 60.73 59.969C59.13 59.389 57.54 58.809 55.94 58.209C55.56 58.089 54.88 58.619 55.41 58.809Z" fill="#7976C7"/>
<path d="M51.652 68.674L68.662 74.924C69.472 75.224 70.262 75.504 71.062 75.804C71.342 75.894 72.152 75.504 71.772 75.354L54.772 69.104C53.962 68.804 53.172 68.524 52.372 68.224C52.102 68.134 51.282 68.524 51.652 68.674Z" fill="#7976C7"/>
<path d="M37.721 39.903V98.753C37.731 100.193 38.891 101.343 40.331 101.343H93.341C94.781 101.343 95.941 100.193 95.951 98.753V89.573L95.911 84.523V28.643C95.901 27.203 94.741 26.053 93.301 26.053H51.581L37.721 39.903Z" fill="#E5E5E5"/>
<path d="M39.598 39.533V98.383C39.608 99.823 40.768 100.973 42.208 100.973H95.218C96.658 100.973 97.818 99.823 97.828 98.383V89.203L97.788 84.153V28.263C97.778 26.823 96.618 25.673 95.178 25.673H53.458L39.598 39.533Z" fill="white"/>
<path d="M39.148 39.663V97.983C38.978 99.573 40.128 101.003 41.718 101.173C41.818 101.183 41.918 101.193 42.018 101.193C44.528 101.283 47.088 101.193 49.598 101.193H94.438C96.148 101.193 98.028 100.533 98.228 98.563C98.298 97.773 98.248 96.953 98.248 96.163V91.863C98.248 85.443 98.208 79.023 98.208 72.603V38.063C98.208 34.873 98.228 31.683 98.208 28.513C98.308 26.923 97.088 25.553 95.498 25.453C95.418 25.453 95.338 25.443 95.258 25.453C94.208 25.433 93.158 25.453 92.108 25.453H54.588C53.838 25.453 53.328 25.393 52.768 25.963C49.168 29.563 45.558 33.173 41.938 36.773L39.858 38.853C39.698 39.023 39.178 39.393 39.148 39.663C39.148 39.873 40.048 39.733 40.048 39.423C40.048 39.613 40.268 39.273 40.388 39.143L41.388 38.143L44.678 34.853C47.158 32.373 49.638 29.893 52.128 27.423L53.888 25.663C53.678 25.733 53.498 25.813 53.288 25.883H94.488C95.918 25.743 97.188 26.793 97.328 28.213C97.338 28.293 97.338 28.373 97.338 28.453C97.408 30.763 97.338 33.073 97.338 35.383V79.403C97.338 85.353 97.378 91.283 97.378 97.233C97.518 98.153 97.348 99.103 96.888 99.913C96.468 100.443 95.818 100.733 95.138 100.703C94.178 100.723 93.208 100.703 92.248 100.703H49.068C46.868 100.703 44.618 100.833 42.428 100.703C39.428 100.533 40.068 96.653 40.068 94.603V39.353C40.068 39.183 39.148 39.343 39.148 39.663Z" fill="#7976C7"/>
<path d="M53.041 25.812V35.212C53.041 36.812 53.231 39.172 51.051 39.382C49.831 39.492 48.541 39.382 47.311 39.382H41.431C40.941 39.342 40.451 39.342 39.971 39.382C39.821 39.402 39.951 39.532 40.041 39.472C40.131 39.402 40.211 39.322 40.281 39.232L47.261 32.252L53.871 25.642C54.041 25.472 53.211 25.572 53.041 25.712L40.931 37.832L39.171 39.592C39.081 39.682 39.191 39.722 39.281 39.722C42.881 39.722 46.511 39.742 50.131 39.722C52.051 39.702 53.871 38.742 53.921 36.622C53.981 34.862 53.921 33.072 53.921 31.292V25.542C53.941 25.432 53.041 25.542 53.041 25.812Z" fill="#7976C7"/>
<path d="M80.355 45.52H55.935C55.625 45.52 55.375 45.27 55.375 44.96C55.375 44.65 55.625 44.39 55.935 44.39H80.375C80.685 44.38 80.935 44.63 80.935 44.93C80.935 44.94 80.935 44.94 80.935 44.95C80.925 45.27 80.665 45.52 80.355 45.52Z" fill="#BBDFF5"/>
<path d="M44.953 58.388H90.933C91.193 58.388 91.913 57.998 91.313 57.998H45.323C45.063 57.998 44.353 58.388 44.953 58.388Z" fill="#7976C7"/>
<path d="M44.95 53.116H90.94C91.22 53.116 91.92 52.686 91.32 52.686H45.33C45.04 52.686 44.35 53.116 44.95 53.116Z" fill="#7976C7"/>
<path d="M45.124 63.832H68.284C68.814 63.832 68.964 63.122 68.354 63.122H45.194C44.654 63.142 44.504 63.832 45.124 63.832Z" fill="#7976C7"/>
<path d="M80.354 71.629H55.934C55.624 71.629 55.374 71.379 55.374 71.069C55.374 70.759 55.624 70.509 55.934 70.509H80.374C80.684 70.499 80.934 70.749 80.934 71.049C80.934 71.059 80.934 71.059 80.934 71.069C80.924 71.379 80.664 71.629 80.354 71.629Z" fill="#BBDFF5"/>
<path d="M44.953 84.497H90.933C91.193 84.497 91.913 84.107 91.313 84.107H45.323C45.063 84.107 44.353 84.497 44.953 84.497Z" fill="#7976C7"/>
<path d="M44.985 79.301H90.975C91.365 79.301 91.915 78.701 91.315 78.701H45.325C44.915 78.701 44.365 79.301 44.985 79.301Z" fill="#7976C7"/>
<path d="M45.104 89.909H68.264C68.774 89.909 68.974 89.269 68.354 89.269H45.194C44.684 89.269 44.484 89.909 45.104 89.909Z" fill="#7976C7"/>
<path d="M96.726 82.347H30.446V127.637H96.726V82.347Z" fill="#F2F2F2"/>
<path d="M96.716 83.277C94.596 86.447 92.136 90.707 90.616 93.427C89.696 95.077 87.956 96.097 86.076 96.097L30.446 96.227V127.627H96.726L96.716 83.277Z" fill="white"/>
<path d="M112.956 76.018L96.716 82.348V127.638L112.956 121.558V76.018Z" fill="#E5E5E5"/>
<path d="M112.956 91.038L107.566 93.218C105.716 93.968 103.586 93.368 102.386 91.768L96.716 84.228V127.648L112.956 121.568V91.038V91.038Z" fill="#F2F2F2"/>
<path d="M96.266 84.409V126.079C96.266 126.269 97.166 126.139 97.166 125.839V84.169C97.166 83.959 96.266 84.109 96.266 84.409Z" fill="#7976C7"/>
<path d="M30.251 82.568H93.351C94.401 82.628 95.451 82.628 96.501 82.568C97.101 82.438 97.691 82.238 98.251 81.968C99.811 81.368 101.371 80.748 102.921 80.148C106.111 78.908 109.321 77.648 112.511 76.418C112.701 76.338 112.901 76.268 113.091 76.188C113.691 75.958 113.131 75.738 112.751 75.888C110.311 76.848 107.851 77.788 105.411 78.738C103.611 79.428 101.821 80.148 100.021 80.838C98.931 81.268 97.751 81.608 96.701 82.138C96.321 82.328 96.811 82.138 96.811 82.138C96.751 82.098 96.531 82.138 96.451 82.138H43.051C38.961 82.138 34.851 81.968 30.761 82.138H30.591C30.331 82.118 29.631 82.568 30.251 82.568Z" fill="#7976C7"/>
<path d="M112.491 90.134V121.594C112.581 121.504 112.661 121.384 112.751 121.294C110.311 122.214 107.871 123.134 105.431 124.034C103.591 124.724 101.771 125.404 99.931 126.104C98.861 126.494 97.731 126.834 96.701 127.304C96.341 127.474 96.851 127.324 96.701 127.304C96.581 127.294 96.451 127.294 96.321 127.304H32.051C31.581 127.254 31.101 127.254 30.621 127.304C30.561 127.314 30.511 127.314 30.451 127.304C30.581 127.394 30.731 127.514 30.861 127.604V94.484C30.861 94.014 29.941 94.144 29.941 94.564V127.674C29.941 127.914 30.161 127.974 30.351 127.974H93.341C94.431 128.054 95.521 128.054 96.611 127.974C97.161 127.844 97.701 127.654 98.211 127.414C99.751 126.834 101.291 126.274 102.831 125.684C106.061 124.484 109.291 123.264 112.511 122.064C112.721 121.984 112.901 121.914 113.111 121.834C113.251 121.794 113.351 121.674 113.371 121.534V90.074C113.411 89.584 112.491 89.724 112.491 90.134Z" fill="#7976C7"/>
<path d="M96.716 82.341H30.446L21.696 92.441C21.536 92.631 21.556 92.921 21.756 93.081C21.836 93.151 21.936 93.181 22.036 93.191H87.126C87.256 93.191 87.376 93.141 87.466 93.041L96.716 82.341Z" fill="#F2F2F2"/>
<path d="M96.716 82.341H31.076C30.066 84.291 29.106 86.261 28.036 88.201C27.376 89.381 27.246 91.321 29.166 91.321H85.456C86.526 91.321 87.566 90.911 88.346 90.181L96.716 82.341Z" fill="white"/>
<path d="M96.886 82.041H31.026C30.696 81.981 30.346 82.061 30.066 82.251C29.296 83.011 28.586 83.831 27.946 84.711C25.806 87.171 23.666 89.631 21.546 92.121C21.056 92.681 21.056 93.421 21.956 93.491C22.336 93.511 22.706 93.511 23.086 93.491H86.056C86.356 93.491 86.656 93.511 86.956 93.491C87.766 93.431 88.116 92.831 88.606 92.271L95.416 84.391C95.976 83.751 96.546 83.091 97.106 82.461C97.466 82.051 96.596 81.971 96.356 82.251C94.196 84.751 92.036 87.221 89.896 89.721C88.916 90.701 88.006 91.761 87.176 92.871C87.066 93.041 87.456 92.891 87.176 92.911C86.986 92.931 86.796 92.911 86.616 92.911H24.306C23.696 92.961 23.096 92.961 22.486 92.911C21.756 92.781 22.316 92.271 22.656 91.881C25.156 88.991 27.646 86.111 30.146 83.231C30.376 82.971 30.576 82.721 30.806 82.461C30.616 82.521 30.446 82.591 30.266 82.651H88.356C91.036 82.651 93.766 82.801 96.446 82.651H96.556C96.946 82.641 97.486 82.041 96.886 82.041Z" fill="#7976C7"/>
<path d="M112.959 76.017L96.719 82.347L105.789 91.117C105.989 91.307 106.279 91.357 106.539 91.267L121.309 85.727C121.669 85.597 121.859 85.197 121.729 84.827C121.689 84.727 121.629 84.637 121.559 84.557L112.959 76.017Z" fill="#F2F2F2"/>
<path d="M112.429 76.227L96.929 82.417L105.079 90.657C105.249 90.847 105.519 90.907 105.759 90.807C107.809 89.997 109.829 89.207 111.879 88.407C113.119 87.917 114.339 87.427 115.579 86.957C116.779 86.487 118.469 85.907 118.339 84.277C118.189 83.557 117.819 82.907 117.269 82.417C116.689 81.817 112.689 76.507 112.429 76.227Z" fill="white"/>
<path d="M112.749 75.737L98.559 81.257L96.529 82.047C96.349 82.097 96.249 82.287 96.299 82.467C96.319 82.517 96.339 82.567 96.379 82.607L103.119 89.117C103.859 89.967 104.679 90.737 105.559 91.447C106.349 91.957 107.569 91.217 108.359 90.937C111.909 89.607 115.439 88.267 118.979 86.957C119.839 86.687 120.679 86.367 121.509 86.007C123.069 85.217 121.639 84.037 120.929 83.327C118.409 80.827 115.879 78.337 113.369 75.837C113.069 75.537 112.209 75.917 112.539 76.247L118.829 82.477C119.659 83.177 120.439 83.937 121.139 84.767C121.699 85.597 119.709 85.967 119.209 86.157L109.019 89.977C108.419 90.207 107.839 90.427 107.239 90.657C107.049 90.737 106.579 91.017 106.379 90.977C106.169 90.957 105.889 90.587 105.759 90.447L104.349 89.097C101.929 86.767 99.509 84.427 97.109 82.097C97.049 82.287 97.019 82.477 96.959 82.657L111.149 77.137L113.179 76.347C113.729 76.077 113.219 75.547 112.749 75.737Z" fill="#7976C7"/>
<path d="M91.573 94.259V101.959C91.573 102.449 92.493 102.339 92.493 101.899V94.199C92.493 93.699 91.573 93.829 91.573 94.259Z" fill="#7976C7"/>
<path d="M91.573 103.61V104.83C91.573 105.21 92.473 105.02 92.473 104.72V103.5C92.473 103.1 91.573 103.31 91.573 103.61Z" fill="#7976C7"/>
<path d="M91.573 106.222V109.372C91.573 109.842 92.493 109.692 92.493 109.292V106.142C92.473 105.672 91.573 105.822 91.573 106.222Z" fill="#7976C7"/>
<path d="M70.555 112.524H83.015C83.405 112.524 83.955 111.944 83.355 111.944H70.895C70.495 111.944 69.935 112.524 70.555 112.524Z" fill="#7976C7"/>
<path d="M70.426 109.631H82.886C83.096 109.631 83.916 109.241 83.466 109.241H71.006C70.816 109.261 69.986 109.631 70.426 109.631Z" fill="#7976C7"/>
<path d="M70.541 106.913H83.001C83.301 106.913 83.981 106.463 83.381 106.463H70.911C70.611 106.463 69.931 106.913 70.541 106.913Z" fill="#7976C7"/>
<path d="M70.685 114.689H73.445C73.975 114.689 74.135 114.009 73.525 114.009H70.765C70.235 114.009 70.065 114.689 70.685 114.689Z" fill="#7976C7"/>
<path d="M75.373 114.572H78.133C78.433 114.572 79.113 114.122 78.513 114.122H75.753C75.453 114.122 74.773 114.572 75.373 114.572Z" fill="#7976C7"/>
<path d="M80.374 114.668H83.134C83.644 114.668 83.844 114.028 83.224 114.028H80.464C79.954 114.048 79.744 114.668 80.374 114.668Z" fill="#7976C7"/>
</svg>
