<svg xmlns="http://www.w3.org/2000/svg" xmlns:xlink="http://www.w3.org/1999/xlink" viewBox="0 0 150 150"><defs><style>.a{clip-path:url(#b);}.b{fill:#fff;}</style><clipPath id="b"><rect width="150" height="150"/></clipPath></defs><g id="a" class="a"><g transform="translate(-6.667 1)"><g transform="translate(10.667)"><g transform="translate(0)"><path class="b" d="M152.2,22.522a3.217,3.217,0,0,0-.914-2.275l-19.3-19.3A3.179,3.179,0,0,0,129.71.026V0H49.276a3.218,3.218,0,0,0-3.217,3.217V57.939l-3.713.032a3.217,3.217,0,0,0-2.252.965l-28.5,28.9a3.217,3.217,0,0,0-.927,2.252v38.576a3.217,3.217,0,0,0,.965,2.3l12.6,12.342a3.218,3.218,0,0,0,2.252.917h.032a3.217,3.217,0,0,0,2.252-.965l2.474-2.526a15.978,15.978,0,0,0,8.732,2.574h.17a16.013,16.013,0,0,0,5.913-1.2v2.68A3.218,3.218,0,0,0,49.276,148h99.739a3.218,3.218,0,0,0,3.218-3.217V22.522ZM132.928,10.984l8.32,8.32h-8.32ZM43.04,99.739a3.218,3.218,0,0,0-2.278.943l-6.83,6.83a9.668,9.668,0,0,1-9.581,2.429l-1.828,6.171a16.087,16.087,0,0,0,15.961-4.051l5.888-5.888h1.686v28.5a9.545,9.545,0,0,1-5.962,2.2,9.414,9.414,0,0,1-6.853-2.757,2.924,2.924,0,0,0-2.284-.923,3.217,3.217,0,0,0-2.252.965l-2.252,2.3L17.1,127.312V91.406L43.729,64.38l2.329-.006V77.217a3.216,3.216,0,0,0,.766,2.082l6.506,6.628a3.216,3.216,0,0,0,2.275.943H75.015v3.172a9.858,9.858,0,0,1-4.157,7.982,9.713,9.713,0,0,1-5.5,1.715H43.04ZM145.8,141.565h-93.3V106.174h12.87A16.064,16.064,0,0,0,81.449,90.132V86.87a6.454,6.454,0,0,0-6.435-6.435H56.933L52.493,76V6.435h74V19.3a6.435,6.435,0,0,0,6.435,6.435H145.8V141.565Z" transform="translate(-10.667)"/></g></g><g transform="translate(58.928 19.304)"><g transform="translate(0)"><rect class="b" width="6.435" height="6.435"/></g></g><g transform="translate(71.797 19.304)"><rect class="b" width="6.435" height="6.435"/></g><g transform="translate(58.928 38.609)"><g transform="translate(0)"><rect class="b" width="74" height="6.435"/></g></g><g transform="translate(58.928 57.913)"><g transform="translate(0)"><rect class="b" width="74" height="6.435"/></g></g><g transform="translate(84.667 19.304)"><g transform="translate(0)"><rect class="b" width="32.174" height="6.435"/></g></g><g transform="translate(94.319 77.217)"><rect class="b" width="25.739" height="6.435"/></g><g transform="translate(126.493 77.217)"><rect class="b" width="6.435" height="6.435"/></g><g transform="translate(94.319 96.522)"><rect class="b" width="25.739" height="6.435"/></g><g transform="translate(126.493 96.522)"><rect class="b" width="6.435" height="6.435"/></g><g transform="translate(58.928 112.609)"><g transform="translate(0)"><rect class="b" width="74" height="6.435"/></g></g></g></g></svg>