<svg xmlns="http://www.w3.org/2000/svg" viewBox="0 0 99.6 51.428">
  <defs>
    <style>
      .cls-1 {
        fill: #fff;
      }

      .cls-2 {
        fill: #e8e8e8;
      }

      .cls-3 {
        fill: #eceff1;
      }

      .cls-4 {
        fill: #1976d2;
      }

      .cls-5 {
        fill: #1565c0;
      }

      .cls-6 {
        fill: #fafafa;
      }

      .cls-7 {
        fill: #2e7d32;
      }

      .cls-8 {
        fill: #388e3c;
      }

      .cls-9 {
        fill: #e24c3f;
      }
    </style>
  </defs>
  <g id="page" transform="translate(-0.057)">
    <path id="Path_751" data-name="Path 751" class="cls-1" d="M152.58,91.2l-1.28-3.26,18.75-7.36L180.26,85l9.3,24.569s3.67,6.65-2.1,7.22-21.46,8.64-21.46,8.64-2.27-1-5.15-8.32S152.58,91.2,152.58,91.2Z" transform="translate(-150.57 -74)"/>
    <path id="Path_752" data-name="Path 752" class="cls-2" d="M180.62,85.19h-.06l-10-4.34h-.05a.05.05,0,0,1-.06,0,.66.66,0,0,0-.4.08l-17.73,7a2.71,2.71,0,0,0-1.49,1.41h0a2.82,2.82,0,0,0,0,2.1l12.58,32a2.71,2.71,0,0,0,1.46,1.51,2.8,2.8,0,0,0,2.11,0l22.91-9a2.76,2.76,0,0,0,1.52-1.46,2.9,2.9,0,0,0,0-2.11L180.84,85.54A1.31,1.31,0,0,0,180.62,85.19Zm-8.81-2,5.92,2.59L174.61,87a1.12,1.12,0,0,1-.93,0,1.31,1.31,0,0,1-.65-.66l-1.22-3.13ZM189.75,113a1.047,1.047,0,0,1-.55,1.36l-22.89,9a1.16,1.16,0,0,1-.78,0,1,1,0,0,1-.53-.58l-12.61-32.1a1,1,0,0,1,0-.79v-.06a1.16,1.16,0,0,1,.54-.51l16.86-6.63,1.67,4.26a2.92,2.92,0,0,0,1.59,1.63,3,3,0,0,0,2.27,0l4.18-1.64,10.23,26Z" transform="translate(-150.57 -74)"/>
    <path id="Path_753" data-name="Path 753" class="cls-3" d="M178,104l-5,2a.38.38,0,0,1-.5-.21l-2.81-7.17a.39.39,0,0,1,.22-.5l5-2a.39.39,0,0,1,.5.22l2.82,7.17a.38.38,0,0,1-.23.49Z" transform="translate(-150.571 -74.001)"/>
    <path id="Path_754" data-name="Path 754" class="cls-4" d="M174.28,98.87l-3.58,1.4a.382.382,0,0,1-.28-.71L174,98.15a.39.39,0,0,1,.28.72Z" transform="translate(-150.571 -74.001)"/>
    <path id="Path_755" data-name="Path 755" class="cls-4" d="M174.85,100.3l-3.59,1.41a.38.38,0,0,1-.49-.22.39.39,0,0,1,.21-.5l3.59-1.41a.38.38,0,0,1,.49.22A.39.39,0,0,1,174.85,100.3Z" transform="translate(-150.571 -74.001)"/>
    <path id="Path_756" data-name="Path 756" class="cls-4" d="M175.41,101.73l-3.58,1.41a.39.39,0,1,1-.28-.72l3.58-1.4a.382.382,0,1,1,.28.71Z" transform="translate(-150.571 -74.001)"/>
    <path id="Path_757" data-name="Path 757" class="cls-4" d="M176,103.16l-3.58,1.41a.38.38,0,0,1-.5-.22.37.37,0,0,1,.22-.49l3.58-1.41a.38.38,0,0,1,.5.22.37.37,0,0,1-.22.49Z" transform="translate(-150.571 -74.001)"/>
    <path id="Path_758" data-name="Path 758" class="cls-5" d="M169.56,96.69a.38.38,0,0,0-.33,0l-5.31,3.33a.39.39,0,0,0-.15.47l3.09,7.88a.38.38,0,0,0,.43.23l6.16-1.17h.07a.45.45,0,0,0,.19-.17.35.35,0,0,0,0-.33l-3.94-10a.36.36,0,0,0-.21-.24Z" transform="translate(-150.57 -74.001)"/>
    <path id="Path_759" data-name="Path 759" class="cls-6" d="M170.69,104.46a.38.38,0,0,1-.19.44h0a.39.39,0,0,1-.43-.1l-1.51-1.68v2.26a.36.36,0,0,1-.28.37.38.38,0,0,1-.44-.18l-1.34-2.36a.39.39,0,0,1,.15-.53.38.38,0,0,1,.52.15l.6,1.05V102.1a.4.4,0,0,1,.67-.26l1.13,1.25-.49-1.82a.383.383,0,0,1,.74-.2Z" transform="translate(-150.571 -74.001)"/>
    <path id="Path_760" data-name="Path 760" class="cls-1" d="M227.39,84l1.18-3L246,87.79l4.15,9.449L241,119.8s-1.67,6.83-6,3.59-20-7.62-20-7.62-.92-2.1,1.73-8.9S227.39,84,227.39,84Z" transform="translate(-150.575 -74)"/>
    <path id="Path_761" data-name="Path 761" class="cls-2" d="M250.23,97.078h0l-4-8.922h0v-.048a.593.593,0,0,0-.32-.194L229.47,81.7a2.523,2.523,0,0,0-1.9,0h0a2.577,2.577,0,0,0-1.36,1.356l-11.58,28.772a2.352,2.352,0,0,0,.05,1.879,2.554,2.554,0,0,0,1.4,1.318l21.25,8.021a2.517,2.517,0,0,0,3.3-1.356l9.54-24.21a.988.988,0,0,0,.06-.407Zm-4.75-6.665,2.41,5.309L245,94.627a.986.986,0,0,1-.61-.581,1.091,1.091,0,0,1,0-.833l1.13-2.8ZM239,120.939a.985.985,0,0,1-1.26.5l-21.22-8.012a1.09,1.09,0,0,1-.52-.446.81.81,0,0,1,0-.7l11.61-28.84a.985.985,0,0,1,.52-.5h.05a1.123,1.123,0,0,1,.69,0l15.63,5.909-1.57,3.788a2.64,2.64,0,0,0,1.59,3.439l3.88,1.473Z" transform="translate(-150.575 -72.658)"/>
    <path id="Path_762" data-name="Path 762" class="cls-3" d="M237,108.84,232.19,107a.38.38,0,0,1-.21-.48l2.7-6.92a.37.37,0,0,1,.48-.22l4.85,1.89a.38.38,0,0,1,.21.49l-2.7,6.92a.37.37,0,0,1-.52.16Z" transform="translate(-150.575 -74.001)"/>
    <path id="Path_763" data-name="Path 763" class="cls-7" d="M235.89,98.12a.35.35,0,0,0-.25-.19l-5.94-1.12a.38.38,0,0,0-.42.23l-3,7.61a.38.38,0,0,0,.15.45l5.13,3.2h.06a.39.39,0,0,0,.26,0,.41.41,0,0,0,.23-.22l3.77-9.69a.31.31,0,0,0,.01-.27Z" transform="translate(-150.575 -74.001)"/>
    <path id="Path_764" data-name="Path 764" class="cls-8" d="M235.74,102l-1.39-.54a.37.37,0,1,1,.27-.69l1.39.54a.37.37,0,1,1-.27.69Z" transform="translate(-150.575 -74.001)"/>
    <path id="Path_765" data-name="Path 765" class="cls-8" d="M235.2,103.33l-1.39-.53a.39.39,0,0,1-.21-.49.38.38,0,0,1,.48-.21l1.39.54a.38.38,0,0,1,.21.48.37.37,0,0,1-.48.21Z" transform="translate(-150.575 -74.001)"/>
    <path id="Path_766" data-name="Path 766" class="cls-8" d="M234.66,104.72l-1.39-.54a.38.38,0,0,1-.21-.48.37.37,0,0,1,.48-.21l1.39.54a.37.37,0,0,1,.21.48A.38.38,0,0,1,234.66,104.72Z" transform="translate(-150.575 -74.001)"/>
    <path id="Path_767" data-name="Path 767" class="cls-8" d="M234.12,106.1l-1.39-.54a.37.37,0,0,1-.21-.48.38.38,0,0,1,.48-.21l1.39.54a.38.38,0,0,1,.21.48.37.37,0,0,1-.48.21Z" transform="translate(-150.575 -74.002)"/>
    <path id="Path_768" data-name="Path 768" class="cls-8" d="M237.81,102.76l-.69-.27a.37.37,0,1,1,.27-.69l.69.27a.37.37,0,0,1,.22.48A.38.38,0,0,1,237.81,102.76Z" transform="translate(-150.575 -74.001)"/>
    <path id="Path_769" data-name="Path 769" class="cls-8" d="M237.27,104.14l-.69-.27a.37.37,0,0,1-.21-.48.38.38,0,0,1,.48-.21l.69.27a.37.37,0,0,1-.27.69Z" transform="translate(-150.575 -74.001)"/>
    <path id="Path_770" data-name="Path 770" class="cls-8" d="M236.73,105.53l-.69-.27a.38.38,0,0,1-.21-.48.37.37,0,0,1,.48-.21l.69.27a.37.37,0,0,1,.22.48A.38.38,0,0,1,236.73,105.53Z" transform="translate(-150.575 -74.001)"/>
    <path id="Path_771" data-name="Path 771" class="cls-8" d="M236.19,106.91l-.69-.27a.37.37,0,0,1-.21-.48.38.38,0,0,1,.48-.21l.69.27a.37.37,0,1,1-.27.69Z" transform="translate(-150.575 -74.002)"/>
    <path id="Path_772" data-name="Path 772" class="cls-6" d="M232.1,103.86l-.6-1.68,1.66-1a.372.372,0,1,0-.38-.64l-1.54.92-.48-1.32a.36.36,0,0,0-.47-.23.38.38,0,0,0-.23.48l.53,1.46-1.45.86a.37.37,0,0,0-.13.51.42.42,0,0,0,.19.16.36.36,0,0,0,.32,0l1.33-.79.56,1.54a.359.359,0,0,0,.47.22.37.37,0,0,0,.22-.49Z" transform="translate(-150.574 -74.001)"/>
    <path id="Path_773" data-name="Path 773" class="cls-1" d="M187,78V74h23l9,9-.38,30s1.13,8.6-5.25,6.8S187,120,187,120s-2-2-2-11S187,78,187,78Z" transform="translate(-150.572 -74)"/>
    <path id="Path_774" data-name="Path 774" class="cls-2" d="M219.31,83.32h-.05l-8.77-8.77h-.1a.78.78,0,0,0-.46-.09H188.14a3.08,3.08,0,0,0-2.17.87l-.05.05A3.22,3.22,0,0,0,185,77.6v39.288a3.17,3.17,0,0,0,.92,2.22,3.26,3.26,0,0,0,2.22.92h28.12a3.17,3.17,0,0,0,2.22-.92,3.26,3.26,0,0,0,.92-2.22V83.779a1.57,1.57,0,0,0-.09-.46Zm-8.54-5.77L216,82.77h-3.83a1.25,1.25,0,0,1-1-.42,1.44,1.44,0,0,1-.41-1v-3.8Zm6.64,39.108a1.15,1.15,0,0,1-.36.83,1.18,1.18,0,0,1-.84.37H188.14a1.35,1.35,0,0,1-.83-.32,1.11,1.11,0,0,1-.32-.83V77.32a1.15,1.15,0,0,1,.36-.83h.05a1.34,1.34,0,0,1,.79-.32h20.68v5.22a3.35,3.35,0,0,0,1,2.4,3.43,3.43,0,0,0,2.4,1h5.12v32Z" transform="translate(-150.573 -74)"/>
    <path id="Path_775" data-name="Path 775" class="cls-9" d="M208.24,100.13c-.48-.87-2.57-1.42-4.43-1.52L203.3,98a12.53,12.53,0,0,1-2.47-5.86,4.131,4.131,0,0,0-.09-.73c-.03-.19-.07-.45-.38-.45a.34.34,0,0,0-.27.12.47.47,0,0,0-.08.43,4.992,4.992,0,0,0,.11.71,12.12,12.12,0,0,1-.9,6.28c-.11.22-.23.44-.34.64-2,.6-3.7,1.66-3.94,2.54a.89.89,0,0,0,.21.87,1.28,1.28,0,0,0,.93.41c1,0,2.07-1.08,3.28-3.21A10.261,10.261,0,0,1,201,99.5l.73-.09a9.55,9.55,0,0,1,1.81-.1c1.49,1.54,2.7,2.32,3.61,2.32a1.25,1.25,0,0,0,1.14-.67A.82.82,0,0,0,208.24,100.13Zm-12.16,2.15a.54.54,0,0,1-.41-.19.15.15,0,0,1,0-.18c.12-.45,1.17-1.23,2.7-1.79C197.47,101.48,196.64,102.28,196.08,102.28Zm5.49-3.58-.69.09a5.77,5.77,0,0,0-1.07.16l.05-.08a10.28,10.28,0,0,0,1-3.77,10.4,10.4,0,0,0,1.91,3.41l.07.08a9.689,9.689,0,0,0-1.27.11Zm6.05,1.91a.56.56,0,0,1-.53.31h0a4.66,4.66,0,0,1-2.49-1.52c1.62.2,2.8.69,3,1.07a.12.12,0,0,1,.02.14Z" transform="translate(-150.572 -74.001)"/>
  </g>
</svg>
