<?xml version="1.0" encoding="utf-8"?>
<!-- Generator: Adobe Illustrator 23.1.0, SVG Export Plug-In . SVG Version: 6.00 Build 0)  -->
<svg version="1.1" id="Layer_1" xmlns="http://www.w3.org/2000/svg" xmlns:xlink="http://www.w3.org/1999/xlink" x="0px" y="0px"
	 viewBox="0 0 99.6 51.4" style="enable-background:new 0 0 99.6 51.4;" xml:space="preserve">
<style type="text/css">
	.st0{fill:#FFFFFF;}
	.st1{fill:#E8E8E8;}
	.st2{fill:#ECEFF1;}
	.st3{fill:#2E7D32;}
	.st4{fill:#388E3C;}
	.st5{fill:#FAFAFA;}
</style>
<g id="page" transform="translate(-0.057)">
	<path id="Path_751" class="st0" d="M2,17.2l-1.3-3.3l18.8-7.4L29.7,11L39,35.6c0,0,3.7,6.7-2.1,7.2s-21.5,8.6-21.5,8.6
		s-2.3-1-5.1-8.3S2,17.2,2,17.2z"/>
	<path id="Path_752" class="st1" d="M30,11.2L30,11.2L20,6.9h-0.1c0,0,0,0-0.1,0c-0.1,0-0.3,0-0.4,0.1l-17.7,7
		c-0.7,0.3-1.2,0.8-1.5,1.4l0,0C0,16,0,16.8,0.3,17.4l12.6,32c0.3,0.7,0.8,1.2,1.5,1.5c0.7,0.3,1.4,0.3,2.1,0l22.9-9
		c0.7-0.3,1.2-0.8,1.5-1.5c0.3-0.7,0.3-1.4,0-2.1L30.3,11.5C30.2,11.4,30.1,11.3,30,11.2z M21.2,9.2l5.9,2.6L24,13
		c-0.3,0.1-0.6,0.1-0.9,0c-0.3-0.1-0.5-0.4-0.6-0.7L21.2,9.2L21.2,9.2z M39.2,39c0.2,0.5,0,1.1-0.6,1.4l-22.9,9
		c-0.3,0.1-0.5,0.1-0.8,0c-0.2-0.1-0.4-0.3-0.5-0.6L1.8,16.7c-0.1-0.3-0.1-0.5,0-0.8v-0.1c0.1-0.2,0.3-0.4,0.5-0.5l16.9-6.6l1.7,4.3
		c0.3,0.7,0.9,1.3,1.6,1.6c0.7,0.3,1.5,0.3,2.3,0l4.2-1.6L39.2,39L39.2,39z"/>
	<path id="Path_760" class="st0" d="M76.8,10L78,7l17.4,6.8l4.1,9.4l-9.1,22.6c0,0-1.7,6.8-6,3.6s-20-7.6-20-7.6s-0.9-2.1,1.7-8.9
		S76.8,10,76.8,10z"/>
	<path id="Path_761" class="st1" d="M99.7,24.4L99.7,24.4l-4-8.9l0,0v0c-0.1-0.1-0.2-0.2-0.3-0.2L78.9,9c-0.6-0.2-1.3-0.2-1.9,0l0,0
		c-0.6,0.3-1.1,0.7-1.4,1.4L64.1,39.2c-0.2,0.6-0.2,1.3,0.1,1.9c0.3,0.6,0.8,1.1,1.4,1.3l21.2,8c1.3,0.5,2.8-0.1,3.3-1.3
		c0,0,0,0,0,0l9.5-24.2C99.6,24.7,99.7,24.6,99.7,24.4L99.7,24.4z M94.9,17.8l2.4,5.3L94.4,22c-0.3-0.1-0.5-0.3-0.6-0.6
		c-0.1-0.3-0.1-0.6,0-0.8L94.9,17.8L94.9,17.8z M88.4,48.3c-0.2,0.5-0.8,0.7-1.3,0.5l-21.2-8c-0.2-0.1-0.4-0.2-0.5-0.4
		c-0.1-0.2-0.1-0.5,0-0.7L77,10.8c0.1-0.2,0.3-0.4,0.5-0.5h0.1c0.2-0.1,0.5-0.1,0.7,0l15.6,5.9L92.4,20c-0.5,1.4,0.2,2.9,1.5,3.4
		c0,0,0,0,0.1,0l3.9,1.5L88.4,48.3z"/>
	<g>
		<g>
			<path id="Path_762" class="st2" d="M86.4,34.8L81.6,33c-0.2-0.1-0.3-0.3-0.2-0.5l2.7-6.9c0.1-0.2,0.3-0.3,0.5-0.2c0,0,0,0,0,0
				l4.9,1.9c0.2,0.1,0.3,0.3,0.2,0.5l-2.7,6.9C86.9,34.9,86.6,34.9,86.4,34.8C86.4,34.8,86.4,34.8,86.4,34.8z"/>
			<path id="Path_763" class="st3" d="M85.3,24.1c0-0.1-0.1-0.2-0.2-0.2l-5.9-1.1c-0.2,0-0.4,0.1-0.4,0.2l-3,7.6
				c-0.1,0.2,0,0.4,0.1,0.4l5.1,3.2H81c0.1,0,0.2,0,0.3,0c0.1,0,0.2-0.1,0.2-0.2l3.8-9.7C85.3,24.3,85.4,24.2,85.3,24.1L85.3,24.1z"
				/>
			<path id="Path_764" class="st4" d="M85.2,28l-1.4-0.5c-0.2-0.1-0.3-0.3-0.2-0.5c0.1-0.2,0.3-0.3,0.5-0.2l1.4,0.5
				c0.2,0.1,0.3,0.3,0.2,0.5C85.6,28,85.4,28.1,85.2,28L85.2,28z"/>
			<path id="Path_765" class="st4" d="M84.6,29.3l-1.4-0.5C83,28.7,83,28.5,83,28.3c0.1-0.2,0.3-0.3,0.5-0.2l1.4,0.5
				c0.2,0.1,0.3,0.3,0.2,0.5C85,29.3,84.8,29.4,84.6,29.3C84.6,29.3,84.6,29.3,84.6,29.3z"/>
			<path id="Path_766" class="st4" d="M84.1,30.7l-1.4-0.5c-0.2-0.1-0.3-0.3-0.2-0.5c0.1-0.2,0.3-0.3,0.5-0.2c0,0,0,0,0,0l1.4,0.5
				c0.2,0.1,0.3,0.3,0.2,0.5c0,0,0,0,0,0C84.5,30.7,84.3,30.8,84.1,30.7z"/>
			<path id="Path_767" class="st4" d="M83.5,32.1l-1.4-0.5c-0.2-0.1-0.3-0.3-0.2-0.5c0,0,0,0,0,0c0.1-0.2,0.3-0.3,0.5-0.2l1.4,0.5
				c0.2,0.1,0.3,0.3,0.2,0.5C84,32.1,83.7,32.2,83.5,32.1C83.5,32.1,83.5,32.1,83.5,32.1z"/>
			<path id="Path_768" class="st4" d="M87.2,28.8l-0.7-0.3c-0.2-0.1-0.3-0.3-0.2-0.5c0.1-0.2,0.3-0.3,0.5-0.2l0.7,0.3
				c0.2,0.1,0.3,0.3,0.2,0.5c0,0,0,0,0,0C87.6,28.7,87.4,28.8,87.2,28.8z"/>
			<path id="Path_769" class="st4" d="M86.7,30.1L86,29.9c-0.2-0.1-0.3-0.3-0.2-0.5c0,0,0,0,0,0c0.1-0.2,0.3-0.3,0.5-0.2l0.7,0.3
				c0.2,0.1,0.3,0.3,0.2,0.5C87.1,30.1,86.9,30.2,86.7,30.1L86.7,30.1z"/>
			<path id="Path_770" class="st4" d="M86.2,31.5l-0.7-0.3c-0.2-0.1-0.3-0.3-0.2-0.5c0.1-0.2,0.3-0.3,0.5-0.2c0,0,0,0,0,0l0.7,0.3
				c0.2,0.1,0.3,0.3,0.2,0.5c0,0,0,0,0,0C86.6,31.5,86.3,31.6,86.2,31.5z"/>
			<path id="Path_771" class="st4" d="M85.6,32.9l-0.7-0.3c-0.2-0.1-0.3-0.3-0.2-0.5c0,0,0,0,0,0c0.1-0.2,0.3-0.3,0.5-0.2l0.7,0.3
				c0.2,0.1,0.3,0.3,0.2,0.5C86,32.9,85.8,33,85.6,32.9L85.6,32.9z"/>
		</g>
		<path id="Path_772" class="st5" d="M81.5,29.9l-0.6-1.7l1.7-1c0.2-0.1,0.2-0.3,0.1-0.5c-0.1-0.2-0.3-0.2-0.5-0.1l0,0l-1.5,0.9
			l-0.5-1.3c-0.1-0.2-0.3-0.3-0.5-0.2c0,0,0,0,0,0c-0.2,0.1-0.3,0.3-0.2,0.5l0.5,1.5l-1.4,0.9c-0.2,0.1-0.2,0.3-0.1,0.5c0,0,0,0,0,0
			c0,0.1,0.1,0.1,0.2,0.2c0.1,0.1,0.2,0.1,0.3,0l1.3-0.8l0.6,1.5c0.1,0.2,0.3,0.3,0.5,0.2c0,0,0,0,0,0
			C81.5,30.3,81.6,30.1,81.5,29.9C81.5,29.9,81.5,29.9,81.5,29.9L81.5,29.9z"/>
	</g>
	<path id="Path_773" class="st0" d="M36.4,4V0h23l9,9L68,39c0,0,1.1,8.6-5.2,6.8S36.4,46,36.4,46s-2-2-2-11S36.4,4,36.4,4z"/>
	<path id="Path_774" class="st1" d="M68.7,9.3L68.7,9.3l-8.8-8.8h-0.1c-0.1-0.1-0.3-0.1-0.5-0.1H37.6c-0.8,0-1.6,0.3-2.2,0.9
		l-0.1,0.1c-0.6,0.6-0.9,1.4-0.9,2.2v39.3c0,0.8,0.3,1.6,0.9,2.2c0.6,0.6,1.4,0.9,2.2,0.9h28.1c0.8,0,1.6-0.3,2.2-0.9
		c0.6-0.6,0.9-1.4,0.9-2.2V9.8C68.8,9.6,68.8,9.5,68.7,9.3L68.7,9.3z M60.2,3.6l5.2,5.2h-3.8c-0.4,0-0.7-0.1-1-0.4
		c-0.3-0.3-0.4-0.6-0.4-1L60.2,3.6L60.2,3.6z M66.8,42.7c0,0.3-0.1,0.6-0.4,0.8c-0.2,0.2-0.5,0.4-0.8,0.4H37.6
		c-0.3,0-0.6-0.1-0.8-0.3c-0.2-0.2-0.3-0.5-0.3-0.8V3.3c0-0.3,0.1-0.6,0.4-0.8h0.1c0.2-0.2,0.5-0.3,0.8-0.3h20.7v5.2
		c0,0.9,0.4,1.8,1,2.4c0.6,0.6,1.5,1,2.4,1h5.1v32L66.8,42.7z"/>
	<g>
		<g>
			<path id="Path_762_1_" class="st2" d="M26.7,29.3L21.8,31c-0.2,0.1-0.4,0-0.5-0.2l-2.4-7c-0.1-0.2,0-0.4,0.2-0.5c0,0,0,0,0,0
				l4.9-1.7c0.2-0.1,0.4,0,0.5,0.2l2.4,7C27,29.1,26.9,29.3,26.7,29.3C26.7,29.3,26.7,29.3,26.7,29.3z"/>
			<path id="Path_763_1_" class="st3" d="M18.9,21.9c-0.1,0-0.2,0-0.3,0l-5.3,3c-0.2,0.1-0.2,0.3-0.2,0.4l2.6,7.7
				c0.1,0.2,0.2,0.3,0.4,0.2l6-0.9l0,0c0.1,0,0.2-0.1,0.2-0.2c0.1-0.1,0.1-0.2,0-0.3l-3.4-9.8C19,22,19,21.9,18.9,21.9L18.9,21.9z"
				/>
			<path id="Path_764_1_" class="st4" d="M21.3,24.9l-1.4,0.5c-0.2,0.1-0.4,0-0.5-0.2c-0.1-0.2,0-0.4,0.2-0.5l1.4-0.5
				c0.2-0.1,0.4,0,0.5,0.2C21.6,24.7,21.5,24.9,21.3,24.9L21.3,24.9z"/>
			<path id="Path_765_1_" class="st4" d="M21.7,26.3l-1.4,0.5c-0.2,0.1-0.4,0-0.5-0.2c-0.1-0.2,0-0.4,0.2-0.5l1.4-0.5
				c0.2-0.1,0.4,0,0.5,0.2C22,26,21.9,26.2,21.7,26.3C21.7,26.3,21.7,26.3,21.7,26.3z"/>
			<path id="Path_766_1_" class="st4" d="M22.2,27.7l-1.4,0.5c-0.2,0.1-0.4,0-0.5-0.2c-0.1-0.2,0-0.4,0.2-0.5c0,0,0,0,0,0L22,27
				c0.2-0.1,0.4,0,0.5,0.2c0,0,0,0,0,0C22.5,27.4,22.4,27.6,22.2,27.7z"/>
			<path id="Path_767_1_" class="st4" d="M22.7,29.1l-1.4,0.5c-0.2,0.1-0.4,0-0.5-0.2c0,0,0,0,0,0c-0.1-0.2,0-0.4,0.2-0.5l1.4-0.5
				c0.2-0.1,0.4,0,0.5,0.2C23,28.8,22.9,29,22.7,29.1C22.7,29.1,22.7,29.1,22.7,29.1z"/>
			<path id="Path_768_1_" class="st4" d="M23.4,24.2l-0.7,0.2c-0.2,0.1-0.4,0-0.5-0.2c-0.1-0.2,0-0.4,0.2-0.5l0.7-0.2
				c0.2-0.1,0.4,0,0.5,0.2c0,0,0,0,0,0C23.7,23.9,23.6,24.1,23.4,24.2z"/>
			<path id="Path_769_1_" class="st4" d="M23.8,25.6l-0.7,0.2c-0.2,0.1-0.4,0-0.5-0.2c0,0,0,0,0,0c-0.1-0.2,0-0.4,0.2-0.5l0.7-0.2
				c0.2-0.1,0.4,0,0.5,0.2C24.1,25.3,24,25.5,23.8,25.6L23.8,25.6z"/>
			<path id="Path_770_1_" class="st4" d="M24.3,27l-0.7,0.2c-0.2,0.1-0.4,0-0.5-0.2c-0.1-0.2,0-0.4,0.2-0.5c0,0,0,0,0,0l0.7-0.2
				c0.2-0.1,0.4,0,0.5,0.2c0,0,0,0,0,0C24.6,26.7,24.5,26.9,24.3,27z"/>
			<path id="Path_771_1_" class="st4" d="M24.8,28.4l-0.7,0.2c-0.2,0.1-0.4,0-0.5-0.2c0,0,0,0,0,0c-0.1-0.2,0-0.4,0.2-0.5l0.7-0.2
				c0.2-0.1,0.4,0,0.5,0.2C25.1,28.1,25,28.3,24.8,28.4L24.8,28.4z"/>
		</g>
		<path id="Path_772_1_" class="st5" d="M19.7,28.7l-1.5-0.9l0.6-1.8c0.1-0.2,0-0.4-0.2-0.5c-0.2-0.1-0.4,0-0.5,0.2l0,0l-0.6,1.7
			l-1.2-0.7c-0.2-0.1-0.4-0.1-0.5,0.1c0,0,0,0,0,0c-0.1,0.2,0,0.4,0.1,0.5l1.3,0.8l-0.6,1.6c-0.1,0.2,0,0.4,0.2,0.5c0,0,0,0,0,0
			c0.1,0,0.2,0,0.2,0c0.1,0,0.2-0.1,0.2-0.2l0.5-1.5l1.4,0.8c0.2,0.1,0.4,0,0.5-0.1c0,0,0,0,0,0C20,29,19.9,28.8,19.7,28.7
			C19.7,28.7,19.7,28.7,19.7,28.7L19.7,28.7z"/>
	</g>
	<g>
		<g>
			<path id="Path_762_2_" class="st2" d="M58,27l-5.1,0c-0.2,0-0.4-0.2-0.4-0.4l0.1-7.4c0-0.2,0.2-0.4,0.4-0.4c0,0,0,0,0,0l5.2,0.1
				c0.2,0,0.4,0.2,0.4,0.4l-0.1,7.4C58.4,26.9,58.2,27,58,27C58,27,58,27,58,27z"/>
			<path id="Path_763_2_" class="st3" d="M53.2,17.3c-0.1-0.1-0.2-0.1-0.3-0.1l-6,1c-0.2,0-0.3,0.2-0.3,0.4l-0.1,8.2
				c0,0.2,0.1,0.3,0.3,0.4l5.9,1.2l0.1,0c0.1,0,0.2,0,0.2-0.1c0.1-0.1,0.1-0.2,0.1-0.3l0.1-10.4C53.3,17.5,53.3,17.4,53.2,17.3
				L53.2,17.3z"/>
			<path id="Path_764_2_" class="st4" d="M54.4,21l-1.5,0c-0.2,0-0.4-0.2-0.4-0.4c0-0.2,0.2-0.4,0.4-0.4l1.5,0
				c0.2,0,0.4,0.2,0.4,0.4C54.8,20.9,54.6,21,54.4,21L54.4,21z"/>
			<path id="Path_765_2_" class="st4" d="M54.4,22.4l-1.5,0c-0.2,0-0.4-0.2-0.4-0.4c0-0.2,0.2-0.4,0.4-0.4l1.5,0
				c0.2,0,0.4,0.2,0.4,0.4C54.7,22.3,54.6,22.5,54.4,22.4C54.4,22.4,54.4,22.4,54.4,22.4z"/>
			<path id="Path_766_2_" class="st4" d="M54.4,23.9l-1.5,0c-0.2,0-0.4-0.2-0.4-0.4c0-0.2,0.2-0.4,0.4-0.4c0,0,0,0,0,0l1.5,0
				c0.2,0,0.4,0.2,0.4,0.4c0,0,0,0,0,0C54.7,23.8,54.6,23.9,54.4,23.9z"/>
			<path id="Path_767_2_" class="st4" d="M54.3,25.4l-1.5,0c-0.2,0-0.4-0.2-0.4-0.4c0,0,0,0,0,0c0-0.2,0.2-0.4,0.4-0.4l1.5,0
				c0.2,0,0.4,0.2,0.4,0.4C54.7,25.3,54.5,25.4,54.3,25.4C54.3,25.4,54.3,25.4,54.3,25.4z"/>
			<path id="Path_768_2_" class="st4" d="M56.6,21l-0.7,0c-0.2,0-0.4-0.2-0.4-0.4c0-0.2,0.2-0.4,0.4-0.4l0.7,0
				c0.2,0,0.4,0.2,0.4,0.4c0,0,0,0,0,0C57,20.8,56.8,21,56.6,21z"/>
			<path id="Path_769_2_" class="st4" d="M56.6,22.5l-0.7,0c-0.2,0-0.4-0.2-0.4-0.4c0,0,0,0,0,0c0-0.2,0.2-0.4,0.4-0.4l0.7,0
				c0.2,0,0.4,0.2,0.4,0.4C57,22.3,56.8,22.5,56.6,22.5L56.6,22.5z"/>
			<path id="Path_770_2_" class="st4" d="M56.6,24l-0.7,0c-0.2,0-0.4-0.2-0.4-0.4c0-0.2,0.2-0.4,0.4-0.4c0,0,0,0,0,0l0.7,0
				c0.2,0,0.4,0.2,0.4,0.4c0,0,0,0,0,0C57,23.8,56.8,24,56.6,24z"/>
			<path id="Path_771_2_" class="st4" d="M56.6,25.5l-0.7,0c-0.2,0-0.4-0.2-0.4-0.4c0,0,0,0,0,0c0-0.2,0.2-0.4,0.4-0.4l0.7,0
				c0.2,0,0.4,0.2,0.4,0.4C56.9,25.3,56.8,25.5,56.6,25.5L56.6,25.5z"/>
		</g>
		<path id="Path_772_2_" class="st5" d="M51.7,24l-1.1-1.4l1.2-1.5c0.1-0.2,0.1-0.4-0.1-0.5c-0.2-0.1-0.4-0.1-0.5,0.1l0,0L50,22.1
			L49.1,21c-0.1-0.2-0.3-0.2-0.5-0.1c0,0,0,0,0,0c-0.2,0.1-0.2,0.4,0,0.5l1,1.2L48.5,24c-0.1,0.2-0.1,0.4,0.1,0.5c0,0,0,0,0,0
			c0.1,0.1,0.1,0.1,0.2,0.1c0.1,0,0.2,0,0.3-0.1l1-1.2l1.1,1.2c0.1,0.2,0.4,0.2,0.5,0.1c0,0,0,0,0,0C51.8,24.4,51.8,24.2,51.7,24
			C51.7,24,51.7,24,51.7,24L51.7,24z"/>
	</g>
</g>
</svg>
