<?xml version="1.0" encoding="utf-8"?>
<!-- Generator: Adobe Illustrator 22.1.0, SVG Export Plug-In . SVG Version: 6.00 Build 0)  -->
<svg version="1.1" id="Capa_1" xmlns="http://www.w3.org/2000/svg" xmlns:xlink="http://www.w3.org/1999/xlink" x="0px" y="0px"
	 viewBox="0 0 53 53" style="enable-background:new 0 0 53 53;" xml:space="preserve">
<style type="text/css">
	.st0{fill:#FFFFFF;}
</style>
<path class="st0" d="M41.4,35c0.1-0.2,0.1-0.4,0-0.6c-2.4-5.7-7.3-8-8.8-8.5l-1-13c2.4-1.9,2.7-4.5,2.7-4.7c0-0.1,0-0.4-0.1-0.5
	c-0.1-0.1-0.3-0.2-0.5-0.2l-14.3,0c-0.2,0-0.4,0.1-0.5,0.2c-0.1,0.1-0.1,0.3-0.1,0.5c0.3,2.4,1.9,4,2.6,4.6l-1.1,13
	c-1.5,0.6-6.5,3.2-8.8,8.5c-0.1,0.2,0,0.4,0,0.6c0,0,0,0,0.1,0.1c0.1,0.1,0.3,0.2,0.5,0.2h13.8v12.8c0,0.2,0.1,0.4,0.2,0.5
	s0.3,0.2,0.5,0.2c0.4,0,0.7-0.3,0.7-0.7l0-12.8h13.7C41.1,35.3,41.3,35.2,41.4,35z M25.8,34H13.2c2.6-4.9,7.9-7,8-7
	c0.3-0.1,0.4-0.3,0.5-0.6l1.1-13.8c0-0.2,0-0.4-0.2-0.6c0,0,0,0-0.1-0.1c0,0-1.7-1.3-2.3-3.2l12.7,0.1C32.6,9.7,32,11,30.6,12
	c-0.2,0.1-0.3,0.4-0.3,0.6l1.1,13.8c0,0.3,0.2,0.5,0.5,0.6c0,0,5.2,1.7,8,7L25.8,34z"/>
</svg>
