<svg xmlns="http://www.w3.org/2000/svg" viewBox="0 0 64.088 58.629">
  <defs>
    <style>
      .cls-1 {
        fill: #ff0;
      }

      .cls-2 {
        fill: #1f6dce;
      }
    </style>
  </defs>
  <g id="caution-sign" transform="translate(0.051 -15.3)">
    <g id="Layer_2" transform="translate(2.797 17.554)">
      <path id="Path_491" data-name="Path 491" class="cls-1" d="M16,81.234,45.208,28l30.06,53.234Z" transform="translate(-16 -28)"/>
    </g>
    <g id="Capa_1" transform="translate(-0.051 15.3)">
      <g id="Group_1254" data-name="Group 1254">
        <g id="Group_1253" data-name="Group 1253">
          <path id="Path_492" data-name="Path 492" class="cls-2" d="M63.769,70.646,33.94,16.453a2.228,2.228,0,0,0-3.9,0L.224,70.646a2.214,2.214,0,0,0,1.952,3.283h59.64a2.214,2.214,0,0,0,1.952-3.283ZM5.92,69.51,31.988,22.132,58.055,69.51Z" transform="translate(0.051 -15.3)"/>
          <path id="Path_493" data-name="Path 493" class="cls-2" d="M164.9,130.186v16.041a2.786,2.786,0,1,0,5.572,0V130.186a2.786,2.786,0,1,0-5.572,0Z" transform="translate(-135.63 -107.508)"/>
          <path id="Path_494" data-name="Path 494" class="cls-2" d="M167.028,265.4a2.928,2.928,0,1,0,2.928,2.928A2.931,2.931,0,0,0,167.028,265.4Z" transform="translate(-134.972 -221.02)"/>
        </g>
      </g>
    </g>
  </g>
</svg>
