<svg xmlns="http://www.w3.org/2000/svg" xmlns:xlink="http://www.w3.org/1999/xlink" viewBox="0 0 32 32">
  <defs>
    <style>
      .cls-1 {
        clip-path: url(#clip-Products);
      }

      .cls-2 {
        fill: #fff;
      }
    </style>
    <clipPath id="clip-Products">
      <rect width="32" height="32"/>
    </clipPath>
  </defs>
  <g id="Products" class="cls-1">
    <g id="delivery-package" transform="translate(1 2)">
      <path id="Path_2257" data-name="Path 2257" class="cls-2" d="M23.729,14.893,9.085,21.777V26.2L6.531,25.062V20.641l14.643-6.884L16.256,11.57a3.374,3.374,0,0,0-2.395,0L1.75,16.955A3.209,3.209,0,0,0,0,19.655L.03,32.279a3.2,3.2,0,0,0,1.789,2.7L13.9,40.146a3.387,3.387,0,0,0,2.317,0L28.3,34.982a3.2,3.2,0,0,0,1.789-2.7l.03-12.625a3.209,3.209,0,0,0-1.75-2.7ZM27.381,25l-.709.329-.014,4.988a.718.718,0,0,1-.429.579l-1.061.458c-.233.1-.421.007-.421-.208l0-4.922-.687.318c-.323.15-.525-.085-.365-.423l1.641-3.462c.166-.35.581-.551.747-.362l1.684,1.92C27.932,24.4,27.718,24.841,27.381,25Zm-6.929,8.01a.664.664,0,0,1-.394.549l-.984.425c-.216.093-.392,0-.395-.2l-.058-4.716-.637.3c-.3.139-.491-.089-.345-.411l1.492-3.291c.15-.332.535-.519.692-.335l1.59,1.862c.159.186-.035.6-.348.745l-.656.3Zm8.1-1.369a.361.361,0,0,1-.22.29L17.093,36.651c-.1.044-.191,0-.193-.1L16.891,36a.314.314,0,0,1,.187-.264l11.259-4.8c.121-.051.218,0,.218.106Z" transform="translate(0 -11.351)"/>
    </g>
  </g>
</svg>
