<svg xmlns="http://www.w3.org/2000/svg" xmlns:xlink="http://www.w3.org/1999/xlink" viewBox="0 0 85 85">
  <defs>
    <style>
      .cls-1 {
        clip-path: url(#clip-Products);
      }

      .cls-2 {
        fill: #fff;
      }
    </style>
    <clipPath id="clip-Products">
      <rect width="85" height="85"/>
    </clipPath>
  </defs>
  <g id="Products" class="cls-1">
    <g id="package" transform="translate(4 0.5)">
      <path id="Path_605" data-name="Path 605" class="cls-2" d="M96.1,19.8a2.2,2.2,0,0,0-.213-.94,2.054,2.054,0,0,0-1.436-1.135L58.336.213a2.142,2.142,0,0,0-1.862,0L20.006,17.889A2.135,2.135,0,0,0,18.8,19.732V64.179a2.113,2.113,0,0,0,1.206,1.915L56.474,83.77c.018,0,.018,0,.035.018a.63.63,0,0,1,.16.071c.018,0,.035.018.071.018l.16.053c.018,0,.035.018.053.018.053.018.124.018.177.035h.053c.071,0,.16.018.23.018a1.011,1.011,0,0,0,.23-.018H57.7a.63.63,0,0,0,.177-.035c.018,0,.035-.018.053-.018l.16-.053c.018,0,.035-.018.071-.018a.629.629,0,0,0,.16-.071c.018,0,.018,0,.035-.018L94.928,66.041a2.144,2.144,0,0,0,1.206-1.915V19.856C96.1,19.839,96.1,19.821,96.1,19.8ZM57.4,4.485,89.024,19.821,77.377,25.477,45.748,10.141Zm0,30.671L25.767,19.821,40.873,12.5,72.5,27.835ZM23.055,23.243,55.269,38.862V78.451L23.055,62.832ZM59.523,78.451V38.862l15.123-7.34V41.876a2.127,2.127,0,1,0,4.255,0V29.448l12.942-6.276V62.761Z" transform="translate(-18.8 0)"/>
    </g>
  </g>
</svg>
