<svg xmlns="http://www.w3.org/2000/svg" width="524.764" height="490.336" viewBox="0 0 524.764 490.336"><g transform="translate(-437.247 -139)"><g transform="translate(540.077 212.977)" opacity="0.5"><path d="M5.284,581.481c-6.374-4.443-7.743-10.711-.369-26.474C14.449,534.558,23.194,494.633,41.841,495c49.3.913,255,9.007,256,12.172,8.059,25.135,20.543,55.566,20.069,65.851-.9,17.467-26.232,16.737-36.873,16.493-62.631-1.4-125.419-2.374-188.155-2.374-16.435-.365-32.817.609-49.251.183C32.464,587.02,14.66,587.993,5.284,581.481Z" transform="translate(0 -246.969)" fill="#e5e5e5"/><path d="M289.935,220.9H51.747L29.1,334.04H312.53Z" transform="translate(-11.419 -111.766)" fill="#efefef"/><g transform="translate(16.138 108.047)"><path d="M62.451,219.1H50.616a1.554,1.554,0,0,0-1.4,1.156c-2.543,12.72-5.087,25.5-7.63,38.22q-6.073,30.491-12.2,60.921c-.934,4.625-1.869,9.312-2.8,13.937-.156.73.727.974,1.142.974h272.3c3.685,0,7.423.3,11.108,0h.519c.571,0,1.557-.609,1.35-1.461-2.543-12.72-5.087-25.5-7.63-38.22q-6.073-30.491-12.2-60.921c-.934-4.625-1.869-9.312-2.8-13.937-.1-.609-.727-.669-1.142-.669H276.358c-1.4,0-1.921,2.13-.208,2.13h12.873c-.363-.243-.779-.426-1.142-.669,2.543,12.72,5.087,25.5,7.63,38.22q6.073,30.491,12.2,60.921c.934,4.625,1.869,9.312,2.8,13.937.467-.487.934-.974,1.35-1.461H32.293a16.218,16.218,0,0,0-3.841,0,1.487,1.487,0,0,1-.519,0c.363.3.779.609,1.142.974,2.543-12.72,5.087-25.5,7.63-38.22,4.2-20.267,8.253-40.594,12.3-60.921.934-4.625,1.869-9.312,2.8-13.937-.467.365-.934.791-1.4,1.156H62.243c1.4,0,1.921-2.13.208-2.13Z" transform="translate(-26.565 -219.1)" fill="#6a79a8"/></g><g transform="translate(37.802 0.022)"><path d="M345.125,204.522V69.9l.183-20.814V11.351A10.675,10.675,0,0,0,334.6.7H116.411A10.715,10.715,0,0,0,105.7,11.351V204.583H345.125Z" transform="translate(-104.095 -0.288)" fill="#efefef"/><path d="M349.666,208.866V78.99l.183-20.206V22.146A10.325,10.325,0,0,0,339.563,11.8H127.585A10.286,10.286,0,0,0,117.3,22.146V208.927H349.666Z" transform="translate(-108.635 -4.632)" fill="#fff"/><path d="M345.615,143.335V88.683c0-13.511.183-27.022.183-40.533V17.476c0-3.53.487-7.608-1.1-10.833A12.036,12.036,0,0,0,333.869.13c-11.016-.243-22.092,0-33.108,0H119.579c-5.721,0-11.5.548-14.789,6.147-2.434,4.139-1.582,10.225-1.582,14.85V143.64c0,1.339,2.982.791,2.982-.3V14.189a23.547,23.547,0,0,1,.183-4.625,9.281,9.281,0,0,1,9.251-7.547c11.563-.122,23.127,0,34.691,0H332.651a10.066,10.066,0,0,1,10.164,9.312c.243,3.165,0,6.451,0,9.677V38.412c0,12.842-.183,25.622-.183,38.464V143.7c0,1.278,2.982.73,2.982-.365Z" transform="translate(-103.063 -0.022)" fill="#6a79a8"/><g transform="translate(35.171 42.709)"><g transform="translate(49.008)"><path d="M242.183,71.781h76.076c1.035,0,3.165-1.582,1.156-1.582H243.339c-1.035-.061-3.1,1.582-1.156,1.582Z" transform="translate(-241.378 -70.197)" fill="#6a79a8"/></g><g transform="translate(0.002 31.893)"><path d="M161.734,124.548H299.218c1.278,0,3.043-1.948,1.1-1.948H162.83c-1.339,0-3.043,1.948-1.1,1.948Z" transform="translate(-160.855 -122.6)" fill="#6a79a8"/></g><g transform="translate(0 56.358)"><path d="M161.733,164.687H335.551c1.217,0,3.043-1.887,1.1-1.887H162.829c-1.217.061-3.1,1.887-1.1,1.887Z" transform="translate(-160.852 -162.8)" fill="#6a79a8"/></g><g transform="translate(0.963 81.129)"><path d="M163.2,204.9H266.3c.913,0,3.165-1.4,1.217-1.4h-103.1c-.913,0-3.165,1.4-1.217,1.4Z" transform="translate(-162.435 -203.5)" fill="#6a79a8"/></g></g></g><g transform="translate(52.688 93.329)"><path d="M299.267,462.063V316.18l.148-22.518v-40.9c0-6.39-4.189-11.564-9.412-11.564H98.612c-5.174,0-9.412,5.173-9.412,11.564v209.3Z" transform="translate(-87.63 -240.963)" fill="#efefef"/><path d="M304.239,466.72V326.011l.147-21.91V264.359c0-6.208-4.012-11.259-8.953-11.259H110.853c-4.941,0-8.953,5.051-8.953,11.259v202.3H304.239Z" transform="translate(-92.601 -245.621)" fill="#fff"/><path d="M299.927,270.2V254.315c0-7.425-3.953-13.207-10.179-13.45-2.619-.122-5.238,0-7.857,0H109.835c-3.8,0-7.659-.061-11.464,0a10.67,10.67,0,0,0-8.7,4.017c-3.854,4.747-2.965,11.624-2.965,17.71v6.634c0,1.339,2.421.791,2.421-.3,0-4.991-.049-9.981,0-14.972.049-5.9,2.965-11.016,8.054-11.2,3.311-.122,6.621,0,9.932,0h180.7a8.586,8.586,0,0,1,7.264,3.347c3.558,4.625,2.421,12.537,2.421,18.38v6.086c0,1.339,2.421.73,2.421-.365Z" transform="translate(-86.62 -240.811)" fill="#6a79a8"/></g><g transform="translate(45.994 126.68)"><path d="M301.672,452.351V374.814l.15-23.675V308.172c0-6.695-4.485-12.172-9.967-12.172H88.368c-5.532,0-9.968,5.417-9.968,12.172V452.412H301.672Z" transform="translate(-76.709 -295.763)" fill="#efefef"/><path d="M306.762,457.282v-72.12l.148-23.005v-41.75c0-6.512-4.258-11.807-9.555-11.807h-196.4c-5.248,0-9.555,5.295-9.555,11.807V457.282Z" transform="translate(-81.797 -300.695)" fill="#fff"/><path d="M302.261,324.452c0-5.234.05-10.468,0-15.7-.05-7.425-4.747-12.9-10.793-13.085-3.1-.122-6.2,0-9.244,0H99.4c-3.847,0-7.645-.061-11.492,0a11.643,11.643,0,0,0-10.293,6.147c-2.848,5.112-1.8,12.9-1.8,18.745v6.329c0,1.278,2.4.669,2.4-.365V310.333c0-6.451,2.448-12.781,8.494-13.024,3.248-.122,6.5,0,9.694,0H289.12a9.587,9.587,0,0,1,5.7,1.339c6,3.9,5,12.355,5,19.293V324.7c.05,1.4,2.448.791,2.448-.243Z" transform="translate(-75.622 -295.611)" fill="#6a79a8"/></g><g transform="translate(39.512 160.147)"><path d="M304.11,488.693V433.309l.2-24.831v-45.1c0-7.06-4.733-12.781-10.574-12.781H78.074c-5.841,0-10.574,5.721-10.574,12.781V488.753H304.11Z" transform="translate(-65.961 -350.6)" fill="#efefef"/><path d="M309.462,493.9V444.175l.15-24.162V376.255c0-6.816-4.553-12.355-10.107-12.355H91.307c-5.6,0-10.107,5.538-10.107,12.355V493.9Z" transform="translate(-71.323 -355.806)" fill="#fff"/><g transform="translate(0 0.156)"><path d="M304.749,378.7c0-5.173.3-10.529,0-15.7-.4-7.182-5.45-11.929-11.2-12.111-3.583-.061-7.166,0-10.749,0H78.409a13.372,13.372,0,0,0-8.276,2.556c-5.7,4.443-5.148,11.746-5.148,18.867v7.668c0,.365,2.422,0,2.422-.791,0-9.312-2.321-26.84,9.185-27.083,3.936-.122,7.923,0,11.91,0H290.518a11.154,11.154,0,0,1,5.248.852c7.065,3.408,6.561,11.929,6.561,19.475v7.121c0,.365,2.422-.061,2.422-.852Z" transform="translate(-64.971 -350.856)" fill="#6a79a8"/></g></g><rect width="283.43" height="133.102" transform="translate(17.681 194.35)" fill="#efefef"/><path d="M316.845,544.168H40.1V426.342c0-4.747,3.253-8.642,7.333-8.642H309.564c4.028,0,7.333,3.834,7.333,8.642V544.168Z" transform="translate(-15.725 -216.716)" fill="#fff"/><g transform="translate(16.098 193.12)"><path d="M311.832,538.076H32.262a16.218,16.218,0,0,0-3.841,0,1.489,1.489,0,0,1-.519,0c.363.3.779.609,1.142.974v-133.1c-.467.365-.934.791-1.4,1.156h279.57a16.219,16.219,0,0,0,3.841,0,1.487,1.487,0,0,1,.519,0c-.363-.3-.779-.609-1.142-.974v133.1c0,1.521,2.543,1.1,2.543-.243v-133.1c0-.73-.623-.974-1.142-.974H39.529c-3.685,0-7.423-.3-11.108,0H27.9c-.467,0-1.4.487-1.4,1.156v133.1c0,.73.623.974,1.142.974h272.3c3.685,0,7.423.3,11.108,0h.519C313.025,540.206,313.544,538.076,311.832,538.076Z" transform="translate(-26.5 -404.778)" fill="#6a79a8"/></g><g transform="translate(112.058 250.813)"><rect width="91.473" height="36.577" transform="translate(1.522 1.096)" fill="#def3f9"/><path d="M318.017,520.938H226.543c.426.3.913.609,1.339.974V485.335c-.548.365-1.1.791-1.643,1.156h91.473c-.426-.3-.913-.609-1.339-.974v36.577c0,1.521,2.982,1.1,2.982-.243V485.274c0-.73-.73-.974-1.339-.974H226.543c-.548,0-1.643.487-1.643,1.156v36.577c0,.73.73.974,1.339.974h91.473C319.477,523.068,320.025,520.938,318.017,520.938Z" transform="translate(-224.9 -484.3)" fill="#6a79a8"/></g><g transform="translate(127.828 266.552)"><path d="M251.717,508.348h60.13c1.278,0,3.043-1.948,1.1-1.948h-60.13c-1.339,0-3.1,1.948-1.1,1.948Z" transform="translate(-250.81 -506.4)" fill="#6a79a8"/></g><g transform="translate(140.048 266.287)"><path d="M271.743,526.948h35.725c1.278,0,3.043-1.948,1.1-1.948H272.838c-1.278,0-3.043,1.948-1.1,1.948Z" transform="translate(-270.876 -525)" fill="#6a79a8"/></g></g><g transform="translate(437.243 139)"><g transform="translate(-0.243 55.321)"><g transform="matrix(0.966, -0.259, 0.259, 0.966, 454.202, 138.954)" fill="#fff"><path d="M 9.921880722045898 13.07180595397949 L 1.775994896888733 7.888058662414551 L 9.921880722045898 1.963774442672729 L 9.921880722045898 13.07180595397949 Z" stroke="none"/><path d="M 8.921880722045898 3.92753791809082 L 3.551977157592773 7.832924842834473 L 8.921880722045898 11.25013732910156 L 8.921880722045898 3.92753791809082 M 10.9218807220459 9.5367431640625e-07 L 10.9218807220459 14.89348125457764 L 9.5367431640625e-07 7.943191051483154 L 10.9218807220459 9.5367431640625e-07 Z" stroke="none" fill="#17e3b0"/></g><g transform="translate(413.792 14.051)"><rect width="19.298" height="4.541" rx="2.27" transform="translate(2.339 2.524) rotate(31)" fill="#ffec68"/><rect width="19.298" height="4.541" rx="2.27" transform="translate(16.356 2.339) rotate(121)" fill="#ffec68"/></g><g transform="translate(386.34 -38.082)" fill="#fff" stroke="#ffec68" stroke-width="2"><ellipse cx="7.487" cy="7.487" rx="7.487" ry="7.487" stroke="none"/><ellipse cx="7.487" cy="7.487" rx="6.487" ry="6.487" fill="none"/></g><g transform="translate(509.948 130.514) rotate(21)"><rect width="16.071" height="3.781" rx="1.891" transform="translate(1.947 2.102) rotate(31)" fill="#f2f4fa"/><rect width="16.07" height="3.781" rx="1.891" transform="translate(13.62 1.948) rotate(121)" fill="#f2f4fa"/></g><g transform="translate(476.47 226.085) rotate(66)"><rect width="16.071" height="3.781" rx="1.891" transform="translate(1.947 2.102) rotate(31)" fill="#f2f4fa"/><rect width="16.07" height="3.781" rx="1.891" transform="translate(13.62 1.948) rotate(121)" fill="#f2f4fa"/></g><g transform="matrix(-0.602, 0.799, -0.799, -0.602, 76.011, 291.903)" fill="#fff"><path d="M 17.30228042602539 23.1359691619873 L 1.775996565818787 13.25561141967773 L 17.30228042602539 1.963775634765625 L 17.30228042602539 23.1359691619873 Z" stroke="none"/><path d="M 16.30228042602539 3.92753791809082 L 3.551980018615723 13.20047760009766 L 16.30228042602539 21.31430244445801 L 16.30228042602539 3.92753791809082 M 18.30228042602539 3.814697265625e-06 L 18.30228042602539 24.95764350891113 L 1.9073486328125e-06 13.31074333190918 L 18.30228042602539 3.814697265625e-06 Z" stroke="none" fill="#fb8c8b"/></g><g transform="matrix(-0.602, 0.799, -0.799, -0.602, 525.01, 67.903)" fill="#fff"><path d="M 17.30228042602539 23.1359691619873 L 1.775996565818787 13.25561141967773 L 17.30228042602539 1.963775634765625 L 17.30228042602539 23.1359691619873 Z" stroke="none"/><path d="M 16.30228042602539 3.92753791809082 L 3.551980018615723 13.20047760009766 L 16.30228042602539 21.31430244445801 L 16.30228042602539 3.92753791809082 M 18.30228042602539 3.814697265625e-06 L 18.30228042602539 24.95764350891113 L 1.9073486328125e-06 13.31074333190918 L 18.30228042602539 3.814697265625e-06 Z" stroke="none" fill="#fb8c8b"/></g><g transform="translate(443.016 232.084)" fill="#fff" stroke="#119df5" stroke-width="2" opacity="0.422"><ellipse cx="10.815" cy="10.815" rx="10.815" ry="10.815" stroke="none"/><ellipse cx="10.815" cy="10.815" rx="9.815" ry="9.815" fill="none"/></g><g transform="translate(116.95 -23.302)" fill="#fff" stroke="#fb8c8b" stroke-width="2"><ellipse cx="7.262" cy="7.262" rx="7.262" ry="7.262" stroke="none"/><ellipse cx="7.262" cy="7.262" rx="6.262" ry="6.262" fill="none"/></g><g transform="translate(84.328 58.586) rotate(-17)"><rect width="9.968" height="2.345" rx="1.173" transform="translate(1.208 1.304) rotate(31)" fill="#17e3b0"/><rect width="9.968" height="2.345" rx="1.173" transform="translate(8.448 1.208) rotate(121)" fill="#17e3b0"/></g><g transform="matrix(0.719, -0.695, 0.695, 0.719, 46.763, 142.475)"><rect width="19.221" height="4.522" rx="2.261" transform="translate(2.329 2.514) rotate(31)" fill="#ffec68"/><rect width="19.22" height="4.523" rx="2.261" transform="translate(16.29 2.329) rotate(121)" fill="#ffec68"/></g><g transform="translate(12.946 178.301) rotate(-29)"><rect width="9.644" height="2.269" rx="1.135" transform="translate(1.169 1.262) rotate(31)" fill="#fb8c8b"/><rect width="9.644" height="2.269" rx="1.135" transform="translate(8.174 1.169) rotate(121)" fill="#fb8c8b"/></g><g transform="translate(25.064 229.597)" fill="#fff" stroke="#f2f4fa" stroke-width="2"><ellipse cx="10.815" cy="10.815" rx="10.815" ry="10.815" stroke="none"/><ellipse cx="10.815" cy="10.815" rx="9.815" ry="9.815" fill="none"/></g><g transform="translate(300.913 1.37) rotate(-5)"><rect width="16.071" height="3.781" rx="1.891" transform="translate(1.947 2.102) rotate(31)" fill="#f2f4fa"/><rect width="16.07" height="3.781" rx="1.891" transform="translate(13.62 1.948) rotate(121)" fill="#f2f4fa"/></g><g transform="translate(194.248 2.547) rotate(-5)"><rect width="9.196" height="2.164" rx="1.082" transform="translate(1.114 1.203) rotate(31)" fill="#f2f4fa"/><rect width="9.196" height="2.164" rx="1.082" transform="translate(7.794 1.114) rotate(121)" fill="#f2f4fa"/></g><g transform="matrix(0.875, -0.485, 0.485, 0.875, 66.554, 13.69)"><rect width="9.196" height="2.164" rx="1.082" transform="translate(1.114 1.203) rotate(31)" fill="#f2f4fa"/><rect width="9.196" height="2.164" rx="1.082" transform="translate(7.794 1.114) rotate(121)" fill="#f2f4fa"/></g><g transform="matrix(0.875, -0.485, 0.485, 0.875, 119.797, 90.226)"><rect width="9.196" height="2.164" rx="1.082" transform="translate(1.114 1.203) rotate(31)" fill="#f2f4fa"/><rect width="9.196" height="2.164" rx="1.082" transform="translate(7.794 1.114) rotate(121)" fill="#f2f4fa"/></g><g transform="matrix(0.875, -0.485, 0.485, 0.875, 0, 80.243)"><rect width="9.196" height="2.164" rx="1.082" transform="translate(1.114 1.203) rotate(31)" fill="#f2f4fa"/><rect width="9.196" height="2.164" rx="1.082" transform="translate(7.794 1.114) rotate(121)" fill="#f2f4fa"/></g><g transform="matrix(0.875, -0.485, 0.485, 0.875, 0, 80.243)"><rect width="9.196" height="2.164" rx="1.082" transform="translate(1.114 1.203) rotate(31)" fill="#f2f4fa"/><rect width="9.196" height="2.164" rx="1.082" transform="translate(7.794 1.114) rotate(121)" fill="#f2f4fa"/></g><g transform="matrix(0.875, -0.485, 0.485, 0.875, 119.797, 158.445)"><rect width="9.196" height="2.164" rx="1.082" transform="translate(1.114 1.203) rotate(31)" fill="#d1dbfd"/><rect width="9.196" height="2.164" rx="1.082" transform="translate(7.794 1.114) rotate(121)" fill="#d1dbfd"/></g><g transform="matrix(0.875, -0.485, 0.485, 0.875, 420.88, 128.831)"><rect width="9.196" height="2.164" rx="1.082" transform="translate(1.114 1.203) rotate(31)" fill="#d1dbfd"/><rect width="9.196" height="2.164" rx="1.082" transform="translate(7.794 1.114) rotate(121)" fill="#d1dbfd"/></g><g transform="translate(436.351 123.149) rotate(21)"><rect width="10.494" height="2.469" rx="1.235" transform="translate(1.272 1.373) rotate(31)" fill="#f2f4fa"/><rect width="10.494" height="2.469" rx="1.235" transform="translate(8.895 1.272) rotate(121)" fill="#f2f4fa"/></g><g transform="translate(415.427 187.881) rotate(21)"><rect width="8.428" height="1.983" rx="0.992" transform="translate(1.021 1.102) rotate(31)" fill="#f2f4fa"/><rect width="8.428" height="1.983" rx="0.992" transform="translate(7.143 1.021) rotate(121)" fill="#f2f4fa"/></g><g transform="translate(111.26 225.294)" fill="#fff" stroke="#ffec68" stroke-width="2"><circle cx="8.855" cy="8.855" r="8.855" stroke="none"/><circle cx="8.855" cy="8.855" r="7.855" fill="none"/></g></g><g transform="translate(0.004)"><rect width="490.336" height="490.336" fill="none"/></g></g></g></svg>