<svg xmlns="http://www.w3.org/2000/svg" xmlns:xlink="http://www.w3.org/1999/xlink" viewBox="0 0 150 150"><defs><style>.a{clip-path:url(#b);}.b{fill:#fff;}</style><clipPath id="b"><rect width="150" height="150"/></clipPath></defs><g id="a" class="a"><g transform="translate(-14424 1610)"><g transform="translate(14439 -1609)"><g transform="translate(0 0)"><path class="b" d="M108.283,147.78H11.1A10.989,10.989,0,0,1,0,136.68V11.1A10.989,10.989,0,0,1,11.1,0H81.654a2.114,2.114,0,0,1,2.22,2.22,2.114,2.114,0,0,1-2.22,2.22H11.1A6.824,6.824,0,0,0,4.44,11.1V136.691a6.824,6.824,0,0,0,6.66,6.649h97.183a6.824,6.824,0,0,0,6.655-6.655v-98.1a2.22,2.22,0,1,1,4.44,0v98.1a11.274,11.274,0,0,1-11.095,11.095Z" transform="translate(0 0.22)"/><path class="b" d="M55.621,40.139h-35.5a2.114,2.114,0,0,1-2.22-2.22V2.42a2.22,2.22,0,0,1,4.44,0v33.3h33.3a2.114,2.114,0,0,1,2.22,2.22A2.379,2.379,0,0,1,55.621,40.139Z" transform="translate(61.532 0.91)"/><path class="b" d="M55.791,41a3.367,3.367,0,0,1-1.776-.888L18.516,3.724a2.146,2.146,0,0,1,0-3.108,2.146,2.146,0,0,1,3.108,0L57.123,37a2.146,2.146,0,0,1,0,3.108C56.7,41,56.235,41,55.791,41Z" transform="translate(61.367 0.05)"/></g><g transform="translate(26.425 52.858)"><path class="b" d="M2.442,91.229H63.428V86.35H58.55V49.757a2.447,2.447,0,0,0-2.442-2.442H46.35a2.447,2.447,0,0,0-2.442,2.442V86.35H41.472V59.515a2.447,2.447,0,0,0-2.442-2.442H29.272a2.447,2.447,0,0,0-2.442,2.442V86.35H24.394V69.272a2.447,2.447,0,0,0-2.442-2.442H12.2a2.447,2.447,0,0,0-2.442,2.442V86.35H4.879V40H0V88.792a2.447,2.447,0,0,0,2.442,2.437Zm46.35-39.035h4.879V86.35H48.792ZM31.714,61.957h4.879V86.35H31.714ZM14.636,71.714h4.879V86.35H14.636Z" transform="translate(0 -27.801)"/><rect class="b" width="4.879" height="4.879"/><rect class="b" width="29.272" height="4.879" transform="translate(9.757)"/></g></g></g></g></svg>