<svg xmlns="http://www.w3.org/2000/svg" viewBox="0 0 21.09 23.478">
  <defs>
    <style>
      .cls-1 {
        fill: #fff;
      }
    </style>
  </defs>
  <g id="order" transform="translate(0 0)">
    <g id="Group_3081" data-name="Group 3081" transform="translate(1.519 13.199)">
      <g id="Group_3080" data-name="Group 3080" transform="translate(0)">
        <path id="Path_2302" data-name="Path 2302" class="cls-1" d="M56.384,264a.38.38,0,0,0-.38.38V265.9a.38.38,0,0,0,.759,0v-1.519A.38.38,0,0,0,56.384,264Z" transform="translate(-56.004 -264.002)"/>
      </g>
    </g>
    <g id="Group_3083" data-name="Group 3083" transform="translate(3.038 13.999)">
      <g id="Group_3082" data-name="Group 3082">
        <path id="Path_2303" data-name="Path 2303" class="cls-1" d="M88.384,280a.38.38,0,0,0-.38.38V281.9a.38.38,0,0,0,.759,0v-1.519A.38.38,0,0,0,88.384,280Z" transform="translate(-88.004 -280.002)"/>
      </g>
    </g>
    <g id="Group_3085" data-name="Group 3085" transform="translate(13.495 15.882)">
      <g id="Group_3084" data-name="Group 3084" transform="translate(0)">
        <path id="Path_2304" data-name="Path 2304" class="cls-1" d="M292.752,312.521a.38.38,0,0,0-.425.629,2.278,2.278,0,1,1-1.274-.388.38.38,0,1,0,0-.759,3.038,3.038,0,1,0,1.7.519Z" transform="translate(-288.016 -312.002)"/>
      </g>
    </g>
    <g id="Group_3087" data-name="Group 3087">
      <g id="Group_3086" data-name="Group 3086" transform="translate(0 0)">
        <path id="Path_2305" data-name="Path 2305" class="cls-1" d="M44.905,17.38a4.773,4.773,0,0,0-2.6-3.016V5.571a.4.4,0,0,0-.2-.343L33.358.056a.4.4,0,0,0-.405,0L24.2,5.228c-.008,0-.014.012-.022.018l-.023.018a.392.392,0,0,0-.088.1s0,0-.006.007v0a.4.4,0,0,0-.045.13.352.352,0,0,1,0,.035A.348.348,0,0,0,24,5.571V15.917a.4.4,0,0,0,.2.343l8.754,5.173.032.014.033.014a.355.355,0,0,0,.274,0l.034-.014c.01,0,.021-.008.032-.014l2.376-1.4a4.773,4.773,0,1,0,9.171-2.647ZM33.156.86l2.069,1.223L32.157,3.9a.4.4,0,0,0,.405.686l3.445-2.035L38.077,3.77,30.105,8.479,28.036,7.256l3.333-1.97a.4.4,0,0,0-.405-.686l-3.71,2.193-2.07-1.223ZM29.707,9.169v2.657l-2.056-1.215V7.954Zm5.993,8.3a4.848,4.848,0,0,0-.131,1.729l-2.016,1.192V19.1a.4.4,0,1,0-.8,0v1.292L24.8,15.69V6.269l2.056,1.215v3.354a.4.4,0,0,0,.2.343L29.9,12.866a.4.4,0,0,0,.6-.343V9.638l2.255,1.333v6.537a.4.4,0,1,0,.8,0V10.971l7.212-4.262a.4.4,0,0,0-.405-.685l-7.2,4.258L30.888,8.941l7.972-4.711L41.512,5.8v8.288A4.756,4.756,0,0,0,35.7,17.472Zm4.618,5.209A3.979,3.979,0,1,1,44.3,18.7,3.979,3.979,0,0,1,40.318,22.681Z" transform="translate(-24.004 0)"/>
      </g>
    </g>
    <g id="Group_3089" data-name="Group 3089" transform="translate(14.846 17.785)">
      <g id="Group_3088" data-name="Group 3088" transform="translate(0)">
        <path id="Path_2306" data-name="Path 2306" class="cls-1" d="M323.014,352.206a.38.38,0,0,0-.528,0l-1.44,1.44-.3-.3a.38.38,0,0,0-.537.537l.57.57a.38.38,0,0,0,.537,0l1.709-1.709A.38.38,0,0,0,323.014,352.206Z" transform="translate(-320.102 -352.1)"/>
      </g>
    </g>
  </g>
</svg>
