<svg xmlns="http://www.w3.org/2000/svg" xmlns:xlink="http://www.w3.org/1999/xlink" viewBox="0 0 293 120">
  <defs>
    <style>
      .cls-1 {
        clip-path: url(#clip-Artboard_2);
      }

      .cls-2 {
        fill: url(#linear-gradient);
      }

      .cls-11, .cls-14, .cls-3 {
        fill: #2d2d2d;
      }

      .cls-3 {
        font-size: 20px;
        font-family: Roboto-Regular, Roboto;
      }

      .cls-4 {
        font-family: Roboto-Bold, Roboto;
        font-weight: 700;
      }

      .cls-5 {
        fill: #82b1ff;
      }

      .cls-6 {
        fill: #ffe477;
      }

      .cls-12, .cls-7 {
        fill: #ffb655;
      }

      .cls-8 {
        fill: #fdd8a8;
      }

      .cls-9 {
        fill: #ffc477;
      }

      .cls-10 {
        fill: #616161;
      }

      .cls-13, .cls-14 {
        stroke: none;
      }

      .cls-15 {
        filter: url(#_2);
      }
    </style>
    <linearGradient id="linear-gradient" x1="0.5" y1="1.13" x2="0.831" y2="-0.719" gradientUnits="objectBoundingBox">
      <stop offset="0" stop-color="#fff"/>
      <stop offset="1" stop-color="#e2ecff"/>
    </linearGradient>
    <filter id="_2" x="-9" y="-5" width="311" height="135.81" filterUnits="userSpaceOnUse">
      <feOffset dy="3" input="SourceAlpha"/>
      <feGaussianBlur stdDeviation="3" result="blur"/>
      <feFlood flood-opacity="0.161"/>
      <feComposite operator="in" in2="blur"/>
      <feComposite in="SourceGraphic"/>
    </filter>
    <clipPath id="clip-Artboard_2">
      <rect width="293" height="120"/>
    </clipPath>
  </defs>
  <g id="Artboard_2" data-name="Artboard – 2" class="cls-1">
    <g id="Group_3704" data-name="Group 3704" transform="translate(3301 -8007)">
      <g id="Group_3703" data-name="Group 3703" transform="translate(-3341 7838)">
        <g id="Group_3694" data-name="Group 3694" transform="translate(40 170)">
          <g class="cls-15" transform="matrix(1, 0, 0, 1, 0, -1)">
            <path id="_2-2" data-name="2" class="cls-2" d="M5.052,0h282.9A4.891,4.891,0,0,1,293,4.712V113.1a4.891,4.891,0,0,1-5.052,4.712H5.052A4.891,4.891,0,0,1,0,113.1V4.712A4.891,4.891,0,0,1,5.052,0Z" transform="translate(0 1)"/>
          </g>
        </g>
        <g id="Group_3687" data-name="Group 3687" transform="translate(-16.927 -50)">
          <text id="USER_MANAGEMENT" data-name="USER
MANAGEMENT" class="cls-3" transform="translate(144.927 277)"><tspan x="0" y="0">USER</tspan><tspan class="cls-4"><tspan x="0" y="20">MANAGEMENT</tspan></tspan></text>
        </g>
      </g>
      <g id="friend" transform="translate(-3354.708 7937.876)">
        <path id="Path_2374" data-name="Path 2374" class="cls-5" d="M473.012,478.187Z" transform="translate(-343.913 -326.821)"/>
        <path id="Path_2376" data-name="Path 2376" class="cls-6" d="M120.084,358.284v-4.293a11.163,11.163,0,0,0-6.826-10.286l-10.588-4.465a9.383,9.383,0,0,1-11.02-.056l-10.554,4.5a11.163,11.163,0,0,0-6.781,10.267v4.328Z" transform="translate(0 -206.918)"/>
        <path id="Path_2377" data-name="Path 2377" class="cls-7" d="M113.259,361.713l-3.918-1.652a14.477,14.477,0,0,0-2.432,8.048,15.028,15.028,0,0,0,1,5.409H74.316v2.774h45.768V372A11.163,11.163,0,0,0,113.259,361.713Z" transform="translate(0 -224.926)"/>
        <path id="Path_2378" data-name="Path 2378" class="cls-8" d="M194.023,125.34a4.465,4.465,0,0,0-4.465-4.465h-8.819a4.465,4.465,0,0,0-4.465,4.465v12.335a8.875,8.875,0,1,0,17.749,0V125.34h0Z" transform="translate(-87.948 -18.606)"/>
        <path id="Path_2379" data-name="Path 2379" class="cls-9" d="M183.623,131.463a7.2,7.2,0,0,0,4.465-1.545,7.2,7.2,0,0,0,4.465,1.545h1.47V125.34a4.465,4.465,0,0,0-4.465-4.465h-8.819a4.465,4.465,0,0,0-4.465,4.465v6.123Z" transform="translate(-87.948 -18.606)"/>
        <path id="Path_2380" data-name="Path 2380" class="cls-10" d="M189.558,120.874h-8.819a4.465,4.465,0,0,0-4.465,4.465v3.349h7.349a4.465,4.465,0,0,0,4.465-4.465h0a4.465,4.465,0,0,0,4.465,4.465h1.47v-3.349A4.465,4.465,0,0,0,189.558,120.874Z" transform="translate(-87.948 -18.605)"/>
        <path id="Path_2381" data-name="Path 2381" class="cls-8" d="M211.74,304.274l.04.017v-.017l-1.117-.471v-5.071a8.872,8.872,0,0,1-8.93-.083V303.8l-.972.415v.028A9.382,9.382,0,0,0,211.74,304.274Z" transform="translate(-109.07 -171.952)"/>
        <g id="Group_3701" data-name="Group 3701" transform="translate(88.326 116.295)">
          <path id="Path_2382" data-name="Path 2382" class="cls-9" d="M212.374,299.9a8.833,8.833,0,0,1-4.538-1.248v3.106a11.661,11.661,0,0,0,8.93.053v-3.076A8.833,8.833,0,0,1,212.374,299.9Z" transform="translate(-203.499 -288.248)"/>
          <path id="Path_2383" data-name="Path 2383" class="cls-9" d="M185.149,231.829a8.873,8.873,0,0,1-8.875-8.875v2.774a8.875,8.875,0,1,0,17.749,0v-2.774A8.874,8.874,0,0,1,185.149,231.829Z" transform="translate(-176.274 -222.954)"/>
        </g>
        <circle id="Ellipse_40" data-name="Ellipse 40" class="cls-6" cx="11.789" cy="11.789" r="11.789" transform="translate(109.683 131.394)"/>
        <path id="Path_2385" data-name="Path 2385" class="cls-7" d="M343.49,418.943a11.789,11.789,0,0,1-11.7-10.4,11.789,11.789,0,1,0,23.41,0A11.788,11.788,0,0,1,343.49,418.943Z" transform="translate(-222.019 -266.745)"/>
        <path id="Path_2386" data-name="Path 2386" class="cls-11" d="M68.826,159.114a10.108,10.108,0,0,1,6.149-9.309L85,145.525a10.376,10.376,0,0,0,4.63,1.633v4.5h2.08v-4.5a10.386,10.386,0,0,0,4.546-1.582l5.5,2.32.808-1.917-5.988-2.525.006-.014-.481-.2v-3.8a9.913,9.913,0,0,0,4.482-8.288V118.81h0A5.512,5.512,0,0,0,95.08,113.3H86.261a5.512,5.512,0,0,0-5.505,5.505h0v12.335a9.854,9.854,0,0,0,2.9,7.012,10.011,10.011,0,0,0,1.433,1.187v3.88l-10.934,4.667a12.185,12.185,0,0,0-7.413,11.223v5.369h35.326V162.4H68.826Zm14.01-40.3a3.429,3.429,0,0,1,3.425-3.425H95.08A3.429,3.429,0,0,1,98.5,118.81v2.309h-.43a3.429,3.429,0,0,1-3.425-3.425H92.57a3.429,3.429,0,0,1-3.425,3.425H82.836V118.81Zm0,12.335V123.2h6.309a5.5,5.5,0,0,0,4.465-2.288,5.5,5.5,0,0,0,4.465,2.288h.43v7.946a7.834,7.834,0,1,1-15.669,0Zm7.835,9.915a9.872,9.872,0,0,0,3.352-.585v3.943a8.29,8.29,0,0,1-6.85-.062v-3.931A9.919,9.919,0,0,0,90.67,141.06Z" transform="translate(7.629 -14)"/>
        <rect id="Rectangle_1725" data-name="Rectangle 1725" width="2.08" height="2.08" transform="translate(96.16 141.657)"/>
        <rect id="Rectangle_1726" data-name="Rectangle 1726" width="2.08" height="2.08" transform="translate(96.16 145.818)"/>
        <g id="Path_2384" data-name="Path 2384" class="cls-12" transform="translate(-256.895 -236.321)">
          <path class="cls-13" d="M 379.9625244140625 385.2938842773438 L 376.769287109375 385.2938842773438 L 376.769287109375 381.6005249023438 L 376.769287109375 381.1005249023438 L 376.269287109375 381.1005249023438 L 372.575927734375 381.1005249023438 L 372.575927734375 377.9071044921875 L 376.269287109375 377.9071044921875 L 376.769287109375 377.9071044921875 L 376.769287109375 377.4071044921875 L 376.769287109375 373.7139587402344 L 379.9625244140625 373.7139587402344 L 379.9625244140625 377.4071044921875 L 379.9625244140625 377.9071044921875 L 380.4625244140625 377.9071044921875 L 384.1558837890625 377.9071044921875 L 384.1558837890625 381.1005249023438 L 380.4625244140625 381.1005249023438 L 379.9625244140625 381.1005249023438 L 379.9625244140625 381.6005249023438 L 379.9625244140625 385.2938842773438 Z"/>
          <path class="cls-14" d="M 377.269287109375 374.2139587402344 L 377.269287109375 377.4071044921875 L 377.269287109375 378.4071044921875 L 376.269287109375 378.4071044921875 L 373.075927734375 378.4071044921875 L 373.075927734375 380.6005249023438 L 376.269287109375 380.6005249023438 L 377.269287109375 380.6005249023438 L 377.269287109375 381.6005249023438 L 377.269287109375 384.7938842773438 L 379.4625244140625 384.7938842773438 L 379.4625244140625 381.6005249023438 L 379.4625244140625 380.6005249023438 L 380.4625244140625 380.6005249023438 L 383.6558837890625 380.6005249023438 L 383.6558837890625 378.4071044921875 L 380.4625244140625 378.4071044921875 L 379.4625244140625 378.4071044921875 L 379.4625244140625 377.4071044921875 L 379.4625244140625 374.2139587402344 L 377.269287109375 374.2139587402344 M 376.269287109375 373.2139587402344 L 380.4625244140625 373.2139587402344 L 380.4625244140625 377.4071044921875 L 384.6558837890625 377.4071044921875 L 384.6558837890625 381.6005249023438 L 380.4625244140625 381.6005249023438 L 380.4625244140625 385.7938842773438 L 376.269287109375 385.7938842773438 L 376.269287109375 381.6005249023438 L 372.075927734375 381.6005249023438 L 372.075927734375 377.4071044921875 L 376.269287109375 377.4071044921875 L 376.269287109375 373.2139587402344 Z"/>
        </g>
        <path id="Path_2387" data-name="Path 2387" class="cls-11" d="M336.961,325.269A12.829,12.829,0,1,0,349.79,338.1,12.843,12.843,0,0,0,336.961,325.269Zm0,23.578A10.749,10.749,0,1,1,347.71,338.1,10.761,10.761,0,0,1,336.961,348.847Z" transform="translate(-215.49 -194.915)"/>
      </g>
    </g>
  </g>
</svg>
