<svg xmlns="http://www.w3.org/2000/svg" xmlns:xlink="http://www.w3.org/1999/xlink" viewBox="0 0 85 85">
  <defs>
    <style>
      .cls-1 {
        clip-path: url(#clip-SparksLink_Users);
      }

      .cls-2 {
        fill: #fff;
      }

      .cls-3, .cls-4, .cls-6 {
        fill: none;
      }

      .cls-3, .cls-4 {
        stroke: #fff;
        stroke-miterlimit: 10;
        stroke-width: 2px;
      }

      .cls-3 {
        stroke-linejoin: bevel;
      }

      .cls-5 {
        stroke: none;
      }
    </style>
    <clipPath id="clip-SparksLink_Users">
      <rect width="85" height="85"/>
    </clipPath>
  </defs>
  <g id="SparksLink_Users" data-name="SparksLink Users" class="cls-1">
    <g id="Asset_1" data-name="Asset 1" transform="translate(0.5 5)">
      <g id="Layer_1" data-name="Layer 1" transform="translate(0 0)">
        <path id="Path_612" data-name="Path 612" class="cls-2" d="M49.407,64.956H19.549V62.207a8.4,8.4,0,0,1,4.429-7.636l10.844-5.956a5.727,5.727,0,0,0,2.9-5.04V38.687l-.305-.458a.458.458,0,0,1,0-.305v-.305c0-.305-.458-.611-.611-.916a1.145,1.145,0,0,1-.305-.611,12.446,12.446,0,0,1-.916-1.527l-.458-.916h0v-.458h0v-.458a2.176,2.176,0,0,1-.764-1.222V31.2a1.836,1.836,0,0,0-.305-1.222v-.458l-.458-.305a2.215,2.215,0,0,1-1.069-1.985V22.346a2.749,2.749,0,0,1,.764-1.833l.458-.305v-8.4A8.515,8.515,0,0,1,35.738,6a13.135,13.135,0,0,1,10.08-3.513A13.135,13.135,0,0,1,56.051,6a8.285,8.285,0,0,1,1.985,6.109v7.636l.458.305a2.558,2.558,0,0,1,.764,1.833v4.887a2.52,2.52,0,0,1-1.68,2.291h-.611v.611A23.329,23.329,0,0,1,53.455,36.7c-.305.458-.764.916-1.069,1.375l-.305.305v5.04a5.155,5.155,0,0,0,.42,1.985,17.907,17.907,0,0,1,1.6-1.795V39.6a9.279,9.279,0,0,0,.916-1.222,30.775,30.775,0,0,0,3.818-7.025,4.849,4.849,0,0,0,2.253-4.582V22.04a4.925,4.925,0,0,0-1.222-3.207V12.266a11.454,11.454,0,0,0-2.6-7.942A15.655,15.655,0,0,0,45.207.048,15.273,15.273,0,0,0,33.142,4.324a10.805,10.805,0,0,0-2.6,5.8,15.769,15.769,0,0,0-7.178-1.68,12.256,12.256,0,0,0-13.44,11v5.651A4.429,4.429,0,0,0,8.705,28v4.276a4.353,4.353,0,0,0,1.527,3.36,18.785,18.785,0,0,0,4.429,7.636v3.36a2.558,2.558,0,0,1-1.375,2.291L5.193,53.96A9.927,9.927,0,0,0,0,62.666v4.582H50.591a20.542,20.542,0,0,1-1.184-2.291Zm-32.3-2.749v2.749H2.444V62.666a7.255,7.255,0,0,1,3.818-6.415l8.095-5.04a4.925,4.925,0,0,0,2.6-4.429V42.353l-.458-.305a17.411,17.411,0,0,1-4.276-7.331v-.458l-.764-.305a1.8,1.8,0,0,1-.916-1.68V28a2.176,2.176,0,0,1,.916-1.222l.764-.305v-6.72c0-.305.611-8.553,11-8.553a12.447,12.447,0,0,1,7.331,1.985v5.956a4.925,4.925,0,0,0-1.222,3.207V27.08a2.6,2.6,0,0,0,0,1.069s0,.305,0,.458v.611A5.307,5.307,0,0,0,30.7,30.9a1.222,1.222,0,0,0,.305.764v.305h0v.458a1.146,1.146,0,0,0,.305.611v.305a.841.841,0,0,0,.305.764v.305h0c0,.305.305.458.305.764h0a.535.535,0,0,1,0,.458c0,.305.305.458.458.764s0,0,0,.305a3.131,3.131,0,0,0,.458.764h1.527c.305.458.611.764.764,1.069h0v3.818a3.169,3.169,0,0,1-1.68,2.9l-2.9,2.9h-.611l-.305.458-6.72,3.818a10.729,10.729,0,0,0-5.8,9.622Z" transform="translate(0 0.017)"/>
        <g id="Ellipse_21" data-name="Ellipse 21" class="cls-3" transform="translate(50.4 40.881)">
          <ellipse class="cls-5" cx="16.8" cy="16.8" rx="16.8" ry="16.8"/>
          <ellipse class="cls-6" cx="16.8" cy="16.8" rx="15.8" ry="15.8"/>
        </g>
        <path id="Path_613" data-name="Path 613" class="cls-4" d="M27.226,26.756l-4.353-3.169-4.353,3.169L20.163,21.6,15.81,18.547h5.307l1.756-5.307,1.756,5.307h5.307L25.585,21.6Z" transform="translate(44.555 37.377)"/>
      </g>
    </g>
  </g>
</svg>
