<svg xmlns="http://www.w3.org/2000/svg" xmlns:xlink="http://www.w3.org/1999/xlink" viewBox="0 0 32 32">
  <defs>
    <style>
      .cls-1 {
        clip-path: url(#clip-place);
      }

      .cls-2 {
        opacity: 0.5;
      }

      .cls-3 {
        fill: #fff;
      }
    </style>
    <clipPath id="clip-place">
      <rect width="32" height="32"/>
    </clipPath>
  </defs>
  <g id="place" class="cls-1">
    <g id="shopping-basket" class="cls-2" transform="translate(1 -18.222)">
      <g id="Group_575" data-name="Group 575" transform="translate(0 20.222)">
        <path id="Path_2264" data-name="Path 2264" class="cls-3" d="M291.036,28.132H293.9l-4.252-7.294a1.237,1.237,0,0,0-2.136,1.249Z" transform="translate(-270.049 -20.222)"/>
        <path id="Path_2265" data-name="Path 2265" class="cls-3" d="M108.687,22.128a1.237,1.237,0,0,0-2.136-1.249l-4.252,7.3h2.868Z" transform="translate(-96.142 -20.264)"/>
        <path id="Path_2266" data-name="Path 2266" class="cls-3" d="M28.066,171.278H1.928A2.02,2.02,0,0,0,0,173.38v2.331a2.02,2.02,0,0,0,1.928,2.1h.6l1.86,11a2.725,2.725,0,0,0,2.445,2.324H22.776a2.725,2.725,0,0,0,2.445-2.324l1.872-11h.979A2.02,2.02,0,0,0,30,175.7v-2.331A2.027,2.027,0,0,0,28.066,171.278ZM10.643,182.266v4.742a1.14,1.14,0,0,1-1.09,1.189,1.141,1.141,0,0,1-1.09-1.189v-6.649a1.14,1.14,0,0,1,1.09-1.189,1.141,1.141,0,0,1,1.09,1.189Zm3.5,0v4.742a1.094,1.094,0,1,1-2.18,0v-6.649a1.14,1.14,0,0,1,1.09-1.189,1.166,1.166,0,0,1,1.09,1.189Zm3.517,2.754v1.988a1.094,1.094,0,1,1-2.18,0v-6.649a1.166,1.166,0,0,1,1.09-1.189,1.14,1.14,0,0,1,1.09,1.189Zm3.5,0v1.988a1.094,1.094,0,1,1-2.18,0v-6.649a1.094,1.094,0,1,1,2.18,0Z" transform="translate(0 -163.623)"/>
      </g>
    </g>
  </g>
</svg>
