<svg xmlns="http://www.w3.org/2000/svg" xmlns:xlink="http://www.w3.org/1999/xlink" viewBox="0 0 15 15">
  <defs>
    <style>
      .cls-1 {
        clip-path: url(#clip-Icon_1);
      }

      .cls-2 {
        fill: #b7b7b7;
      }
    </style>
    <clipPath id="clip-Icon_1">
      <rect width="15" height="15"/>
    </clipPath>
  </defs>
  <g id="Icon_1" data-name="Icon 1" class="cls-1">
    <g id="user-male-black-shape" transform="translate(1 1)">
      <path id="Path_34" data-name="Path 34" class="cls-2" d="M10.943,9.262H10.1A1.684,1.684,0,0,1,8.418,7.578V7.037a4.255,4.255,0,0,0,.806-1.52c.017-.093.107-.139.167-.2a1.041,1.041,0,0,0,.144-1.253C9.5,4,9.442,3.951,9.445,3.878c0-.494,0-.988,0-1.481a2.471,2.471,0,0,0-.6-1.656A2.35,2.35,0,0,0,7.566.082,4.241,4.241,0,0,0,5.734.124a2.219,2.219,0,0,0-1.305.884,2.551,2.551,0,0,0-.4,1.333c-.007.5,0,1.006,0,1.509.011.1-.074.169-.113.252a1.043,1.043,0,0,0,.238,1.276.493.493,0,0,1,.144.282,4.073,4.073,0,0,0,.759,1.358v.559A1.684,1.684,0,0,1,3.367,9.262H2.525A4.508,4.508,0,0,0,0,11.787v.842a.841.841,0,0,0,.842.842H12.627a.841.841,0,0,0,.842-.842v-.842A4.508,4.508,0,0,0,10.943,9.262Z" transform="translate(0 -0.002)"/>
    </g>
  </g>
</svg>
