<svg xmlns="http://www.w3.org/2000/svg" xmlns:xlink="http://www.w3.org/1999/xlink" viewBox="0 0 15 15">
  <defs>
    <style>
      .cls-1 {
        clip-path: url(#clip-Icon_1_2);
      }

      .cls-2 {
        fill: #b7b7b7;
      }
    </style>
    <clipPath id="clip-Icon_1_2">
      <rect width="15" height="15"/>
    </clipPath>
  </defs>
  <g id="Icon_1_2" data-name="Icon 1 – 2" class="cls-1">
    <g id="old-typical-phone" transform="translate(0 -3.318)">
      <g id="Group_2263" data-name="Group 2263" transform="translate(0 4.542)">
        <path id="Path_2281" data-name="Path 2281" class="cls-2" d="M8.306,7c2.757.027,4.484-.144,4.717,2.911h3.362c0-4.734-4.128-5.372-8.166-5.372S.052,5.18.052,9.914H3.388C3.646,6.8,5.572,6.976,8.306,7Z" transform="translate(-0.035 -4.542)"/>
        <path id="Path_2282" data-name="Path 2282" class="cls-2" d="M1.684,23.776c.819,0,1.5.049,1.652-.756a2.055,2.055,0,0,0,.032-.377H0C0,23.84.754,23.776,1.684,23.776Z" transform="translate(0 -16.882)"/>
        <path id="Path_2283" data-name="Path 2283" class="cls-2" d="M40.813,22.642h-.032a1.8,1.8,0,0,0,.036.377c.16.743.84.7,1.656.7.934,0,1.692.061,1.692-1.074Z" transform="translate(-27.803 -16.882)"/>
        <path id="Path_2284" data-name="Path 2284" class="cls-2" d="M13.9,18.573V18.1c0-.213-.245-.226-.548-.226h-.495c-.3,0-.548.013-.548.226v.728h-3.5V18.1c0-.213-.245-.226-.548-.226h-.5c-.3,0-.548.013-.548.226v.892a35.279,35.279,0,0,0-3.5,4.783v2.85a.478.478,0,0,0,.477.477H16.923a.478.478,0,0,0,.477-.477V23.758a35.91,35.91,0,0,0-3.5-4.769ZM8.635,24.156a.464.464,0,1,1,.464-.464A.464.464,0,0,1,8.635,24.156Zm0-1.591A.464.464,0,1,1,9.1,22.1.464.464,0,0,1,8.635,22.565Zm0-1.591A.464.464,0,1,1,9.1,20.51.464.464,0,0,1,8.635,20.974Zm1.909,3.182a.464.464,0,1,1,.464-.464A.464.464,0,0,1,10.545,24.156Zm0-1.591a.464.464,0,1,1,.464-.464A.464.464,0,0,1,10.545,22.565Zm0-1.591a.464.464,0,1,1,.464-.464A.464.464,0,0,1,10.545,20.974Zm1.909,3.182a.464.464,0,1,1,.464-.464A.464.464,0,0,1,12.454,24.156Zm0-1.591a.464.464,0,1,1,.464-.464A.464.464,0,0,1,12.454,22.565Zm0-1.591a.464.464,0,1,1,.464-.464A.464.464,0,0,1,12.454,20.974Z" transform="translate(-2.533 -13.629)"/>
      </g>
    </g>
  </g>
</svg>
