<svg xmlns="http://www.w3.org/2000/svg" xmlns:xlink="http://www.w3.org/1999/xlink" viewBox="0 0 15 15">
  <defs>
    <style>
      .cls-1 {
        clip-path: url(#clip-Icon_1_1);
      }

      .cls-2 {
        fill: #b7b7b7;
      }
    </style>
    <clipPath id="clip-Icon_1_1">
      <rect width="15" height="15"/>
    </clipPath>
  </defs>
  <g id="Icon_1_1" data-name="Icon 1 – 1" class="cls-1">
    <g id="opened-email-envelope" transform="translate(1 -0.31)">
      <path id="Path_2285" data-name="Path 2285" class="cls-2" d="M6.736,1.31,0,6.339v8H13.47v-8ZM4.872,4.9a1.947,1.947,0,0,1,.815-.814A2.491,2.491,0,0,1,6.87,3.811a2.232,2.232,0,0,1,1,.219,1.569,1.569,0,0,1,.672.624,1.77,1.77,0,0,1,.232.884A1.66,1.66,0,0,1,8.424,6.57a1.36,1.36,0,0,1-1.131.582.493.493,0,0,1-.28-.064A.321.321,0,0,1,6.887,6.9a.84.84,0,0,1-.608.257A.821.821,0,0,1,5.662,6.9a.949.949,0,0,1-.245-.683,1.662,1.662,0,0,1,.3-.961,1.075,1.075,0,0,1,.919-.53.643.643,0,0,1,.589.306l.056-.249h.593L7.53,6.388a1.305,1.305,0,0,0-.032.2.124.124,0,0,0,.025.084.079.079,0,0,0,.06.028.5.5,0,0,0,.279-.13,1.233,1.233,0,0,0,.369-.456,1.335,1.335,0,0,0,.142-.594,1.211,1.211,0,0,0-.4-.922,1.584,1.584,0,0,0-1.114-.37,1.989,1.989,0,0,0-1.029.249,1.577,1.577,0,0,0-.638.7,2.151,2.151,0,0,0-.213.935,1.617,1.617,0,0,0,.239.859,1.391,1.391,0,0,0,.67.567,2.582,2.582,0,0,0,.987.177,2.554,2.554,0,0,0,.92-.149,1.411,1.411,0,0,0,.621-.447h.475a1.629,1.629,0,0,1-.686.714,2.629,2.629,0,0,1-1.295.295A3.011,3.011,0,0,1,5.636,7.87a1.691,1.691,0,0,1-.8-.737,2.211,2.211,0,0,1-.26-1.062A2.4,2.4,0,0,1,4.872,4.9ZM.475,6.5l4.97,3.333L.475,13.677Zm.377,7.435L6.736,9.38l5.882,4.553Zm12.142-.256L8.026,9.831,12.995,6.5v7.179ZM6.978,5.265a.571.571,0,0,1,.118.388,1.561,1.561,0,0,1-.087.488,1.146,1.146,0,0,1-.2.4.574.574,0,0,1-.168.14.474.474,0,0,1-.239.063.36.36,0,0,1-.286-.134A.634.634,0,0,1,6,6.191,1.707,1.707,0,0,1,6.08,5.7a.925.925,0,0,1,.246-.425.519.519,0,0,1,.356-.149A.376.376,0,0,1,6.978,5.265Z"/>
    </g>
  </g>
</svg>
