<svg xmlns="http://www.w3.org/2000/svg" xmlns:xlink="http://www.w3.org/1999/xlink" viewBox="0 0 32 32">
  <defs>
    <style>
      .cls-1 {
        clip-path: url(#clip-Services);
      }

      .cls-2 {
        fill: #fff;
        opacity: 0.5;
      }
    </style>
    <clipPath id="clip-Services">
      <rect width="32" height="32"/>
    </clipPath>
  </defs>
  <g id="Services" class="cls-1">
    <path id="clerk-with-tie" class="cls-2" d="M32.536,11.172c-.467,1.786-1.557,2.179-2.138,2.258a11.775,11.775,0,0,1-1.933,2.915,3.85,3.85,0,0,1-1.216.737,5.362,5.362,0,0,1-3.943,0,3.846,3.846,0,0,1-1.216-.737,11.77,11.77,0,0,1-1.933-2.915c-.581-.079-1.671-.472-2.138-2.258a2.841,2.841,0,0,1,.19-2.314,1.806,1.806,0,0,1,.555-.55c0-.191.009-.429.031-.7a3.282,3.282,0,0,1-.228-3.121,2.781,2.781,0,0,1,2.616-2.024,4.537,4.537,0,0,1,1.4-1.536A5.405,5.405,0,0,1,25.688,0a7.006,7.006,0,0,1,4.146,1.45c2.088,1.538,1.909,4.951,1.858,5.57a9.246,9.246,0,0,1,.1,1.288,1.806,1.806,0,0,1,.555.55A2.842,2.842,0,0,1,32.536,11.172Zm6.106,13.3v4.844a.686.686,0,0,1-.686.686H12.6a.686.686,0,0,1-.686-.686V24.47a4.8,4.8,0,0,1,3.033-4.48l6-2.4a.686.686,0,0,1,.9.4l1.508,4.17.3-.859-.475-1.162a.686.686,0,0,1,.635-.946h2.931a.686.686,0,0,1,.635.946L26.9,21.306l.3.859,1.508-4.17a.686.686,0,0,1,.9-.4l6,2.4A4.8,4.8,0,0,1,38.641,24.47ZM34.988,25a.686.686,0,0,0-.686-.686H29.695a.686.686,0,0,0-.686.686v2.14a.686.686,0,0,0,.686.686H34.3a.686.686,0,0,0,.686-.686Z" transform="translate(-8.911 1)"/>
  </g>
</svg>
