<svg xmlns="http://www.w3.org/2000/svg" xmlns:xlink="http://www.w3.org/1999/xlink" viewBox="0 0 15 15">
  <defs>
    <style>
      .cls-1 {
        clip-path: url(#clip-Icon_1_4);
      }

      .cls-2 {
        fill: #b7b7b7;
      }
    </style>
    <clipPath id="clip-Icon_1_4">
      <rect width="15" height="15"/>
    </clipPath>
  </defs>
  <g id="Icon_1_4" data-name="Icon 1 – 4" class="cls-1">
    <g id="key_1_" data-name="key (1)" transform="translate(1 1)">
      <g id="Group_128" data-name="Group 128" transform="translate(0 0)">
        <path id="Path_35" data-name="Path 35" class="cls-2" d="M12.2,1.269A4.338,4.338,0,0,0,5,5.674L.117,10.562A.394.394,0,0,0,0,10.841v2.232a.394.394,0,0,0,.395.395H2.628a.394.394,0,0,0,.279-.116l.558-.558a.4.4,0,0,0,.113-.324l-.069-.6.831-.078a.394.394,0,0,0,.356-.356l.078-.831.6.07a.388.388,0,0,0,.308-.1.4.4,0,0,0,.132-.295V9.548h.721a.394.394,0,0,0,.279-.116l1.012-1A4.273,4.273,0,0,0,12.2,7.407,4.345,4.345,0,0,0,12.2,1.269Zm-1.116,2.79a1.184,1.184,0,1,1,0-1.674A1.185,1.185,0,0,1,11.084,4.059Z" transform="translate(-0.001 0)"/>
      </g>
    </g>
  </g>
</svg>
