<svg xmlns="http://www.w3.org/2000/svg" xmlns:xlink="http://www.w3.org/1999/xlink" viewBox="0 0 85 85">
  <defs>
    <style>
      .cls-1 {
        clip-path: url(#clip-StoreUsers);
      }

      .cls-2 {
        fill: #fff;
      }
    </style>
    <clipPath id="clip-StoreUsers">
      <rect width="85" height="85"/>
    </clipPath>
  </defs>
  <g id="StoreUsers" class="cls-1">
    <path id="users" class="cls-2" d="M77,60.024,63.7,53.374a3.921,3.921,0,0,1-2.1-3.325V45.325a9.708,9.708,0,0,0,1.05-1.4,35.265,35.265,0,0,0,4.2-8.049A5.607,5.607,0,0,0,70.174,30.8V25.2a5.648,5.648,0,0,0-1.4-3.674V14A12.925,12.925,0,0,0,65.8,4.9C62.823,1.576,58.1,0,51.8,0S40.774,1.576,37.975,4.9a12.408,12.408,0,0,0-2.8,6.649,18.562,18.562,0,0,0-8.4-1.925c-14.525,0-15.4,12.424-15.4,12.6V28.7a5.12,5.12,0,0,0-1.4,3.325v4.9a5.013,5.013,0,0,0,1.749,3.85,21.725,21.725,0,0,0,5.074,8.75v3.85A2.887,2.887,0,0,1,15.221,56L5.945,61.778A11.418,11.418,0,0,0,0,71.75V77H84V71.4A12.424,12.424,0,0,0,77,60.024ZM19.6,71.049V74.2H2.8v-2.45A8.393,8.393,0,0,1,7.175,64.4l9.276-5.775a5.673,5.673,0,0,0,2.975-5.074V48.474l-.525-.349a19.566,19.566,0,0,1-4.9-8.4l-.176-.525-.525-.349a2.01,2.01,0,0,1-1.05-1.925v-4.9a2.42,2.42,0,0,1,.874-1.576L14,30.1V22.575c0-.349.7-9.8,12.6-9.8A14.366,14.366,0,0,1,35,15.048V21.7a5.648,5.648,0,0,0-1.4,3.674v5.6a2.978,2.978,0,0,0,.176,1.224c0,.176.176.349.176.525s.176.525.176.7h0A5.47,5.47,0,0,0,35.7,35.348h0a1.336,1.336,0,0,0,.349.874l.176.349v.176c0,.176.176.349.176.525a1.326,1.326,0,0,0,.349.7c0,.176.176.176.176.349.176.349.176.525.349.874v.349a.17.17,0,0,0,.176.176c.176.349.349.525.349.874v.176a.643.643,0,0,1,.176.525c.176.349.349.525.525.874,0,.176.176.176.176.349a3.825,3.825,0,0,0,.525.875.171.171,0,0,0,.176.176c.349.525.7.875.875,1.224l.176.176a.17.17,0,0,0,.176.176V49.7a3.751,3.751,0,0,1-1.925,3.325l-3.674,2.1h-.7l-.349.525-7.7,4.375A12.276,12.276,0,0,0,19.61,71.051ZM81.2,74.2H22.4V71.049a9.658,9.658,0,0,1,5.074-8.574L39.9,55.649a6.545,6.545,0,0,0,3.325-5.775v-5.6l-.349-.349h0a.611.611,0,0,1-.176-.349h0c0-.176-.176-.176-.176-.349h0c-.176-.349-.525-.7-.7-1.05h0a1.325,1.325,0,0,1-.349-.7h0a15.4,15.4,0,0,1-1.05-1.749h0l-.525-1.05V38.5c0-.176-.176-.349-.176-.525V37.8c0-.176-.176-.349-.176-.525a2.53,2.53,0,0,1-.349-1.224V35.7c-.176-.525-.176-.874-.349-1.4l-.176-.525-.525-.349a2.549,2.549,0,0,1-1.224-2.274v-5.6a3.228,3.228,0,0,1,.874-2.1l.525-.349V13.475h0a9.8,9.8,0,0,1,2.274-6.649C42.867,4.2,46.893,2.8,52.319,2.8s9.449,1.4,11.726,4.026a9.463,9.463,0,0,1,2.274,7v8.926l.525.349a2.9,2.9,0,0,1,.875,2.1v5.6a2.844,2.844,0,0,1-1.925,2.626l-.7.176-.176.7A26.727,26.727,0,0,1,60.9,42.35c-.349.525-.874,1.05-1.224,1.576l-.349.349V50.05A6.347,6.347,0,0,0,63,55.825l13.3,6.649a9.919,9.919,0,0,1,5.426,8.75V74.2Zm0,0" transform="translate(0.5 4)"/>
  </g>
</svg>
