<?xml version="1.0" encoding="utf-8"?>
<!-- Generator: Adobe Illustrator 22.1.0, SVG Export Plug-In . SVG Version: 6.00 Build 0)  -->
<svg version="1.1" id="Layer_1" xmlns="http://www.w3.org/2000/svg" xmlns:xlink="http://www.w3.org/1999/xlink" x="0px" y="0px"
	 viewBox="0 0 22 28" style="enable-background:new 0 0 22 28;" xml:space="preserve">
<style type="text/css">
	.st0{fill:#FFFFFF;}
	.st1{enable-background:new    ;}
</style>
<g id="Group_2" transform="translate(2171 1163)">
	<g id="Group_1">
		<path id="Path_1" class="st0" d="M-2150.3-1153.8l-8.9-8.9c-0.2-0.2-0.5-0.3-0.8-0.3c-0.3,0-0.6,0.1-0.8,0.3l-8.9,8.9
			c-0.4,0.4-0.4,1.1,0,1.5c0,0,0,0,0,0l0.7,0.7c0.4,0.4,1.1,0.4,1.5,0c0,0,0,0,0,0l7.5-7.5l7.5,7.5c0.4,0.4,1.1,0.4,1.5,0
			c0,0,0,0,0,0l0.7-0.7C-2149.9-1152.7-2149.9-1153.3-2150.3-1153.8z"/>
	</g>
</g>
<g class="st1">
	<path class="st0" d="M6.1,18.4H3.9V25H2.4v-6.6H0.2v-1.2h6V18.4z"/>
	<path class="st0" d="M13.7,21.8c0,1-0.3,1.8-0.9,2.4c-0.6,0.6-1.4,0.9-2.4,0.9c-1,0-1.7-0.3-2.3-0.9s-0.9-1.4-0.9-2.4v-1.4
		c0-1,0.3-1.7,0.9-2.4c0.6-0.6,1.4-0.9,2.3-0.9c1,0,1.8,0.3,2.4,0.9c0.6,0.6,0.9,1.4,0.9,2.4V21.8z M12.1,20.4
		c0-0.6-0.2-1.1-0.5-1.5c-0.3-0.4-0.7-0.6-1.3-0.6s-0.9,0.2-1.2,0.6c-0.3,0.4-0.4,0.9-0.4,1.5v1.4c0,0.6,0.1,1.1,0.4,1.5
		c0.3,0.4,0.7,0.6,1.2,0.6c0.5,0,1-0.2,1.3-0.6c0.3-0.4,0.5-0.9,0.5-1.5V20.4z"/>
	<path class="st0" d="M17,22.2V25h-1.6v-7.8h3.1c0.9,0,1.6,0.2,2.1,0.7s0.8,1.1,0.8,1.8c0,0.7-0.3,1.3-0.8,1.8
		c-0.5,0.5-1.2,0.7-2.1,0.7H17z M17,21h1.5c0.4,0,0.8-0.1,1-0.4c0.2-0.2,0.3-0.5,0.3-0.9c0-0.4-0.1-0.7-0.3-0.9s-0.6-0.4-1-0.4H17
		V21z"/>
</g>
</svg>
