<svg xmlns="http://www.w3.org/2000/svg" xmlns:xlink="http://www.w3.org/1999/xlink" viewBox="0 0 140 140"><defs><style>.a{clip-path:url(#b);}.b{fill:#acebfe;opacity:0.5;}.c{fill:#bbdff5;}.d{fill:#6a79a8;}.e{fill:#fff;}.f{fill:#ff9c81;}</style><clipPath id="b"><rect width="140" height="140"/></clipPath></defs><g id="a" class="a"><g transform="translate(-105 -556.672)"><path class="b" d="M30.068,101.86C27.6,101.33-2.075,96.582.114,61.534S5.036,15.952,16.572,12.091,56.138-10.014,78.139,7.342s45.743,32.9,36.316,60.611-10.96,36.938-35.532,35.52S41.8,104.361,30.068,101.86Z" transform="translate(107.602 585.47)"/><g transform="translate(106.046 578.9)"><g transform="translate(2.263 38.933)"><path class="c" d="M113.046,178.977h-46.5a2.4,2.4,0,0,1-1.815-.847L52.122,163.347a2.4,2.4,0,0,0-1.815-.847H13.966a2.361,2.361,0,0,0-2.371,2.444l2.274,70.432a2.376,2.376,0,0,0,2.371,2.3h94.6a2.372,2.372,0,0,0,2.371-2.274l2.226-53.98A2.4,2.4,0,0,0,113.046,178.977Z" transform="translate(-11.086 -162.04)"/><path class="d" d="M109.228,236.767h-94.6a2.845,2.845,0,0,1-2.855-2.782L9.5,163.552a2.883,2.883,0,0,1,.8-2.081,2.854,2.854,0,0,1,2.057-.871H48.692a2.791,2.791,0,0,1,2.178,1.016L63.475,176.4a1.944,1.944,0,0,0,1.452.653h46.527a2.853,2.853,0,0,1,2.855,2.976l-2.2,53.98A2.878,2.878,0,0,1,109.228,236.767Zm-96.854-75.2a1.9,1.9,0,0,0-1.887,1.96l2.274,70.432a1.88,1.88,0,0,0,1.887,1.839h94.6a1.875,1.875,0,0,0,1.887-1.815L113.366,180a1.8,1.8,0,0,0-.532-1.379,1.846,1.846,0,0,0-1.379-.581h-46.5a2.791,2.791,0,0,1-2.178-1.016L50.168,162.245a1.967,1.967,0,0,0-1.452-.677Z" transform="translate(-9.494 -160.6)"/></g><g transform="translate(8.289 44.426)"><path class="e" d="M124.35,238.626H38.82a2.427,2.427,0,0,1-2.42-2.42V187.72a2.427,2.427,0,0,1,2.42-2.42h85.53a2.427,2.427,0,0,1,2.42,2.42v48.487A2.442,2.442,0,0,1,124.35,238.626Z" transform="translate(-35.916 -184.816)"/><path class="d" d="M122.834,237.594H37.3a2.912,2.912,0,0,1-2.9-2.9V186.2a2.912,2.912,0,0,1,2.9-2.9h85.53a2.912,2.912,0,0,1,2.9,2.9v48.487A2.928,2.928,0,0,1,122.834,237.594Zm-85.53-53.3a1.941,1.941,0,0,0-1.936,1.936v48.487a1.941,1.941,0,0,0,1.936,1.936h85.53a1.941,1.941,0,0,0,1.936-1.936V186.2a1.941,1.941,0,0,0-1.936-1.936H37.3Z" transform="translate(-34.4 -183.3)"/></g><g transform="translate(39.595 0.1)"><g transform="translate(8.513 0)"><path class="e" d="M204.448,13.638l-3.46,52.915a2.365,2.365,0,0,0,2.178,2.492l47.665,3.121a2.365,2.365,0,0,0,2.492-2.178l.532-8.251.266-4.549L257.411,6.96a2.365,2.365,0,0,0-2.178-2.492L217.707,2,204.448,13.638Z" transform="translate(-200.499 -1.54)"/><path class="d" d="M249.478,71.186h-.194L201.62,68.064a2.835,2.835,0,0,1-2.637-3l3.46-52.891h0a.414.414,0,0,1,.169-.315L215.871.221A.453.453,0,0,1,216.21.1l37.5,2.444a2.835,2.835,0,0,1,2.637,3l-3.291,50.229-.266,4.549-.532,8.251a2.8,2.8,0,0,1-2.782,2.613Zm-46.092-58.77-3.436,52.721a1.831,1.831,0,0,0,1.742,1.96l47.665,3.121a1.891,1.891,0,0,0,1.355-.46,1.819,1.819,0,0,0,.629-1.282l.532-8.251.266-4.549L255.43,5.423a1.83,1.83,0,0,0-1.742-1.96l-37.333-2.42Zm-.46-.218Z" transform="translate(-198.977 -0.1)"/></g><g transform="translate(11.974 0.008)"><path class="d" d="M223.957,13.407h-.194l-10.017-.653a.527.527,0,0,1-.436-.339.449.449,0,0,1,.145-.508L226.763.245A.53.53,0,0,1,227.3.172a.476.476,0,0,1,.266.46l-.653,10.017A2.978,2.978,0,0,1,223.957,13.407Zm-9-1.573,8.855.581a1.977,1.977,0,0,0,2.1-1.839l.581-8.855Z" transform="translate(-213.282 -0.131)"/></g><g transform="translate(14.567 33.412)"><g transform="translate(10.451)"><path class="c" d="M289.891,141.075h-.048l-21.969-1.428a.715.715,0,0,1-.677-.774.729.729,0,0,1,.774-.677l21.969,1.428a.727.727,0,0,1-.048,1.452Z" transform="translate(-267.194 -138.194)"/></g><g transform="translate(0.29 10.623)"><path class="d" d="M267.034,185.778h-.024l-41.35-2.71a.485.485,0,0,1,.048-.968l41.35,2.71a.5.5,0,0,1,.46.508A.5.5,0,0,1,267.034,185.778Z" transform="translate(-225.2 -182.1)"/></g><g transform="translate(0.581 6.22)"><path class="d" d="M268.234,167.578h-.024l-41.35-2.71a.485.485,0,1,1,.048-.968l41.35,2.71a.5.5,0,0,1,.46.508A.5.5,0,0,1,268.234,167.578Z" transform="translate(-226.4 -163.9)"/></g><g transform="translate(0 15.051)"><path class="d" d="M245.316,202.723h-.024l-20.832-1.355a.485.485,0,0,1,.048-.968l20.832,1.355a.5.5,0,0,1,.46.508A.5.5,0,0,1,245.316,202.723Z" transform="translate(-224 -200.4)"/></g></g><g transform="translate(29.338 22.634)"><path class="d" d="M294.327,97.991c-.29,0-.581,0-.871-.024a13,13,0,0,1-8.275-3.508.479.479,0,0,1,.7-.653,12.276,12.276,0,0,0,7.622,3.218,11.856,11.856,0,0,0,8.033-2.444.48.48,0,0,1,.629.726A12.584,12.584,0,0,1,294.327,97.991Z" transform="translate(-285.048 -93.648)"/></g><path class="d" d="M275.385,74.972a1.2,1.2,0,1,0-1.282,1.113A1.165,1.165,0,0,0,275.385,74.972Z" transform="translate(-246.567 -55.882)"/><path class="d" d="M361.885,80.672a1.2,1.2,0,1,0-1.282,1.113A1.211,1.211,0,0,0,361.885,80.672Z" transform="translate(-312.138 -60.203)"/><g transform="translate(63.391 28.623)"><path class="d" d="M435.615,128.126h-.1c-8.444-1.524-9.8-8.057-9.727-9.267a.485.485,0,1,1,.968.048c0,.073.46,6.726,8.928,8.251a.489.489,0,0,1-.073.968Z" transform="translate(-425.789 -118.4)"/></g><g transform="translate(0 16.741)"><path class="d" d="M175.335,79h-.048c-1.258-.121-7.259-2.1-11.42-8.976a.477.477,0,1,1,.823-.484c3.968,6.533,9.726,8.42,10.694,8.517a.488.488,0,0,1,.436.532A.458.458,0,0,1,175.335,79Z" transform="translate(-163.792 -69.292)"/></g><g transform="translate(31.988 68.4)"><path class="d" d="M296.484,289.357h-.024a.5.5,0,0,1-.46-.508l.363-5.589a.485.485,0,1,1,.968.048l-.363,5.589A.465.465,0,0,1,296.484,289.357Z" transform="translate(-296 -282.8)"/><g transform="translate(4.355 0.29)"><path class="d" d="M314.484,290.557h-.024a.5.5,0,0,1-.46-.508l.363-5.589a.485.485,0,1,1,.968.048l-.363,5.589A.5.5,0,0,1,314.484,290.557Z" transform="translate(-314 -284)"/></g></g></g><g transform="translate(8.289 47.982)"><path class="e" d="M124.35,253.326H38.82a2.427,2.427,0,0,1-2.42-2.42V202.42A2.427,2.427,0,0,1,38.82,200h85.53a2.427,2.427,0,0,1,2.42,2.42v48.487A2.442,2.442,0,0,1,124.35,253.326Z" transform="translate(-35.916 -199.516)"/><path class="d" d="M122.834,252.294H37.3a2.912,2.912,0,0,1-2.9-2.9V200.9a2.912,2.912,0,0,1,2.9-2.9h85.53a2.912,2.912,0,0,1,2.9,2.9v48.487A2.928,2.928,0,0,1,122.834,252.294ZM37.3,198.968a1.941,1.941,0,0,0-1.936,1.936v48.487a1.941,1.941,0,0,0,1.936,1.936h85.53a1.941,1.941,0,0,0,1.936-1.936V200.9a1.941,1.941,0,0,0-1.936-1.936Z" transform="translate(-34.4 -198)"/></g><g transform="translate(-0.046 51.902)"><path class="c" d="M103.649,278.354H8.8A2.343,2.343,0,0,1,6.481,276.2l-4.5-57.585A2.341,2.341,0,0,1,4.3,216.1H108.125a2.327,2.327,0,0,1,2.323,2.516l-4.476,57.56A2.312,2.312,0,0,1,103.649,278.354Z" transform="translate(-1.486 -215.64)"/><path class="d" d="M102.118,277.4H7.272a2.805,2.805,0,0,1-2.807-2.613l-4.5-57.561A2.818,2.818,0,0,1,2.8,214.2H106.618a2.932,2.932,0,0,1,2.081.9,2.89,2.89,0,0,1,.75,2.129l-4.476,57.56A2.9,2.9,0,0,1,102.118,277.4ZM2.8,215.144a1.778,1.778,0,0,0-1.355.6,1.766,1.766,0,0,0-.484,1.4l4.476,57.56a1.865,1.865,0,0,0,1.839,1.718h94.87a1.848,1.848,0,0,0,1.839-1.718l4.476-57.56a1.766,1.766,0,0,0-.484-1.4,1.855,1.855,0,0,0-1.355-.6Z" transform="translate(0.046 -214.2)"/></g><g transform="translate(33.766 79.941)"><ellipse class="f" cx="2.516" cy="3.339" rx="2.516" ry="3.339" transform="translate(0 6.27)"/><ellipse class="f" cx="2.516" cy="3.339" rx="2.516" ry="3.339" transform="translate(36.825 6.27)"/><g transform="translate(10.789)"><path class="d" d="M189.617,333.6h-.024a.485.485,0,0,1-.46-.508,1.938,1.938,0,1,0-3.871-.194.485.485,0,1,1-.968-.048,2.907,2.907,0,1,1,5.807.29A.465.465,0,0,1,189.617,333.6Z" transform="translate(-184.292 -330.087)"/></g><g transform="translate(26.202 0.264)"><path class="d" d="M253.317,334.692h-.024a.485.485,0,0,1-.46-.508,1.908,1.908,0,0,0-.508-1.4,1.878,1.878,0,0,0-1.331-.629,1.944,1.944,0,0,0-2.032,1.839.485.485,0,0,1-.968-.048,2.9,2.9,0,0,1,5.057-1.79,2.936,2.936,0,0,1,.75,2.1A.461.461,0,0,1,253.317,334.692Z" transform="translate(-247.992 -331.178)"/></g><g transform="translate(8.444 8.713)"><path class="d" d="M187.69,371.834a19.056,19.056,0,0,1-12.944-4.912.479.479,0,1,1,.677-.677,18.434,18.434,0,0,0,12.267,4.621,18.767,18.767,0,0,0,12.194-4.234.479.479,0,1,1,.653.7A19.347,19.347,0,0,1,187.69,371.834Z" transform="translate(-174.6 -366.1)"/></g></g></g><g transform="translate(195 558.804)"><g transform="translate(19.339 -0.132)"><path class="e" d="M167.129,24.41l-.012-.111-.963-9.188-5.866.976A.184.184,0,0,1,160.1,16a.268.268,0,0,1-.074-.086c-.037-.062-.148-.222-.025-.346l5.816-5.693-7.212-7.558a.2.2,0,0,1-.025-.247A.194.194,0,0,1,158.818,2l28.082,10.5a.214.214,0,0,1,.123.247.248.248,0,0,1-.049.1.2.2,0,0,1-.1.123L167.4,24.46l-.086.049Zm-1.272-14.4L160.2,15.544c-.012.012,0,.025.012.025l5.508-2.754c.074-.012.173-.049.247-.062l19.055-.655L166.03,9.95A.3.3,0,0,0,165.857,10.011Zm1.272,14.4-.012-.111-.963-9.188-5.866.976A.184.184,0,0,1,160.1,16a.268.268,0,0,1-.074-.086c-.037-.062-.148-.222-.025-.346l5.816-5.693-7.212-7.558a.2.2,0,0,1-.025-.247A.194.194,0,0,1,158.818,2l28.082,10.5a.214.214,0,0,1,.123.247.248.248,0,0,1-.049.1.2.2,0,0,1-.1.123L167.4,24.46l-.086.049Z" transform="translate(-158.312 -1.721)"/><path class="e" d="M167.129,24.41l-.012-.111-.963-9.188-5.866.976A.184.184,0,0,1,160.1,16a.268.268,0,0,1-.074-.086c-.037-.062-.148-.222-.025-.346l5.816-5.693-7.212-7.558a.2.2,0,0,1-.025-.247A.194.194,0,0,1,158.818,2l28.082,10.5a.214.214,0,0,1,.123.247.248.248,0,0,1-.049.1.2.2,0,0,1-.1.123L167.4,24.46l-.086.049Zm-1.272-14.4L160.2,15.544c-.012.012,0,.025.012.025l5.508-2.754c.074-.012.173-.049.247-.062h21.055L166.03,9.962A.221.221,0,0,0,165.857,10.011Zm1.272,14.4-.012-.111-.963-9.188-5.866.976A.184.184,0,0,1,160.1,16a.268.268,0,0,1-.074-.086c-.037-.062-.148-.222-.025-.346l5.816-5.693-7.212-7.558a.2.2,0,0,1-.025-.247A.194.194,0,0,1,158.818,2l28.082,10.5a.214.214,0,0,1,.123.247.248.248,0,0,1-.049.1.2.2,0,0,1-.1.123L167.4,24.46l-.086.049Z" transform="translate(-158.312 -1.721)"/><path class="d" d="M165.615,22.928l-.432-.21-.037-.235-.939-8.928-5.606.926a.427.427,0,0,1-.4-.148.8.8,0,0,1-.1-.111.621.621,0,0,1-.136-.358.452.452,0,0,1,.136-.309l5.644-5.52L156.723.626A.429.429,0,0,1,156.6.317a.448.448,0,0,1,.605-.42l28.082,10.5a.454.454,0,0,1,.284.42.463.463,0,0,1-.012.123.383.383,0,0,1-.074.161.436.436,0,0,1-.185.21L165.825,22.8Zm-.963-9.941.988,9.373,19.005-11.213H164.293l-.185.049-5.483,2.741a.229.229,0,0,1-.086.025l.049.037Zm-.346-4.631-4.569,4.47,4.186-2.1.3-.074h17.35Zm-.012-.506h.049l19.7,2.618L157.217.453l7.027,7.409C164.256,7.85,164.269,7.85,164.293,7.85Z" transform="translate(-156.6 0.132)"/></g><g transform="translate(0 8.652)"><path class="f" d="M.617,83.967A.617.617,0,0,1,0,83.361v-.21a7.947,7.947,0,0,1,.21-1.778.614.614,0,0,1,.741-.457.6.6,0,0,1,.457.741,6.342,6.342,0,0,0-.173,1.507v.173a.6.6,0,0,1-.605.63Zm.815-3.581a.723.723,0,0,1-.272-.062A.618.618,0,0,1,.877,79.5,10.929,10.929,0,0,1,1.9,77.817a.617.617,0,0,1,.988.741,9.322,9.322,0,0,0-.9,1.482A.6.6,0,0,1,1.432,80.385Zm2.186-2.976a.618.618,0,0,1-.432-1.062A14.246,14.246,0,0,1,4.656,75.1a.617.617,0,0,1,.741.988A12.2,12.2,0,0,0,4.05,77.236.586.586,0,0,1,3.618,77.409ZM6.582,75.2a.617.617,0,0,1-.309-1.148,18.341,18.341,0,0,1,1.7-.864.616.616,0,0,1,.506,1.124c-.556.247-1.087.519-1.593.8A.587.587,0,0,1,6.582,75.2Zm3.371-1.507a.616.616,0,0,1-.2-1.2c.593-.2,1.2-.383,1.828-.531a.617.617,0,1,1,.3,1.2c-.593.148-1.173.321-1.729.506A.96.96,0,0,1,9.953,73.692Zm3.594-.9a.61.61,0,0,1-.605-.519.625.625,0,0,1,.506-.716c.593-.1,1.223-.185,1.865-.259a.613.613,0,0,1,.679.543.62.62,0,0,1-.543.679c-.617.074-1.223.161-1.8.247A.133.133,0,0,1,13.547,72.791Zm3.68-.408a.62.62,0,0,1-.617-.58.612.612,0,0,1,.58-.654c.58-.037,1.2-.062,1.865-.086A.618.618,0,0,1,19.1,72.3c-.655.025-1.26.049-1.828.086Zm3.7-.136a.617.617,0,0,1-.617-.605.628.628,0,0,1,.605-.63c.605-.012,1.2-.012,1.8-.012h.062a.619.619,0,0,1,.617.617.611.611,0,0,1-.617.617h-.062c-.593,0-1.186.012-1.791.012Z" transform="translate(0 -71)"/></g></g></g></g></svg>