<svg xmlns="http://www.w3.org/2000/svg" viewBox="0 0 99.605 51.43">
  <defs>
    <style>
      .cls-1 {
        fill: #fff;
      }

      .cls-2 {
        fill: #e8e8e8;
      }

      .cls-3 {
        fill: #f2f2f2;
      }

      .cls-4 {
        fill: #84dbff;
      }

      .cls-5 {
        fill: #334a5e;
      }

      .cls-6 {
        fill: #40596b;
      }

      .cls-7 {
        fill: #e9e9e0;
      }

      .cls-8 {
        fill: #659c35;
      }

      .cls-9 {
        fill: #d9d7ca;
      }

      .cls-10 {
        fill: #f3d55b;
      }

      .cls-11 {
        fill: #88c057;
      }

      .cls-12 {
        fill: #26b99a;
      }

      .cls-13 {
        fill: #14a085;
      }
    </style>
  </defs>
  <g id="images" transform="translate(-0.057)">
    <path id="Path_797" data-name="Path 797" class="cls-1" d="M152.58,91.2l-1.28-3.26,18.75-7.36L180.26,85l9.3,24.57s3.67,6.65-2.1,7.22S166,125.43,166,125.43s-2.27-1-5.15-8.32S152.58,91.2,152.58,91.2Z" transform="translate(-150.57 -74)"/>
    <path id="Path_798" data-name="Path 798" class="cls-2" d="M180.62,85.19h-.06l-10-4.34h-.05a.05.05,0,0,1-.06,0,.66.66,0,0,0-.4.08l-17.73,7a2.71,2.71,0,0,0-1.49,1.41h0a2.82,2.82,0,0,0,0,2.1l12.58,32a2.71,2.71,0,0,0,1.46,1.51,2.8,2.8,0,0,0,2.11,0l22.91-9a2.76,2.76,0,0,0,1.52-1.46,2.9,2.9,0,0,0,0-2.11L180.84,85.54A1.31,1.31,0,0,0,180.62,85.19Zm-8.81-2,5.92,2.59L174.61,87a1.12,1.12,0,0,1-.93,0,1.31,1.31,0,0,1-.65-.66l-1.22-3.13ZM189.75,113a1.047,1.047,0,0,1-.55,1.36l-22.89,9a1.16,1.16,0,0,1-.78,0,1,1,0,0,1-.53-.58l-12.61-32.1a1,1,0,0,1,0-.79v-.06a1.16,1.16,0,0,1,.54-.51l16.86-6.63,1.67,4.26a2.92,2.92,0,0,0,1.59,1.63,3,3,0,0,0,2.27,0l4.18-1.64,10.23,26Z" transform="translate(-150.57 -74)"/>
    <path id="Path_799" data-name="Path 799" class="cls-1" d="M227.39,84l1.18-3L246,87.79l4.15,9.45L241,119.8s-1.67,6.83-6,3.59-20-7.62-20-7.62-.92-2.1,1.73-8.9S227.39,84,227.39,84Z" transform="translate(-150.57 -74)"/>
    <path id="Path_800" data-name="Path 800" class="cls-2" d="M250.23,97.58h0l-4-9.21h0v-.05a.59.59,0,0,0-.32-.2l-16.44-6.41a2.45,2.45,0,0,0-1.9,0h0a2.62,2.62,0,0,0-1.36,1.4l-11.58,29.7a2.5,2.5,0,0,0,.05,1.94,2.59,2.59,0,0,0,1.4,1.36l21.25,8.28a2.57,2.57,0,0,0,1.95,0,2.68,2.68,0,0,0,1.35-1.4L250.17,98a1.05,1.05,0,0,0,.06-.42Zm-4.75-6.88,2.41,5.48L245,95.05a1,1,0,0,1-.61-.6,1.16,1.16,0,0,1,0-.86l1.13-2.89ZM239,122.21a.93.93,0,0,1-.53.52.89.89,0,0,1-.73,0l-21.22-8.27A1.1,1.1,0,0,1,216,114a.86.86,0,0,1,0-.72l11.61-29.77a1,1,0,0,1,.52-.52h.05a1.09,1.09,0,0,1,.69,0l15.63,6.1L242.93,93a2.75,2.75,0,0,0,1.59,3.55l3.88,1.52Z" transform="translate(-150.57 -74)"/>
    <path id="Path_801" data-name="Path 801" class="cls-1" d="M187,78V74h23l9,9-.38,30s1.13,8.6-5.25,6.8S187,120,187,120s-2-2-2-11S187,78,187,78Z" transform="translate(-150.57 -74)"/>
    <path id="Path_802" data-name="Path 802" class="cls-2" d="M219.31,83.32h-.05l-8.77-8.77h-.1a.78.78,0,0,0-.46-.09H188.14a3.08,3.08,0,0,0-2.17.87l-.05.05A3.22,3.22,0,0,0,185,77.6v39.29a3.17,3.17,0,0,0,.92,2.22,3.26,3.26,0,0,0,2.22.92h28.12a3.17,3.17,0,0,0,2.22-.92,3.26,3.26,0,0,0,.92-2.22V83.78a1.57,1.57,0,0,0-.09-.46Zm-8.54-5.77L216,82.77h-3.83a1.25,1.25,0,0,1-1-.42,1.44,1.44,0,0,1-.41-1v-3.8Zm6.64,39.11a1.15,1.15,0,0,1-.36.83,1.18,1.18,0,0,1-.84.37H188.14a1.35,1.35,0,0,1-.83-.32,1.11,1.11,0,0,1-.32-.83V77.32a1.15,1.15,0,0,1,.36-.83h.05a1.34,1.34,0,0,1,.79-.32h20.68v5.22a3.35,3.35,0,0,0,1,2.4,3.43,3.43,0,0,0,2.4,1h5.12v32Z" transform="translate(-150.57 -74)"/>
    <path id="Path_803" data-name="Path 803" class="cls-3" d="M209.37,90H195.63a.63.63,0,0,0-.63.63v13.74a.63.63,0,0,0,.63.63h13.74a.63.63,0,0,0,.63-.63V90.63a.63.63,0,0,0-.63-.63Z" transform="translate(-150.57 -74)"/>
    <rect id="Rectangle_1061" data-name="Rectangle 1061" class="cls-4" width="12.81" height="10.34" transform="translate(45.53 17.09)"/>
    <path id="Path_804" data-name="Path 804" class="cls-5" d="M202.81,101.44h-6.72V98.81a6.44,6.44,0,0,1,1.72-.22,5.89,5.89,0,0,1,2.13.38,2.24,2.24,0,0,1,.5.22,4.62,4.62,0,0,1,2.37,2.25Z" transform="translate(-150.57 -74)"/>
    <path id="Path_805" data-name="Path 805" class="cls-6" d="M208.91,98.12v3.32h-10.1a4.86,4.86,0,0,1,1.66-2.28,8.15,8.15,0,0,1,5.16-1.66A8.78,8.78,0,0,1,208.91,98.12Z" transform="translate(-150.57 -74)"/>
    <circle id="Ellipse_27" data-name="Ellipse 27" class="cls-1" cx="1.28" cy="1.28" r="1.28" transform="translate(46.81 18.38)"/>
    <path id="Path_806" data-name="Path 806" class="cls-1" d="M208,93a.891.891,0,0,0,0-.28.94.94,0,0,0-1.75-.47.63.63,0,0,0-.34-.06.85.85,0,0,0-.85.72.55.55,0,0,0,.13,1.09h2.47a.56.56,0,0,0,.56-.56A.52.52,0,0,0,208,93Z" transform="translate(-150.57 -74)"/>
    <path id="Path_807" data-name="Path 807" class="cls-7" d="M237.94,97.3l-7.24-3.13c-.2-.08-.43,0-.57.33l-5.72,13.23a.43.43,0,0,0,.26.41l10,4.32a.41.41,0,0,0,.47-.1l4.52-10.48c.08-.17.08-.24.06-.29l-1.65-4.16a.24.24,0,0,0-.13-.13Z" transform="translate(-150.57 -74)"/>
    <path id="Path_808" data-name="Path 808" class="cls-8" d="M234.67,112.46l-10-4.32a.4.4,0,0,1-.21-.52l1.68-3.88,10.72,4.63-1.67,3.88A.4.4,0,0,1,234.67,112.46Z" transform="translate(-150.57 -74)"/>
    <path id="Path_809" data-name="Path 809" class="cls-9" d="M87.49,23.39l-1.28,2.96,2.96,1.27Z"/>
    <path id="Path_810" data-name="Path 810" class="cls-1" d="M227.34,108.41l-.41-.18,1.09-2.51.72.31a1.169,1.169,0,0,1,.3.19.9.9,0,0,1,.21.27.83.83,0,0,1,.1.34.65.65,0,0,1-.07.35.81.81,0,0,1-.21.32.85.85,0,0,1-.29.19,1,1,0,0,1-.35,0,1.12,1.12,0,0,1-.39-.1l-.3-.13-.4.91Zm1-2.21-.43,1,.37.16a.42.42,0,0,0,.16,0,.34.34,0,0,0,.17,0,.55.55,0,0,0,.17-.11,1.09,1.09,0,0,0,.15-.25.57.57,0,0,0,0-.14.6.6,0,0,0,0-.19.54.54,0,0,0-.1-.18.45.45,0,0,0-.23-.16l-.31-.14Z" transform="translate(-150.57 -74)"/>
    <path id="Path_811" data-name="Path 811" class="cls-1" d="M231.9,107.39l-1.08,2.52-.42-.18-.24-2.16-.74,1.73-.42-.18,1.09-2.51.41.18.24,2.16.75-1.74Z" transform="translate(-150.57 -74)"/>
    <path id="Path_812" data-name="Path 812" class="cls-1" d="M233.83,109.67l-.42,1a.59.59,0,0,1-.24.09h-.5l-.23-.08a1.34,1.34,0,0,1-.38-.26,1.09,1.09,0,0,1-.23-.39,1.33,1.33,0,0,1-.05-.5,1.84,1.84,0,0,1,.17-.59,1.64,1.64,0,0,1,.32-.52,1.24,1.24,0,0,1,.39-.31,1.13,1.13,0,0,1,.44-.1,1.219,1.219,0,0,1,.8.33,1.13,1.13,0,0,1,.23.34l-.39.13a.539.539,0,0,0-.13-.22.56.56,0,0,0-.2-.14.58.58,0,0,0-.26-.06.54.54,0,0,0-.27.07.87.87,0,0,0-.27.24,1.6,1.6,0,0,0-.25.42,2.121,2.121,0,0,0-.14.46.9.9,0,0,0,0,.37.57.57,0,0,0,.12.26.54.54,0,0,0,.21.16h.48l.27-.62-.43-.19.12-.28.83.36Z" transform="translate(-150.57 -74)"/>
    <circle id="Ellipse_28" data-name="Ellipse 28" class="cls-10" cx="1.24" cy="1.24" r="1.24" transform="translate(80.08 23.71)"/>
    <path id="Path_813" data-name="Path 813" class="cls-11" d="M75.57,29.74l2.74,1.19,7.99,3.44,1.18-2.74-1.47-3.45-3.86,1.74-.77-1.96Z"/>
    <path id="Path_814" data-name="Path 814" class="cls-7" d="M170.42,93.55l-8,2.93c-.22.09-.34.33-.21.68l5.36,14.65a.46.46,0,0,0,.51.13l11.05-4a.45.45,0,0,0,.31-.43l-4.25-11.59c-.07-.19-.12-.25-.18-.27l-4.39-2A.25.25,0,0,0,170.42,93.55Z" transform="translate(-150.57 -74)"/>
    <path id="Path_815" data-name="Path 815" class="cls-9" d="M20.01,19.54l1.19,3.27,3.27-1.2Z"/>
    <circle id="Ellipse_29" data-name="Ellipse 29" class="cls-10" cx="1.34" cy="1.34" r="1.34" transform="translate(14.99 24.02)"/>
    <path id="Path_816" data-name="Path 816" class="cls-12" d="M15.38,33.39l3.03-1.11,8.83-3.23-1.11-3.04L22.41,24.4l-1.73,4.24-2.07-.96Z"/>
    <path id="Path_817" data-name="Path 817" class="cls-13" d="M179.12,107.89l-11.05,4a.45.45,0,0,1-.56-.26l-1.57-4.29L177.81,103l1.57,4.29a.43.43,0,0,1-.26.6Z" transform="translate(-150.57 -74)"/>
    <path id="Path_818" data-name="Path 818" class="cls-1" d="M170.43,106.89l.79,2.17a.65.65,0,0,1,.05.35.57.57,0,0,1-.11.29.83.83,0,0,1-.24.21,1.479,1.479,0,0,1-.31.15l-.2.06a1.9,1.9,0,0,1-.25,0h-.25a.8.8,0,0,1-.23,0l.08-.38h.67a.64.64,0,0,0,.29-.19.33.33,0,0,0,0-.31l-.78-2.13Z" transform="translate(-150.57 -74)"/>
    <path id="Path_819" data-name="Path 819" class="cls-1" d="M172.6,109.32l-.45.16-1-2.78.8-.29a1.16,1.16,0,0,1,.37-.07.92.92,0,0,1,.37,0,.94.94,0,0,1,.32.19.83.83,0,0,1,.22.33,1,1,0,0,1,.07.41,1.06,1.06,0,0,1-.09.37,1.18,1.18,0,0,1-.62.5l-.34.12.37,1Zm-.89-2.44.4,1.1.41-.15a.51.51,0,0,0,.16-.09.42.42,0,0,0,.11-.15.48.48,0,0,0,.05-.22.79.79,0,0,0-.07-.3.611.611,0,0,0-.07-.14.5.5,0,0,0-.14-.15.48.48,0,0,0-.21-.07.56.56,0,0,0-.3.05Z" transform="translate(-150.57 -74)"/>
    <path id="Path_820" data-name="Path 820" class="cls-1" d="M175.93,106.47l.4,1.08a1.191,1.191,0,0,1-.13.25,1.7,1.7,0,0,1-.19.19,1.25,1.25,0,0,1-.22.16l-.24.11a1.44,1.44,0,0,1-.49.08,1.11,1.11,0,0,1-.47-.14,1.47,1.47,0,0,1-.41-.35,2.19,2.19,0,0,1-.31-.59,2.06,2.06,0,0,1-.14-.65,1.3,1.3,0,0,1,.35-.94,1.24,1.24,0,0,1,.43-.26,1.42,1.42,0,0,1,.45-.08,1.28,1.28,0,0,1,.43.1l-.21.4a.72.72,0,0,0-.27-.09.78.78,0,0,0-.26,0,1,1,0,0,0-.24.15.61.61,0,0,0-.16.27.89.89,0,0,0,0,.38,2.19,2.19,0,0,0,.36,1,.91.91,0,0,0,.27.28.64.64,0,0,0,.29.12.65.65,0,0,0,.28,0l.11-.05.14-.07.12-.08a.3.3,0,0,0,.07-.1l-.25-.69-.47.18-.12-.31.92-.34Z" transform="translate(-150.57 -74)"/>
  </g>
</svg>
