<svg xmlns="http://www.w3.org/2000/svg" viewBox="0 0 30.545 28">
  <defs>
    <style>
      .cls-1 {
        fill: #fff;
      }
    </style>
  </defs>
  <path id="Path_409" data-name="Path 409" class="cls-1" d="M28,21.827l-4.836-2.418A1.426,1.426,0,0,1,22.4,18.2V16.482a3.53,3.53,0,0,0,.382-.509,12.824,12.824,0,0,0,1.527-2.927A2.039,2.039,0,0,0,25.518,11.2V9.164a2.054,2.054,0,0,0-.509-1.336V5.091a4.7,4.7,0,0,0-1.082-3.309C22.845.573,21.127,0,18.836,0s-4.009.573-5.027,1.782A4.512,4.512,0,0,0,12.791,4.2a6.75,6.75,0,0,0-3.055-.7c-5.282,0-5.6,4.518-5.6,4.582v2.355a1.862,1.862,0,0,0-.509,1.209v1.782a1.823,1.823,0,0,0,.636,1.4,7.9,7.9,0,0,0,1.845,3.182v1.4a1.05,1.05,0,0,1-.573.955l-3.373,2.1A4.152,4.152,0,0,0,0,26.091V28H30.545V25.964A4.518,4.518,0,0,0,28,21.827ZM7.127,25.836v1.145H1.018v-.891a3.052,3.052,0,0,1,1.591-2.673l3.373-2.1a2.063,2.063,0,0,0,1.082-1.845V17.627L6.873,17.5a7.115,7.115,0,0,1-1.782-3.055l-.064-.191-.191-.127a.731.731,0,0,1-.382-.7V11.645a.88.88,0,0,1,.318-.573l.318-.127V8.209c0-.127.255-3.564,4.582-3.564a5.224,5.224,0,0,1,3.055.827V7.891a2.054,2.054,0,0,0-.509,1.336v2.036a1.083,1.083,0,0,0,.064.445c0,.064.064.127.064.191s.064.191.064.255h0a1.989,1.989,0,0,0,.573.7h0a.486.486,0,0,0,.127.318l.064.127v.064c0,.064.064.127.064.191a.482.482,0,0,0,.127.255c0,.064.064.064.064.127.064.127.064.191.127.318v.127a.062.062,0,0,0,.064.064c.064.127.127.191.127.318v.064a.234.234,0,0,1,.064.191c.064.127.127.191.191.318,0,.064.064.064.064.127a1.391,1.391,0,0,0,.191.318.062.062,0,0,0,.064.064c.127.191.255.318.318.445l.064.064a.062.062,0,0,0,.064.064v1.655a1.364,1.364,0,0,1-.7,1.209l-1.336.764h-.255l-.127.191-2.8,1.591a4.464,4.464,0,0,0-2.418,4.009Zm22.4,1.145H8.145V25.836a3.512,3.512,0,0,1,1.845-3.118l4.518-2.482a2.38,2.38,0,0,0,1.209-2.1V16.1l-.127-.127h0a.222.222,0,0,1-.064-.127h0c0-.064-.064-.064-.064-.127h0c-.064-.127-.191-.255-.255-.382h0a.482.482,0,0,1-.127-.255h0a5.6,5.6,0,0,1-.382-.636h0l-.191-.382V14c0-.064-.064-.127-.064-.191v-.064c0-.064-.064-.127-.064-.191a.92.92,0,0,1-.127-.445v-.127c-.064-.191-.064-.318-.127-.509l-.064-.191-.191-.127a.927.927,0,0,1-.445-.827V9.291a1.174,1.174,0,0,1,.318-.764l.191-.127V4.9h0a3.564,3.564,0,0,1,.827-2.418c.827-.955,2.291-1.464,4.264-1.464s3.436.509,4.264,1.464a3.441,3.441,0,0,1,.827,2.545V8.273l.191.127a1.054,1.054,0,0,1,.318.764V11.2a1.034,1.034,0,0,1-.7.955l-.255.064-.064.255A9.719,9.719,0,0,1,22.145,15.4c-.127.191-.318.382-.445.573l-.127.127v2.1a2.308,2.308,0,0,0,1.336,2.1l4.836,2.418A3.607,3.607,0,0,1,29.718,25.9v1.082Zm0,0"/>
</svg>
