<svg xmlns="http://www.w3.org/2000/svg" xmlns:xlink="http://www.w3.org/1999/xlink" width="25" height="25" viewBox="0 0 25 25"><defs><filter id="a" x="1.128" y="2.203" width="23.696" height="21.815" filterUnits="userSpaceOnUse"><feOffset dy="1" input="SourceAlpha"/><feGaussianBlur stdDeviation="0.5" result="b"/><feFlood flood-opacity="0.361"/><feComposite operator="in" in2="b"/><feComposite in="SourceGraphic"/></filter><clipPath id="d"><rect width="25" height="25"/></clipPath></defs><g id="c" clip-path="url(#d)"><g transform="translate(774.441 2322.125)"><g transform="matrix(1, 0, 0, 1, -774.44, -2322.12)" filter="url(#a)"><path d="M-771.812-2319.422l20.7,0-8.786,11.379.159,5.265-3.239,2.169-.123-7.564-1.8-2.091" transform="translate(774.44 2322.12)" fill="#0f52bd"/></g><path d="M240.449,81.417H241a.366.366,0,0,0,0-.733h-.547a.366.366,0,0,0,0,.733Z" transform="translate(-997.899 -2396.922)" fill="#fcfcfc"/><path d="M21.9,17.212a.952.952,0,0,0-.86-.528H.961a1,1,0,0,0-.86.528A.96.96,0,0,0,.2,18.22L8.634,28.878v6.937a.943.943,0,0,0,.5.84.985.985,0,0,0,.454.12.927.927,0,0,0,.55-.168l2.653-1.848a1.469,1.469,0,0,0,.6-1.176V28.854L21.8,18.22A.96.96,0,0,0,21.9,17.212ZM12.53,28.4a.516.516,0,0,0-.1.288v4.873a.514.514,0,0,1-.191.408L9.59,35.815V28.686A.437.437,0,0,0,9.4,28.3L4,21.485h8.676a.48.48,0,0,0,0-.96H3.256L.961,17.644H21.039Z" transform="translate(-772.441 -2336.809)" fill="#fff"/></g></g></svg>