<svg xmlns="http://www.w3.org/2000/svg" xmlns:xlink="http://www.w3.org/1999/xlink" width="25" height="25" viewBox="0 0 25 25"><defs><clipPath id="b"><rect width="25" height="25"/></clipPath></defs><g id="a" clip-path="url(#b)"><g transform="translate(1.5 1.5)"><path d="M21.484,19l-5.28-5.28a1.742,1.742,0,0,0-1.054-.5,8.387,8.387,0,1,0-1.932,1.932,1.739,1.739,0,0,0,.5,1.054L19,21.484A1.76,1.76,0,1,0,21.484,19ZM8.36,14.96a6.6,6.6,0,1,1,6.6-6.6A6.607,6.607,0,0,1,8.36,14.96Z" fill="#fff"/></g><g transform="translate(0.7 -0.187)"><path d="M165.923,356.3h7.359a.5.5,0,1,1,0,.995h-7.359a.5.5,0,0,1,0-.995Z" transform="translate(-160.126 -348.613)" fill="#fff"/><path d="M165.923,356.3h7.359a.5.5,0,1,1,0,.995h-7.359a.5.5,0,0,1,0-.995Z" transform="translate(-160.126 -346.613)" fill="#fff"/><path d="M165.923,356.3h7.359a.5.5,0,1,1,0,.995h-7.359a.5.5,0,0,1,0-.995Z" transform="translate(-160.126 -344.613)" fill="#fff"/></g></g></svg>