<svg xmlns="http://www.w3.org/2000/svg" xmlns:xlink="http://www.w3.org/1999/xlink" width="20" height="20" viewBox="0 0 20 20"><defs><clipPath id="a"><rect width="20" height="20" fill="#fff"/></clipPath></defs><g clip-path="url(#a)"><g transform="translate(2 2)"><g opacity="0.72"><path d="M240.449,81.417H241a.367.367,0,0,0,0-.733h-.547a.367.367,0,1,0,0,.733Z" transform="translate(-229.135 -77.753)" fill="#fff"/><path d="M16.714,17.087a.726.726,0,0,0-.657-.4H.734a.761.761,0,0,0-.657.4.732.732,0,0,0,.073.769L6.59,25.99v5.3a.719.719,0,0,0,.383.641.752.752,0,0,0,.347.092.708.708,0,0,0,.42-.128l2.025-1.411a1.121,1.121,0,0,0,.456-.9V25.973l6.421-8.116a.732.732,0,0,0,.072-.77ZM9.563,25.624a.394.394,0,0,0-.073.22v3.719a.392.392,0,0,1-.146.311L7.319,31.286V25.844a.333.333,0,0,0-.146-.293l-4.123-5.2H9.673a.366.366,0,1,0,0-.733H2.485l-1.751-2.2H16.058Z" transform="translate(0 -16.684)" fill="#fff"/></g></g></g></svg>