<svg xmlns="http://www.w3.org/2000/svg" xmlns:xlink="http://www.w3.org/1999/xlink" viewBox="0 0 660 390">
  <defs>
    <style>
      .cls-1 {
        clip-path: url(#clip-Web_1920_1);
      }

      .cls-2 {
        opacity: 0.5;
      }

      .cls-3 {
        fill: #637aab;
      }

      .cls-12, .cls-4, .cls-6, .cls-8, .cls-9 {
        fill: #fff;
      }

      .cls-5 {
        fill: #ffec68;
      }

      .cls-6 {
        stroke: #ffec68;
      }

      .cls-12, .cls-6, .cls-8, .cls-9 {
        stroke-width: 2px;
      }

      .cls-7 {
        fill: #f2f4fa;
      }

      .cls-8 {
        stroke: #119df5;
        opacity: 0.422;
      }

      .cls-9 {
        stroke: #fb8c8b;
      }

      .cls-10, .cls-15 {
        fill: #17e3b0;
      }

      .cls-11, .cls-17 {
        fill: #fb8c8b;
      }

      .cls-12 {
        stroke: #f2f4fa;
      }

      .cls-13 {
        fill: #d1dbfd;
      }

      .cls-14, .cls-15, .cls-17 {
        stroke: none;
      }

      .cls-16 {
        fill: none;
      }
    </style>
    <clipPath id="clip-Web_1920_1">
      <rect width="660" height="390"/>
    </clipPath>
  </defs>
  <g id="Web_1920_1" data-name="Web 1920 – 1" class="cls-1">
    <g id="Group_1" data-name="Group 1" transform="translate(-658 -230)">
      <g id="Shutter" class="cls-2" transform="translate(679 275)">
        <g id="LINE_1396_" class="cls-2" transform="translate(0 297.085)">
          <g id="Group_2990" data-name="Group 2990">
            <path id="Path_1595" data-name="Path 1595" class="cls-3" d="M693.775,700.015H77.858a1.458,1.458,0,0,1,0-2.915H693.775a1.458,1.458,0,1,1,0,2.915Z" transform="translate(-76.4 -697.1)"/>
          </g>
        </g>
        <g id="Group_3188" data-name="Group 3188" class="cls-2" transform="translate(110.252 18.686)">
          <g id="LINE_1303_" transform="translate(0 117.306)">
            <g id="Group_2991" data-name="Group 2991">
              <path id="Path_1596" data-name="Path 1596" class="cls-3" d="M266.083,581.892a.551.551,0,0,1-.583-.583V421.383a.583.583,0,1,1,1.166,0V581.309A.584.584,0,0,1,266.083,581.892Z" transform="translate(-265.5 -420.8)"/>
            </g>
          </g>
          <g id="LINE_1304_" transform="translate(6.996 117.306)">
            <g id="Group_2992" data-name="Group 2992">
              <path id="Path_1597" data-name="Path 1597" class="cls-3" d="M278.083,581.892a.551.551,0,0,1-.583-.583V421.383a.583.583,0,1,1,1.166,0V581.309A.627.627,0,0,1,278.083,581.892Z" transform="translate(-277.5 -420.8)"/>
            </g>
          </g>
          <g id="LINE_1305_" transform="translate(104.305 117.306)">
            <g id="Group_2993" data-name="Group 2993">
              <path id="Path_1598" data-name="Path 1598" class="cls-3" d="M444.983,581.892a.551.551,0,0,1-.583-.583V421.383a.583.583,0,1,1,1.166,0V581.309A.584.584,0,0,1,444.983,581.892Z" transform="translate(-444.4 -420.8)"/>
            </g>
          </g>
          <g id="LINE_1306_" transform="translate(97.367 117.306)">
            <g id="Group_2994" data-name="Group 2994">
              <path id="Path_1599" data-name="Path 1599" class="cls-3" d="M433.083,581.892a.551.551,0,0,1-.583-.583V421.383a.583.583,0,1,1,1.166,0V581.309A.584.584,0,0,1,433.083,581.892Z" transform="translate(-432.5 -420.8)"/>
            </g>
          </g>
          <g id="LINE_1307_" transform="translate(0.058 277.233)">
            <g id="Group_2995" data-name="Group 2995">
              <path id="Path_1600" data-name="Path 1600" class="cls-3" d="M273.121,696.266h-6.938a.583.583,0,1,1,0-1.166h6.938a.551.551,0,0,1,.583.583A.627.627,0,0,1,273.121,696.266Z" transform="translate(-265.6 -695.1)"/>
            </g>
          </g>
          <g id="LINE_1308_" transform="translate(97.367 277.233)">
            <g id="Group_2996" data-name="Group 2996">
              <path id="Path_1601" data-name="Path 1601" class="cls-3" d="M440.021,696.266h-6.938a.583.583,0,0,1,0-1.166h6.938a.551.551,0,0,1,.583.583A.584.584,0,0,1,440.021,696.266Z" transform="translate(-432.5 -695.1)"/>
            </g>
          </g>
          <g id="LINE_1309_" transform="translate(6.996 235.487)">
            <g id="Group_2997" data-name="Group 2997" transform="translate(0 0)">
              <path id="Path_1602" data-name="Path 1602" class="cls-3" d="M368.453,624.666h-90.37a.583.583,0,0,1,0-1.166h90.37a.583.583,0,1,1,0,1.166Z" transform="translate(-277.5 -623.5)"/>
            </g>
          </g>
          <g id="LINE_1310_" transform="translate(6.996 241.259)">
            <g id="Group_2998" data-name="Group 2998">
              <path id="Path_1603" data-name="Path 1603" class="cls-3" d="M368.453,634.566h-90.37a.583.583,0,0,1,0-1.166h90.37a.583.583,0,0,1,0,1.166Z" transform="translate(-277.5 -633.4)"/>
            </g>
          </g>
          <g id="LINE_1311_" transform="translate(6.996 193.8)">
            <g id="Group_2999" data-name="Group 2999">
              <path id="Path_1604" data-name="Path 1604" class="cls-3" d="M368.453,553.166h-90.37a.583.583,0,0,1,0-1.166h90.37a.551.551,0,0,1,.583.583A.584.584,0,0,1,368.453,553.166Z" transform="translate(-277.5 -552)"/>
            </g>
          </g>
          <g id="LINE_1312_" transform="translate(6.996 199.572)">
            <g id="Group_3000" data-name="Group 3000">
              <path id="Path_1605" data-name="Path 1605" class="cls-3" d="M368.453,563.066h-90.37a.583.583,0,1,1,0-1.166h90.37a.551.551,0,0,1,.583.583A.584.584,0,0,1,368.453,563.066Z" transform="translate(-277.5 -561.9)"/>
            </g>
          </g>
          <g id="LINE_1313_" transform="translate(6.996 152.055)">
            <g id="Group_3001" data-name="Group 3001">
              <path id="Path_1606" data-name="Path 1606" class="cls-3" d="M368.453,481.566h-90.37a.583.583,0,0,1,0-1.166h90.37a.551.551,0,0,1,.583.583A.584.584,0,0,1,368.453,481.566Z" transform="translate(-277.5 -480.4)"/>
            </g>
          </g>
          <g id="LINE_1314_" transform="translate(6.996 157.827)">
            <g id="Group_3002" data-name="Group 3002">
              <path id="Path_1607" data-name="Path 1607" class="cls-3" d="M368.453,491.466h-90.37a.583.583,0,0,1,0-1.166h90.37a.583.583,0,1,1,0,1.166Z" transform="translate(-277.5 -490.3)"/>
            </g>
          </g>
          <g id="LINE_1315_" transform="translate(0.058 117.306)">
            <g id="Group_3003" data-name="Group 3003">
              <path id="Path_1608" data-name="Path 1608" class="cls-3" d="M273.121,421.966h-6.938a.583.583,0,1,1,0-1.166h6.938a.551.551,0,0,1,.583.583A.627.627,0,0,1,273.121,421.966Z" transform="translate(-265.6 -420.8)"/>
            </g>
          </g>
          <g id="LINE_1316_" transform="translate(97.367 117.306)">
            <g id="Group_3004" data-name="Group 3004">
              <path id="Path_1609" data-name="Path 1609" class="cls-3" d="M440.021,421.966h-6.938a.583.583,0,0,1,0-1.166h6.938a.551.551,0,0,1,.583.583A.584.584,0,0,1,440.021,421.966Z" transform="translate(-432.5 -420.8)"/>
            </g>
          </g>
          <g id="LWPOLYLINE_112_" transform="translate(46.351 249.83)">
            <g id="Group_3005" data-name="Group 3005">
              <path id="Path_1610" data-name="Path 1610" class="cls-3" d="M385.171,676.669H345.583a.551.551,0,0,1-.583-.583v-27.4a.551.551,0,0,1,.583-.583h39.588a.551.551,0,0,1,.583.583v27.4A.584.584,0,0,1,385.171,676.669Zm-39-1.166h38.422V649.266H346.166Z" transform="translate(-345 -648.1)"/>
            </g>
          </g>
          <g id="LINE_1317_" transform="translate(46.351 255.369)">
            <g id="Group_3006" data-name="Group 3006">
              <path id="Path_1611" data-name="Path 1611" class="cls-3" d="M385.171,658.766H345.583a.583.583,0,1,1,0-1.166h39.588a.551.551,0,0,1,.583.583A.584.584,0,0,1,385.171,658.766Z" transform="translate(-345 -657.6)"/>
            </g>
          </g>
          <g id="LINE_1318_" transform="translate(74.395 261.724)">
            <g id="Group_3007" data-name="Group 3007" transform="translate(0 0)">
              <path id="Path_1612" data-name="Path 1612" class="cls-3" d="M393.683,674.155a.551.551,0,0,1-.583-.583v-4.489a.583.583,0,0,1,1.166,0v4.489A.551.551,0,0,1,393.683,674.155Z" transform="translate(-393.1 -668.5)"/>
            </g>
          </g>
          <g id="LINE_1319_" transform="translate(73.014 259.352)">
            <g id="Group_3008" data-name="Group 3008" transform="translate(0 0)">
              <path id="Path_1613" data-name="Path 1613" class="cls-3" d="M391.3,667.969a.437.437,0,0,1-.292-.058.574.574,0,0,1-.175-.816l1.4-2.39a.59.59,0,1,1,.991.641l-1.4,2.39A.633.633,0,0,1,391.3,667.969Z" transform="translate(-390.731 -664.431)"/>
            </g>
          </g>
          <g id="LINE_1320_" transform="translate(74.369 259.308)">
            <g id="Group_3009" data-name="Group 3009">
              <path id="Path_1614" data-name="Path 1614" class="cls-3" d="M395.064,667.938a.7.7,0,0,1-.525-.292l-1.4-2.391a.59.59,0,0,1,.991-.641l1.4,2.39a.628.628,0,0,1-.175.816C395.3,667.938,395.18,667.938,395.064,667.938Z" transform="translate(-393.056 -664.356)"/>
            </g>
          </g>
          <g id="LINE_1321_" transform="translate(79.992 261.724)">
            <g id="Group_3010" data-name="Group 3010" transform="translate(0 0)">
              <path id="Path_1615" data-name="Path 1615" class="cls-3" d="M403.283,674.155a.551.551,0,0,1-.583-.583v-4.489a.583.583,0,0,1,1.166,0v4.489A.584.584,0,0,1,403.283,674.155Z" transform="translate(-402.7 -668.5)"/>
            </g>
          </g>
          <g id="LINE_1322_" transform="translate(78.611 259.352)">
            <g id="Group_3011" data-name="Group 3011" transform="translate(0 0)">
              <path id="Path_1616" data-name="Path 1616" class="cls-3" d="M400.9,667.969a.437.437,0,0,1-.292-.058.574.574,0,0,1-.175-.816l1.4-2.39a.59.59,0,1,1,.991.641l-1.4,2.39A.712.712,0,0,1,400.9,667.969Z" transform="translate(-400.331 -664.431)"/>
            </g>
          </g>
          <g id="LINE_1323_" transform="translate(79.966 259.308)">
            <g id="Group_3012" data-name="Group 3012">
              <path id="Path_1617" data-name="Path 1617" class="cls-3" d="M404.664,667.938a.7.7,0,0,1-.525-.292l-1.4-2.391a.59.59,0,0,1,.991-.641l1.4,2.39a.628.628,0,0,1-.175.816C404.9,667.938,404.78,667.938,404.664,667.938Z" transform="translate(-402.656 -664.356)"/>
            </g>
          </g>
          <g id="LWPOLYLINE_113_" transform="translate(72.996 269.245)">
            <g id="Group_3013" data-name="Group 3013" transform="translate(0 0)">
              <path id="Path_1618" data-name="Path 1618" class="cls-3" d="M399.679,688.047h-8.4a.551.551,0,0,1-.583-.583v-5.481a.551.551,0,0,1,.583-.583h8.4a.551.551,0,0,1,.583.583v5.481A.551.551,0,0,1,399.679,688.047Zm-7.813-1.166h7.23v-4.314h-7.23Z" transform="translate(-390.7 -681.4)"/>
            </g>
          </g>
          <g id="LINE_1324_" transform="translate(72.996 261.724)">
            <g id="Group_3014" data-name="Group 3014" transform="translate(0 0)">
              <path id="Path_1619" data-name="Path 1619" class="cls-3" d="M394.082,669.666h-2.8a.583.583,0,0,1,0-1.166h2.8a.583.583,0,0,1,0,1.166Z" transform="translate(-390.7 -668.5)"/>
            </g>
          </g>
          <g id="LINE_1325_" transform="translate(78.593 261.724)">
            <g id="Group_3015" data-name="Group 3015" transform="translate(0 0)">
              <path id="Path_1620" data-name="Path 1620" class="cls-3" d="M403.682,669.666h-2.8a.583.583,0,0,1,0-1.166h2.8a.583.583,0,1,1,0,1.166Z" transform="translate(-400.3 -668.5)"/>
            </g>
          </g>
          <g id="LWPOLYLINE_114_" transform="translate(13.235 249.83)">
            <g id="Group_3016" data-name="Group 3016">
              <path id="Path_1621" data-name="Path 1621" class="cls-3" d="M316.186,676.669h-27.4a.551.551,0,0,1-.583-.583v-27.4a.551.551,0,0,1,.583-.583h27.4a.551.551,0,0,1,.583.583v27.4A.627.627,0,0,1,316.186,676.669Zm-26.82-1.166H315.6V649.266H289.366Z" transform="translate(-288.2 -648.1)"/>
            </g>
          </g>
          <g id="LINE_1326_" transform="translate(29.093 261.724)">
            <g id="Group_3017" data-name="Group 3017" transform="translate(0 0)">
              <path id="Path_1622" data-name="Path 1622" class="cls-3" d="M315.983,674.155a.551.551,0,0,1-.583-.583v-4.489a.583.583,0,0,1,1.166,0v4.489A.584.584,0,0,1,315.983,674.155Z" transform="translate(-315.4 -668.5)"/>
            </g>
          </g>
          <g id="LINE_1327_" transform="translate(27.712 259.352)">
            <g id="Group_3018" data-name="Group 3018" transform="translate(0 0)">
              <path id="Path_1623" data-name="Path 1623" class="cls-3" d="M313.6,667.969a.437.437,0,0,1-.292-.058.574.574,0,0,1-.175-.816l1.4-2.39a.59.59,0,1,1,.991.641l-1.4,2.39A.712.712,0,0,1,313.6,667.969Z" transform="translate(-313.031 -664.431)"/>
            </g>
          </g>
          <g id="LINE_1328_" transform="translate(29.067 259.308)">
            <g id="Group_3019" data-name="Group 3019">
              <path id="Path_1624" data-name="Path 1624" class="cls-3" d="M317.364,667.938a.7.7,0,0,1-.525-.292l-1.4-2.391a.59.59,0,0,1,.991-.641l1.4,2.39a.628.628,0,0,1-.175.816C317.6,667.938,317.48,667.938,317.364,667.938Z" transform="translate(-315.356 -664.356)"/>
            </g>
          </g>
          <g id="LINE_1329_" transform="translate(34.632 261.724)">
            <g id="Group_3020" data-name="Group 3020" transform="translate(0 0)">
              <path id="Path_1625" data-name="Path 1625" class="cls-3" d="M325.483,674.155a.551.551,0,0,1-.583-.583v-4.489a.583.583,0,0,1,1.166,0v4.489A.551.551,0,0,1,325.483,674.155Z" transform="translate(-324.9 -668.5)"/>
            </g>
          </g>
          <g id="LINE_1330_" transform="translate(33.251 259.352)">
            <g id="Group_3021" data-name="Group 3021" transform="translate(0 0)">
              <path id="Path_1626" data-name="Path 1626" class="cls-3" d="M323.1,667.969a.437.437,0,0,1-.292-.058.573.573,0,0,1-.175-.816l1.4-2.39a.59.59,0,1,1,.991.641l-1.4,2.39A.568.568,0,0,1,323.1,667.969Z" transform="translate(-322.531 -664.431)"/>
            </g>
          </g>
          <g id="LINE_1331_" transform="translate(34.665 259.308)">
            <g id="Group_3022" data-name="Group 3022">
              <path id="Path_1627" data-name="Path 1627" class="cls-3" d="M326.964,667.938a.7.7,0,0,1-.525-.292l-1.4-2.391a.59.59,0,0,1,.991-.641l1.4,2.39a.628.628,0,0,1-.175.816A.377.377,0,0,1,326.964,667.938Z" transform="translate(-324.956 -664.356)"/>
            </g>
          </g>
          <g id="LWPOLYLINE_115_" transform="translate(27.694 269.245)">
            <g id="Group_3023" data-name="Group 3023" transform="translate(0 0)">
              <path id="Path_1628" data-name="Path 1628" class="cls-3" d="M321.979,688.047h-8.4a.551.551,0,0,1-.583-.583v-5.481a.551.551,0,0,1,.583-.583h8.4a.551.551,0,0,1,.583.583v5.481A.584.584,0,0,1,321.979,688.047Zm-7.813-1.166h7.23v-4.314h-7.23Z" transform="translate(-313 -681.4)"/>
            </g>
          </g>
          <g id="LINE_1332_" transform="translate(27.694 261.724)">
            <g id="Group_3024" data-name="Group 3024" transform="translate(0 0)">
              <path id="Path_1629" data-name="Path 1629" class="cls-3" d="M316.382,669.666h-2.8a.583.583,0,1,1,0-1.166h2.8a.583.583,0,1,1,0,1.166Z" transform="translate(-313 -668.5)"/>
            </g>
          </g>
          <g id="LINE_1333_" transform="translate(33.291 261.724)">
            <g id="Group_3025" data-name="Group 3025" transform="translate(0 0)">
              <path id="Path_1630" data-name="Path 1630" class="cls-3" d="M325.982,669.666h-2.8a.583.583,0,0,1,0-1.166h2.8a.551.551,0,0,1,.583.583A.584.584,0,0,1,325.982,669.666Z" transform="translate(-322.6 -668.5)"/>
            </g>
          </g>
          <g id="LINE_1334_" transform="translate(26.936 249.83)">
            <g id="Group_3026" data-name="Group 3026">
              <path id="Path_1631" data-name="Path 1631" class="cls-3" d="M312.283,653.231a.551.551,0,0,1-.583-.583v-3.965a.583.583,0,0,1,1.166,0v3.965A.627.627,0,0,1,312.283,653.231Z" transform="translate(-311.7 -648.1)"/>
            </g>
          </g>
          <g id="LINE_1335_" transform="translate(26.936 253.795)">
            <g id="Group_3027" data-name="Group 3027" transform="translate(0 0)">
              <path id="Path_1632" data-name="Path 1632" class="cls-3" d="M325.984,656.066h-13.7a.583.583,0,0,1,0-1.166h13.7a.551.551,0,0,1,.583.583A.627.627,0,0,1,325.984,656.066Z" transform="translate(-311.7 -654.9)"/>
            </g>
          </g>
          <g id="LINE_1336_" transform="translate(13.235 253.795)">
            <g id="Group_3028" data-name="Group 3028" transform="translate(0 0)">
              <path id="Path_1633" data-name="Path 1633" class="cls-3" d="M302.484,656.066h-13.7a.583.583,0,1,1,0-1.166h13.7a.551.551,0,0,1,.583.583A.627.627,0,0,1,302.484,656.066Z" transform="translate(-288.2 -654.9)"/>
            </g>
          </g>
          <g id="LWPOLYLINE_116_" transform="translate(58.828 206.336)">
            <g id="Group_3029" data-name="Group 3029" transform="translate(0 0)">
              <path id="Path_1634" data-name="Path 1634" class="cls-3" d="M396.135,603.818H366.983a.551.551,0,0,1-.583-.583V574.083a.551.551,0,0,1,.583-.583h29.152a.551.551,0,0,1,.583.583v29.152A.551.551,0,0,1,396.135,603.818Zm-28.569-1.166h27.986V574.666H367.566Z" transform="translate(-366.4 -573.5)"/>
            </g>
          </g>
          <g id="LINE_1337_" transform="translate(58.828 220.911)">
            <g id="Group_3030" data-name="Group 3030" transform="translate(0 0)">
              <path id="Path_1635" data-name="Path 1635" class="cls-3" d="M396.135,599.666H366.983a.583.583,0,0,1,0-1.166h29.152a.583.583,0,0,1,0,1.166Z" transform="translate(-366.4 -598.5)"/>
            </g>
          </g>
          <g id="LWPOLYLINE_117_" transform="translate(62.618 211)">
            <g id="Group_3031" data-name="Group 3031">
              <path id="Path_1636" data-name="Path 1636" class="cls-3" d="M385.727,587.972H373.483a.551.551,0,0,1-.583-.583v-5.306a.551.551,0,0,1,.583-.583h12.244a.551.551,0,0,1,.583.583v5.306A.627.627,0,0,1,385.727,587.972Zm-11.661-1.166h11.078v-4.139H374.066Z" transform="translate(-372.9 -581.5)"/>
            </g>
          </g>
          <g id="LWPOLYLINE_118_" transform="translate(14.168 164.94)">
            <g id="Group_3032" data-name="Group 3032">
              <path id="Path_1637" data-name="Path 1637" class="cls-3" d="M319.243,532.526h-28.86a.551.551,0,0,1-.583-.583v-28.86a.551.551,0,0,1,.583-.583h28.86a.551.551,0,0,1,.583.583v28.86A.584.584,0,0,1,319.243,532.526Zm-28.219-1.166h27.694V503.666H291.024Z" transform="translate(-289.8 -502.5)"/>
            </g>
          </g>
          <g id="LWPOLYLINE_119_" transform="translate(25.362 170.479)">
            <g id="Group_3033" data-name="Group 3033">
              <path id="Path_1638" data-name="Path 1638" class="cls-3" d="M322.585,524.652h-13a.551.551,0,0,1-.583-.583V512.583a.551.551,0,0,1,.583-.583h13a.551.551,0,0,1,.583.583v11.486A.551.551,0,0,1,322.585,524.652Zm-12.36-1.166H322.06v-10.32H310.224Z" transform="translate(-309 -512)"/>
            </g>
          </g>
          <g id="LINE_1338_" transform="translate(25.362 185.929)">
            <g id="Group_3034" data-name="Group 3034">
              <path id="Path_1639" data-name="Path 1639" class="cls-3" d="M322.585,539.666h-13a.583.583,0,0,1,0-1.166h13a.583.583,0,1,1,0,1.166Z" transform="translate(-309 -538.5)"/>
            </g>
          </g>
          <g id="LINE_1339_" transform="translate(14.168 179.341)">
            <g id="Group_3035" data-name="Group 3035">
              <path id="Path_1640" data-name="Path 1640" class="cls-3" d="M297.146,528.366h-6.763a.583.583,0,1,1,0-1.166h6.763a.583.583,0,1,1,0,1.166Z" transform="translate(-289.8 -527.2)"/>
            </g>
          </g>
          <g id="LINE_1340_" transform="translate(20.931 164.94)">
            <g id="Group_3036" data-name="Group 3036">
              <path id="Path_1641" data-name="Path 1641" class="cls-3" d="M301.983,532.526a.551.551,0,0,1-.583-.583v-28.86a.583.583,0,0,1,1.166,0v28.86A.584.584,0,0,1,301.983,532.526Z" transform="translate(-301.4 -502.5)"/>
            </g>
          </g>
          <g id="CIRCLE_157_" transform="translate(174.152 254.378)">
            <g id="Group_3037" data-name="Group 3037" transform="translate(0 0)">
              <path id="Path_1642" data-name="Path 1642" class="cls-3" d="M576.211,679.921a12.01,12.01,0,1,1,12.01-12.01A12.031,12.031,0,0,1,576.211,679.921Zm0-22.855a10.844,10.844,0,1,0,10.844,10.844A10.861,10.861,0,0,0,576.211,657.066Z" transform="translate(-564.2 -655.9)"/>
            </g>
          </g>
          <g id="CIRCLE_158_" transform="translate(179.691 259.916)">
            <g id="Group_3038" data-name="Group 3038">
              <path id="Path_1643" data-name="Path 1643" class="cls-3" d="M580.172,678.343a6.472,6.472,0,1,1,6.472-6.472A6.495,6.495,0,0,1,580.172,678.343Zm0-11.777a5.306,5.306,0,1,0,5.306,5.306A5.325,5.325,0,0,0,580.172,666.566Z" transform="translate(-573.7 -665.4)"/>
            </g>
          </g>
          <g id="ARC_155_" transform="translate(186.163 251.521)">
            <g id="Group_3039" data-name="Group 3039">
              <path id="Path_1644" data-name="Path 1644" class="cls-3" d="M598.268,671.231a.214.214,0,0,1-.175-.058.607.607,0,0,1-.35-.758,13.733,13.733,0,0,0-8.337-17.491,13.3,13.3,0,0,0-4.023-.758.583.583,0,0,1,0-1.166,15.685,15.685,0,0,1,4.373.816,14.882,14.882,0,0,1,9.037,18.949A.553.553,0,0,1,598.268,671.231Z" transform="translate(-584.8 -651)"/>
            </g>
          </g>
          <g id="CIRCLE_159_" transform="translate(236.479 259.975)">
            <g id="Group_3040" data-name="Group 3040" transform="translate(0 0)">
              <path id="Path_1645" data-name="Path 1645" class="cls-3" d="M680.312,683.924a9.212,9.212,0,1,1,9.212-9.212A9.231,9.231,0,0,1,680.312,683.924Zm0-17.316a8.046,8.046,0,1,0,8.046,8.046A8.062,8.062,0,0,0,680.312,666.608Z" transform="translate(-671.1 -665.5)"/>
            </g>
          </g>
          <g id="CIRCLE_160_" transform="translate(241.493 264.931)">
            <g id="Group_3041" data-name="Group 3041" transform="translate(0 0)">
              <path id="Path_1646" data-name="Path 1646" class="cls-3" d="M683.9,682.4a4.2,4.2,0,1,1,4.2-4.2A4.18,4.18,0,0,1,683.9,682.4Zm0-7.171a3.032,3.032,0,1,0,3.032,3.032A3.011,3.011,0,0,0,683.9,675.224Z" transform="translate(-679.7 -674)"/>
            </g>
          </g>
          <g id="ARC_156_" transform="translate(232.808 256.268)">
            <g id="Group_3042" data-name="Group 3042" transform="translate(0)">
              <path id="Path_1647" data-name="Path 1647" class="cls-3" d="M665.56,674.626a.568.568,0,0,1-.583-.466,12.914,12.914,0,0,1,22.1-11.019.577.577,0,1,1-.816.816,11.774,11.774,0,0,0-16.616-.466,11.643,11.643,0,0,0-3.5,10.436.546.546,0,0,1-.466.641A.18.18,0,0,1,665.56,674.626Z" transform="translate(-664.804 -659.142)"/>
            </g>
          </g>
          <g id="ARC_157_" transform="translate(229.345 252.838)">
            <g id="Group_3043" data-name="Group 3043" transform="translate(0 0)">
              <path id="Path_1648" data-name="Path 1648" class="cls-3" d="M659.585,672.173a.62.62,0,0,1-.583-.525,16.344,16.344,0,0,1,2.74-11.369,15.868,15.868,0,0,1,10.495-6.763,16.338,16.338,0,0,1,12.185,2.624.59.59,0,1,1-.641.991,15.223,15.223,0,0,0-21.106,3.848,15.061,15.061,0,0,0-2.565,10.553.579.579,0,0,1-.525.641Q659.672,672.173,659.585,672.173Z" transform="translate(-658.864 -653.259)"/>
            </g>
          </g>
          <g id="LINE_1341_" transform="translate(199.048 270.586)">
            <g id="Group_3044" data-name="Group 3044">
              <path id="Path_1649" data-name="Path 1649" class="cls-3" d="M641.415,684.866H607.483a.583.583,0,1,1,0-1.166h33.932a.551.551,0,0,1,.583.583A.584.584,0,0,1,641.415,684.866Z" transform="translate(-606.9 -683.7)"/>
            </g>
          </g>
          <g id="LINE_1342_" transform="translate(176.951 190.827)">
            <g id="Group_3045" data-name="Group 3045">
              <path id="Path_1650" data-name="Path 1650" class="cls-3" d="M569.583,615.581A.551.551,0,0,1,569,615V547.483a.583.583,0,0,1,1.166,0V615A.584.584,0,0,1,569.583,615.581Z" transform="translate(-569 -546.9)"/>
            </g>
          </g>
          <g id="LINE_1343_" transform="translate(176.951 190.827)">
            <g id="Group_3046" data-name="Group 3046">
              <path id="Path_1651" data-name="Path 1651" class="cls-3" d="M578.795,548.066h-9.212a.583.583,0,1,1,0-1.166h9.212a.551.551,0,0,1,.583.583A.627.627,0,0,1,578.795,548.066Z" transform="translate(-569 -546.9)"/>
            </g>
          </g>
          <g id="LINE_1344_" transform="translate(186.163 190.769)">
            <g id="Group_3047" data-name="Group 3047">
              <path id="Path_1652" data-name="Path 1652" class="cls-3" d="M585.383,601.022a.551.551,0,0,1-.583-.583V547.383a.583.583,0,0,1,1.166,0v53.056A.584.584,0,0,1,585.383,601.022Z" transform="translate(-584.8 -546.8)"/>
            </g>
          </g>
          <g id="LINE_1345_" transform="translate(186.163 248.955)">
            <g id="Group_3048" data-name="Group 3048">
              <path id="Path_1653" data-name="Path 1653" class="cls-3" d="M585.383,653.247a.551.551,0,0,1-.583-.583v-5.481a.583.583,0,0,1,1.166,0v5.481A.627.627,0,0,1,585.383,653.247Z" transform="translate(-584.8 -646.6)"/>
            </g>
          </g>
          <g id="LINE_1346_" transform="translate(186.163 190.827)">
            <g id="Group_3049" data-name="Group 3049">
              <path id="Path_1654" data-name="Path 1654" class="cls-3" d="M589.814,548.066h-4.431a.583.583,0,1,1,0-1.166h4.431a.551.551,0,0,1,.583.583A.584.584,0,0,1,589.814,548.066Z" transform="translate(-584.8 -546.9)"/>
            </g>
          </g>
          <g id="LINE_1347_" transform="translate(190.594 190.827)">
            <g id="Group_3050" data-name="Group 3050">
              <path id="Path_1655" data-name="Path 1655" class="cls-3" d="M592.983,609.693a.551.551,0,0,1-.583-.583V547.483a.583.583,0,0,1,1.166,0V609.11A.584.584,0,0,1,592.983,609.693Z" transform="translate(-592.4 -546.9)"/>
            </g>
          </g>
          <g id="LINE_1348_" transform="translate(168.147 211.816)">
            <g id="Group_3051" data-name="Group 3051">
              <path id="Path_1656" data-name="Path 1656" class="cls-3" d="M563.287,584.066h-8.8a.583.583,0,1,1,0-1.166h8.8a.551.551,0,0,1,.583.583A.584.584,0,0,1,563.287,584.066Z" transform="translate(-553.9 -582.9)"/>
            </g>
          </g>
          <g id="LINE_1349_" transform="translate(168.147 211.816)">
            <g id="Group_3052" data-name="Group 3052">
              <path id="Path_1657" data-name="Path 1657" class="cls-3" d="M554.483,629.659a.551.551,0,0,1-.583-.583V583.483a.583.583,0,0,1,1.166,0v45.593A.627.627,0,0,1,554.483,629.659Z" transform="translate(-553.9 -582.9)"/>
            </g>
          </g>
          <g id="LINE_1350_" transform="translate(139.112 258.342)">
            <g id="Group_3053" data-name="Group 3053">
              <path id="Path_1658" data-name="Path 1658" class="cls-3" d="M532.727,663.866H504.683a.583.583,0,1,1,0-1.166h28.044a.583.583,0,1,1,0,1.166Z" transform="translate(-504.1 -662.7)"/>
            </g>
          </g>
          <g id="ARC_158_" transform="translate(167.156 257.351)">
            <g id="Group_3054" data-name="Group 3054">
              <path id="Path_1659" data-name="Path 1659" class="cls-3" d="M552.783,663.157a.583.583,0,1,1,0-1.166.4.4,0,0,0,.408-.408.583.583,0,0,1,1.166,0A1.568,1.568,0,0,1,552.783,663.157Z" transform="translate(-552.2 -661)"/>
            </g>
          </g>
          <g id="LINE_1351_" transform="translate(139.112 258.401)">
            <g id="Group_3055" data-name="Group 3055">
              <path id="Path_1660" data-name="Path 1660" class="cls-3" d="M504.683,667.173a.551.551,0,0,1-.583-.583v-3.207a.583.583,0,0,1,1.166,0v3.207A.584.584,0,0,1,504.683,667.173Z" transform="translate(-504.1 -662.8)"/>
            </g>
          </g>
          <g id="LINE_1352_" transform="translate(139.112 261.607)">
            <g id="Group_3056" data-name="Group 3056">
              <path id="Path_1661" data-name="Path 1661" class="cls-3" d="M533.66,669.466H504.683a.583.583,0,1,1,0-1.166H533.66a.551.551,0,0,1,.583.583A.584.584,0,0,1,533.66,669.466Z" transform="translate(-504.1 -668.3)"/>
            </g>
          </g>
          <g id="LINE_1353_" transform="translate(171.995 226.917)">
            <g id="Group_3057" data-name="Group 3057" transform="translate(0 0)">
              <path id="Path_1662" data-name="Path 1662" class="cls-3" d="M566.039,609.966h-4.956a.583.583,0,1,1,0-1.166h4.956a.551.551,0,0,1,.583.583A.584.584,0,0,1,566.039,609.966Z" transform="translate(-560.5 -608.8)"/>
            </g>
          </g>
          <g id="LINE_1354_" transform="translate(171.937 226.917)">
            <g id="Group_3058" data-name="Group 3058" transform="translate(0 0)">
              <path id="Path_1663" data-name="Path 1663" class="cls-3" d="M560.983,640.75a.551.551,0,0,1-.583-.583V609.383a.583.583,0,0,1,1.166,0v30.784A.551.551,0,0,1,560.983,640.75Z" transform="translate(-560.4 -608.8)"/>
            </g>
          </g>
          <g id="ARC_159_" transform="translate(168.089 257.759)">
            <g id="Group_3059" data-name="Group 3059">
              <path id="Path_1664" data-name="Path 1664" class="cls-3" d="M554.383,666.714a.583.583,0,0,1,0-1.166,3.26,3.26,0,0,0,3.265-3.265.583.583,0,1,1,1.166,0A4.467,4.467,0,0,1,554.383,666.714Z" transform="translate(-553.8 -661.7)"/>
            </g>
          </g>
          <g id="LINE_1355_" transform="translate(168.089 253.503)">
            <g id="Group_3060" data-name="Group 3060">
              <path id="Path_1665" data-name="Path 1665" class="cls-3" d="M558.231,655.566h-3.848a.583.583,0,0,1,0-1.166h3.848a.583.583,0,0,1,0,1.166Z" transform="translate(-553.8 -654.4)"/>
            </g>
          </g>
          <g id="LINE_1356_" transform="translate(191.807 198.162)">
            <g id="Group_3061" data-name="Group 3061">
              <path id="Path_1666" data-name="Path 1666" class="cls-3" d="M595.075,606.834H594.9a.668.668,0,0,1-.408-.758L609.185,559.9a.609.609,0,1,1,1.166.35L595.6,606.426A.56.56,0,0,1,595.075,606.834Z" transform="translate(-594.481 -559.481)"/>
            </g>
          </g>
          <g id="LINE_1357_" transform="translate(196.646 205.858)">
            <g id="Group_3062" data-name="Group 3062">
              <path id="Path_1667" data-name="Path 1667" class="cls-3" d="M603.375,612.338H603.2a.668.668,0,0,1-.408-.758l12.244-38.48a.609.609,0,0,1,1.166.35l-12.244,38.48A.579.579,0,0,1,603.375,612.338Z" transform="translate(-602.781 -572.681)"/>
            </g>
          </g>
          <g id="LINE_1358_" transform="translate(206.511 198.173)">
            <g id="Group_3063" data-name="Group 3063" transform="translate(0)">
              <path id="Path_1668" data-name="Path 1668" class="cls-3" d="M651.534,560.666h-31.25a.583.583,0,1,1,0-1.166h31.25a.551.551,0,0,1,.583.583A.584.584,0,0,1,651.534,560.666Z" transform="translate(-619.7 -559.5)"/>
            </g>
          </g>
          <g id="LINE_1359_" transform="translate(237.761 198.173)">
            <g id="Group_3064" data-name="Group 3064">
              <path id="Path_1669" data-name="Path 1669" class="cls-3" d="M673.883,603.4a.551.551,0,0,1-.583-.583V560.083a.583.583,0,0,1,1.166,0v42.736A.551.551,0,0,1,673.883,603.4Z" transform="translate(-673.3 -559.5)"/>
            </g>
          </g>
          <g id="LINE_1360_" transform="translate(233.097 205.869)">
            <g id="Group_3065" data-name="Group 3065" transform="translate(0 0)">
              <path id="Path_1670" data-name="Path 1670" class="cls-3" d="M665.883,608.906a.551.551,0,0,1-.583-.583v-35.04a.583.583,0,0,1,1.166,0v35.04A.551.551,0,0,1,665.883,608.906Z" transform="translate(-665.3 -572.7)"/>
            </g>
          </g>
          <g id="LINE_1361_" transform="translate(220.212 240.91)">
            <g id="Group_3066" data-name="Group 3066" transform="translate(0 0)">
              <path id="Path_1671" data-name="Path 1671" class="cls-3" d="M677.6,633.966H643.783a.583.583,0,0,1,0-1.166H677.6a.583.583,0,1,1,0,1.166Z" transform="translate(-643.2 -632.8)"/>
            </g>
          </g>
          <g id="ARC_160_" transform="translate(211.991 240.91)">
            <g id="Group_3067" data-name="Group 3067" transform="translate(0 0)">
              <path id="Path_1672" data-name="Path 1672" class="cls-3" d="M629.683,642.187a.551.551,0,0,1-.583-.583,8.833,8.833,0,0,1,8.8-8.8.583.583,0,0,1,0,1.166,7.664,7.664,0,0,0-7.638,7.638A.584.584,0,0,1,629.683,642.187Z" transform="translate(-629.1 -632.8)"/>
            </g>
          </g>
          <g id="LINE_1362_" transform="translate(211.991 249.13)">
            <g id="Group_3068" data-name="Group 3068">
              <path id="Path_1673" data-name="Path 1673" class="cls-3" d="M629.683,660.135a.551.551,0,0,1-.583-.583V647.483a.583.583,0,0,1,1.166,0v12.069A.627.627,0,0,1,629.683,660.135Z" transform="translate(-629.1 -646.9)"/>
            </g>
          </g>
          <g id="LINE_1363_" transform="translate(254.028 240.91)">
            <g id="Group_3069" data-name="Group 3069" transform="translate(0 0)">
              <path id="Path_1674" data-name="Path 1674" class="cls-3" d="M701.783,653.148a.551.551,0,0,1-.583-.583V633.383a.583.583,0,0,1,1.166,0v19.182A.551.551,0,0,1,701.783,653.148Z" transform="translate(-701.2 -632.8)"/>
            </g>
          </g>
          <g id="LINE_1364_" transform="translate(204.062 205.869)">
            <g id="Group_3070" data-name="Group 3070" transform="translate(0 0)">
              <path id="Path_1675" data-name="Path 1675" class="cls-3" d="M649.782,573.866h-33.7a.583.583,0,1,1,0-1.166h33.7a.551.551,0,0,1,.583.583A.584.584,0,0,1,649.782,573.866Z" transform="translate(-615.5 -572.7)"/>
            </g>
          </g>
          <g id="LINE_1365_" transform="translate(190.594 244.349)">
            <g id="Group_3071" data-name="Group 3071" transform="translate(0 0)">
              <path id="Path_1676" data-name="Path 1676" class="cls-3" d="M599.047,639.866h-6.063a.583.583,0,1,1,0-1.166h6.063a.583.583,0,1,1,0,1.166Z" transform="translate(-592.4 -638.7)"/>
            </g>
          </g>
          <g id="LINE_1366_" transform="translate(196.657 244.349)">
            <g id="Group_3072" data-name="Group 3072" transform="translate(0 0)">
              <path id="Path_1677" data-name="Path 1677" class="cls-3" d="M603.383,652.343a.551.551,0,0,1-.583-.583V639.283a.583.583,0,1,1,1.166,0V651.76A.551.551,0,0,1,603.383,652.343Z" transform="translate(-602.8 -638.7)"/>
            </g>
          </g>
          <g id="LINE_1367_" transform="translate(199.106 261.199)">
            <g id="Group_3073" data-name="Group 3073">
              <path id="Path_1678" data-name="Path 1678" class="cls-3" d="M620.468,668.766H607.583a.583.583,0,0,1,0-1.166h12.885a.551.551,0,0,1,.583.583A.627.627,0,0,1,620.468,668.766Z" transform="translate(-607 -667.6)"/>
            </g>
          </g>
          <g id="LINE_1368_" transform="translate(196.657 252.512)">
            <g id="Group_3074" data-name="Group 3074" transform="translate(0 0)">
              <path id="Path_1679" data-name="Path 1679" class="cls-3" d="M618.717,653.866H603.383a.583.583,0,0,1,0-1.166h15.334a.551.551,0,0,1,.583.583A.584.584,0,0,1,618.717,653.866Z" transform="translate(-602.8 -652.7)"/>
            </g>
          </g>
          <g id="LINE_1369_" transform="translate(227.199 223.293)">
            <g id="Group_3075" data-name="Group 3075" transform="translate(0 0)">
              <path id="Path_1680" data-name="Path 1680" class="cls-3" d="M655.776,621.367h-.117a.578.578,0,0,1-.466-.641l2.74-17.666a.561.561,0,0,1,1.108.175L656.3,620.9A.476.476,0,0,1,655.776,621.367Z" transform="translate(-655.185 -602.585)"/>
            </g>
          </g>
          <g id="ARC_161_" transform="translate(225.917 220.877)">
            <g id="Group_3076" data-name="Group 3076">
              <path id="Path_1681" data-name="Path 1681" class="cls-3" d="M657.6,601.974h-.117a.578.578,0,0,1-.466-.641,1.476,1.476,0,0,0-2.915-.467.561.561,0,1,1-1.108-.175,2.655,2.655,0,0,1,5.247.816A.774.774,0,0,1,657.6,601.974Z" transform="translate(-652.985 -598.442)"/>
            </g>
          </g>
          <g id="LINE_1370_" transform="translate(223.643 222.652)">
            <g id="Group_3077" data-name="Group 3077" transform="translate(0 0)">
              <path id="Path_1682" data-name="Path 1682" class="cls-3" d="M649.677,616.769h-.117a.578.578,0,0,1-.466-.641l2.216-14.168a.561.561,0,0,1,1.108.175L650.2,616.3A.514.514,0,0,1,649.677,616.769Z" transform="translate(-649.084 -601.484)"/>
            </g>
          </g>
          <g id="LINE_1371_" transform="translate(212.341 240.91)">
            <g id="Group_3078" data-name="Group 3078" transform="translate(0 0)">
              <path id="Path_1683" data-name="Path 1683" class="cls-3" d="M638.154,633.966h-7.871a.583.583,0,1,1,0-1.166h7.871a.583.583,0,0,1,0,1.166Z" transform="translate(-629.7 -632.8)"/>
            </g>
          </g>
          <g id="LINE_1372_" transform="translate(212.399 236.77)">
            <g id="Group_3079" data-name="Group 3079" transform="translate(0 0)">
              <path id="Path_1684" data-name="Path 1684" class="cls-3" d="M641.636,626.866H630.383a.583.583,0,0,1,0-1.166h11.253a.551.551,0,0,1,.583.583A.627.627,0,0,1,641.636,626.866Z" transform="translate(-629.8 -625.7)"/>
            </g>
          </g>
          <g id="ARC_162_" transform="translate(210.3 236.712)">
            <g id="Group_3080" data-name="Group 3080" transform="translate(0)">
              <path id="Path_1685" data-name="Path 1685" class="cls-3" d="M628.882,630.964a2.682,2.682,0,0,1,0-5.364.583.583,0,0,1,0,1.166,1.516,1.516,0,1,0,0,3.032.551.551,0,0,1,.583.583A.584.584,0,0,1,628.882,630.964Z" transform="translate(-626.2 -625.6)"/>
            </g>
          </g>
          <g id="LINE_1373_" transform="translate(198.316 231.782)">
            <g id="Group_3081" data-name="Group 3081">
              <path id="Path_1686" data-name="Path 1686" class="cls-3" d="M606.2,625.748a.829.829,0,0,1-.35-.117.563.563,0,0,1-.058-.816l6.122-7.463a.579.579,0,0,1,.875.758l-6.122,7.463A.663.663,0,0,1,606.2,625.748Z" transform="translate(-605.645 -617.145)"/>
            </g>
          </g>
          <g id="LINE_1374_" transform="translate(201.465 229.1)">
            <g id="Group_3082" data-name="Group 3082" transform="translate(0 0)">
              <path id="Path_1687" data-name="Path 1687" class="cls-3" d="M614.575,616.309a.629.629,0,0,1-.408-.175l-2.915-2.565a.579.579,0,0,1,.758-.875l2.915,2.565a.567.567,0,0,1,.058.816A.39.39,0,0,1,614.575,616.309Z" transform="translate(-611.045 -612.545)"/>
            </g>
          </g>
          <g id="LINE_1375_" transform="translate(201.756 225.544)">
            <g id="Group_3083" data-name="Group 3083" transform="translate(0)">
              <path id="Path_1688" data-name="Path 1688" class="cls-3" d="M612.16,610.267a.63.63,0,0,1-.408-.175.567.567,0,0,1-.058-.816l2.274-2.624a.579.579,0,0,1,.875.758l-2.274,2.624A.39.39,0,0,1,612.16,610.267Z" transform="translate(-611.545 -606.445)"/>
            </g>
          </g>
          <g id="LINE_1376_" transform="translate(202.339 226.593)">
            <g id="Group_3084" data-name="Group 3084" transform="translate(0)">
              <path id="Path_1689" data-name="Path 1689" class="cls-3" d="M613.16,612.767a.63.63,0,0,1-.408-.175.567.567,0,0,1-.058-.816l2.915-3.323a.579.579,0,0,1,.875.758l-2.915,3.323A.39.39,0,0,1,613.16,612.767Z" transform="translate(-612.545 -608.245)"/>
            </g>
          </g>
          <g id="LINE_1377_" transform="translate(209.511 229.334)">
            <g id="Group_3085" data-name="Group 3085">
              <path id="Path_1690" data-name="Path 1690" class="cls-3" d="M625.46,615.193a.629.629,0,0,1-.408-.175.567.567,0,0,1-.058-.816l.933-1.049a.579.579,0,1,1,.874.758l-.933,1.049A.39.39,0,0,1,625.46,615.193Z" transform="translate(-624.845 -612.945)"/>
            </g>
          </g>
          <g id="LINE_1378_" transform="translate(202.922 224.553)">
            <g id="Group_3086" data-name="Group 3086" transform="translate(0 0)">
              <path id="Path_1691" data-name="Path 1691" class="cls-3" d="M620.749,611.774a.63.63,0,0,1-.408-.175l-6.588-5.83a.579.579,0,1,1,.758-.875l6.588,5.83a.567.567,0,0,1,.058.816A.39.39,0,0,1,620.749,611.774Z" transform="translate(-613.545 -604.745)"/>
            </g>
          </g>
          <g id="LINE_1379_" transform="translate(203.389 223.095)">
            <g id="Group_3087" data-name="Group 3087">
              <path id="Path_1692" data-name="Path 1692" class="cls-3" d="M622.015,609.682a.63.63,0,0,1-.408-.175l-7.055-6.238a.579.579,0,0,1,.758-.875l7.055,6.238a.567.567,0,0,1,.058.816A.39.39,0,0,1,622.015,609.682Z" transform="translate(-614.345 -602.245)"/>
            </g>
          </g>
          <g id="LINE_1380_" transform="translate(250.063 244.816)">
            <g id="Group_3088" data-name="Group 3088">
              <path id="Path_1693" data-name="Path 1693" class="cls-3" d="M698.948,640.666h-3.965a.583.583,0,1,1,0-1.166h3.965a.551.551,0,0,1,.583.583A.584.584,0,0,1,698.948,640.666Z" transform="translate(-694.4 -639.5)"/>
            </g>
          </g>
          <g id="LINE_1381_" transform="translate(250.063 249.655)">
            <g id="Group_3089" data-name="Group 3089" transform="translate(0 0)">
              <path id="Path_1694" data-name="Path 1694" class="cls-3" d="M698.948,648.966h-3.965a.583.583,0,1,1,0-1.166h3.965a.583.583,0,0,1,0,1.166Z" transform="translate(-694.4 -647.8)"/>
            </g>
          </g>
          <g id="ARC_163_" transform="translate(247.673 244.758)">
            <g id="Group_3090" data-name="Group 3090" transform="translate(0 0)">
              <path id="Path_1695" data-name="Path 1695" class="cls-3" d="M693.332,645.464a3.048,3.048,0,0,1-3.032-3.032,3.011,3.011,0,0,1,3.032-3.032.583.583,0,1,1,0,1.166,1.879,1.879,0,0,0-1.866,1.866,1.842,1.842,0,0,0,1.866,1.866.551.551,0,0,1,.583.583A.584.584,0,0,1,693.332,645.464Z" transform="translate(-690.3 -639.4)"/>
            </g>
          </g>
          <g id="LINE_1382_" transform="translate(186.163 204.412)">
            <g id="Group_3091" data-name="Group 3091" transform="translate(0 0)">
              <path id="Path_1696" data-name="Path 1696" class="cls-3" d="M589.814,571.366h-4.431a.583.583,0,0,1,0-1.166h4.431a.551.551,0,0,1,.583.583A.584.584,0,0,1,589.814,571.366Z" transform="translate(-584.8 -570.2)"/>
            </g>
          </g>
          <g id="LINE_1383_" transform="translate(183.094 242.68)">
            <g id="Group_3092" data-name="Group 3092" transform="translate(0 0)">
              <path id="Path_1697" data-name="Path 1697" class="cls-3" d="M587.62,639.838a.441.441,0,0,1-.233-.058l-7.463-2.8a.59.59,0,1,1,.408-1.108l7.463,2.8a.607.607,0,0,1,.35.758A.5.5,0,0,1,587.62,639.838Z" transform="translate(-579.537 -635.837)"/>
            </g>
          </g>
          <g id="LINE_1384_" transform="translate(181.404 247.111)">
            <g id="Group_3093" data-name="Group 3093">
              <path id="Path_1698" data-name="Path 1698" class="cls-3" d="M586.41,648.08a.441.441,0,0,1-.233-.058l-9.154-3.44a.59.59,0,1,1,.408-1.108l9.154,3.44a.606.606,0,0,1,.35.758A.5.5,0,0,1,586.41,648.08Z" transform="translate(-576.637 -643.437)"/>
            </g>
          </g>
          <g id="CIRCLE_161_" transform="translate(179.924 242.484)">
            <g id="Group_3094" data-name="Group 3094">
              <path id="Path_1699" data-name="Path 1699" class="cls-3" d="M577.073,641.447a2.973,2.973,0,1,1,2.974-2.973A2.986,2.986,0,0,1,577.073,641.447Zm0-4.723a1.807,1.807,0,1,0,1.807,1.807A1.816,1.816,0,0,0,577.073,636.724Z" transform="translate(-574.1 -635.5)"/>
            </g>
          </g>
          <g id="LINE_1385_" transform="translate(251.229 247.265)">
            <g id="Group_3095" data-name="Group 3095">
              <path id="Path_1700" data-name="Path 1700" class="cls-3" d="M699.782,644.866h-2.8a.583.583,0,1,1,0-1.166h2.8a.583.583,0,0,1,0,1.166Z" transform="translate(-696.4 -643.7)"/>
            </g>
          </g>
          <g id="CIRCLE_162_" transform="translate(222.719 247.206)">
            <g id="Group_3096" data-name="Group 3096">
              <path id="Path_1701" data-name="Path 1701" class="cls-3" d="M651.056,650.713a3.557,3.557,0,1,1,3.557-3.557A3.649,3.649,0,0,1,651.056,650.713Zm0-5.947a2.39,2.39,0,1,0,2.39,2.39A2.481,2.481,0,0,0,651.056,644.766Z" transform="translate(-647.5 -643.6)"/>
            </g>
          </g>
          <g id="ARC_164_" transform="translate(219.979 244.466)">
            <g id="Group_3097" data-name="Group 3097" transform="translate(0)">
              <path id="Path_1702" data-name="Path 1702" class="cls-3" d="M643.383,645.721h0a.584.584,0,0,1-.583-.583,6.334,6.334,0,0,1,6.3-6.238.583.583,0,0,1,0,1.166,5.164,5.164,0,0,0-5.131,5.072A.584.584,0,0,1,643.383,645.721Z" transform="translate(-642.8 -638.9)"/>
            </g>
          </g>
          <g id="LINE_1386_" transform="translate(251.288 246.565)">
            <g id="Group_3098" data-name="Group 3098">
              <path id="Path_1703" data-name="Path 1703" class="cls-3" d="M697.083,645.007a.551.551,0,0,1-.583-.583v-1.341a.583.583,0,1,1,1.166,0v1.341A.584.584,0,0,1,697.083,645.007Z" transform="translate(-696.5 -642.5)"/>
            </g>
          </g>
          <g id="LWPOLYLINE_120_" transform="translate(46.351 124.653)">
            <g id="Group_3099" data-name="Group 3099">
              <path id="Path_1704" data-name="Path 1704" class="cls-3" d="M385.171,461.969H345.583a.551.551,0,0,1-.583-.583v-27.4a.551.551,0,0,1,.583-.583h39.588a.551.551,0,0,1,.583.583v27.4A.584.584,0,0,1,385.171,461.969Zm-39-1.166h38.422V434.566H346.166Z" transform="translate(-345 -433.4)"/>
            </g>
          </g>
          <g id="LINE_1387_" transform="translate(46.351 130.191)">
            <g id="Group_3100" data-name="Group 3100">
              <path id="Path_1705" data-name="Path 1705" class="cls-3" d="M385.171,444.066H345.583a.583.583,0,1,1,0-1.166h39.588a.583.583,0,0,1,0,1.166Z" transform="translate(-345 -442.9)"/>
            </g>
          </g>
          <g id="LINE_1388_" transform="translate(74.395 136.605)">
            <g id="Group_3101" data-name="Group 3101">
              <path id="Path_1706" data-name="Path 1706" class="cls-3" d="M393.683,459.555a.551.551,0,0,1-.583-.583v-4.489a.583.583,0,0,1,1.166,0v4.489A.584.584,0,0,1,393.683,459.555Z" transform="translate(-393.1 -453.9)"/>
            </g>
          </g>
          <g id="LINE_1389_" transform="translate(73.014 134.233)">
            <g id="Group_3102" data-name="Group 3102">
              <path id="Path_1707" data-name="Path 1707" class="cls-3" d="M391.3,453.369a.437.437,0,0,1-.292-.058.573.573,0,0,1-.175-.816l1.4-2.39a.59.59,0,1,1,.991.641l-1.4,2.39A.868.868,0,0,1,391.3,453.369Z" transform="translate(-390.731 -449.831)"/>
            </g>
          </g>
          <g id="LINE_1390_" transform="translate(74.369 134.188)">
            <g id="Group_3103" data-name="Group 3103">
              <path id="Path_1708" data-name="Path 1708" class="cls-3" d="M395.064,453.338a.7.7,0,0,1-.525-.292l-1.4-2.39a.59.59,0,0,1,.991-.641l1.4,2.39a.628.628,0,0,1-.175.816A.445.445,0,0,1,395.064,453.338Z" transform="translate(-393.056 -449.756)"/>
            </g>
          </g>
          <g id="LINE_1391_" transform="translate(79.992 136.605)">
            <g id="Group_3104" data-name="Group 3104">
              <path id="Path_1709" data-name="Path 1709" class="cls-3" d="M403.283,459.555a.551.551,0,0,1-.583-.583v-4.489a.583.583,0,0,1,1.166,0v4.489A.627.627,0,0,1,403.283,459.555Z" transform="translate(-402.7 -453.9)"/>
            </g>
          </g>
          <g id="LINE_1392_" transform="translate(78.611 134.233)">
            <g id="Group_3105" data-name="Group 3105">
              <path id="Path_1710" data-name="Path 1710" class="cls-3" d="M400.9,453.369a.437.437,0,0,1-.292-.058.574.574,0,0,1-.175-.816l1.4-2.39a.59.59,0,1,1,.991.641l-1.4,2.39A1.047,1.047,0,0,1,400.9,453.369Z" transform="translate(-400.331 -449.831)"/>
            </g>
          </g>
          <g id="LINE_1393_" transform="translate(79.966 134.188)">
            <g id="Group_3106" data-name="Group 3106">
              <path id="Path_1711" data-name="Path 1711" class="cls-3" d="M404.664,453.338a.7.7,0,0,1-.525-.292l-1.4-2.39a.59.59,0,0,1,.991-.641l1.4,2.39a.628.628,0,0,1-.175.816A.445.445,0,0,1,404.664,453.338Z" transform="translate(-402.656 -449.756)"/>
            </g>
          </g>
          <g id="LWPOLYLINE_121_" transform="translate(72.996 144.126)">
            <g id="Group_3107" data-name="Group 3107">
              <path id="Path_1712" data-name="Path 1712" class="cls-3" d="M399.679,473.447h-8.4a.551.551,0,0,1-.583-.583v-5.481a.551.551,0,0,1,.583-.583h8.4a.551.551,0,0,1,.583.583v5.481A.584.584,0,0,1,399.679,473.447Zm-7.813-1.166h7.23v-4.314h-7.23Z" transform="translate(-390.7 -466.8)"/>
            </g>
          </g>
          <g id="LINE_1394_" transform="translate(72.996 136.605)">
            <g id="Group_3108" data-name="Group 3108">
              <path id="Path_1713" data-name="Path 1713" class="cls-3" d="M394.082,455.066h-2.8a.583.583,0,0,1,0-1.166h2.8a.583.583,0,0,1,0,1.166Z" transform="translate(-390.7 -453.9)"/>
            </g>
          </g>
          <g id="LINE_1395_" transform="translate(78.593 136.605)">
            <g id="Group_3109" data-name="Group 3109">
              <path id="Path_1714" data-name="Path 1714" class="cls-3" d="M403.682,455.066h-2.8a.583.583,0,1,1,0-1.166h2.8a.583.583,0,1,1,0,1.166Z" transform="translate(-400.3 -453.9)"/>
            </g>
          </g>
          <g id="Group_3155" data-name="Group 3155" transform="translate(287.436 215.081)">
            <g id="LWPOLYLINE_122_" transform="translate(76.028 31.076)">
              <g id="Group_3110" data-name="Group 3110">
                <path id="Path_1715" data-name="Path 1715" class="cls-3" d="M920.559,674.042H889.483a.551.551,0,0,1-.583-.583V642.383a.551.551,0,0,1,.583-.583h31.076a.551.551,0,0,1,.583.583v31.076A.627.627,0,0,1,920.559,674.042Zm-30.493-1.166h29.91V642.966h-29.91Z" transform="translate(-888.9 -641.8)"/>
              </g>
            </g>
            <g id="LWPOLYLINE_123_" transform="translate(31.134 31.076)">
              <g id="Group_3111" data-name="Group 3111">
                <path id="Path_1716" data-name="Path 1716" class="cls-3" d="M857.377,674.042H812.483a.551.551,0,0,1-.583-.583V642.383a.551.551,0,0,1,.583-.583h44.894a.551.551,0,0,1,.583.583v31.076A.627.627,0,0,1,857.377,674.042Zm-44.369-1.166h43.728V642.966H813.008Z" transform="translate(-811.9 -641.8)"/>
              </g>
            </g>
            <g id="LINE_1397_" transform="translate(31.134 37.314)">
              <g id="Group_3112" data-name="Group 3112">
                <path id="Path_1717" data-name="Path 1717" class="cls-3" d="M857.377,653.666H812.483a.583.583,0,0,1,0-1.166h44.894a.551.551,0,0,1,.583.583A.584.584,0,0,1,857.377,653.666Z" transform="translate(-811.9 -652.5)"/>
              </g>
            </g>
            <g id="LINE_1398_" transform="translate(62.909 44.602)">
              <g id="Group_3113" data-name="Group 3113">
                <path id="Path_1718" data-name="Path 1718" class="cls-3" d="M866.983,671.238a.551.551,0,0,1-.583-.583v-5.072a.583.583,0,0,1,1.166,0v5.072A.584.584,0,0,1,866.983,671.238Z" transform="translate(-866.4 -665)"/>
              </g>
            </g>
            <g id="LINE_1399_" transform="translate(61.353 41.938)">
              <g id="Group_3114" data-name="Group 3114">
                <path id="Path_1719" data-name="Path 1719" class="cls-3" d="M864.3,664.261A.526.526,0,0,1,864,664.2a.573.573,0,0,1-.175-.816L865.4,660.7a.59.59,0,0,1,.991.641l-1.574,2.682A.868.868,0,0,1,864.3,664.261Z" transform="translate(-863.731 -660.431)"/>
              </g>
            </g>
            <g id="LINE_1400_" transform="translate(62.942 41.894)">
              <g id="Group_3115" data-name="Group 3115">
                <path id="Path_1720" data-name="Path 1720" class="cls-3" d="M868.639,664.229a.7.7,0,0,1-.525-.291l-1.574-2.682a.59.59,0,0,1,.991-.641l1.574,2.682a.628.628,0,0,1-.175.816A.985.985,0,0,1,868.639,664.229Z" transform="translate(-866.456 -660.356)"/>
              </g>
            </g>
            <g id="LINE_1401_" transform="translate(69.264 44.602)">
              <g id="Group_3116" data-name="Group 3116">
                <path id="Path_1721" data-name="Path 1721" class="cls-3" d="M877.883,671.238a.551.551,0,0,1-.583-.583v-5.072a.583.583,0,0,1,1.166,0v5.072A.627.627,0,0,1,877.883,671.238Z" transform="translate(-877.3 -665)"/>
              </g>
            </g>
            <g id="LINE_1402_" transform="translate(67.65 41.938)">
              <g id="Group_3117" data-name="Group 3117">
                <path id="Path_1722" data-name="Path 1722" class="cls-3" d="M875.1,664.261a.526.526,0,0,1-.292-.058.573.573,0,0,1-.175-.816L876.2,660.7a.59.59,0,1,1,.991.641l-1.574,2.682A.739.739,0,0,1,875.1,664.261Z" transform="translate(-874.531 -660.431)"/>
              </g>
            </g>
            <g id="LINE_1403_" transform="translate(69.239 41.894)">
              <g id="Group_3118" data-name="Group 3118">
                <path id="Path_1723" data-name="Path 1723" class="cls-3" d="M879.439,664.229a.7.7,0,0,1-.525-.291l-1.574-2.682a.59.59,0,1,1,.991-.641l1.574,2.682a.628.628,0,0,1-.175.816A.446.446,0,0,1,879.439,664.229Z" transform="translate(-877.255 -660.356)"/>
              </g>
            </g>
            <g id="LWPOLYLINE_124_" transform="translate(61.335 53.114)">
              <g id="Group_3119" data-name="Group 3119">
                <path id="Path_1724" data-name="Path 1724" class="cls-3" d="M873.786,687h-9.5a.551.551,0,0,1-.583-.583v-6.239a.551.551,0,0,1,.583-.583h9.5a.551.551,0,0,1,.583.583v6.239A.584.584,0,0,1,873.786,687Zm-8.92-1.166H873.2v-5.072h-8.337Z" transform="translate(-863.7 -679.6)"/>
              </g>
            </g>
            <g id="LINE_1404_" transform="translate(61.335 44.602)">
              <g id="Group_3120" data-name="Group 3120">
                <path id="Path_1725" data-name="Path 1725" class="cls-3" d="M867.49,666.166h-3.207a.583.583,0,1,1,0-1.166h3.207a.551.551,0,0,1,.583.583A.627.627,0,0,1,867.49,666.166Z" transform="translate(-863.7 -665)"/>
              </g>
            </g>
            <g id="LINE_1405_" transform="translate(67.632 44.602)">
              <g id="Group_3121" data-name="Group 3121">
                <path id="Path_1726" data-name="Path 1726" class="cls-3" d="M878.29,666.166h-3.207a.583.583,0,1,1,0-1.166h3.207a.551.551,0,0,1,.583.583A.584.584,0,0,1,878.29,666.166Z" transform="translate(-874.5 -665)"/>
              </g>
            </g>
            <g id="LWPOLYLINE_125_" transform="translate(88.038 45.593)">
              <g id="Group_3122" data-name="Group 3122">
                <path id="Path_1727" data-name="Path 1727" class="cls-3" d="M924.076,673.58H910.083A.551.551,0,0,1,909.5,673v-5.714a.551.551,0,0,1,.583-.583h13.993a.551.551,0,0,1,.583.583V673A.551.551,0,0,1,924.076,673.58Zm-13.351-1.166h12.827v-4.548H910.724Z" transform="translate(-909.5 -666.7)"/>
              </g>
            </g>
            <g id="LINE_1406_" transform="translate(88.038 55.563)">
              <g id="Group_3123" data-name="Group 3123">
                <path id="Path_1728" data-name="Path 1728" class="cls-3" d="M924.076,684.966H910.083a.583.583,0,1,1,0-1.166h13.993a.583.583,0,0,1,0,1.166Z" transform="translate(-909.5 -683.8)"/>
              </g>
            </g>
            <g id="LWPOLYLINE_126_" transform="translate(0 31.076)">
              <g id="Group_3124" data-name="Group 3124">
                <path id="Path_1729" data-name="Path 1729" class="cls-3" d="M790.159,674.042H759.083a.551.551,0,0,1-.583-.583V642.383a.551.551,0,0,1,.583-.583h31.076a.551.551,0,0,1,.583.583v31.076A.584.584,0,0,1,790.159,674.042Zm-30.434-1.166h29.91V642.966h-29.91Z" transform="translate(-758.5 -641.8)"/>
              </g>
            </g>
            <g id="LINE_1407_" transform="translate(18.016 44.602)">
              <g id="Group_3125" data-name="Group 3125">
                <path id="Path_1730" data-name="Path 1730" class="cls-3" d="M789.983,671.238a.551.551,0,0,1-.583-.583v-5.072a.583.583,0,0,1,1.166,0v5.072A.584.584,0,0,1,789.983,671.238Z" transform="translate(-789.4 -665)"/>
              </g>
            </g>
            <g id="LINE_1408_" transform="translate(16.46 41.938)">
              <g id="Group_3126" data-name="Group 3126">
                <path id="Path_1731" data-name="Path 1731" class="cls-3" d="M787.3,664.261A.526.526,0,0,1,787,664.2a.574.574,0,0,1-.175-.816L788.4,660.7a.59.59,0,1,1,.991.641l-1.574,2.682A1.048,1.048,0,0,1,787.3,664.261Z" transform="translate(-786.731 -660.431)"/>
              </g>
            </g>
            <g id="LINE_1409_" transform="translate(18.048 41.894)">
              <g id="Group_3127" data-name="Group 3127">
                <path id="Path_1732" data-name="Path 1732" class="cls-3" d="M791.639,664.229a.7.7,0,0,1-.525-.291l-1.574-2.682a.59.59,0,0,1,.991-.641l1.574,2.682a.628.628,0,0,1-.175.816A.986.986,0,0,1,791.639,664.229Z" transform="translate(-789.456 -660.356)"/>
              </g>
            </g>
            <g id="LINE_1410_" transform="translate(24.371 44.602)">
              <g id="Group_3128" data-name="Group 3128">
                <path id="Path_1733" data-name="Path 1733" class="cls-3" d="M800.883,671.238a.551.551,0,0,1-.583-.583v-5.072a.583.583,0,0,1,1.166,0v5.072A.627.627,0,0,1,800.883,671.238Z" transform="translate(-800.3 -665)"/>
              </g>
            </g>
            <g id="LINE_1411_" transform="translate(22.757 41.938)">
              <g id="Group_3129" data-name="Group 3129">
                <path id="Path_1734" data-name="Path 1734" class="cls-3" d="M798.1,664.261a.526.526,0,0,1-.292-.058.573.573,0,0,1-.175-.816L799.2,660.7a.59.59,0,0,1,.991.641l-1.574,2.682A.739.739,0,0,1,798.1,664.261Z" transform="translate(-797.531 -660.431)"/>
              </g>
            </g>
            <g id="LINE_1412_" transform="translate(24.345 41.894)">
              <g id="Group_3130" data-name="Group 3130">
                <path id="Path_1735" data-name="Path 1735" class="cls-3" d="M802.439,664.229a.7.7,0,0,1-.525-.291l-1.574-2.682a.59.59,0,0,1,.991-.641l1.574,2.682a.628.628,0,0,1-.175.816A.446.446,0,0,1,802.439,664.229Z" transform="translate(-800.255 -660.356)"/>
              </g>
            </g>
            <g id="LWPOLYLINE_127_" transform="translate(16.442 53.114)">
              <g id="Group_3131" data-name="Group 3131">
                <path id="Path_1736" data-name="Path 1736" class="cls-3" d="M796.786,687h-9.5a.551.551,0,0,1-.583-.583v-6.239a.551.551,0,0,1,.583-.583h9.5a.551.551,0,0,1,.583.583v6.239A.584.584,0,0,1,796.786,687Zm-8.92-1.166H796.2v-5.072h-8.337Z" transform="translate(-786.7 -679.6)"/>
              </g>
            </g>
            <g id="LINE_1413_" transform="translate(16.442 44.602)">
              <g id="Group_3132" data-name="Group 3132">
                <path id="Path_1737" data-name="Path 1737" class="cls-3" d="M790.49,666.166h-3.207a.583.583,0,0,1,0-1.166h3.207a.551.551,0,0,1,.583.583A.627.627,0,0,1,790.49,666.166Z" transform="translate(-786.7 -665)"/>
              </g>
            </g>
            <g id="LINE_1414_" transform="translate(22.738 44.602)">
              <g id="Group_3133" data-name="Group 3133">
                <path id="Path_1738" data-name="Path 1738" class="cls-3" d="M801.29,666.166h-3.207a.583.583,0,1,1,0-1.166h3.207a.551.551,0,0,1,.583.583A.584.584,0,0,1,801.29,666.166Z" transform="translate(-797.5 -665)"/>
              </g>
            </g>
            <g id="LINE_1415_" transform="translate(15.567 31.076)">
              <g id="Group_3134" data-name="Group 3134">
                <path id="Path_1739" data-name="Path 1739" class="cls-3" d="M785.783,647.455a.551.551,0,0,1-.583-.583v-4.489a.583.583,0,0,1,1.166,0v4.489A.584.584,0,0,1,785.783,647.455Z" transform="translate(-785.2 -641.8)"/>
              </g>
            </g>
            <g id="LINE_1416_" transform="translate(15.567 35.565)">
              <g id="Group_3135" data-name="Group 3135">
                <path id="Path_1740" data-name="Path 1740" class="cls-3" d="M801.292,650.666H785.783a.583.583,0,0,1,0-1.166h15.509a.551.551,0,0,1,.583.583A.584.584,0,0,1,801.292,650.666Z" transform="translate(-785.2 -649.5)"/>
              </g>
            </g>
            <g id="LINE_1417_" transform="translate(0.058 35.565)">
              <g id="Group_3136" data-name="Group 3136">
                <path id="Path_1741" data-name="Path 1741" class="cls-3" d="M774.692,650.666H759.183a.583.583,0,1,1,0-1.166h15.509a.551.551,0,0,1,.583.583A.584.584,0,0,1,774.692,650.666Z" transform="translate(-758.6 -649.5)"/>
              </g>
            </g>
            <g id="LWPOLYLINE_128_" transform="translate(59.586 0)">
              <g id="Group_3137" data-name="Group 3137">
                <path id="Path_1742" data-name="Path 1742" class="cls-3" d="M892.359,620.742H861.283a.551.551,0,0,1-.583-.583V589.083a.551.551,0,0,1,.583-.583h31.076a.551.551,0,0,1,.583.583v31.076A.584.584,0,0,1,892.359,620.742Zm-30.493-1.166h29.91v-29.91h-29.91Z" transform="translate(-860.7 -588.5)"/>
              </g>
            </g>
            <g id="LINE_1418_" transform="translate(59.586 15.509)">
              <g id="Group_3138" data-name="Group 3138">
                <path id="Path_1743" data-name="Path 1743" class="cls-3" d="M892.359,616.266H861.283a.583.583,0,1,1,0-1.166h31.076a.583.583,0,0,1,0,1.166Z" transform="translate(-860.7 -615.1)"/>
              </g>
            </g>
            <g id="LWPOLYLINE_129_" transform="translate(63.609 4.956)">
              <g id="Group_3139" data-name="Group 3139">
                <path id="Path_1744" data-name="Path 1744" class="cls-3" d="M881.243,603.821h-13.06a.551.551,0,0,1-.583-.583v-5.655a.551.551,0,0,1,.583-.583h13.06a.551.551,0,0,1,.583.583v5.655A.627.627,0,0,1,881.243,603.821Zm-12.477-1.166H880.66v-4.489H868.766Z" transform="translate(-867.6 -597)"/>
              </g>
            </g>
            <g id="LWPOLYLINE_130_" transform="translate(11.661 0)">
              <g id="Group_3140" data-name="Group 3140">
                <path id="Path_1745" data-name="Path 1745" class="cls-3" d="M827.008,620.742H779.083a.551.551,0,0,1-.583-.583V589.083a.551.551,0,0,1,.583-.583h47.925a.551.551,0,0,1,.583.583v31.076A.584.584,0,0,1,827.008,620.742Zm-47.342-1.166h46.759v-29.91H779.666Z" transform="translate(-778.5 -588.5)"/>
              </g>
            </g>
            <g id="LINE_1419_" transform="translate(11.661 6.297)">
              <g id="Group_3141" data-name="Group 3141">
                <path id="Path_1746" data-name="Path 1746" class="cls-3" d="M827.008,600.466H779.083a.583.583,0,0,1,0-1.166h47.925a.583.583,0,0,1,0,1.166Z" transform="translate(-778.5 -599.3)"/>
              </g>
            </g>
            <g id="LINE_1420_" transform="translate(46.526 13.526)">
              <g id="Group_3142" data-name="Group 3142">
                <path id="Path_1747" data-name="Path 1747" class="cls-3" d="M838.883,617.938a.551.551,0,0,1-.583-.583v-5.072a.583.583,0,1,1,1.166,0v5.072A.584.584,0,0,1,838.883,617.938Z" transform="translate(-838.3 -611.7)"/>
              </g>
            </g>
            <g id="LINE_1421_" transform="translate(44.912 10.863)">
              <g id="Group_3143" data-name="Group 3143">
                <path id="Path_1748" data-name="Path 1748" class="cls-3" d="M836.1,610.961a.525.525,0,0,1-.291-.058.573.573,0,0,1-.175-.816L837.2,607.4a.59.59,0,0,1,.991.641l-1.574,2.682A.739.739,0,0,1,836.1,610.961Z" transform="translate(-835.531 -607.131)"/>
              </g>
            </g>
            <g id="LINE_1422_" transform="translate(46.5 10.819)">
              <g id="Group_3144" data-name="Group 3144">
                <path id="Path_1749" data-name="Path 1749" class="cls-3" d="M840.439,610.929a.7.7,0,0,1-.525-.292l-1.574-2.682a.59.59,0,1,1,.991-.641L840.905,610a.628.628,0,0,1-.175.816A.446.446,0,0,1,840.439,610.929Z" transform="translate(-838.255 -607.056)"/>
              </g>
            </g>
            <g id="LINE_1423_" transform="translate(52.823 13.526)">
              <g id="Group_3145" data-name="Group 3145">
                <path id="Path_1750" data-name="Path 1750" class="cls-3" d="M849.683,617.938a.551.551,0,0,1-.583-.583v-5.072a.583.583,0,1,1,1.166,0v5.072A.551.551,0,0,1,849.683,617.938Z" transform="translate(-849.1 -611.7)"/>
              </g>
            </g>
            <g id="LINE_1424_" transform="translate(51.267 10.863)">
              <g id="Group_3146" data-name="Group 3146">
                <path id="Path_1751" data-name="Path 1751" class="cls-3" d="M847,610.961a.525.525,0,0,1-.291-.058.573.573,0,0,1-.175-.816L848.1,607.4a.59.59,0,1,1,.991.641l-1.574,2.682A.869.869,0,0,1,847,610.961Z" transform="translate(-846.431 -607.131)"/>
              </g>
            </g>
            <g id="LINE_1425_" transform="translate(52.855 10.819)">
              <g id="Group_3147" data-name="Group 3147">
                <path id="Path_1752" data-name="Path 1752" class="cls-3" d="M851.339,610.929a.7.7,0,0,1-.525-.292l-1.574-2.682a.59.59,0,1,1,.991-.641L851.8,610a.628.628,0,0,1-.175.816C851.514,610.871,851.455,610.929,851.339,610.929Z" transform="translate(-849.155 -607.056)"/>
              </g>
            </g>
            <g id="LWPOLYLINE_131_" transform="translate(38.597 19.765)">
              <g id="Group_3148" data-name="Group 3148">
                <path id="Path_1753" data-name="Path 1753" class="cls-3" d="M841.142,629.8H825.283a.551.551,0,0,1-.583-.583v-6.238a.551.551,0,0,1,.583-.583h15.859a.551.551,0,0,1,.583.583v6.238A.584.584,0,0,1,841.142,629.8Zm-15.276-1.166h14.692v-5.072H825.866Z" transform="translate(-824.7 -622.4)"/>
              </g>
            </g>
            <g id="LINE_1426_" transform="translate(44.894 13.526)">
              <g id="Group_3149" data-name="Group 3149">
                <path id="Path_1754" data-name="Path 1754" class="cls-3" d="M839.29,612.866h-3.207a.583.583,0,0,1,0-1.166h3.207a.551.551,0,0,1,.583.583A.584.584,0,0,1,839.29,612.866Z" transform="translate(-835.5 -611.7)"/>
              </g>
            </g>
            <g id="LINE_1427_" transform="translate(51.249 13.526)">
              <g id="Group_3150" data-name="Group 3150">
                <path id="Path_1755" data-name="Path 1755" class="cls-3" d="M850.19,612.866h-3.207a.583.583,0,0,1,0-1.166h3.207a.551.551,0,0,1,.583.583A.627.627,0,0,1,850.19,612.866Z" transform="translate(-846.4 -611.7)"/>
              </g>
            </g>
            <g id="LINE_1428_" transform="translate(40.171 13.526)">
              <g id="Group_3151" data-name="Group 3151">
                <path id="Path_1756" data-name="Path 1756" class="cls-3" d="M827.983,617.938a.551.551,0,0,1-.583-.583v-5.072a.583.583,0,1,1,1.166,0v5.072A.551.551,0,0,1,827.983,617.938Z" transform="translate(-827.4 -611.7)"/>
              </g>
            </g>
            <g id="LINE_1429_" transform="translate(38.615 10.863)">
              <g id="Group_3152" data-name="Group 3152">
                <path id="Path_1757" data-name="Path 1757" class="cls-3" d="M825.3,610.961A.525.525,0,0,1,825,610.9a.573.573,0,0,1-.175-.816L826.4,607.4a.59.59,0,1,1,.991.641l-1.574,2.682A.87.87,0,0,1,825.3,610.961Z" transform="translate(-824.731 -607.131)"/>
              </g>
            </g>
            <g id="LINE_1430_" transform="translate(40.203 10.819)">
              <g id="Group_3153" data-name="Group 3153">
                <path id="Path_1758" data-name="Path 1758" class="cls-3" d="M829.639,610.929a.7.7,0,0,1-.525-.292l-1.574-2.682a.59.59,0,1,1,.991-.641L830.105,610a.628.628,0,0,1-.175.816C829.814,610.871,829.755,610.929,829.639,610.929Z" transform="translate(-827.456 -607.056)"/>
              </g>
            </g>
            <g id="LINE_1431_" transform="translate(38.597 13.526)">
              <g id="Group_3154" data-name="Group 3154">
                <path id="Path_1759" data-name="Path 1759" class="cls-3" d="M828.49,612.866h-3.207a.583.583,0,1,1,0-1.166h3.207a.551.551,0,0,1,.583.583A.627.627,0,0,1,828.49,612.866Z" transform="translate(-824.7 -611.7)"/>
              </g>
            </g>
          </g>
          <g id="LINE_1436_" transform="translate(193.859 157.244)">
            <g id="Group_3156" data-name="Group 3156">
              <path id="Path_1760" data-name="Path 1760" class="cls-3" d="M671.754,491.632H599.166a1.166,1.166,0,1,1,0-2.332h72.588a1.166,1.166,0,1,1,0,2.332Z" transform="translate(-598 -489.3)"/>
            </g>
          </g>
          <g id="LINE_1438_" transform="translate(121.271 157.244)">
            <g id="Group_3157" data-name="Group 3157">
              <path id="Path_1761" data-name="Path 1761" class="cls-3" d="M547.254,491.632H474.666a1.166,1.166,0,0,1,0-2.332h72.588a1.166,1.166,0,0,1,0,2.332Z" transform="translate(-473.5 -489.3)"/>
            </g>
          </g>
          <g id="LINE_1440_" transform="translate(121.271 157.244)">
            <g id="Group_3158" data-name="Group 3158">
              <path id="Path_1762" data-name="Path 1762" class="cls-3" d="M474.666,611.037a1.17,1.17,0,0,1-1.166-1.166V490.466a1.166,1.166,0,1,1,2.332,0V609.871A1.17,1.17,0,0,1,474.666,611.037Z" transform="translate(-473.5 -489.3)"/>
            </g>
          </g>
          <g id="LINE_1441_" transform="translate(266.447 157.244)">
            <g id="Group_3159" data-name="Group 3159">
              <path id="Path_1763" data-name="Path 1763" class="cls-3" d="M723.666,611.037a1.17,1.17,0,0,1-1.166-1.166V490.466a1.166,1.166,0,1,1,2.332,0V609.871A1.17,1.17,0,0,1,723.666,611.037Z" transform="translate(-722.5 -489.3)"/>
            </g>
          </g>
          <g id="LINE_1442_" transform="translate(194.442)">
            <g id="Group_3160" data-name="Group 3160">
              <path id="Path_1764" data-name="Path 1764" class="cls-3" d="M599.583,255.573a.551.551,0,0,1-.583-.583V220.183a.583.583,0,1,1,1.166,0V254.99A.584.584,0,0,1,599.583,255.573Z" transform="translate(-599 -219.6)"/>
            </g>
          </g>
          <g id="LINE_1443_" transform="translate(188.611 34.807)">
            <g id="Group_3161" data-name="Group 3161">
              <path id="Path_1765" data-name="Path 1765" class="cls-3" d="M595.413,280.466h-5.83a.583.583,0,0,1,0-1.166h5.83a.551.551,0,0,1,.583.583A.584.584,0,0,1,595.413,280.466Z" transform="translate(-589 -279.3)"/>
            </g>
          </g>
          <g id="LINE_1444_" transform="translate(188.611 34.807)">
            <g id="Group_3162" data-name="Group 3162">
              <path id="Path_1766" data-name="Path 1766" class="cls-3" d="M589.583,292.477a.551.551,0,0,1-.583-.583v-12.01a.583.583,0,1,1,1.166,0v12.01A.551.551,0,0,1,589.583,292.477Z" transform="translate(-589 -279.3)"/>
            </g>
          </g>
          <g id="LINE_1445_" transform="translate(175.217 46.833)">
            <g id="Group_3163" data-name="Group 3163">
              <path id="Path_1767" data-name="Path 1767" class="cls-3" d="M566.594,318.276a.829.829,0,0,1-.35-.117.627.627,0,0,1-.117-.816l13.41-17.2a.583.583,0,1,1,.933.7l-13.41,17.2A.53.53,0,0,1,566.594,318.276Z" transform="translate(-566.026 -299.926)"/>
            </g>
          </g>
          <g id="LINE_1446_" transform="translate(194.442 34.807)">
            <g id="Group_3164" data-name="Group 3164">
              <path id="Path_1768" data-name="Path 1768" class="cls-3" d="M605.413,280.466h-5.83a.583.583,0,0,1,0-1.166h5.83a.551.551,0,0,1,.583.583A.627.627,0,0,1,605.413,280.466Z" transform="translate(-599 -279.3)"/>
            </g>
          </g>
          <g id="LINE_1447_" transform="translate(200.272 34.807)">
            <g id="Group_3165" data-name="Group 3165" transform="translate(0)">
              <path id="Path_1769" data-name="Path 1769" class="cls-3" d="M609.583,292.477a.551.551,0,0,1-.583-.583v-12.01a.583.583,0,0,1,1.166,0v12.01A.584.584,0,0,1,609.583,292.477Z" transform="translate(-609 -279.3)"/>
            </g>
          </g>
          <g id="LINE_1448_" transform="translate(200.269 46.815)">
            <g id="Group_3166" data-name="Group 3166">
              <path id="Path_1770" data-name="Path 1770" class="cls-3" d="M622.991,318.264a.53.53,0,0,1-.466-.233l-13.41-17.2a.583.583,0,0,1,.933-.7l13.41,17.2a.57.57,0,0,1-.117.816A.829.829,0,0,1,622.991,318.264Z" transform="translate(-608.995 -299.895)"/>
            </g>
          </g>
          <g id="LINE_1449_" transform="translate(175.202 64.017)">
            <g id="Group_3167" data-name="Group 3167">
              <path id="Path_1771" data-name="Path 1771" class="cls-3" d="M605.063,330.566h-38.48a.583.583,0,0,1,0-1.166h38.48a.583.583,0,1,1,0,1.166Z" transform="translate(-566 -329.4)"/>
            </g>
          </g>
          <g id="LINE_1450_" transform="translate(194.442 76.786)">
            <g id="Group_3168" data-name="Group 3168">
              <path id="Path_1772" data-name="Path 1772" class="cls-3" d="M599.583,375.612a.551.551,0,0,1-.583-.583V351.883a.583.583,0,1,1,1.166,0v23.146A.551.551,0,0,1,599.583,375.612Z" transform="translate(-599 -351.3)"/>
            </g>
          </g>
          <g id="LINE_1451_" transform="translate(160.466 72.194)">
            <g id="Group_3169" data-name="Group 3169">
              <path id="Path_1773" data-name="Path 1773" class="cls-3" d="M541.294,365.1a.829.829,0,0,1-.35-.117.627.627,0,0,1-.117-.816L556.1,343.644a.583.583,0,1,1,.933.7L541.76,364.866A.53.53,0,0,1,541.294,365.1Z" transform="translate(-540.726 -343.426)"/>
            </g>
          </g>
          <g id="LINE_1452_" transform="translate(177.348 75.258)">
            <g id="Group_3170" data-name="Group 3170">
              <path id="Path_1774" data-name="Path 1774" class="cls-3" d="M570.275,372.655H570.1a.6.6,0,0,1-.408-.7l6.3-22.855a.573.573,0,0,1,1.108.292l-6.3,22.855A.471.471,0,0,1,570.275,372.655Z" transform="translate(-569.681 -348.681)"/>
            </g>
          </g>
          <g id="LINE_1453_" transform="translate(187.854 82.958)">
            <g id="Group_3171" data-name="Group 3171">
              <path id="Path_1775" data-name="Path 1775" class="cls-3" d="M588.283,369.707h0a.636.636,0,0,1-.583-.641l.583-6.647a.557.557,0,0,1,.641-.525.527.527,0,0,1,.525.641l-.583,6.647A.575.575,0,0,1,588.283,369.707Z" transform="translate(-587.7 -361.887)"/>
            </g>
          </g>
          <g id="LINE_1454_" transform="translate(173.641 80.705)">
            <g id="Group_3172" data-name="Group 3172">
              <path id="Path_1776" data-name="Path 1776" class="cls-3" d="M563.893,365.822a.351.351,0,0,1-.233-.058.579.579,0,0,1-.292-.758l3.207-6.647a.574.574,0,0,1,1.049.466l-3.207,6.647A.623.623,0,0,1,563.893,365.822Z" transform="translate(-563.323 -358.023)"/>
            </g>
          </g>
          <g id="LINE_1455_" transform="translate(213.172 72.194)">
            <g id="Group_3173" data-name="Group 3173" transform="translate(0)">
              <path id="Path_1777" data-name="Path 1777" class="cls-3" d="M646.969,365.1a.531.531,0,0,1-.466-.233l-15.275-20.523a.583.583,0,1,1,.933-.7l15.275,20.523a.627.627,0,0,1-.117.816A.428.428,0,0,1,646.969,365.1Z" transform="translate(-631.125 -343.426)"/>
            </g>
          </g>
          <g id="LINE_1456_" transform="translate(205.217 75.258)">
            <g id="Group_3174" data-name="Group 3174">
              <path id="Path_1778" data-name="Path 1778" class="cls-3" d="M624.372,372.655a.7.7,0,0,1-.583-.408l-6.3-22.855a.573.573,0,0,1,1.108-.292l6.3,22.855a.6.6,0,0,1-.408.7Z" transform="translate(-617.481 -348.681)"/>
            </g>
          </g>
          <g id="LINE_1457_" transform="translate(200.447 82.958)">
            <g id="Group_3175" data-name="Group 3175" transform="translate(0)">
              <path id="Path_1779" data-name="Path 1779" class="cls-3" d="M610.466,369.707a.575.575,0,0,1-.583-.525l-.583-6.647a.634.634,0,0,1,.525-.641.588.588,0,0,1,.641.525l.583,6.647a.636.636,0,0,1-.583.641Z" transform="translate(-609.3 -361.887)"/>
            </g>
          </g>
          <g id="LINE_1458_" transform="translate(212.063 80.705)">
            <g id="Group_3176" data-name="Group 3176">
              <path id="Path_1780" data-name="Path 1780" class="cls-3" d="M633,365.822a.56.56,0,0,1-.525-.35l-3.207-6.647a.574.574,0,0,1,1.05-.466l3.207,6.647a.579.579,0,0,1-.292.758C633.174,365.764,633.116,365.822,633,365.822Z" transform="translate(-629.223 -358.023)"/>
            </g>
          </g>
          <g id="LINE_1459_" transform="translate(188.611 46.818)">
            <g id="Group_3177" data-name="Group 3177">
              <path id="Path_1781" data-name="Path 1781" class="cls-3" d="M601.244,301.066H589.583a.583.583,0,0,1,0-1.166h11.661a.551.551,0,0,1,.583.583A.584.584,0,0,1,601.244,301.066Z" transform="translate(-589 -299.9)"/>
            </g>
          </g>
          <g id="LINE_1460_" transform="translate(183.423 53.464)">
            <g id="Group_3178" data-name="Group 3178">
              <path id="Path_1782" data-name="Path 1782" class="cls-3" d="M591.644,312.466H580.683a.583.583,0,0,1,0-1.166h10.961a.551.551,0,0,1,.583.583A.584.584,0,0,1,591.644,312.466Z" transform="translate(-580.1 -311.3)"/>
            </g>
          </g>
          <g id="LINE_1461_" transform="translate(180.041 57.779)">
            <g id="Group_3179" data-name="Group 3179">
              <path id="Path_1783" data-name="Path 1783" class="cls-3" d="M585.844,319.866H574.883a.583.583,0,0,1,0-1.166h10.961a.583.583,0,0,1,0,1.166Z" transform="translate(-574.3 -318.7)"/>
            </g>
          </g>
          <g id="Group_3180" data-name="Group 3180" transform="translate(274.726 149.023)">
            <path id="Path_1784" data-name="Path 1784" class="cls-3" d="M737.866,523.184a1.17,1.17,0,0,1-1.166-1.166V476.366a1.166,1.166,0,1,1,2.332,0v45.651A1.17,1.17,0,0,1,737.866,523.184Z" transform="translate(-736.7 -475.2)"/>
          </g>
          <g id="Group_3181" data-name="Group 3181" transform="translate(274.726 203.77)">
            <path id="Path_1785" data-name="Path 1785" class="cls-3" d="M737.866,590.439a1.169,1.169,0,0,1-1.166-1.166V570.266a1.166,1.166,0,0,1,2.332,0v19.007A1.169,1.169,0,0,1,737.866,590.439Z" transform="translate(-736.7 -569.1)"/>
          </g>
          <g id="Group_3182" data-name="Group 3182" transform="translate(201.438 149.023)">
            <path id="Path_1786" data-name="Path 1786" class="cls-3" d="M685.453,477.532H612.166a1.166,1.166,0,0,1,0-2.332H685.4a1.17,1.17,0,0,1,1.166,1.166A1.121,1.121,0,0,1,685.453,477.532Z" transform="translate(-611 -475.2)"/>
          </g>
          <g id="Group_3183" data-name="Group 3183" transform="translate(178.35 149.023)">
            <path id="Path_1787" data-name="Path 1787" class="cls-3" d="M581.37,477.532h-8.8a1.166,1.166,0,1,1,0-2.332h8.8a1.166,1.166,0,0,1,0,2.332Z" transform="translate(-571.4 -475.2)"/>
          </g>
          <g id="Group_3184" data-name="Group 3184" transform="translate(165.873 149.023)">
            <path id="Path_1788" data-name="Path 1788" class="cls-3" d="M554.723,477.532h-3.557a1.166,1.166,0,0,1,0-2.332h3.557a1.166,1.166,0,1,1,0,2.332Z" transform="translate(-550 -475.2)"/>
          </g>
          <g id="Group_3185" data-name="Group 3185" transform="translate(6.996 152.055)">
            <path id="Path_1789" data-name="Path 1789" class="cls-3" d="M278.083,487.338a.551.551,0,0,1-.583-.583v-5.772a.583.583,0,1,1,1.166,0v5.772A.584.584,0,0,1,278.083,487.338Z" transform="translate(-277.5 -480.4)"/>
          </g>
          <g id="Group_3186" data-name="Group 3186" transform="translate(6.996 193.8)">
            <path id="Path_1790" data-name="Path 1790" class="cls-3" d="M278.083,558.938a.551.551,0,0,1-.583-.583v-5.772a.583.583,0,0,1,1.166,0v5.772A.627.627,0,0,1,278.083,558.938Z" transform="translate(-277.5 -552)"/>
          </g>
          <g id="Group_3187" data-name="Group 3187" transform="translate(6.996 235.487)">
            <path id="Path_1791" data-name="Path 1791" class="cls-3" d="M278.083,630.438a.551.551,0,0,1-.583-.583v-5.772a.583.583,0,0,1,1.166,0v5.772A.584.584,0,0,1,278.083,630.438Z" transform="translate(-277.5 -623.5)"/>
          </g>
        </g>
        <g id="Group_3189" data-name="Group 3189" class="cls-2" transform="translate(76.902 0)">
          <path id="Path_1792" data-name="Path 1792" class="cls-3" d="M663.533,484.635H648.9a1.443,1.443,0,0,1-1.458-1.458V289.435l-210.767-83.2-210.825,83.2V483.177a1.443,1.443,0,0,1-1.458,1.458H209.758a1.443,1.443,0,0,1-1.458-1.458V278.532a1.438,1.438,0,0,1,.933-1.341l226.859-89.554a1.618,1.618,0,0,1,1.049,0l226.917,89.5a1.438,1.438,0,0,1,.933,1.341v204.7A1.443,1.443,0,0,1,663.533,484.635Zm-13.118-2.915h11.719v-202.2L436.674,190.494l-225.4,89.029V481.778h11.719V288.444a1.438,1.438,0,0,1,.933-1.341l212.283-83.782a1.618,1.618,0,0,1,1.049,0L649.482,287.1a1.438,1.438,0,0,1,.933,1.341Z" transform="translate(-208.3 -187.55)"/>
        </g>
      </g>
      <g id="Group_3604" data-name="Group 3604" transform="translate(659 230)">
        <g id="Path_481" data-name="Path 481" class="cls-4" transform="matrix(0.966, -0.259, 0.259, 0.966, 644.898, 138.965)">
          <path class="cls-14" d="M 9.189436912536621 12.07301712036133 L 1.775987505912781 7.355374336242676 L 9.189436912536621 1.963776230812073 L 9.189436912536621 12.07301712036133 Z"/>
          <path class="cls-15" d="M 8.189436912536621 3.927538871765137 L 3.551975727081299 7.300236701965332 L 8.189436912536621 10.25134372711182 L 8.189436912536621 3.927538871765137 M 10.18943691253662 3.814697265625e-06 L 10.18943691253662 13.89468383789063 L -3.814697265625e-06 7.41050386428833 L 10.18943691253662 3.814697265625e-06 Z"/>
        </g>
        <g id="Group_899" data-name="Group 899" transform="translate(607.198 22.438)">
          <rect id="Rectangle_793" data-name="Rectangle 793" class="cls-5" width="18.004" height="4.236" rx="2.118" transform="translate(2.182 2.355) rotate(31)"/>
          <rect id="Rectangle_794" data-name="Rectangle 794" class="cls-5" width="18.004" height="4.236" rx="2.118" transform="translate(15.259 2.182) rotate(121)"/>
        </g>
        <g id="Ellipse_12" data-name="Ellipse 12" class="cls-6" transform="translate(558.264 46.571)">
          <ellipse class="cls-14" cx="6.985" cy="6.985" rx="6.985" ry="6.985"/>
          <ellipse class="cls-16" cx="6.985" cy="6.985" rx="5.985" ry="5.985"/>
        </g>
        <g id="Group_900" data-name="Group 900" transform="translate(594.283 177.738) rotate(21)">
          <rect id="Rectangle_793-2" data-name="Rectangle 793" class="cls-7" width="14.993" height="3.528" rx="1.764" transform="translate(1.817 1.961) rotate(31)"/>
          <rect id="Rectangle_794-2" data-name="Rectangle 794" class="cls-7" width="14.993" height="3.528" rx="1.764" transform="translate(12.707 1.817) rotate(121)"/>
        </g>
        <g id="Group_901" data-name="Group 901" transform="translate(525.733 220.253) rotate(66)">
          <rect id="Rectangle_793-3" data-name="Rectangle 793" class="cls-7" width="14.993" height="3.528" rx="1.764" transform="translate(1.817 1.961) rotate(31)"/>
          <rect id="Rectangle_794-3" data-name="Rectangle 794" class="cls-7" width="14.993" height="3.528" rx="1.764" transform="translate(12.707 1.817) rotate(121)"/>
        </g>
        <g id="Path_482" data-name="Path 482" class="cls-4" transform="matrix(-0.602, 0.799, -0.799, -0.602, 204.373, 375.883)">
          <path class="cls-14" d="M 16.07488250732422 21.46224975585938 L 1.77599823474884 12.362961769104 L 16.07488250732422 1.963776230812073 L 16.07488250732422 21.46224975585938 Z"/>
          <path class="cls-17" d="M 15.07488346099854 3.92753791809082 L 3.551980972290039 12.30782794952393 L 15.07488346099854 19.64058113098145 L 15.07488346099854 3.92753791809082 M 17.07488250732422 3.814697265625e-06 L 17.07488250732422 23.2839241027832 L 3.814697265625e-06 12.41809368133545 L 17.07488250732422 3.814697265625e-06 Z"/>
        </g>
        <g id="Ellipse_13" data-name="Ellipse 13" class="cls-8" transform="translate(557.565 349.935)">
          <ellipse class="cls-14" cx="10.09" cy="10.09" rx="10.09" ry="10.09"/>
          <ellipse class="cls-16" cx="10.09" cy="10.09" rx="9.09" ry="9.09"/>
        </g>
        <g id="Ellipse_14" data-name="Ellipse 14" class="cls-9" transform="translate(139.012 23.041)">
          <ellipse class="cls-14" cx="6.775" cy="6.775" rx="6.775" ry="6.775"/>
          <ellipse class="cls-16" cx="6.775" cy="6.775" rx="5.775" ry="5.775"/>
        </g>
        <g id="Group_902" data-name="Group 902" transform="translate(66.595 63.986) rotate(-17)">
          <rect id="Rectangle_793-4" data-name="Rectangle 793" class="cls-10" width="9.299" height="2.188" rx="1.094" transform="translate(1.127 1.217) rotate(31)"/>
          <rect id="Rectangle_794-4" data-name="Rectangle 794" class="cls-10" width="9.299" height="2.188" rx="1.094" transform="translate(7.882 1.127) rotate(121)"/>
        </g>
        <g id="Group_903" data-name="Group 903" transform="matrix(0.719, -0.695, 0.695, 0.719, 31.549, 142.25)">
          <rect id="Rectangle_793-5" data-name="Rectangle 793" class="cls-5" width="17.932" height="4.219" rx="2.11" transform="translate(2.173 2.346) rotate(31)"/>
          <rect id="Rectangle_794-5" data-name="Rectangle 794" class="cls-5" width="17.931" height="4.219" rx="2.11" transform="translate(15.198 2.173) rotate(121)"/>
        </g>
        <g id="Group_904" data-name="Group 904" transform="translate(0 175.673) rotate(-29)">
          <rect id="Rectangle_793-6" data-name="Rectangle 793" class="cls-11" width="8.997" height="2.117" rx="1.058" transform="translate(1.09 1.177) rotate(31)"/>
          <rect id="Rectangle_794-6" data-name="Rectangle 794" class="cls-11" width="8.997" height="2.117" rx="1.059" transform="translate(7.625 1.09) rotate(121)"/>
        </g>
        <g id="Ellipse_15" data-name="Ellipse 15" class="cls-12" transform="translate(11.305 223.529)">
          <ellipse class="cls-14" cx="10.09" cy="10.09" rx="10.09" ry="10.09"/>
          <ellipse class="cls-16" cx="10.09" cy="10.09" rx="9.09" ry="9.09"/>
        </g>
        <g id="Group_905" data-name="Group 905" transform="translate(361.949 1.278) rotate(-5)">
          <rect id="Rectangle_793-7" data-name="Rectangle 793" class="cls-7" width="14.993" height="3.528" rx="1.764" transform="translate(1.817 1.961) rotate(31)"/>
          <rect id="Rectangle_794-7" data-name="Rectangle 794" class="cls-7" width="14.993" height="3.528" rx="1.764" transform="translate(12.707 1.817) rotate(121)"/>
        </g>
        <g id="Group_906" data-name="Group 906" transform="translate(262.437 11.705) rotate(-5)">
          <rect id="Rectangle_793-8" data-name="Rectangle 793" class="cls-7" width="8.579" height="2.019" rx="1.009" transform="translate(1.04 1.122) rotate(31)"/>
          <rect id="Rectangle_794-8" data-name="Rectangle 794" class="cls-7" width="8.579" height="2.019" rx="1.009" transform="translate(7.271 1.04) rotate(121)"/>
        </g>
        <g id="Group_907" data-name="Group 907" transform="matrix(0.875, -0.485, 0.485, 0.875, 143.306, 22.101)">
          <rect id="Rectangle_793-9" data-name="Rectangle 793" class="cls-7" width="8.579" height="2.019" rx="1.009" transform="translate(1.04 1.122) rotate(31)"/>
          <rect id="Rectangle_794-9" data-name="Rectangle 794" class="cls-7" width="8.579" height="2.019" rx="1.009" transform="translate(7.271 1.04) rotate(121)"/>
        </g>
        <g id="Group_908" data-name="Group 908" transform="matrix(0.875, -0.485, 0.485, 0.875, 192.979, 93.504)">
          <rect id="Rectangle_793-10" data-name="Rectangle 793" class="cls-7" width="8.579" height="2.019" rx="1.009" transform="translate(1.04 1.122) rotate(31)"/>
          <rect id="Rectangle_794-10" data-name="Rectangle 794" class="cls-7" width="8.579" height="2.019" rx="1.009" transform="translate(7.271 1.04) rotate(121)"/>
        </g>
        <g id="Group_909" data-name="Group 909" transform="matrix(0.875, -0.485, 0.485, 0.875, 81.216, 84.191)">
          <rect id="Rectangle_793-11" data-name="Rectangle 793" class="cls-7" width="8.579" height="2.019" rx="1.009" transform="translate(1.04 1.122) rotate(31)"/>
          <rect id="Rectangle_794-11" data-name="Rectangle 794" class="cls-7" width="8.579" height="2.019" rx="1.009" transform="translate(7.271 1.04) rotate(121)"/>
        </g>
        <g id="Group_910" data-name="Group 910" transform="matrix(0.875, -0.485, 0.485, 0.875, 99.875, 18.885)">
          <rect id="Rectangle_793-12" data-name="Rectangle 793" class="cls-7" width="8.579" height="2.019" rx="1.009" transform="translate(1.04 1.122) rotate(31)"/>
          <rect id="Rectangle_794-12" data-name="Rectangle 794" class="cls-7" width="8.579" height="2.019" rx="1.009" transform="translate(7.271 1.04) rotate(121)"/>
        </g>
        <g id="Group_911" data-name="Group 911" transform="matrix(0.875, -0.485, 0.485, 0.875, 192.979, 157.148)">
          <rect id="Rectangle_793-13" data-name="Rectangle 793" class="cls-13" width="8.579" height="2.019" rx="1.009" transform="translate(1.04 1.122) rotate(31)"/>
          <rect id="Rectangle_794-13" data-name="Rectangle 794" class="cls-13" width="8.579" height="2.019" rx="1.009" transform="translate(7.271 1.04) rotate(121)"/>
        </g>
        <g id="Group_912" data-name="Group 912" transform="matrix(0.875, -0.485, 0.485, 0.875, 569.031, 127.655)">
          <rect id="Rectangle_793-14" data-name="Rectangle 793" class="cls-13" width="8.579" height="2.019" rx="1.009" transform="translate(1.04 1.122) rotate(31)"/>
          <rect id="Rectangle_794-14" data-name="Rectangle 794" class="cls-13" width="8.579" height="2.019" rx="1.009" transform="translate(7.271 1.04) rotate(121)"/>
        </g>
        <g id="Group_913" data-name="Group 913" transform="translate(555.304 257.22) rotate(21)">
          <rect id="Rectangle_793-15" data-name="Rectangle 793" class="cls-7" width="9.791" height="2.304" rx="1.152" transform="translate(1.186 1.28) rotate(31)"/>
          <rect id="Rectangle_794-15" data-name="Rectangle 794" class="cls-7" width="9.791" height="2.304" rx="1.152" transform="translate(8.298 1.187) rotate(121)"/>
        </g>
        <g id="Group_914" data-name="Group 914" transform="translate(447.393 348.411) rotate(21)">
          <rect id="Rectangle_793-16" data-name="Rectangle 793" class="cls-7" width="7.863" height="1.85" rx="0.925" transform="translate(0.953 1.028) rotate(31)"/>
          <rect id="Rectangle_794-16" data-name="Rectangle 794" class="cls-7" width="7.863" height="1.85" rx="0.925" transform="translate(6.664 0.953) rotate(121)"/>
        </g>
        <g id="Ellipse_16" data-name="Ellipse 16" class="cls-6" transform="translate(109.166 353.93)">
          <ellipse class="cls-14" cx="8.261" cy="8.261" rx="8.261" ry="8.261"/>
          <ellipse class="cls-16" cx="8.261" cy="8.261" rx="7.261" ry="7.261"/>
        </g>
      </g>
    </g>
  </g>
</svg>
